<?xml version="1.0" standalone="no"?>
<!DOCTYPE svg PUBLIC "-//W3C//DTD SVG 1.1//EN" "http://www.w3.org/Graphics/SVG/1.1/DTD/svg11.dtd" >
<svg xmlns="http://www.w3.org/2000/svg" xmlns:xlink="http://www.w3.org/1999/xlink" version="1.1">
<metadata>
Created by FontForge 20201107 at Thu Jan 28 13:14:41 2021
 By www-data
Copyright 2020 The Archivo Project Authors (https://github.com/Omnibus-Type/Archivo)
</metadata>
<defs>
<font id="ArchivoSemiCondensed-Regular" horiz-adv-x="0" >
  <font-face 
    font-family="Archivo SemiCondensed"
    font-weight="400"
    font-stretch="semi-condensed"
    units-per-em="1000"
    panose-1="0 0 0 0 0 0 0 0 0 0"
    ascent="800"
    descent="-200"
    x-height="526"
    cap-height="686"
    bbox="-200 -394 1181 1084"
    underline-thickness="44"
    underline-position="-170"
    unicode-range="U+000D-FEFF"
  />
<missing-glyph horiz-adv-x="654" 
d="M77 0v700h500v-700h-500zM157 50h340l-170 255zM127 95l170 255l-170 255v-510zM527 95v510l-170 -255zM327 395l170 255h-340z" />
    <glyph glyph-name="fi" unicode="fi" horiz-adv-x="467" 
d="M81 0v455h-67v71h67v87q0 35 10 61.5t33 42t62 15.5q11 0 23 -1.5t23.5 -3.5t20.5 -6v-60h-46q-22 0 -32 -12.5t-10 -34.5v-88h88v-71h-88v-455h-84zM321 627v96h84v-96h-84zM321 0v526h84v-526h-84z" />
    <glyph glyph-name="fl" unicode="fl" horiz-adv-x="467" 
d="M81 0v455h-67v71h67v87q0 35 10 61.5t33 42t62 15.5q11 0 23 -1.5t23.5 -3.5t20.5 -6v-60h-46q-22 0 -32 -12.5t-10 -34.5v-88h88v-71h-88v-455h-84zM321 0v723h84v-723h-84z" />
    <glyph glyph-name="f_f" unicode="ff" horiz-adv-x="498" 
d="M81 0v455h-67v71h67v87q0 35 10 61.5t33 42t62 15.5q11 0 23 -1.5t23.5 -3.5t20.5 -6v-60h-46q-22 0 -32 -12.5t-10 -34.5v-88h156v87q0 35 10 61.5t33 42t62 15.5q11 0 23 -1.5t23.5 -3.5t19.5 -6v-60h-45q-22 0 -32 -12.5t-10 -34.5v-88h87v-71h-87v-455h-84v455h-156
v-455h-84z" />
    <glyph glyph-name="f_f_i" unicode="ffi" horiz-adv-x="707" 
d="M81 0v455h-67v71h67v87q0 35 10 61.5t33 42t62 15.5q11 0 23 -1.5t23.5 -3.5t20.5 -6v-60h-46q-22 0 -32 -12.5t-10 -34.5v-88h156v87q0 35 10 61.5t33 42t62 15.5q11 0 23 -1.5t23.5 -3.5t19.5 -6v-60h-45q-22 0 -32 -12.5t-10 -34.5v-88h87v-71h-87v-455h-84v455h-156
v-455h-84zM560 627v96h84v-96h-84zM560 0v526h84v-526h-84z" />
    <glyph glyph-name="f_f_l" unicode="ffl" horiz-adv-x="707" 
d="M81 0v455h-67v71h67v87q0 35 10 61.5t33 42t62 15.5q11 0 23 -1.5t23.5 -3.5t20.5 -6v-60h-46q-22 0 -32 -12.5t-10 -34.5v-88h156v87q0 35 10 61.5t33 42t62 15.5q11 0 23 -1.5t23.5 -3.5t19.5 -6v-60h-45q-22 0 -32 -12.5t-10 -34.5v-88h87v-71h-87v-455h-84v455h-156
v-455h-84zM560 0v723h84v-723h-84z" />
    <glyph glyph-name=".notdef" horiz-adv-x="654" 
d="M77 0v700h500v-700h-500zM157 50h340l-170 255zM127 95l170 255l-170 255v-510zM527 95v510l-170 -255zM327 395l170 255h-340z" />
    <glyph glyph-name=".null" 
 />
    <glyph glyph-name="nonmarkingreturn" horiz-adv-x="333" 
 />
    <glyph glyph-name="CR" unicode="&#xd;" horiz-adv-x="600" 
 />
    <glyph glyph-name="space" unicode=" " horiz-adv-x="183" 
 />
    <glyph glyph-name="exclam" unicode="!" horiz-adv-x="262" 
d="M104 183l-22 503h99l-22 -503h-55zM85 0v106h93v-106h-93z" />
    <glyph glyph-name="quotedbl" unicode="&#x22;" horiz-adv-x="348" 
d="M68 410l-14 129v147h85v-147l-17 -129h-54zM220 410l-14 129v147h85v-147l-17 -129h-54z" />
    <glyph glyph-name="numbersign" unicode="#" horiz-adv-x="535" 
d="M65 -12l37 194h-76v69h90l32 162h-82v69h96l43 216h71l-43 -216h130l43 216h71l-43 -216h75v-69h-88l-32 -162h80v-69h-94l-38 -194h-72l39 194h-130l-38 -194h-71zM188 251h129l32 162h-130z" />
    <glyph glyph-name="dollar" unicode="$" horiz-adv-x="449" 
d="M203 -50v776h47v-776h-47zM221 68q-49 0 -85.5 11t-60 31.5t-34.5 49.5t-11 64v10t1 9h81q-1 -4 -1 -8v-8q1 -32 15 -52.5t39.5 -29.5t58.5 -9q31 0 54.5 9t37 28t13.5 46q0 32 -18.5 50t-48 28.5t-62.5 21.5q-29 9 -56.5 20t-50 28t-36 42.5t-13.5 64.5q0 34 13 61
t37 45t57.5 27.5t75.5 9.5q44 0 77 -10t55 -29t33 -44t11 -55q0 -6 -0.5 -12.5t-0.5 -11.5h-81v17q0 22 -9.5 39.5t-30.5 28t-57 10.5q-25 0 -43.5 -5.5t-30 -15t-17.5 -22.5t-6 -29q0 -27 15.5 -42t40.5 -24.5t54 -19.5q30 -10 61.5 -21t58 -27.5t42.5 -43.5t16 -71
q0 -41 -14.5 -71.5t-40.5 -50.5t-61 -29.5t-78 -9.5z" />
    <glyph glyph-name="percent" unicode="%" horiz-adv-x="842" 
d="M169 0l432 686h72l-431 -686h-73zM217 338q-42 0 -72.5 16.5t-46.5 55.5t-16 107q0 69 16 108t46.5 56t72.5 17q43 0 73 -17t45.5 -56t15.5 -108q0 -68 -15.5 -107.5t-45.5 -55.5t-73 -16zM217 394q39 0 51.5 31t12.5 87v11q0 38 -5 64.5t-19 40.5t-40 14q-38 0 -51 -31
t-13 -88v-11q0 -56 13 -87t51 -31zM626 -12q-42 0 -72.5 17t-46.5 56t-16 107q0 69 16 108t46.5 56t72.5 17q43 0 73 -17t45.5 -56t15.5 -108q0 -68 -15.5 -107.5t-45.5 -56t-73 -16.5zM626 44q39 0 51.5 31t12.5 88v11q0 37 -5 64t-19 41t-40 14q-38 0 -51 -31.5t-13 -87.5
v-11q0 -57 13 -88t51 -31z" />
    <glyph glyph-name="ampersand" unicode="&#x26;" horiz-adv-x="617" 
d="M274 -12q-69 0 -121 23.5t-81 67.5t-29 105q0 67 31 109t79 58v4q-41 22 -68.5 58.5t-27.5 95.5q0 61 27.5 103t79 64t120.5 22q67 0 117 -22t78.5 -64t28.5 -102v-16h-83v11q-1 42 -19.5 68.5t-50 39.5t-71.5 13q-28 0 -53.5 -7t-45 -21t-30.5 -37t-11 -55
q0 -41 17.5 -68.5t46 -40.5t62.5 -13h50v-71h-49q-36 0 -68 -10.5t-52 -37t-20 -75.5q0 -45 18.5 -73.5t52.5 -42t79 -13.5q49 0 80.5 14t47.5 43t16 73v193h161v-72h-78v-117q0 -67 -26 -113.5t-78 -70t-130 -23.5z" />
    <glyph glyph-name="quotesingle" unicode="'" horiz-adv-x="196" 
d="M68 410l-14 129v147h85v-147l-17 -129h-54z" />
    <glyph glyph-name="parenleft" unicode="(" horiz-adv-x="341" 
d="M239 -157q-84 92 -129 208t-45 239q0 122 45 238t129 208h56q-40 -61 -73 -134t-52 -152.5t-19 -159.5q0 -81 19 -160.5t52 -152.5t73 -134h-56z" />
    <glyph glyph-name="parenright" unicode=")" horiz-adv-x="341" 
d="M103 735q84 -92 128.5 -208t44.5 -239q0 -122 -44.5 -238t-128.5 -208h-57q41 61 74 134t52 152.5t19 159.5q0 81 -19 160.5t-52 153t-74 133.5h57z" />
    <glyph glyph-name="asterisk" unicode="*" horiz-adv-x="395" 
d="M164 333l11 137l-103 -78l-33 59l114 58l-114 60l33 58l103 -79l-11 139h67l-11 -139l103 79l33 -58l-115 -60l115 -58l-33 -59l-103 78l11 -137h-67z" />
    <glyph glyph-name="plus" unicode="+" horiz-adv-x="573" 
d="M250 16v203h-179v73h179v204h73v-204h179v-73h-179v-203h-73z" />
    <glyph glyph-name="comma" unicode="," horiz-adv-x="249" 
d="M68 -146v42q18 4 29.5 18.5t17 36.5t5.5 49h-42v106h92v-94q0 -58 -16 -91t-39.5 -48t-46.5 -19z" />
    <glyph glyph-name="hyphen" unicode="-" horiz-adv-x="302" 
d="M37 228v85h229v-85h-229z" />
    <glyph glyph-name="period" unicode="." horiz-adv-x="249" 
d="M78 0v106h92v-106h-92z" />
    <glyph glyph-name="slash" unicode="/" horiz-adv-x="281" 
d="M0 -49l213 784h68l-212 -784h-69z" />
    <glyph glyph-name="zero" unicode="0" horiz-adv-x="512" 
d="M256 -12q-52 0 -92.5 17t-68 58t-41.5 109t-14 171t14 171.5t41.5 109t68 57.5t92.5 17q53 0 93.5 -17t67.5 -57.5t41 -109t14 -171.5t-14 -171t-41.5 -109t-67.5 -58t-93 -17zM256 59q52 0 79.5 28.5t38.5 85.5t11 142v55q0 86 -11 143t-38.5 85.5t-79.5 28.5
q-51 0 -79 -28.5t-39 -85t-11 -142.5v-55q0 -85 11 -142.5t39 -86t79 -28.5z" />
    <glyph glyph-name="one" unicode="1" horiz-adv-x="462" 
d="M56 0v71h152v487h-153v54q32 3 67.5 11t70 23.5t63.5 40.5h37v-616h144v-71h-381z" />
    <glyph glyph-name="two" unicode="2" horiz-adv-x="511" 
d="M45 0v29q0 42 14.5 77t39 64.5t55.5 56.5t62 53q45 36 82 70.5t59 74t22 87.5q0 33 -12 59t-37.5 41t-66.5 15q-47 0 -74.5 -19t-39.5 -49.5t-12 -66.5v-41h-83q-1 6 -1.5 16.5t-0.5 23.5q0 74 28.5 119.5t78 66.5t108.5 21q50 0 87.5 -13.5t62 -38.5t36.5 -60t12 -77
q0 -46 -14 -83.5t-39.5 -70.5t-60.5 -64t-76 -64q-30 -24 -58.5 -49.5t-48.5 -50.5t-25 -50h326v-77h-424z" />
    <glyph glyph-name="three" unicode="3" horiz-adv-x="513" 
d="M255 -12q-72 0 -121.5 23.5t-74 68t-24.5 106.5v14h84v-14q0 -62 34 -94.5t96 -32.5q63 0 100.5 31.5t37.5 100.5q0 48 -20 74.5t-52 37.5t-68 11h-67v71h69q34 0 62 13t44.5 41.5t16.5 73.5q0 40 -15 65t-41 37t-58 12q-35 0 -63.5 -13.5t-44.5 -40.5t-16 -68v-15h-85
v18q0 57 26.5 100t73.5 66.5t109 23.5q60 0 105.5 -20.5t70.5 -61t25 -99.5q0 -44 -14.5 -75.5t-38 -52t-49.5 -32.5v-5q50 -16 83.5 -57.5t33.5 -109.5q0 -62 -27.5 -106t-77 -67.5t-114.5 -23.5z" />
    <glyph glyph-name="four" unicode="4" horiz-adv-x="494" 
d="M305 0v169h-283v72q37 72 67.5 145t54.5 150.5t39 161.5h88q-11 -53 -27.5 -110t-36.5 -111.5t-40.5 -101.5t-38 -82t-29.5 -53h206v214q6 15 12 33.5t11.5 38t10.5 38t8 34.5h43v-358h81v-71h-81v-169h-85z" />
    <glyph glyph-name="five" unicode="5" horiz-adv-x="516" 
d="M261 -12q-66 0 -114.5 26t-75 76t-26.5 123h85q0 -51 17 -85.5t46.5 -51.5t67.5 -17q39 0 68 17.5t45 54t16 93.5q0 50 -14 83.5t-41 50.5t-66 17q-27 0 -51.5 -10t-44 -28t-31.5 -44l-75 13l25 380h351v-77h-277l-14 -217q15 15 34 27t44 19t56 7q55 0 98 -22.5
t67.5 -70.5t24.5 -125t-25.5 -130.5t-73.5 -81t-116 -27.5z" />
    <glyph glyph-name="six" unicode="6" horiz-adv-x="512" 
d="M267 -12q-55 0 -97 16t-71 54t-44 103t-15 162q0 107 15 179t43 115t70.5 62t97.5 19q67 0 108 -27t59.5 -75t18.5 -111h-84q0 48 -11 79.5t-34.5 47t-61.5 15.5q-54 0 -83.5 -31.5t-40.5 -92.5t-12 -146q14 26 37 45t54 29t65 10q67 0 109.5 -28.5t63 -78t20.5 -114.5
q0 -72 -26.5 -124t-73 -80t-107.5 -28zM261 59q46 0 74 21.5t40.5 58t12.5 81.5q0 43 -12.5 77t-40 54.5t-72.5 20.5q-44 0 -73 -21t-42.5 -56t-13.5 -80q0 -43 13 -78.5t41 -56.5t73 -21z" />
    <glyph glyph-name="seven" unicode="7" horiz-adv-x="484" 
d="M120 0q0 94 21.5 180.5t56 164.5t75.5 144t81 120h-328v77h435v-51q-34 -44 -69 -97t-67.5 -112.5t-58 -122.5t-40.5 -127.5t-15 -128.5v-47h-91z" />
    <glyph glyph-name="eight" unicode="8" horiz-adv-x="509" 
d="M255 -12q-76 0 -124 25.5t-70.5 70.5t-22.5 102q0 56 25.5 99.5t80.5 66.5q-45 25 -67.5 67t-22.5 91q0 55 23 97.5t68 66.5t110 24t109.5 -24t67.5 -66.5t23 -97.5q0 -49 -22.5 -91t-67.5 -67q56 -23 81 -66.5t25 -99.5q0 -57 -22.5 -102t-70 -70.5t-123.5 -25.5z
M255 58q66 0 97.5 35.5t31.5 93.5q0 60 -31.5 94.5t-97.5 34.5t-98 -34.5t-32 -94.5q0 -58 32 -93.5t98 -35.5zM255 385q55 0 85 32t30 91q0 57 -30 88.5t-85 31.5q-56 0 -85.5 -31.5t-29.5 -88.5q0 -59 29.5 -91t85.5 -32z" />
    <glyph glyph-name="nine" unicode="9" horiz-adv-x="512" 
d="M246 -12q-67 0 -108 27t-60 75t-19 111h85q0 -48 11 -79.5t34.5 -47t61.5 -15.5q54 0 83 32t40 92.5t12 146.5q-13 -26 -36 -45.5t-53.5 -29.5t-65.5 -10q-66 0 -109 28.5t-63.5 78.5t-20.5 114q0 73 26.5 125t73.5 79.5t107 27.5q55 0 97 -16t71 -54t44 -103t15 -162
q0 -106 -15 -178.5t-43 -115.5t-70.5 -62t-97.5 -19zM249 314q44 0 73 21t42.5 56.5t13.5 79.5t-13 79.5t-41 56t-73 20.5q-46 0 -74 -21.5t-40.5 -58t-12.5 -81.5q0 -42 12.5 -76.5t40 -55t72.5 -20.5z" />
    <glyph glyph-name="colon" unicode=":" horiz-adv-x="271" 
d="M89 420v106h92v-106h-92zM89 0v106h92v-106h-92z" />
    <glyph glyph-name="semicolon" unicode=";" horiz-adv-x="271" 
d="M81 -146v42q17 4 29 18.5t17.5 36.5t5.5 49h-43v106h93v-94q0 -58 -16 -91t-39.5 -48t-46.5 -19zM90 420v106h92v-106h-92z" />
    <glyph glyph-name="less" unicode="&#x3c;" horiz-adv-x="573" 
d="M492 23l-432 184v92l432 185v-82l-359 -149l359 -148v-82z" />
    <glyph glyph-name="equal" unicode="=" horiz-adv-x="573" 
d="M70 320v73h433v-73h-433zM70 117v73h433v-73h-433z" />
    <glyph glyph-name="greater" unicode="&#x3e;" horiz-adv-x="573" 
d="M81 23v82l359 148l-359 149v82l432 -185v-92z" />
    <glyph glyph-name="question" unicode="?" horiz-adv-x="512" 
d="M212 179v58q0 35 10.5 59.5t27.5 43.5t35.5 35.5t35 35t27 42.5t10.5 59q0 17 -3.5 36t-14.5 36t-32 28t-54 11q-39 0 -62 -14.5t-34.5 -36t-15 -43.5t-3.5 -39v-14v-14h-84q-1 4 -2 12.5t-1 21.5q0 23 6 50t20 54t38 49t59.5 35.5t84.5 13.5q44 0 76.5 -11.5t54 -31
t34 -43t18 -47.5t5.5 -45q0 -48 -11 -80.5t-29 -55.5t-38 -40t-38 -33t-29.5 -36t-11.5 -49v-47h-79zM205 0v106h93v-106h-93z" />
    <glyph glyph-name="at" unicode="@" horiz-adv-x="891" 
d="M426 -153q-118 0 -203.5 43t-131 135t-45.5 237q0 120 33 203t89.5 134.5t130.5 75t157 23.5q85 0 156 -21t123 -66t81 -117t29 -174q0 -58 -11 -105.5t-30 -83.5t-45 -60t-55.5 -36.5t-60.5 -12.5q-36 0 -56.5 10t-29.5 26.5t-11 33.5h-5q-15 -22 -36 -38t-48 -24.5
t-60 -8.5q-24 0 -48 6.5t-43 22t-30.5 41t-11.5 62.5q0 48 20.5 79.5t58 49.5t88 25t109.5 7v63q0 25 -8 43.5t-27.5 28t-55.5 9.5q-35 0 -55.5 -10t-29 -27.5t-8.5 -37.5v-16h-71q-1 5 -1 9.5v10.5q0 45 21 74.5t59.5 44.5t89.5 15q52 0 87.5 -15.5t55 -46t19.5 -75.5v-259
q0 -22 9 -32t30 -10q32 0 61.5 22.5t48.5 75t19 140.5q0 113 -41.5 184t-115.5 104.5t-172 33.5q-106 0 -184.5 -42t-121 -127t-42.5 -213q0 -178 78 -268t241 -90q24 0 55 3.5t59.5 10t46.5 13.5v-60q-21 -7 -50.5 -12t-59.5 -8t-51 -3zM415 83q27 0 49.5 9.5t39.5 26.5
t26.5 41.5t9.5 54.5v42q-64 0 -108.5 -8.5t-67 -30t-22.5 -60.5q0 -26 9 -42.5t25.5 -24.5t38.5 -8z" />
    <glyph glyph-name="A" unicode="A" horiz-adv-x="600" 
d="M5 0l236 686h117l237 -686h-98l-59 175h-281l-59 -175h-93zM183 254h229l-72 218q-3 10 -8 24.5t-10.5 32.5l-11 36t-9.5 33h-6q-5 -18 -12.5 -41.5t-14.5 -46t-13 -38.5z" />
    <glyph glyph-name="B" unicode="B" horiz-adv-x="618" 
d="M77 0v686h297q59 0 101 -20t63.5 -57t21.5 -87q0 -41 -13 -74t-36.5 -55t-54.5 -33v-4q34 -8 61.5 -28.5t43.5 -54.5t16 -85q0 -67 -26 -108.5t-73 -60.5t-112 -19h-289zM168 79h202q55 0 84.5 27.5t29.5 89.5q0 38 -12.5 64t-38 39t-66.5 13h-199v-233zM168 390h190
q36 0 60 14t36.5 39.5t12.5 57.5q0 54 -27 80t-76 26h-196v-217z" />
    <glyph glyph-name="C" unicode="C" horiz-adv-x="648" 
d="M336 -12q-96 0 -160.5 38.5t-97 117t-32.5 199.5q0 180 76.5 267.5t218.5 87.5q80 0 140 -28.5t93 -86t33 -146.5h-92q0 61 -20.5 101t-60 60.5t-95.5 20.5q-62 0 -107 -27.5t-68 -85.5t-23 -150v-31q0 -90 23 -147t67 -84t107 -27q56 0 96.5 20t61.5 60t21 101h89
q0 -89 -34 -147t-95 -85.5t-141 -27.5z" />
    <glyph glyph-name="D" unicode="D" horiz-adv-x="654" 
d="M77 0v686h229q98 0 165 -35.5t101.5 -111t34.5 -195.5q0 -119 -34.5 -195t-102 -112.5t-165.5 -36.5h-228zM169 79h131q49 0 88.5 13t67 41.5t42.5 76t15 116.5v30q0 70 -14.5 118t-42 77t-67 42.5t-89.5 13.5h-131v-528z" />
    <glyph glyph-name="E" unicode="E" horiz-adv-x="596" 
d="M77 0v686h468v-79h-376v-216h336v-80h-336v-232h381v-79h-473z" />
    <glyph glyph-name="F" unicode="F" horiz-adv-x="536" 
d="M77 0v686h427v-79h-335v-224h300v-80h-300v-303h-92z" />
    <glyph glyph-name="G" unicode="G" horiz-adv-x="701" 
d="M349 -12q-148 0 -224 87t-76 268q0 119 35.5 198t105 118t169.5 39q63 0 113.5 -15.5t87 -46t55.5 -77t19 -108.5h-92q0 43 -13 75t-37 53t-58.5 30.5t-75.5 9.5q-51 0 -91 -15t-67.5 -47t-41.5 -81.5t-14 -117.5v-32q0 -91 24 -148.5t70.5 -84t112.5 -26.5
q68 0 110.5 22t62.5 66.5t20 110.5v16h-209v77h299v-359h-64l-10 82q-23 -32 -55.5 -53t-72 -31t-83.5 -10z" />
    <glyph glyph-name="H" unicode="H" horiz-adv-x="654" 
d="M77 0v686h92v-296h316v296h92v-686h-92v310h-316v-310h-92z" />
    <glyph glyph-name="I" unicode="I" horiz-adv-x="245" 
d="M77 0v686h92v-686h-92z" />
    <glyph glyph-name="J" unicode="J" horiz-adv-x="495" 
d="M221 -12q-63 0 -106.5 21t-67 62t-23.5 102v33h91v-33q0 -52 26.5 -79t79.5 -27q54 0 81.5 35t27.5 106v478h92v-477q0 -75 -24.5 -124.5t-69.5 -73t-107 -23.5z" />
    <glyph glyph-name="K" unicode="K" horiz-adv-x="597" 
d="M77 0v686h92v-364l305 364h109l-231 -274l239 -412h-106l-195 338l-121 -132v-206h-92z" />
    <glyph glyph-name="L" unicode="L" horiz-adv-x="480" 
d="M77 0v686h92v-606h298v-80h-390z" />
    <glyph glyph-name="M" unicode="M" horiz-adv-x="769" 
d="M77 0v686h140l138 -444q4 -15 9.5 -35t10.5 -38.5t8 -33.5h6q3 14 7.5 33t9.5 38.5t9 36.5l138 443h139v-686h-91v415q0 25 0.5 56t1.5 59t1 42h-7q-3 -12 -8.5 -33t-11.5 -42.5t-11 -39.5l-145 -457h-77l-144 457q-5 15 -10 34.5t-10.5 41t-10.5 39.5h-6q0 -21 0.5 -50
t1.5 -57t1 -50v-415h-89z" />
    <glyph glyph-name="N" unicode="N" horiz-adv-x="654" 
d="M77 0v686h88l285 -445q4 -6 10.5 -17.5l13 -23t10.5 -19.5h5q0 16 -0.5 32t-0.5 29v444h89v-686h-83l-289 452q-6 11 -17 30t-18 33h-5q1 -15 1 -32v-32v-451h-89z" />
    <glyph glyph-name="O" unicode="O" horiz-adv-x="700" 
d="M350 -12q-96 0 -164 39t-104 118t-36 198q0 120 36 198.5t104 117.5t164 39t164 -39t103.5 -117.5t35.5 -198.5q0 -119 -35.5 -198t-103.5 -118t-164 -39zM350 67q49 0 87.5 15.5t65.5 47.5t41.5 81t14.5 116v32q0 67 -14.5 116t-41.5 81t-65.5 47.5t-87.5 15.5
t-88 -15.5t-66 -47.5t-41 -81t-14 -116v-32q0 -67 14 -116t41 -81t66 -47.5t88 -15.5z" />
    <glyph glyph-name="P" unicode="P" horiz-adv-x="592" 
d="M77 0v686h287q72 0 116.5 -26.5t65.5 -73t21 -107.5q0 -64 -24 -112.5t-68.5 -75.5t-108.5 -27h-197v-264h-92zM169 343h188q56 0 86.5 36t30.5 98q0 42 -12.5 70.5t-38.5 44t-68 15.5h-186v-264z" />
    <glyph glyph-name="Q" unicode="Q" horiz-adv-x="700" 
d="M504 -130l-109 121q-11 -2 -22.5 -2.5t-22.5 -0.5q-96 0 -164 39t-104 118t-36 198q0 120 36 198.5t104 117.5t164 39t164 -39t103.5 -117.5t35.5 -198.5q0 -130 -43 -212t-123 -117l131 -144h-114zM350 67q49 0 87.5 15.5t65.5 47.5t41.5 81t14.5 116v32q0 67 -14.5 116
t-41.5 81t-65.5 47.5t-87.5 15.5t-88 -15.5t-66 -47.5t-41 -81t-14 -116v-32q0 -67 14 -116t41 -81t66 -47.5t88 -15.5z" />
    <glyph glyph-name="R" unicode="R" horiz-adv-x="644" 
d="M77 0v686h304q72 0 116.5 -25.5t65 -70t20.5 -101.5q0 -72 -29.5 -122.5t-79.5 -72.5l135 -294h-99l-125 274h-216v-274h-92zM169 353h205q57 0 86.5 35.5t29.5 97.5q0 39 -12 65.5t-38.5 41t-68.5 14.5h-202v-254z" />
    <glyph glyph-name="S" unicode="S" horiz-adv-x="590" 
d="M297 -12q-51 0 -97 10.5t-80.5 34.5t-54.5 63t-20 98v9.5v9.5h92q0 -4 -0.5 -10t-0.5 -11q0 -42 19.5 -70t55 -41.5t84.5 -13.5q22 0 45 3.5t43.5 12t36.5 21.5t25 32t9 46q0 33 -16.5 55.5t-45 37.5t-63.5 26.5t-72.5 22.5t-72.5 25.5t-63 35.5t-45 53t-17 77
q0 44 16.5 78.5t47.5 57.5t75.5 35t100.5 12q50 0 91.5 -11t73 -34t49 -59t17.5 -87v-13h-90v16q0 34 -17 58.5t-48 37.5t-73 13q-49 0 -82 -11t-50.5 -32.5t-17.5 -52.5q0 -32 17 -53t45 -35t63 -25t72.5 -22.5t72.5 -26t63.5 -36t45 -54t16.5 -77.5q0 -73 -32 -118.5
t-88.5 -66.5t-129.5 -21z" />
    <glyph glyph-name="T" unicode="T" horiz-adv-x="545" 
d="M226 0v606h-209v80h510v-80h-210v-606h-91z" />
    <glyph glyph-name="U" unicode="U" horiz-adv-x="648" 
d="M322 -12q-77 0 -132.5 25.5t-85.5 82t-30 148.5v442h92v-452q0 -84 40 -125.5t116 -41.5q78 0 119.5 41.5t41.5 125.5v452h91v-442q0 -92 -30 -148.5t-86.5 -82t-135.5 -25.5z" />
    <glyph glyph-name="V" unicode="V" horiz-adv-x="577" 
d="M233 0l-221 686h98l147 -469q5 -15 10.5 -35.5t11 -40.5t9.5 -35h6q4 12 8.5 30.5t10.5 39t11 41.5l146 469h95l-221 -686h-111z" />
    <glyph glyph-name="W" unicode="W" horiz-adv-x="832" 
d="M181 0l-167 686h96l103 -444q4 -22 8 -44.5t7.5 -42t6.5 -34.5h6q2 11 4.5 27t5.5 33.5t6.5 33.5t5.5 27l101 444h111l98 -444q4 -15 7.5 -36.5t7.5 -43.5t6 -41h7q2 11 5 26.5t6.5 32.5t6.5 33.5t6 28.5l106 444h88l-172 -686h-106l-102 447q-4 21 -8 43.5t-7 43
t-5 35.5h-6q-2 -15 -5.5 -37.5t-8 -45.5t-8.5 -39l-102 -447h-108z" />
    <glyph glyph-name="X" unicode="X" horiz-adv-x="607" 
d="M8 0l237 360l-215 326h109l164 -254h5l162 254h104l-212 -325l237 -361h-109l-186 287h-5l-187 -287h-104z" />
    <glyph glyph-name="Y" unicode="Y" horiz-adv-x="597" 
d="M252 0v284l-238 402h102l182 -313h5l181 313h99l-239 -402v-284h-92z" />
    <glyph glyph-name="Z" unicode="Z" horiz-adv-x="570" 
d="M31 0v47l370 560h-347v79h477v-47l-372 -560h380v-79h-508z" />
    <glyph glyph-name="bracketleft" unicode="[" horiz-adv-x="289" 
d="M85 -161v896h189v-62h-110v-772h110v-62h-189z" />
    <glyph glyph-name="backslash" unicode="\" horiz-adv-x="281" 
d="M281 -49h-68l-213 784h69z" />
    <glyph glyph-name="bracketright" unicode="]" horiz-adv-x="289" 
d="M204 735v-896h-189v62h110v772h-110v62h189z" />
    <glyph glyph-name="asciicircum" unicode="^" horiz-adv-x="573" 
d="M95 322l148 364h87l148 -364h-79l-113 291l-112 -291h-79z" />
    <glyph glyph-name="underscore" unicode="_" horiz-adv-x="429" 
d="M0 -132v67h429v-67h-429z" />
    <glyph glyph-name="grave" unicode="`" horiz-adv-x="168" 
d="M168 591h-69l-99 129l1 3h90z" />
    <glyph glyph-name="a" unicode="a" horiz-adv-x="493" 
d="M183 -12q-28 0 -55 7.5t-48.5 24t-34 44.5t-12.5 68q0 49 21 82.5t60.5 55t96.5 31t130 9.5v67q0 29 -9 49.5t-31 31.5t-61 11q-41 0 -63.5 -12.5t-31 -32t-8.5 -42.5v-13h-80q-1 5 -1 10v12q0 51 24 83.5t67 48t99 15.5q57 0 97 -17t61 -51.5t21 -87.5v-289q0 -18 8 -26
t20 -8h36v-55q-14 -6 -30.5 -10.5t-36.5 -4.5q-25 0 -40.5 10.5t-23.5 28.5t-11 40h-6q-16 -24 -39.5 -42t-53 -28t-65.5 -10zM205 59q26 0 50.5 9.5t43.5 27t30.5 43.5t11.5 59v50q-75 0 -123.5 -11t-72.5 -35t-24 -62q0 -27 10 -45t29 -27t45 -9z" />
    <glyph glyph-name="b" unicode="b" horiz-adv-x="507" 
d="M287 -12q-49 0 -85.5 22.5t-57.5 61.5h-7l-7 -72h-67v723h83v-261h6q15 27 35.5 43.5t46.5 24.5t56 8q56 0 96 -28.5t61.5 -88t21.5 -155.5q0 -99 -21.5 -160.5t-62 -89.5t-98.5 -28zM266 62q39 0 64.5 19t38.5 60.5t13 108.5v25q0 67 -12.5 108.5t-38.5 61t-66 19.5
q-26 0 -47.5 -10.5t-37.5 -32.5t-25 -58.5t-9 -89.5v-22q0 -61 12.5 -103t39 -64t68.5 -22z" />
    <glyph glyph-name="c" unicode="c" horiz-adv-x="468" 
d="M242 -12q-69 0 -114.5 29.5t-68.5 91t-23 154.5q0 95 23.5 156t70 90t115.5 29q50 0 85 -13.5t58 -40t33.5 -65t10.5 -89.5h-84q0 48 -10 78.5t-33 45t-62 14.5q-36 0 -63.5 -18.5t-42 -60.5t-14.5 -113v-28q0 -64 13.5 -106.5t40.5 -63t67 -20.5q39 0 62 15.5t33.5 46.5
t10.5 76h82q0 -44 -10.5 -81.5t-33 -66t-58.5 -44.5t-88 -16z" />
    <glyph glyph-name="d" unicode="d" horiz-adv-x="507" 
d="M220 -12q-58 0 -98.5 28t-62 89.5t-21.5 160.5q0 96 21.5 155.5t61.5 88t96 28.5q31 0 56.5 -8t46 -24.5t34.5 -43.5h6v261h84v-723h-67l-8 72h-6q-21 -39 -58.5 -61.5t-84.5 -22.5zM241 62q43 0 69 22t38 64t12 103v22q0 53 -9 89.5t-25 58.5t-37.5 32.5t-46.5 10.5
q-40 0 -66 -19.5t-38.5 -61t-12.5 -108.5v-25q0 -67 13 -108.5t38.5 -60.5t64.5 -19z" />
    <glyph glyph-name="e" unicode="e" horiz-adv-x="494" 
d="M252 -12q-72 0 -119.5 29t-71 90t-23.5 156q0 97 24 157.5t72.5 89t121.5 28.5q66 0 110.5 -26.5t67 -82t22.5 -142.5v-44h-331q0 -65 13.5 -106t41.5 -60.5t73 -19.5q28 0 49.5 8.5t37 24t23.5 38t9 51.5h82q-1 -44 -14.5 -79.5t-39 -60.5t-63 -38t-85.5 -13zM125 304
h244q0 45 -8 76t-22.5 51t-36 29t-49.5 9q-42 0 -69.5 -19t-41.5 -55t-17 -91z" />
    <glyph glyph-name="f" unicode="f" horiz-adv-x="258" 
d="M81 0v455h-67v71h67v87q0 35 10 61.5t33 42t62 15.5q11 0 23 -1.5t23.5 -3.5t20.5 -6v-60h-46q-22 0 -32 -12.5t-10 -34.5v-88h88v-71h-88v-455h-84z" />
    <glyph glyph-name="g" unicode="g" horiz-adv-x="491" 
d="M149 -184q-37 0 -67.5 16t-48.5 46t-18 68q0 43 22.5 73.5t56.5 45.5q-25 12 -39 34t-14 47q0 35 23.5 58.5t58.5 32.5q-33 22 -50.5 56.5t-17.5 75.5q0 49 21 87t63.5 60t105.5 22q29 0 53 -4.5t44 -13.5q29 13 45 38t20 54h80q-1 -31 -13 -57t-33 -43.5t-51 -23.5
q24 -24 35.5 -54t11.5 -64q0 -49 -21 -87t-62.5 -60t-104.5 -22h-69q-25 0 -40.5 -11t-15.5 -35q0 -22 17 -34t43 -12h171q58 0 92.5 -39.5t34.5 -99.5q0 -43 -19.5 -78t-55.5 -55.5t-85 -20.5h-173zM172 -120h146q23 0 41 10t28.5 28t10.5 39q0 36 -19 57.5t-49 21.5h-158
q-31 0 -52 -22.5t-21 -56.5q0 -35 20.5 -56t52.5 -21zM246 264q54 0 80.5 27.5t26.5 77.5q0 51 -26.5 78.5t-80.5 27.5t-81 -27.5t-27 -78.5q0 -32 12 -56t36 -36.5t60 -12.5z" />
    <glyph glyph-name="h" unicode="h" horiz-adv-x="502" 
d="M63 0v723h83v-260h7q17 26 39 42.5t48.5 24.5t58.5 8q44 0 76.5 -15.5t50.5 -50.5t18 -94v-378h-84v363q0 28 -6 47t-17.5 30.5t-29 17t-38.5 5.5q-33 0 -61 -17.5t-45 -51.5t-17 -84v-310h-83z" />
    <glyph glyph-name="i" unicode="i" horiz-adv-x="209" 
d="M63 627v96h83v-96h-83zM63 0v526h83v-526h-83z" />
    <glyph glyph-name="j" unicode="j" horiz-adv-x="206" 
d="M63 627v96h83v-96h-83zM47 -184q-11 0 -23 1t-23.5 3.5t-19.5 5.5v60h43q21 0 30 11t9 36v593h83v-602q0 -31 -9.5 -56t-31.5 -38.5t-58 -13.5z" />
    <glyph glyph-name="k" unicode="k" horiz-adv-x="461" 
d="M63 0v723h83v-447l195 250h96l-161 -205l170 -321h-94l-130 252l-76 -86v-166h-83z" />
    <glyph glyph-name="l" unicode="l" horiz-adv-x="209" 
d="M63 0v723h83v-723h-83z" />
    <glyph glyph-name="m" unicode="m" horiz-adv-x="768" 
d="M63 0v526h68l7 -75h6q18 31 40 50t48.5 28t57.5 9q47 0 80 -20t47 -67h6q17 30 39 49.5t49 28.5t58 9q43 0 74.5 -15t49 -50t17.5 -93v-380h-84v364q0 28 -5.5 46.5t-16.5 30t-27 17t-36 5.5q-31 0 -56.5 -18t-41 -52t-15.5 -83v-310h-83v364q0 28 -6 46.5t-16.5 30
t-26 17t-34.5 5.5q-32 0 -58 -18t-42 -52t-16 -83v-310h-83z" />
    <glyph glyph-name="n" unicode="n" horiz-adv-x="502" 
d="M63 0v526h68l7 -75h6q18 31 41.5 50t52 28t60.5 9q44 0 77 -15.5t51 -50.5t18 -94v-378h-84v363q0 28 -6 47t-17.5 30.5t-29 17t-38.5 5.5q-33 0 -61 -18t-45 -52t-17 -83v-310h-83z" />
    <glyph glyph-name="o" unicode="o" horiz-adv-x="509" 
d="M255 -12q-71 0 -119.5 28.5t-73 89.5t-24.5 157q0 97 24.5 157.5t73 89t119.5 28.5t119 -28.5t73 -89t25 -157.5q0 -96 -25 -157t-73 -89.5t-119 -28.5zM255 59q44 0 72.5 19.5t42.5 62t14 108.5v28q0 67 -14 109t-42.5 61.5t-72.5 19.5t-73 -19.5t-43 -61.5t-14 -109
v-28q0 -66 14 -108.5t43 -62t73 -19.5z" />
    <glyph glyph-name="p" unicode="p" horiz-adv-x="507" 
d="M63 -175v701h67l7 -72h7q21 40 57.5 62t85.5 22q58 0 98.5 -28t62 -89.5t21.5 -160.5q0 -94 -21.5 -154.5t-61.5 -89t-96 -28.5q-30 0 -56 8t-46.5 25t-35.5 43h-6v-239h-83zM265 63q40 0 66 19.5t38.5 61t12.5 106.5v26q0 67 -13 109t-38.5 61t-64.5 19q-42 0 -68.5 -22
t-39 -65t-12.5 -104v-22q0 -52 9 -88.5t25 -58.5t37.5 -32t47.5 -10z" />
    <glyph glyph-name="q" unicode="q" horiz-adv-x="507" 
d="M360 -175v239h-6q-14 -26 -34.5 -43t-46.5 -25t-56 -8q-56 0 -96 28.5t-61.5 89t-21.5 154.5q0 99 21.5 160.5t62 89.5t98.5 28q49 0 85.5 -22t57.5 -62h6l8 72h67v-701h-84zM242 63q26 0 47.5 10t37.5 32t24.5 58.5t8.5 88.5v22q0 61 -12 104t-38 65t-69 22
q-39 0 -64.5 -19t-38.5 -61t-13 -109v-26q0 -65 12.5 -106.5t38.5 -61t66 -19.5z" />
    <glyph glyph-name="r" unicode="r" horiz-adv-x="297" 
d="M63 0v526h68l7 -81h6q8 26 22 47t35 33.5t50 12.5q13 0 23 -2t16 -4v-82h-32q-27 0 -48 -10t-35 -29.5t-21.5 -47.5t-7.5 -64v-299h-83z" />
    <glyph glyph-name="s" unicode="s" horiz-adv-x="449" 
d="M221 -12q-49 0 -85.5 11t-60 31.5t-34.5 49.5t-11 65v10t1 9h81q-1 -5 -1 -9v-7q1 -33 15 -53.5t39.5 -29.5t58.5 -9q31 0 54.5 9.5t37 28t13.5 46.5q0 32 -18.5 49.5t-48 28t-62.5 21.5q-29 9 -56.5 20t-50 28t-36 42.5t-13.5 64.5q0 34 13 61t37 45.5t57.5 28t75.5 9.5
q44 0 77 -10.5t55 -29t33 -43.5t11 -55q0 -6 -0.5 -13t-0.5 -12h-81v18q0 22 -9.5 39t-30.5 27.5t-57 10.5q-25 0 -43.5 -5t-30 -14.5t-17.5 -22.5t-6 -30q0 -26 15.5 -41t40.5 -24.5t54 -19.5q30 -10 61.5 -21t58 -27.5t42.5 -44t16 -70.5q0 -42 -14.5 -72.5t-40.5 -50.5
t-61 -29.5t-78 -9.5z" />
    <glyph glyph-name="t" unicode="t" horiz-adv-x="266" 
d="M171 -12q-38 0 -59 15t-29 41t-8 56v355h-58v71h59l16 148h67v-148h85v-71h-85v-348q0 -25 7.5 -36.5t28.5 -11.5h49v-56q-10 -4 -23 -7.5t-25.5 -5.5t-24.5 -2z" />
    <glyph glyph-name="u" unicode="u" horiz-adv-x="502" 
d="M204 -12q-66 0 -106 36t-40 125v377h84v-363q0 -28 6 -47t17.5 -30.5t29 -17t38.5 -5.5q33 0 61 18t45 52.5t17 82.5v310h83v-526h-67l-8 75h-6q-18 -30 -41.5 -49.5t-51.5 -28.5t-61 -9z" />
    <glyph glyph-name="v" unicode="v" horiz-adv-x="439" 
d="M175 0l-165 526h89l82 -280q5 -16 12 -41.5t14 -52.5t12 -48h5q5 17 11.5 43t14 53t12.5 46l83 280h84l-165 -526h-89z" />
    <glyph glyph-name="w" unicode="w" horiz-adv-x="649" 
d="M147 0l-138 526h86l70 -293q4 -18 8.5 -40.5t9 -43t6.5 -33.5h6q4 18 8 41t8 44t7 33l62 292h94l63 -292q4 -16 8 -37.5t8.5 -43t6.5 -37.5h6q3 16 7.5 37.5t9.5 43t8 36.5l69 293h80l-138 -526h-88l-61 282q-3 17 -8 41t-9.5 49t-7.5 43h-6q-2 -15 -6 -37.5t-9 -47.5
t-10 -49l-62 -281h-88z" />
    <glyph glyph-name="x" unicode="x" horiz-adv-x="457" 
d="M12 0l165 269l-157 257h99l110 -188h5l109 188h94l-157 -255l166 -271h-98l-119 203h-5l-119 -203h-93z" />
    <glyph glyph-name="y" unicode="y" horiz-adv-x="439" 
d="M99 -184q-21 0 -37.5 3t-24.5 4v63h39q24 0 44 10.5t36 36t28 67.5l-173 526h88l88 -285q6 -16 13 -40.5t14 -50t11 -45.5h6q4 15 8.5 34t9.5 38.5t10 37.5t9 31l77 280h85l-155 -512q-13 -43 -28.5 -79.5t-35 -63t-47 -41t-65.5 -14.5z" />
    <glyph glyph-name="z" unicode="z" horiz-adv-x="444" 
d="M26 0v45l262 410h-243v71h358v-43l-263 -412h276v-71h-390z" />
    <glyph glyph-name="braceleft" unicode="{" horiz-adv-x="341" 
d="M293 -159q-34 0 -64 5.5t-53 20t-36.5 40.5t-13.5 68v212q0 22 -12 35t-31 18.5t-38 5.5v83q19 0 38 6t31 19t12 34v213q0 42 13.5 68t36.5 40.5t53 20t64 5.5v-56q-19 0 -38.5 -5.5t-33.5 -20t-15 -41.5l-8 -214q-2 -50 -21.5 -78t-69.5 -28v-9q34 0 53 -13t28 -36.5
t10 -56.5l8 -213q1 -27 15 -41.5t33.5 -20t38.5 -5.5v-56z" />
    <glyph glyph-name="bar" unicode="|" horiz-adv-x="225" 
d="M77 -183v906h71v-906h-71z" />
    <glyph glyph-name="braceright" unicode="}" horiz-adv-x="341" 
d="M48 735q33 0 63 -5.5t53.5 -20t36.5 -40.5t13 -68v-212q0 -22 12.5 -35t31.5 -18.5t38 -5.5v-83q-19 0 -38 -6t-31.5 -18.5t-12.5 -34.5v-213q0 -42 -13 -68t-36.5 -40.5t-53.5 -20t-63 -5.5v56q19 0 38.5 5.5t33.5 20t15 41.5l8 214q2 50 21.5 78t69.5 28v9
q-34 0 -53.5 13t-28 36.5t-9.5 56.5l-8 213q-1 27 -15 41.5t-33.5 20t-38.5 5.5v56z" />
    <glyph glyph-name="asciitilde" unicode="~" horiz-adv-x="573" 
d="M62 223v81q10 14 28.5 28.5t44.5 25t57 10.5q25 0 48 -8t45.5 -18t46 -18t50.5 -8t52.5 10t45.5 25t31 29v-82q-9 -13 -28 -28t-44.5 -25t-56.5 -10q-26 0 -49 7.5t-45.5 18t-46 18t-49.5 7.5q-28 0 -53 -10t-45 -24.5t-32 -28.5z" />
    <glyph glyph-name="uni00A0" unicode="&#xa0;" horiz-adv-x="183" 
 />
    <glyph glyph-name="exclamdown" unicode="&#xa1;" horiz-adv-x="262" 
d="M82 -160l22 502h55l22 -502h-99zM85 419v107h93v-107h-93z" />
    <glyph glyph-name="cent" unicode="&#xa2;" horiz-adv-x="502" 
d="M230 -50v776h47v-776h-47zM254 68q-69 0 -115 29.5t-68.5 90.5t-22.5 155q0 95 23.5 156t70 90t115.5 29q50 0 85 -13.5t57.5 -40t33.5 -65.5t11 -89h-84q0 48 -10.5 78t-33 44.5t-61.5 14.5q-37 0 -64 -18.5t-42 -60t-15 -112.5v-28q0 -65 14 -107t41 -62.5t67 -20.5
q39 0 62 15.5t33.5 46.5t10.5 75h82q0 -43 -10.5 -81t-33 -66t-59 -44t-87.5 -16z" />
    <glyph glyph-name="sterling" unicode="&#xa3;" horiz-adv-x="510" 
d="M40 0v74h68v229h-81v74h81v138q0 60 21.5 101t62.5 61.5t96 20.5t95 -20.5t61.5 -60t21.5 -99.5v-19h-85v22q0 36 -11.5 59.5t-32.5 35t-49 11.5t-49.5 -11.5t-33.5 -34.5t-12 -58v-146h139v-74h-139l-9 -229h280v-74h-424z" />
    <glyph glyph-name="currency" unicode="&#xa4;" horiz-adv-x="574" 
d="M80 97l-44 45l55 55q-27 31 -39.5 70.5t-12.5 81.5q0 41 12.5 81.5t39.5 69.5l-56 54l46 46l57 -56q30 26 68.5 39t79.5 13t80 -13t68 -38l57 56l46 -47l-55 -54q27 -29 39 -69.5t12 -81.5q0 -42 -12 -81.5t-39 -70.5l55 -55l-45 -45l-56 57q-30 -27 -69 -40.5t-81 -13.5
q-41 0 -80 13.5t-70 40.5zM286 165q50 0 90.5 25t65 67t24.5 92t-24.5 91t-65 66t-90.5 25q-49 0 -90 -25t-65.5 -66t-24.5 -91t24.5 -92t65.5 -67t90 -25z" />
    <glyph glyph-name="yen" unicode="&#xa5;" horiz-adv-x="534" 
d="M223 0v163h-183v61h183v72h-183v60h153q-9 16 -22 37.5t-20 33.5l-137 259h99l112 -225q6 -11 13.5 -26.5t15.5 -31t13 -26.5h5q6 11 13 26t15 31t14 27l111 225h95l-135 -255q-9 -16 -21.5 -37.5t-21.5 -37.5h152v-60h-182v-72h182v-61h-182v-163h-89z" />
    <glyph glyph-name="brokenbar" unicode="&#xa6;" horiz-adv-x="225" 
d="M77 351v372h71v-372h-71zM77 -183v372h71v-372h-71z" />
    <glyph glyph-name="section" unicode="&#xa7;" horiz-adv-x="510" 
d="M252 -182q-50 0 -86.5 11.5t-60 31.5t-35 46.5t-11.5 55.5q0 4 0.5 10t0.5 10h86v-12q0 -15 4.5 -29.5t16.5 -27t34 -20t56 -7.5q35 0 59 10.5t37 30.5t13 48q0 30 -17.5 50t-46 34t-62.5 26t-68 26t-62.5 34t-46 50t-17.5 75q0 31 10 57t28.5 47t44.5 36
q-31 20 -51.5 50.5t-20.5 78.5q0 37 14 66t40 50t63 31.5t84 10.5q50 0 86.5 -11.5t60 -31.5t35 -46.5t11.5 -55.5v-10t-1 -10h-86v12q0 15 -4.5 29.5t-16.5 27t-34 19.5t-56 7q-35 0 -59.5 -10t-37 -30t-12.5 -48q0 -30 17.5 -50t46 -34t62.5 -26t68 -26t62.5 -34t46 -50
t17.5 -75q0 -31 -10 -57.5t-28.5 -47t-44.5 -35.5q31 -20 51 -50.5t20 -78.5q0 -37 -13.5 -66t-39.5 -50t-63 -31.5t-84 -10.5zM319 139q28 12 44.5 35t16.5 55q0 35 -17 57.5t-45 37.5t-61.5 27t-67.5 26q-26 -13 -42.5 -36t-16.5 -54q0 -35 17 -58t44.5 -38t61 -27
t66.5 -25z" />
    <glyph glyph-name="dieresis" unicode="&#xa8;" horiz-adv-x="246" 
d="M0 631v91h78v-91h-78zM167 631v91h79v-91h-79z" />
    <glyph glyph-name="copyright" unicode="&#xa9;" horiz-adv-x="684" 
d="M342 -12q-69 0 -126.5 25t-99.5 71t-66 112t-24 147q0 82 24 147.5t66 111.5t99.5 71t126.5 25q68 0 125.5 -25t100 -71t66 -111.5t23.5 -147.5q0 -81 -23.5 -147t-66 -112t-100 -71t-125.5 -25zM340 131q-48 0 -82 20.5t-52.5 67.5t-18.5 123q0 77 18 123t52.5 67.5
t82.5 21.5q43 0 74.5 -16.5t48.5 -52.5t17 -96h-60q0 42 -9.5 66.5t-27.5 35t-43 10.5q-44 0 -68 -34.5t-24 -108.5v-31q0 -48 10.5 -80t31 -48t50.5 -16q25 0 43.5 11t29 36t10.5 65h57q0 -55 -17 -91.5t-48.5 -54.5t-74.5 -18zM342 32q78 0 138.5 37.5t95.5 107.5t35 166
q0 97 -35 166.5t-95.5 107t-138.5 37.5t-139 -37.5t-96 -107t-35 -166.5t35 -166.5t96 -107t139 -37.5z" />
    <glyph glyph-name="ordfeminine" unicode="&#xaa;" horiz-adv-x="348" 
d="M125 330q-24 0 -46 9.5t-36.5 31t-14.5 56.5q0 37 14.5 60t41 36.5t61.5 18.5t78 5v42q0 19 -5.5 31.5t-18.5 20t-38 7.5q-24 0 -37 -7.5t-18.5 -19.5t-5.5 -26v-10h-57q-1 2 -1 6v7q0 51 34 75.5t89 24.5q37 0 63 -12t40 -35t14 -56v-191q0 -13 4.5 -18t12.5 -5h23v-40
q-10 -3 -20.5 -5t-22.5 -2q-26 0 -37.5 13.5t-14.5 35.5h-5q-15 -25 -39.5 -39t-57.5 -14zM139 381q23 0 42 12t30.5 33.5t11.5 48.5v26q-43 1 -73 -5t-45 -22t-15 -43q0 -15 5.5 -26t16.5 -17.5t27 -6.5z" />
    <glyph glyph-name="guillemotleft" unicode="&#xab;" horiz-adv-x="496" 
d="M196 125l-144 201l144 200h68l-118 -200l118 -201h-68zM373 125l-143 201l143 200h68l-118 -200l118 -201h-68z" />
    <glyph glyph-name="logicalnot" unicode="&#xac;" horiz-adv-x="573" 
d="M419 214v155h-350v74h425v-229h-75z" />
    <glyph glyph-name="uni00AD" unicode="&#xad;" horiz-adv-x="302" 
d="M37 228v85h229v-85h-229z" />
    <glyph glyph-name="registered" unicode="&#xae;" horiz-adv-x="684" 
d="M342 -12q-69 0 -126.5 25t-99.5 71t-66 112t-24 147q0 82 24 147.5t66 111.5t99.5 71t126.5 25q68 0 125.5 -25t100 -71t66 -111.5t23.5 -147.5q0 -81 -23.5 -147t-66 -112t-100 -71t-125.5 -25zM342 32q78 0 138.5 37.5t95.5 107.5t35 166q0 97 -35 166.5t-95.5 107
t-138.5 37.5t-139 -37.5t-96 -107t-35 -166.5t35 -166.5t96 -107t139 -37.5zM217 136v412h158q59 0 87.5 -32.5t28.5 -90.5q0 -40 -16 -71t-47 -46l76 -172h-64l-69 159h-95v-159h-59zM276 347h96q26 0 42 20.5t16 56.5q0 35 -15 54t-44 19h-95v-150z" />
    <glyph glyph-name="macron" unicode="&#xaf;" horiz-adv-x="264" 
d="M0 638v62h264v-62h-264z" />
    <glyph glyph-name="degree" unicode="&#xb0;" horiz-adv-x="400" 
d="M201 434q-36 0 -66.5 17.5t-48.5 47.5t-18 67t18 67t48.5 47.5t66.5 17.5q37 0 67 -17.5t47.5 -47.5t17.5 -67q0 -36 -17.5 -66.5t-47.5 -48t-67 -17.5zM201 484q34 0 57 24.5t23 57.5t-23 57.5t-57 24.5t-58.5 -24.5t-24.5 -57.5t24.5 -57.5t58.5 -24.5z" />
    <glyph glyph-name="plusminus" unicode="&#xb1;" horiz-adv-x="573" 
d="M250 142v203h-179v73h179v204h73v-204h179v-73h-179v-203h-73zM71 8v73h431v-73h-431z" />
    <glyph glyph-name="uni00B2" unicode="&#xb2;" horiz-adv-x="307" 
d="M40 440v22q0 28 12.5 50t33 40.5t42.5 36.5q32 27 56 52.5t24 57.5q0 22 -12.5 35.5t-38.5 13.5q-21 0 -33 -8.5t-17.5 -22.5t-5.5 -31v-23h-56q0 4 -1 11.5t-1 14.5q0 38 16 62t42.5 35.5t58.5 11.5q35 0 59 -12.5t36 -35t12 -53.5q0 -24 -8.5 -44.5t-23 -37.5
t-32.5 -32t-35 -29q-19 -16 -35.5 -30.5t-24.5 -30.5h161v-53h-229z" />
    <glyph glyph-name="uni00B3" unicode="&#xb3;" horiz-adv-x="307" 
d="M156 428q-60 0 -89.5 28.5t-29.5 78.5v11h58v-11q0 -28 14 -42.5t43 -14.5q21 0 35 6t21 19t7 34t-8.5 33t-23 16.5t-32.5 4.5h-36v50h38q16 0 28 5.5t19 18t7 32.5q0 18 -6 29t-17 16.5t-27 5.5q-17 0 -29 -6t-19 -18t-7 -30v-12h-59v14q0 30 14.5 53t40 36t58.5 13
q34 0 59 -11.5t38.5 -33.5t13.5 -54q0 -29 -12.5 -47.5t-31.5 -29.5v-3q24 -10 37.5 -32t13.5 -53q0 -32 -14.5 -56t-41 -37t-62.5 -13z" />
    <glyph glyph-name="acute" unicode="&#xb4;" horiz-adv-x="168" 
d="M0 591l77 132h90l1 -3l-100 -129h-68z" />
    <glyph glyph-name="uni00B5" unicode="&#xb5;" horiz-adv-x="507" 
d="M63 -180v706h83v-363q0 -28 6.5 -47t18 -30.5t28.5 -17t39 -5.5q33 0 61 18.5t44.5 54t16.5 86.5v304h84v-526h-68l-7 75h-7q-16 -31 -38 -49.5t-47.5 -27t-54.5 -8.5q-23 0 -44 6t-36 19q3 -13 3.5 -30.5t0.5 -32.5v-132h-83z" />
    <glyph glyph-name="paragraph" unicode="&#xb6;" horiz-adv-x="512" 
d="M222 -170v422q-48 6 -88 33.5t-64 74t-24 107.5q0 75 30 123.5t79.5 72t108.5 23.5h206v-58h-55v-798h-66v798h-61v-798h-66z" />
    <glyph glyph-name="periodcentered" unicode="&#xb7;" horiz-adv-x="293" 
d="M100 300v108h94v-108h-94z" />
    <glyph glyph-name="cedilla" unicode="&#xb8;" horiz-adv-x="187" 
d="M81 -180q-21 0 -42 2t-39 6v39h80q19 0 29 7t10 21q0 13 -8.5 19t-29.5 6h-41l15 93h54l-5 -53q22 0 40.5 -6.5t30.5 -20t12 -37.5q0 -23 -10 -38t-25.5 -23.5t-34 -11.5t-36.5 -3z" />
    <glyph glyph-name="uni00B9" unicode="&#xb9;" horiz-adv-x="307" 
d="M55 440v52h77v219h-77v39q19 2 37.5 6.5t36 13.5t31.5 23h30v-301h72v-52h-207z" />
    <glyph glyph-name="ordmasculine" unicode="&#xba;" horiz-adv-x="340" 
d="M169 329q-46 0 -77 20t-46.5 61t-15.5 104t15.5 103.5t47.5 60.5t78 20t77.5 -20t46.5 -60.5t15 -103.5t-16 -104t-47 -61t-78 -20zM170 381q41 0 59.5 30.5t18.5 91.5v20q0 63 -19 93t-59 30t-58.5 -30t-18.5 -92v-21q0 -60 18 -91t59 -31z" />
    <glyph glyph-name="guillemotright" unicode="&#xbb;" horiz-adv-x="496" 
d="M300 526l144 -200l-144 -201h-68l118 201l-118 200h68zM123 526l143 -200l-143 -201h-69l118 201l-118 200h69z" />
    <glyph glyph-name="onequarter" unicode="&#xbc;" horiz-adv-x="766" 
d="M112 -12l486 710h63l-487 -710h-62zM55 340v52h77v219h-77v39q19 2 37.5 6.5t36 13.5t31.5 23h30v-301h72v-52h-207zM603 0v79h-143v45q26 53 46 110.5t32 122.5h62q-7 -33 -17.5 -67t-22 -65t-23 -56t-20.5 -40h86v91q4 10 8 23.5t8 27.5t6 26h35v-168h41v-50h-41v-79
h-57z" />
    <glyph glyph-name="onehalf" unicode="&#xbd;" horiz-adv-x="766" 
d="M112 -12l486 710h63l-487 -710h-62zM481 0v22q0 28 13 50t33.5 40.5t41.5 36.5q32 27 56.5 52.5t24.5 57.5q0 22 -13 35.5t-38 13.5q-21 0 -33.5 -8.5t-18 -22.5t-5.5 -31v-23h-55q-1 4 -2 11.5t-1 14.5q0 38 16 62t42.5 35.5t59.5 11.5q35 0 59 -12.5t36 -35t12 -53.5
q0 -24 -9 -44.5t-23.5 -37.5t-32 -32t-35.5 -29q-19 -16 -35.5 -30.5t-24.5 -30.5h161v-53h-229zM55 340v52h77v219h-77v39q19 2 37.5 6.5t36 13.5t31.5 23h30v-301h72v-52h-207z" />
    <glyph glyph-name="threequarters" unicode="&#xbe;" horiz-adv-x="766" 
d="M112 -12l486 710h63l-487 -710h-62zM156 328q-60 0 -89.5 28.5t-29.5 78.5v11h58v-11q0 -28 14 -42.5t43 -14.5q21 0 35 6t21 19t7 34t-8.5 32.5t-23 16.5t-32.5 5h-36v50h38q16 0 28 5.5t19 18t7 32.5q0 18 -6 29t-17 16.5t-27 5.5q-17 0 -29 -6t-19 -18t-7 -30v-12h-59
v14q0 30 14.5 53t40 36t58.5 13q34 0 59 -11.5t38.5 -33.5t13.5 -54q0 -29 -12.5 -47.5t-31.5 -29.5v-3q24 -10 37.5 -32t13.5 -53q0 -32 -14.5 -56t-41 -37t-62.5 -13zM603 0v79h-143v45q26 53 46 110.5t32 122.5h62q-7 -33 -17.5 -67t-22 -65t-23 -56t-20.5 -40h86v91
q4 10 8 23.5t8 27.5t6 26h35v-168h41v-50h-41v-79h-57z" />
    <glyph glyph-name="questiondown" unicode="&#xbf;" horiz-adv-x="512" 
d="M253 -172q-45 0 -77.5 11.5t-54 31t-34 43t-18 47.5t-5.5 45q0 48 11.5 80.5t29.5 55t38 40t38 33.5t29 36t11 49v47h80v-58q0 -35 -11 -60t-27.5 -43.5t-35 -35t-35.5 -35t-27.5 -42.5t-10.5 -59q0 -17 4 -36t14.5 -36.5t31.5 -28t55 -10.5q39 0 61.5 14t34 35.5
t15.5 44t4 39.5v15v13h84q1 -4 2 -13t1 -21q0 -23 -6 -50t-19.5 -54t-37.5 -49t-59.5 -35.5t-85.5 -13.5zM215 419v107h92v-107h-92z" />
    <glyph glyph-name="Agrave" unicode="&#xc0;" horiz-adv-x="600" 
d="M5 0l236 686h117l237 -686h-98l-59 175h-281l-59 -175h-93zM183 254h229l-72 218q-3 10 -8 24.5t-10.5 32.5l-11 36t-9.5 33h-6q-5 -18 -12.5 -41.5t-14.5 -46t-13 -38.5zM344 737h-72l-100 129l1 4h94z" />
    <glyph glyph-name="Aacute" unicode="&#xc1;" horiz-adv-x="600" 
d="M5 0l236 686h117l237 -686h-98l-59 175h-281l-59 -175h-93zM183 254h229l-72 218q-3 10 -8 24.5t-10.5 32.5l-11 36t-9.5 33h-6q-5 -18 -12.5 -41.5t-14.5 -46t-13 -38.5zM263 737l78 133h93l1 -4l-99 -129h-73z" />
    <glyph glyph-name="Acircumflex" unicode="&#xc2;" horiz-adv-x="600" 
d="M5 0l236 686h117l237 -686h-98l-59 175h-281l-59 -175h-93zM183 254h229l-72 218q-3 10 -8 24.5t-10.5 32.5l-11 36t-9.5 33h-6q-5 -18 -12.5 -41.5t-14.5 -46t-13 -38.5zM164 737l95 133h83l94 -133h-75l-81 114l41 -1l-81 -113h-76z" />
    <glyph glyph-name="Atilde" unicode="&#xc3;" horiz-adv-x="600" 
d="M5 0l236 686h117l237 -686h-98l-59 175h-281l-59 -175h-93zM183 254h229l-72 218q-3 10 -8 24.5t-10.5 32.5l-11 36t-9.5 33h-6q-5 -18 -12.5 -41.5t-14.5 -46t-13 -38.5zM157 770q1 27 9.5 48.5t25.5 33.5t42 12q24 0 45.5 -8t42 -16t40.5 -8q14 0 21 8.5t9 23.5h51
q0 -26 -9 -47.5t-26 -33.5t-43 -12q-23 0 -44.5 8t-42 16t-40.5 8q-14 0 -21.5 -9t-8.5 -24h-51z" />
    <glyph glyph-name="Adieresis" unicode="&#xc4;" horiz-adv-x="600" 
d="M5 0l236 686h117l237 -686h-98l-59 175h-281l-59 -175h-93zM183 254h229l-72 218q-3 10 -8 24.5t-10.5 32.5l-11 36t-9.5 33h-6q-5 -18 -12.5 -41.5t-14.5 -46t-13 -38.5zM177 776v92h79v-92h-79zM344 776v92h79v-92h-79z" />
    <glyph glyph-name="Aring" unicode="&#xc5;" horiz-adv-x="600" 
d="M5 0l236 686h117l237 -686h-98l-59 175h-281l-59 -175h-93zM183 254h229l-72 218q-3 10 -8 24.5t-10.5 32.5l-11 36t-9.5 33h-6q-5 -18 -12.5 -41.5t-14.5 -46t-13 -38.5zM300 730q-40 0 -65.5 26t-25.5 67t25.5 67.5t65.5 26.5t65.5 -26.5t25.5 -67.5t-25.5 -67
t-65.5 -26zM300 776q20 0 31.5 13t11.5 34q0 22 -11.5 35t-31.5 13q-18 0 -30 -13t-12 -35q0 -21 12 -34t30 -13z" />
    <glyph glyph-name="AE" unicode="&#xc6;" horiz-adv-x="884" 
d="M-3 0l292 686h543v-79h-403l52 -216h312v-80h-293l56 -231h282v-80h-357l-43 177h-273l-74 -177h-94zM196 256h225l-60 248q-2 11 -5 23t-5 24t-4 23t-5 20h-5q-3 -7 -7.5 -18t-9 -24t-9 -25.5t-8.5 -22.5z" />
    <glyph glyph-name="Ccedilla" unicode="&#xc7;" horiz-adv-x="648" 
d="M336 -12q-96 0 -160.5 38.5t-97 117t-32.5 199.5q0 180 76.5 267.5t218.5 87.5q80 0 140 -28.5t93 -86t33 -146.5h-92q0 61 -20.5 101t-60 60.5t-95.5 20.5q-62 0 -107 -27.5t-68 -85.5t-23 -150v-31q0 -90 23 -147t67 -84t107 -27q56 0 96.5 20t61.5 60t21 101h89
q0 -89 -34 -147t-95 -85.5t-141 -27.5zM340 -180q-21 0 -42 2t-39 6v39h80q19 0 29 7t10 21q0 13 -9 19t-29 6h-41l15 93h54l-5 -53q21 0 40 -6.5t31 -20t12 -37.5q0 -23 -10 -38t-25.5 -23.5t-34 -11.5t-36.5 -3z" />
    <glyph glyph-name="Egrave" unicode="&#xc8;" horiz-adv-x="596" 
d="M77 0v686h468v-79h-376v-216h336v-80h-336v-232h381v-79h-473zM358 737h-72l-100 129l1 4h94z" />
    <glyph glyph-name="Eacute" unicode="&#xc9;" horiz-adv-x="596" 
d="M77 0v686h468v-79h-376v-216h336v-80h-336v-232h381v-79h-473zM277 737l78 133h93l1 -4l-99 -129h-73z" />
    <glyph glyph-name="Ecircumflex" unicode="&#xca;" horiz-adv-x="596" 
d="M77 0v686h468v-79h-376v-216h336v-80h-336v-232h381v-79h-473zM178 737l95 133h82l95 -133h-76l-80 114l41 -1l-82 -113h-75z" />
    <glyph glyph-name="Edieresis" unicode="&#xcb;" horiz-adv-x="596" 
d="M77 0v686h468v-79h-376v-216h336v-80h-336v-232h381v-79h-473zM191 776v92h79v-92h-79zM358 776v92h79v-92h-79z" />
    <glyph glyph-name="Igrave" unicode="&#xcc;" horiz-adv-x="245" 
d="M77 0v686h92v-686h-92zM167 737h-72l-100 129l1 4h94z" />
    <glyph glyph-name="Iacute" unicode="&#xcd;" horiz-adv-x="245" 
d="M77 0v686h92v-686h-92zM86 737l77 133h94l1 -4l-100 -129h-72z" />
    <glyph glyph-name="Icircumflex" unicode="&#xce;" horiz-adv-x="245" 
d="M77 0v686h92v-686h-92zM-13 737l95 133h82l95 -133h-76l-80 114l41 -1l-82 -113h-75z" />
    <glyph glyph-name="Idieresis" unicode="&#xcf;" horiz-adv-x="245" 
d="M77 0v686h92v-686h-92zM0 776v92h79v-92h-79zM167 776v92h79v-92h-79z" />
    <glyph glyph-name="Eth" unicode="&#xd0;" horiz-adv-x="654" 
d="M0 311v74h334v-74h-334zM77 0v686h229q98 0 165 -35.5t101.5 -111t34.5 -195.5q0 -119 -34.5 -195t-102 -112.5t-165.5 -36.5h-228zM169 79h131q49 0 88.5 13t67 41.5t42.5 76t15 116.5v30q0 70 -14.5 118t-42 77t-67 42.5t-89.5 13.5h-131v-528z" />
    <glyph glyph-name="Ntilde" unicode="&#xd1;" horiz-adv-x="654" 
d="M77 0v686h88l285 -445q4 -6 10.5 -17.5l13 -23t10.5 -19.5h5q0 16 -0.5 32t-0.5 29v444h89v-686h-83l-289 452q-6 11 -17 30t-18 33h-5q1 -15 1 -32v-32v-451h-89zM186 770q0 27 8.5 48.5t26 33.5t42.5 12q24 0 45.5 -8t42 -16t40.5 -8q14 0 21 8.5t9 23.5h51
q0 -26 -9 -47.5t-26 -33.5t-43 -12q-23 0 -44.5 8t-42 16t-40.5 8q-14 0 -21.5 -9t-8.5 -24h-51z" />
    <glyph glyph-name="Ograve" unicode="&#xd2;" horiz-adv-x="700" 
d="M350 -12q-96 0 -164 39t-104 118t-36 198q0 120 36 198.5t104 117.5t164 39t164 -39t103.5 -117.5t35.5 -198.5q0 -119 -35.5 -198t-103.5 -118t-164 -39zM350 67q49 0 87.5 15.5t65.5 47.5t41.5 81t14.5 116v32q0 67 -14.5 116t-41.5 81t-65.5 47.5t-87.5 15.5
t-88 -15.5t-66 -47.5t-41 -81t-14 -116v-32q0 -67 14 -116t41 -81t66 -47.5t88 -15.5zM393 737h-72l-100 129l1 4h94z" />
    <glyph glyph-name="Oacute" unicode="&#xd3;" horiz-adv-x="700" 
d="M350 -12q-96 0 -164 39t-104 118t-36 198q0 120 36 198.5t104 117.5t164 39t164 -39t103.5 -117.5t35.5 -198.5q0 -119 -35.5 -198t-103.5 -118t-164 -39zM350 67q49 0 87.5 15.5t65.5 47.5t41.5 81t14.5 116v32q0 67 -14.5 116t-41.5 81t-65.5 47.5t-87.5 15.5
t-88 -15.5t-66 -47.5t-41 -81t-14 -116v-32q0 -67 14 -116t41 -81t66 -47.5t88 -15.5zM312 737l78 133h93l1 -4l-99 -129h-73z" />
    <glyph glyph-name="Ocircumflex" unicode="&#xd4;" horiz-adv-x="700" 
d="M350 -12q-96 0 -164 39t-104 118t-36 198q0 120 36 198.5t104 117.5t164 39t164 -39t103.5 -117.5t35.5 -198.5q0 -119 -35.5 -198t-103.5 -118t-164 -39zM350 67q49 0 87.5 15.5t65.5 47.5t41.5 81t14.5 116v32q0 67 -14.5 116t-41.5 81t-65.5 47.5t-87.5 15.5
t-88 -15.5t-66 -47.5t-41 -81t-14 -116v-32q0 -67 14 -116t41 -81t66 -47.5t88 -15.5zM213 737l95 133h83l94 -133h-75l-81 114l41 -1l-81 -113h-76z" />
    <glyph glyph-name="Otilde" unicode="&#xd5;" horiz-adv-x="700" 
d="M350 -12q-96 0 -164 39t-104 118t-36 198q0 120 36 198.5t104 117.5t164 39t164 -39t103.5 -117.5t35.5 -198.5q0 -119 -35.5 -198t-103.5 -118t-164 -39zM350 67q49 0 87.5 15.5t65.5 47.5t41.5 81t14.5 116v32q0 67 -14.5 116t-41.5 81t-65.5 47.5t-87.5 15.5
t-88 -15.5t-66 -47.5t-41 -81t-14 -116v-32q0 -67 14 -116t41 -81t66 -47.5t88 -15.5zM206 770q1 27 9 48.5t25.5 33.5t42.5 12q24 0 45.5 -8t42 -16t40.5 -8q14 0 21 8.5t9 23.5h51q0 -26 -9 -47.5t-26 -33.5t-43 -12q-23 0 -44.5 8t-42 16t-40.5 8q-14 0 -21.5 -9
t-8.5 -24h-51z" />
    <glyph glyph-name="Odieresis" unicode="&#xd6;" horiz-adv-x="700" 
d="M350 -12q-96 0 -164 39t-104 118t-36 198q0 120 36 198.5t104 117.5t164 39t164 -39t103.5 -117.5t35.5 -198.5q0 -119 -35.5 -198t-103.5 -118t-164 -39zM350 67q49 0 87.5 15.5t65.5 47.5t41.5 81t14.5 116v32q0 67 -14.5 116t-41.5 81t-65.5 47.5t-87.5 15.5
t-88 -15.5t-66 -47.5t-41 -81t-14 -116v-32q0 -67 14 -116t41 -81t66 -47.5t88 -15.5zM226 776v92h79v-92h-79zM393 776v92h79v-92h-79z" />
    <glyph glyph-name="multiply" unicode="&#xd7;" horiz-adv-x="573" 
d="M143 60l-51 52l143 143l-144 145l51 52l145 -145l144 145l52 -52l-145 -144l144 -144l-52 -52l-144 145z" />
    <glyph glyph-name="Oslash" unicode="&#xd8;" horiz-adv-x="700" 
d="M350 -12q-96 0 -164 39t-104 118t-36 198q0 120 36 198.5t104 117.5t164 39t164 -39t103.5 -117.5t35.5 -198.5q0 -119 -35.5 -198t-103.5 -118t-164 -39zM350 67q49 0 87.5 15.5t65.5 47.5t41.5 81t14.5 116v32q0 67 -14.5 116t-41.5 81t-65.5 47.5t-87.5 15.5
t-88 -15.5t-66 -47.5t-41 -81t-14 -116v-32q0 -67 14 -116t41 -81t66 -47.5t88 -15.5zM52 -48l519 782h75l-520 -782h-74z" />
    <glyph glyph-name="Ugrave" unicode="&#xd9;" horiz-adv-x="648" 
d="M322 -12q-77 0 -132.5 25.5t-85.5 82t-30 148.5v442h92v-452q0 -84 40 -125.5t116 -41.5q78 0 119.5 41.5t41.5 125.5v452h91v-442q0 -92 -30 -148.5t-86.5 -82t-135.5 -25.5zM368 737h-72l-100 129l1 4h94z" />
    <glyph glyph-name="Uacute" unicode="&#xda;" horiz-adv-x="648" 
d="M322 -12q-77 0 -132.5 25.5t-85.5 82t-30 148.5v442h92v-452q0 -84 40 -125.5t116 -41.5q78 0 119.5 41.5t41.5 125.5v452h91v-442q0 -92 -30 -148.5t-86.5 -82t-135.5 -25.5zM287 737l77 133h94l1 -4l-99 -129h-73z" />
    <glyph glyph-name="Ucircumflex" unicode="&#xdb;" horiz-adv-x="648" 
d="M322 -12q-77 0 -132.5 25.5t-85.5 82t-30 148.5v442h92v-452q0 -84 40 -125.5t116 -41.5q78 0 119.5 41.5t41.5 125.5v452h91v-442q0 -92 -30 -148.5t-86.5 -82t-135.5 -25.5zM188 737l95 133h82l95 -133h-76l-80 114l41 -1l-82 -113h-75z" />
    <glyph glyph-name="Udieresis" unicode="&#xdc;" horiz-adv-x="648" 
d="M322 -12q-77 0 -132.5 25.5t-85.5 82t-30 148.5v442h92v-452q0 -84 40 -125.5t117 -41.5t118.5 41.5t41.5 125.5v452h91v-442q0 -92 -30 -148.5t-86.5 -82t-135.5 -25.5zM201 776v92h79v-92h-79zM368 776v92h79v-92h-79z" />
    <glyph glyph-name="Yacute" unicode="&#xdd;" horiz-adv-x="597" 
d="M252 0v284l-238 402h102l182 -313h5l181 313h99l-239 -402v-284h-92zM263 737l78 133h93l1 -4l-99 -129h-73z" />
    <glyph glyph-name="Thorn" unicode="&#xde;" horiz-adv-x="605" 
d="M76 0v686h92v-120h193q72 0 117 -26.5t66 -73.5t21 -108q0 -63 -23.5 -111.5t-68.5 -75.5t-109 -27h-196v-144h-92zM168 222h187q56 0 87 36.5t31 98.5q0 40 -12.5 69t-38 45t-67.5 16h-187v-265z" />
    <glyph glyph-name="germandbls" unicode="&#xdf;" horiz-adv-x="551" 
d="M69 0v522q0 58 17.5 98.5t47.5 66t68.5 37t81.5 11.5q49 0 87 -12t64 -35.5t39.5 -56.5t13.5 -74q0 -56 -28.5 -99t-76.5 -62v-4q60 -17 95 -65t35 -120q0 -65 -26 -111.5t-71.5 -71t-103.5 -24.5h-83v72h72q38 0 66 16.5t43.5 48t15.5 76.5q0 43 -16 73t-44 46.5
t-64 16.5h-73v74h63q31 0 56 17t40 45.5t15 64.5q0 51 -30.5 82.5t-88.5 31.5q-41 0 -70 -15.5t-45 -46.5t-16 -77v-525h-84z" />
    <glyph glyph-name="agrave" unicode="&#xe0;" horiz-adv-x="493" 
d="M183 -12q-28 0 -55 7.5t-48.5 24t-34 44.5t-12.5 68q0 49 21 82.5t60.5 55t96.5 31t130 9.5v67q0 29 -9 49.5t-31 31.5t-61 11q-41 0 -63.5 -12.5t-31 -32t-8.5 -42.5v-13h-80q-1 5 -1 10v12q0 51 24 83.5t67 48t99 15.5q57 0 97 -17t61 -51.5t21 -87.5v-289q0 -18 8 -26
t20 -8h36v-55q-14 -6 -30.5 -10.5t-36.5 -4.5q-25 0 -40.5 10.5t-23.5 28.5t-11 40h-6q-16 -24 -39.5 -42t-53 -28t-65.5 -10zM205 59q26 0 50.5 9.5t43.5 27t30.5 43.5t11.5 59v50q-75 0 -123.5 -11t-72.5 -35t-24 -62q0 -27 10 -45t29 -27t45 -9zM290 591h-68l-100 129
l1 3h90z" />
    <glyph glyph-name="aacute" unicode="&#xe1;" horiz-adv-x="493" 
d="M183 -12q-28 0 -55 7.5t-48.5 24t-34 44.5t-12.5 68q0 49 21 82.5t60.5 55t96.5 31t130 9.5v67q0 29 -9 49.5t-31 31.5t-61 11q-41 0 -63.5 -12.5t-31 -32t-8.5 -42.5v-13h-80q-1 5 -1 10v12q0 51 24 83.5t67 48t99 15.5q57 0 97 -17t61 -51.5t21 -87.5v-289q0 -18 8 -26
t20 -8h36v-55q-14 -6 -30.5 -10.5t-36.5 -4.5q-25 0 -40.5 10.5t-23.5 28.5t-11 40h-6q-16 -24 -39.5 -42t-53 -28t-65.5 -10zM205 59q26 0 50.5 9.5t43.5 27t30.5 43.5t11.5 59v50q-75 0 -123.5 -11t-72.5 -35t-24 -62q0 -27 10 -45t29 -27t45 -9zM197 591l77 132h90l1 -3
l-99 -129h-69z" />
    <glyph glyph-name="acircumflex" unicode="&#xe2;" horiz-adv-x="493" 
d="M183 -12q-28 0 -55 7.5t-48.5 24t-34 44.5t-12.5 68q0 49 21 82.5t60.5 55t96.5 31t130 9.5v67q0 29 -9 49.5t-31 31.5t-61 11q-41 0 -63.5 -12.5t-31 -32t-8.5 -42.5v-13h-80q-1 5 -1 10v12q0 51 24 83.5t67 48t99 15.5q57 0 97 -17t61 -51.5t21 -87.5v-289q0 -18 8 -26
t20 -8h36v-55q-14 -6 -30.5 -10.5t-36.5 -4.5q-25 0 -40.5 10.5t-23.5 28.5t-11 40h-6q-16 -24 -39.5 -42t-53 -28t-65.5 -10zM205 59q26 0 50.5 9.5t43.5 27t30.5 43.5t11.5 59v50q-75 0 -123.5 -11t-72.5 -35t-24 -62q0 -27 10 -45t29 -27t45 -9zM109 591l95 132h76
l95 -132h-73l-80 113h41l-82 -113h-72z" />
    <glyph glyph-name="atilde" unicode="&#xe3;" horiz-adv-x="493" 
d="M183 -12q-28 0 -55 7.5t-48.5 24t-34 44.5t-12.5 68q0 49 21 82.5t60.5 55t96.5 31t130 9.5v67q0 29 -9 49.5t-31 31.5t-61 11q-41 0 -63.5 -12.5t-31 -32t-8.5 -42.5v-13h-80q-1 5 -1 10v12q0 51 24 83.5t67 48t99 15.5q57 0 97 -17t61 -51.5t21 -87.5v-289q0 -18 8 -26
t20 -8h36v-55q-14 -6 -30.5 -10.5t-36.5 -4.5q-25 0 -40.5 10.5t-23.5 28.5t-11 40h-6q-16 -24 -39.5 -42t-53 -28t-65.5 -10zM205 59q26 0 50.5 9.5t43.5 27t30.5 43.5t11.5 59v50q-75 0 -123.5 -11t-72.5 -35t-24 -62q0 -27 10 -45t29 -27t45 -9zM99 624q0 28 8.5 49
t25.5 33t43 12q24 0 45.5 -7.5t42 -16t39.5 -8.5q15 0 22 9t9 24h51q0 -27 -9 -48t-26.5 -33.5t-42.5 -12.5q-23 0 -45 8.5t-42 16.5t-40 8q-15 0 -22 -9t-9 -25h-50z" />
    <glyph glyph-name="adieresis" unicode="&#xe4;" horiz-adv-x="493" 
d="M183 -12q-28 0 -55 7.5t-48.5 24t-34 44.5t-12.5 68q0 49 21 82.5t60.5 55t96.5 31t130 9.5v67q0 29 -9 49.5t-31 31.5t-61 11q-41 0 -63.5 -12.5t-31 -32t-8.5 -42.5v-13h-80q-1 5 -1 10v12q0 51 24 83.5t67 48t99 15.5q57 0 97 -17t61 -51.5t21 -87.5v-289q0 -18 8 -26
t20 -8h36v-55q-14 -6 -30.5 -10.5t-36.5 -4.5q-25 0 -40.5 10.5t-23.5 28.5t-11 40h-6q-16 -24 -39.5 -42t-53 -28t-65.5 -10zM205 59q26 0 50.5 9.5t43.5 27t30.5 43.5t11.5 59v50q-75 0 -123.5 -11t-72.5 -35t-24 -62q0 -27 10 -45t29 -27t45 -9zM119 631v91h78v-91h-78z
M286 631v91h79v-91h-79z" />
    <glyph glyph-name="aring" unicode="&#xe5;" horiz-adv-x="493" 
d="M183 -12q-28 0 -55 7.5t-48.5 24t-34 44.5t-12.5 68q0 49 21 82.5t60.5 55t96.5 31t130 9.5v67q0 29 -9 49.5t-31 31.5t-61 11q-41 0 -63.5 -12.5t-31 -32t-8.5 -42.5v-13h-80q-1 5 -1 10v12q0 51 24 83.5t67 48t99 15.5q57 0 97 -17t61 -51.5t21 -87.5v-289q0 -18 8 -26
t20 -8h36v-55q-14 -6 -30.5 -10.5t-36.5 -4.5q-25 0 -40.5 10.5t-23.5 28.5t-11 40h-6q-16 -24 -39.5 -42t-53 -28t-65.5 -10zM205 59q26 0 50.5 9.5t43.5 27t30.5 43.5t11.5 59v50q-75 0 -123.5 -11t-72.5 -35t-24 -62q0 -27 10 -45t29 -27t45 -9zM242 580q-38 0 -62.5 26
t-24.5 67t24.5 67.5t62.5 26.5q39 0 63 -26.5t24 -67.5t-24.5 -67t-62.5 -26zM242 623q19 0 31 14t12 36q0 23 -12 36.5t-31 13.5t-30.5 -14t-11.5 -36t11.5 -36t30.5 -14z" />
    <glyph glyph-name="ae" unicode="&#xe6;" horiz-adv-x="799" 
d="M195 -12q-30 0 -58.5 7.5t-52 24t-37.5 44.5t-14 68q0 48 21.5 81.5t62.5 54.5t100 30.5t134 9.5v69q0 29 -9.5 49.5t-32.5 31.5t-65 11t-65.5 -12.5t-32.5 -31.5t-9 -43v-13h-80q-1 5 -1 9.5v11.5q0 51 24.5 84t68 48.5t100.5 15.5t97 -17.5t60 -53.5q26 36 65.5 53.5
t91.5 17.5q65 0 109 -26t66.5 -81t22.5 -144v-41h-325q1 -66 14 -108t40.5 -62t70.5 -20q27 0 48 8.5t36 24t23 38.5t8 52h82q0 -44 -13.5 -79.5t-39 -60.5t-62 -38t-84.5 -13q-63 0 -106.5 23.5t-68.5 73.5q-22 -35 -52 -56.5t-65 -31t-72 -9.5zM209 58q28 0 53 9t45 27
t32 44.5t12 59.5v48q-77 0 -128.5 -11t-76.5 -34t-25 -61q0 -28 10.5 -46.5t30.5 -27t47 -8.5zM437 307h237q0 45 -8 76t-22.5 50t-35.5 27.5t-47 8.5q-41 0 -68 -18t-40.5 -53.5t-15.5 -90.5z" />
    <glyph glyph-name="ccedilla" unicode="&#xe7;" horiz-adv-x="468" 
d="M242 -12q-69 0 -114.5 29.5t-68.5 91t-23 154.5q0 95 23.5 156t70 90t115.5 29q50 0 85 -13.5t58 -40t33.5 -65t10.5 -89.5h-84q0 48 -10 78.5t-33 45t-62 14.5q-36 0 -63.5 -18.5t-42 -60.5t-14.5 -113v-28q0 -64 13.5 -106.5t40.5 -63t67 -20.5q39 0 62 15.5t33.5 46.5
t10.5 76h82q0 -44 -10.5 -81.5t-33 -66t-58.5 -44.5t-88 -16zM237 -180q-21 0 -42.5 2t-39.5 6v39h81q19 0 28.5 7t9.5 21q0 13 -8.5 19t-28.5 6h-42l15 93h55l-6 -53q22 0 41 -6.5t30.5 -20t11.5 -37.5q0 -23 -10 -38t-25.5 -23.5t-34 -11.5t-35.5 -3z" />
    <glyph glyph-name="egrave" unicode="&#xe8;" horiz-adv-x="494" 
d="M252 -12q-72 0 -119.5 29t-71 90t-23.5 156q0 97 24 157.5t72.5 89t121.5 28.5q66 0 110.5 -26.5t67 -82t22.5 -142.5v-44h-331q0 -65 13.5 -106t41.5 -60.5t73 -19.5q28 0 49.5 8.5t37 24t23.5 38t9 51.5h82q-1 -44 -14.5 -79.5t-39 -60.5t-63 -38t-85.5 -13zM125 304
h244q0 45 -8 76t-22.5 51t-36 29t-49.5 9q-42 0 -69.5 -19t-41.5 -55t-17 -91zM300 591h-68l-100 129l1 3h90z" />
    <glyph glyph-name="eacute" unicode="&#xe9;" horiz-adv-x="494" 
d="M252 -12q-72 0 -119.5 29t-71 90t-23.5 156q0 97 24 157.5t72.5 89t121.5 28.5q66 0 110.5 -26.5t67 -82t22.5 -142.5v-44h-331q0 -65 13.5 -106t41.5 -60.5t73 -19.5q28 0 49.5 8.5t37 24t23.5 38t9 51.5h82q-1 -44 -14.5 -79.5t-39 -60.5t-63 -38t-85.5 -13zM125 304
h244q0 45 -8 76t-22.5 51t-36 29t-49.5 9q-42 0 -69.5 -19t-41.5 -55t-17 -91zM207 591l78 132h90v-3l-99 -129h-69z" />
    <glyph glyph-name="ecircumflex" unicode="&#xea;" horiz-adv-x="494" 
d="M252 -12q-72 0 -119.5 29t-71 90t-23.5 156q0 97 24 157.5t72.5 89t121.5 28.5q66 0 110.5 -26.5t67 -82t22.5 -142.5v-44h-331q0 -65 13.5 -106t41.5 -60.5t73 -19.5q28 0 49.5 8.5t37 24t23.5 38t9 51.5h82q-1 -44 -14.5 -79.5t-39 -60.5t-63 -38t-85.5 -13zM125 304
h244q0 45 -8 76t-22.5 51t-36 29t-49.5 9q-42 0 -69.5 -19t-41.5 -55t-17 -91zM120 591l94 132h76l95 -132h-72l-81 113h41l-81 -113h-72z" />
    <glyph glyph-name="edieresis" unicode="&#xeb;" horiz-adv-x="494" 
d="M252 -12q-72 0 -119.5 29t-71 90t-23.5 156q0 97 24 157.5t72.5 89t121.5 28.5q66 0 110.5 -26.5t67 -82t22.5 -142.5v-44h-331q0 -65 13.5 -106t41.5 -60.5t73 -19.5q28 0 49.5 8.5t37 24t23.5 38t9 51.5h82q-1 -44 -14.5 -79.5t-39 -60.5t-63 -38t-85.5 -13zM125 304
h244q0 45 -8 76t-22.5 51t-36 29t-49.5 9q-42 0 -69.5 -19t-41.5 -55t-17 -91zM129 631v91h78v-91h-78zM296 631v91h79v-91h-79z" />
    <glyph glyph-name="igrave" unicode="&#xec;" horiz-adv-x="209" 
d="M63 0v526h83v-526h-83zM152 591h-68l-99 129v3h90z" />
    <glyph glyph-name="iacute" unicode="&#xed;" horiz-adv-x="209" 
d="M63 0v526h83v-526h-83zM60 591l77 132h90v-3l-99 -129h-68z" />
    <glyph glyph-name="icircumflex" unicode="&#xee;" horiz-adv-x="209" 
d="M63 0v526h83v-526h-83zM-28 591l95 132h75l95 -132h-72l-81 113h41l-81 -113h-72z" />
    <glyph glyph-name="idieresis" unicode="&#xef;" horiz-adv-x="209" 
d="M63 0v526h83v-526h-83zM-19 631v91h79v-91h-79zM148 631v91h79v-91h-79z" />
    <glyph glyph-name="eth" unicode="&#xf0;" horiz-adv-x="508" 
d="M252 -12q-69 0 -116.5 28.5t-72 89t-24.5 156.5q0 91 22.5 151.5t66 91t105.5 30.5q20 0 38 -3.5t35 -10.5l2 3q-16 26 -33.5 49.5t-37.5 45.5l-127 -11v54l80 6q-14 14 -29 26.5t-30 25.5l2 3h99q9 -6 18 -14.5t18 -16.5t17 -16l125 11v-54l-78 -7q43 -51 73.5 -107
t47 -119.5t16.5 -137.5q0 -97 -24.5 -157.5t-72.5 -88.5t-120 -28zM254 59q43 0 71.5 19.5t42.5 60.5t14 107v32q0 66 -14 107t-42.5 60.5t-71.5 19.5t-72 -20t-42.5 -61t-13.5 -106v-31q0 -67 14 -108t42.5 -60.5t71.5 -19.5z" />
    <glyph glyph-name="ntilde" unicode="&#xf1;" horiz-adv-x="502" 
d="M63 0v526h68l7 -75h6q18 31 41.5 50t52 28t60.5 9q44 0 77 -15.5t51 -50.5t18 -94v-378h-84v363q0 28 -6 47t-17.5 30.5t-29 17t-38.5 5.5q-33 0 -61 -18t-45 -52t-17 -83v-310h-83zM110 624q0 28 8.5 49t25.5 33t43 12q24 0 45.5 -7.5t42 -16t39.5 -8.5q15 0 22 9t9 24
h51q0 -27 -9 -48t-26.5 -33.5t-42.5 -12.5q-23 0 -45 8.5t-42 16.5t-40 8q-15 0 -22 -9t-9 -25h-50z" />
    <glyph glyph-name="ograve" unicode="&#xf2;" horiz-adv-x="509" 
d="M255 -12q-71 0 -119.5 28.5t-73 89.5t-24.5 157q0 97 24.5 157.5t73 89t119.5 28.5t119 -28.5t73 -89t25 -157.5q0 -96 -25 -157t-73 -89.5t-119 -28.5zM255 59q44 0 72.5 19.5t42.5 62t14 108.5v28q0 67 -14 109t-42.5 61.5t-72.5 19.5t-73 -19.5t-43 -61.5t-14 -109
v-28q0 -66 14 -108.5t43 -62t73 -19.5zM303 591h-69l-99 129l1 3h90z" />
    <glyph glyph-name="oacute" unicode="&#xf3;" horiz-adv-x="509" 
d="M255 -12q-71 0 -119.5 28.5t-73 89.5t-24.5 157q0 97 24.5 157.5t73 89t119.5 28.5t119 -28.5t73 -89t25 -157.5q0 -96 -25 -157t-73 -89.5t-119 -28.5zM255 59q44 0 72.5 19.5t42.5 62t14 108.5v28q0 67 -14 109t-42.5 61.5t-72.5 19.5t-73 -19.5t-43 -61.5t-14 -109
v-28q0 -66 14 -108.5t43 -62t73 -19.5zM210 591l77 132h90l1 -3l-100 -129h-68z" />
    <glyph glyph-name="ocircumflex" unicode="&#xf4;" horiz-adv-x="509" 
d="M255 -12q-71 0 -119.5 28.5t-73 89.5t-24.5 157q0 97 24.5 157.5t73 89t119.5 28.5t119 -28.5t73 -89t25 -157.5q0 -96 -25 -157t-73 -89.5t-119 -28.5zM255 59q44 0 72.5 19.5t42.5 62t14 108.5v28q0 67 -14 109t-42.5 61.5t-72.5 19.5t-73 -19.5t-43 -61.5t-14 -109
v-28q0 -66 14 -108.5t43 -62t73 -19.5zM122 591l95 132h75l95 -132h-72l-81 113h41l-81 -113h-72z" />
    <glyph glyph-name="otilde" unicode="&#xf5;" horiz-adv-x="509" 
d="M255 -12q-71 0 -119.5 28.5t-73 89.5t-24.5 157q0 97 24.5 157.5t73 89t119.5 28.5t119 -28.5t73 -89t25 -157.5q0 -96 -25 -157t-73 -89.5t-119 -28.5zM255 59q44 0 72.5 19.5t42.5 62t14 108.5v28q0 67 -14 109t-42.5 61.5t-72.5 19.5t-73 -19.5t-43 -61.5t-14 -109
v-28q0 -66 14 -108.5t43 -62t73 -19.5zM111 624q1 28 9.5 49t25.5 33t43 12q23 0 45 -7.5t42.5 -16t39.5 -8.5q15 0 21.5 9t9.5 24h51q-1 -27 -10 -48t-26 -33.5t-43 -12.5q-22 0 -44 8.5t-42 16.5t-40 8q-15 0 -22 -9t-9 -25h-51z" />
    <glyph glyph-name="odieresis" unicode="&#xf6;" horiz-adv-x="509" 
d="M255 -12q-71 0 -119.5 28.5t-73 89.5t-24.5 157q0 97 24.5 157.5t73 89t119.5 28.5t119 -28.5t73 -89t25 -157.5q0 -96 -25 -157t-73 -89.5t-119 -28.5zM255 59q44 0 72.5 19.5t42.5 62t14 108.5v28q0 67 -14 109t-42.5 61.5t-72.5 19.5t-73 -19.5t-43 -61.5t-14 -109
v-28q0 -66 14 -108.5t43 -62t73 -19.5zM132 631v91h78v-91h-78zM299 631v91h78v-91h-78z" />
    <glyph glyph-name="divide" unicode="&#xf7;" horiz-adv-x="573" 
d="M71 219v74h431v-74h-431zM244 32v86h84v-86h-84zM244 395v86h84v-86h-84z" />
    <glyph glyph-name="oslash" unicode="&#xf8;" horiz-adv-x="509" 
d="M255 -12q-71 0 -119.5 28.5t-73 89.5t-24.5 157q0 97 24.5 157.5t73 89t119.5 28.5t119 -28.5t73 -89t25 -157.5q0 -96 -25 -157t-73 -89.5t-119 -28.5zM255 59q44 0 72.5 19.5t42.5 62t14 108.5v28q0 67 -14 109t-42.5 61.5t-72.5 19.5t-73 -19.5t-43 -61.5t-14 -109
v-28q0 -66 14 -108.5t43 -62t73 -19.5zM27 -48l398 623h57l-396 -623h-59z" />
    <glyph glyph-name="ugrave" unicode="&#xf9;" horiz-adv-x="502" 
d="M204 -12q-66 0 -106 36t-40 125v377h84v-363q0 -28 6 -47t17.5 -30.5t29 -17t38.5 -5.5q33 0 61 18t45 52.5t17 82.5v310h83v-526h-67l-8 75h-6q-18 -30 -41.5 -49.5t-51.5 -28.5t-61 -9zM299 591h-68l-100 129l1 3h90z" />
    <glyph glyph-name="uacute" unicode="&#xfa;" horiz-adv-x="502" 
d="M204 -12q-66 0 -106 36t-40 125v377h84v-363q0 -28 6 -47t17.5 -30.5t29 -17t38.5 -5.5q33 0 61 18t45 52.5t17 82.5v310h83v-526h-67l-8 75h-6q-18 -30 -41.5 -49.5t-51.5 -28.5t-61 -9zM206 591l78 132h90v-3l-99 -129h-69z" />
    <glyph glyph-name="ucircumflex" unicode="&#xfb;" horiz-adv-x="502" 
d="M204 -12q-66 0 -106 36t-40 125v377h84v-363q0 -28 6 -47t17.5 -30.5t29 -17t38.5 -5.5q33 0 61 18t45 52.5t17 82.5v310h83v-526h-67l-8 75h-6q-18 -30 -41.5 -49.5t-51.5 -28.5t-61 -9zM119 591l95 132h75l95 -132h-72l-81 113h41l-81 -113h-72z" />
    <glyph glyph-name="udieresis" unicode="&#xfc;" horiz-adv-x="502" 
d="M204 -12q-66 0 -106 36t-40 125v377h84v-363q0 -28 6 -47t17.5 -30.5t29 -17t38.5 -5.5q33 0 61 18t45 52.5t17 82.5v310h83v-526h-67l-8 75h-6q-18 -30 -41.5 -49.5t-51.5 -28.5t-61 -9zM128 631v91h79v-91h-79zM295 631v91h79v-91h-79z" />
    <glyph glyph-name="yacute" unicode="&#xfd;" horiz-adv-x="439" 
d="M99 -184q-21 0 -37.5 3t-24.5 4v63h39q24 0 44 10.5t36 36t28 67.5l-173 526h88l88 -285q6 -16 13 -40.5t14 -50t11 -45.5h6q4 15 8.5 34t9.5 38.5t10 37.5t9 31l77 280h85l-155 -512q-13 -43 -28.5 -79.5t-35 -63t-47 -41t-65.5 -14.5zM182 591l78 132h90v-3l-99 -129
h-69z" />
    <glyph glyph-name="thorn" unicode="&#xfe;" horiz-adv-x="504" 
d="M63 -175v902h84v-265h6q15 27 36 43.5t47 24t56 7.5q54 0 93 -28.5t60 -88t21 -154.5q0 -100 -21.5 -161t-61.5 -89t-95 -28q-29 0 -55 8.5t-46 25.5t-35 42h-5v-239h-84zM265 62q38 0 63 19t38 61t13 110v21q0 67 -12 109t-37 62t-64 20q-26 0 -47.5 -10t-37.5 -32.5
t-25.5 -59t-9.5 -89.5v-19q0 -61 12.5 -104.5t38.5 -65.5t68 -22z" />
    <glyph glyph-name="ydieresis" unicode="&#xff;" horiz-adv-x="439" 
d="M99 -184q-21 0 -37.5 3t-24.5 4v63h39q24 0 44 10.5t36 36t28 67.5l-173 526h88l88 -285q6 -16 13 -40.5t14 -50t11 -45.5h6q4 15 8.5 34t9.5 38.5t10 37.5t9 31l77 280h85l-155 -512q-13 -43 -28.5 -79.5t-35 -63t-47 -41t-65.5 -14.5zM104 631v91h78v-91h-78zM271 631
v91h79v-91h-79z" />
    <glyph glyph-name="Amacron" unicode="&#x100;" horiz-adv-x="600" 
d="M5 0l236 686h117l237 -686h-98l-59 175h-281l-59 -175h-93zM183 254h229l-72 218q-3 10 -8 24.5t-10.5 32.5l-11 36t-9.5 33h-6q-5 -18 -12.5 -41.5t-14.5 -46t-13 -38.5zM167 776v63h266v-63h-266z" />
    <glyph glyph-name="amacron" unicode="&#x101;" horiz-adv-x="493" 
d="M183 -12q-28 0 -55 7.5t-48.5 24t-34 44.5t-12.5 68q0 49 21 82.5t60.5 55t96.5 31t130 9.5v67q0 29 -9 49.5t-31 31.5t-61 11q-41 0 -63.5 -12.5t-31 -32t-8.5 -42.5v-13h-80q-1 5 -1 10v12q0 51 24 83.5t67 48t99 15.5q57 0 97 -17t61 -51.5t21 -87.5v-289q0 -18 8 -26
t20 -8h36v-55q-14 -6 -30.5 -10.5t-36.5 -4.5q-25 0 -40.5 10.5t-23.5 28.5t-11 40h-6q-16 -24 -39.5 -42t-53 -28t-65.5 -10zM205 59q26 0 50.5 9.5t43.5 27t30.5 43.5t11.5 59v50q-75 0 -123.5 -11t-72.5 -35t-24 -62q0 -27 10 -45t29 -27t45 -9zM109 638v62h265v-62h-265
z" />
    <glyph glyph-name="Abreve" unicode="&#x102;" horiz-adv-x="600" 
d="M5 0l236 686h117l237 -686h-98l-59 175h-281l-59 -175h-93zM183 254h229l-72 218q-3 10 -8 24.5t-10.5 32.5l-11 36t-9.5 33h-6q-5 -18 -12.5 -41.5t-14.5 -46t-13 -38.5zM299 755q-49 0 -77 17.5t-39 44t-11 53.5h54q2 -11 8.5 -24.5t22 -23.5t43.5 -10q30 0 45.5 10
t22.5 23.5t8 24.5h54q0 -27 -12 -53.5t-40.5 -44t-78.5 -17.5z" />
    <glyph glyph-name="abreve" unicode="&#x103;" horiz-adv-x="493" 
d="M183 -12q-28 0 -55 7.5t-48.5 24t-34 44.5t-12.5 68q0 49 21 82.5t60.5 55t96.5 31t130 9.5v67q0 29 -9 49.5t-31 31.5t-61 11q-41 0 -63.5 -12.5t-31 -32t-8.5 -42.5v-13h-80q-1 5 -1 10v12q0 51 24 83.5t67 48t99 15.5q57 0 97 -17t61 -51.5t21 -87.5v-289q0 -18 8 -26
t20 -8h36v-55q-14 -6 -30.5 -10.5t-36.5 -4.5q-25 0 -40.5 10.5t-23.5 28.5t-11 40h-6q-16 -24 -39.5 -42t-53 -28t-65.5 -10zM205 59q26 0 50.5 9.5t43.5 27t30.5 43.5t11.5 59v50q-75 0 -123.5 -11t-72.5 -35t-24 -62q0 -27 10 -45t29 -27t45 -9zM240 609q-49 0 -77 17
t-39 44t-11 53h55q2 -11 8 -25t21.5 -23.5t43.5 -9.5q29 0 45 9.5t22.5 23.5t7.5 25h54q0 -26 -11.5 -53t-39.5 -44t-79 -17z" />
    <glyph glyph-name="Aogonek" unicode="&#x104;" horiz-adv-x="600" 
d="M5 0l236 686h117l237 -686h-98l-59 175h-281l-59 -175h-93zM183 254h229l-72 218q-3 10 -8 24.5t-10.5 32.5l-11 36t-9.5 33h-6q-5 -18 -12.5 -41.5t-14.5 -46t-13 -38.5zM550 -175q-22 0 -43 8.5t-34 28t-13 51.5t14 56t33 43h55v-5q-11 -10 -22.5 -28.5t-11.5 -43.5
q0 -23 11.5 -38.5t38.5 -15.5h31v-42q-13 -7 -30 -10.5t-29 -3.5z" />
    <glyph glyph-name="aogonek" unicode="&#x105;" horiz-adv-x="493" 
d="M183 -12q-28 0 -55 7.5t-48.5 24t-34 44.5t-12.5 68q0 49 21 82.5t60.5 55t96.5 31t130 9.5v67q0 29 -9 49.5t-31 31.5t-61 11q-41 0 -63.5 -12.5t-31 -32t-8.5 -42.5v-13h-80q-1 5 -1 10v12q0 51 24 83.5t67 48t99 15.5q57 0 97 -17t61 -51.5t21 -87.5v-289q0 -18 8 -26
t20 -8h36v-55q-14 -6 -30.5 -10.5t-36.5 -4.5q-25 0 -40.5 10.5t-23.5 28.5t-11 40h-6q-16 -24 -39.5 -42t-53 -28t-65.5 -10zM205 59q26 0 50.5 9.5t43.5 27t30.5 43.5t11.5 59v50q-75 0 -123.5 -11t-72.5 -35t-24 -62q0 -27 10 -45t29 -27t45 -9zM421 -175
q-22 0 -42.5 8.5t-33.5 28t-13 51.5t14 56t33 43h55v-5q-11 -10 -22.5 -28.5t-11.5 -43.5q0 -23 11 -38.5t38 -15.5h32v-42q-13 -7 -30 -10.5t-30 -3.5z" />
    <glyph glyph-name="Cacute" unicode="&#x106;" horiz-adv-x="648" 
d="M336 -12q-96 0 -160.5 38.5t-97 117t-32.5 199.5q0 180 76.5 267.5t218.5 87.5q80 0 140 -28.5t93 -86t33 -146.5h-92q0 61 -20.5 101t-60 60.5t-95.5 20.5q-62 0 -107 -27.5t-68 -85.5t-23 -150v-31q0 -90 23 -147t67 -84t107 -27q56 0 96.5 20t61.5 60t21 101h89
q0 -89 -34 -147t-95 -85.5t-141 -27.5zM302 737l77 133h94l1 -4l-100 -129h-72z" />
    <glyph glyph-name="cacute" unicode="&#x107;" horiz-adv-x="468" 
d="M242 -12q-69 0 -114.5 29.5t-68.5 91t-23 154.5q0 95 23.5 156t70 90t115.5 29q50 0 85 -13.5t58 -40t33.5 -65t10.5 -89.5h-84q0 48 -10 78.5t-33 45t-62 14.5q-36 0 -63.5 -18.5t-42 -60.5t-14.5 -113v-28q0 -64 13.5 -106.5t40.5 -63t67 -20.5q39 0 62 15.5t33.5 46.5
t10.5 76h82q0 -44 -10.5 -81.5t-33 -66t-58.5 -44.5t-88 -16zM200 591l77 132h90l1 -3l-100 -129h-68z" />
    <glyph glyph-name="Ccircumflex" unicode="&#x108;" horiz-adv-x="648" 
d="M336 -12q-96 0 -160.5 38.5t-97 117t-32.5 199.5q0 180 76.5 267.5t218.5 87.5q80 0 140 -28.5t93 -86t33 -146.5h-92q0 61 -20.5 101t-60 60.5t-95.5 20.5q-62 0 -107 -27.5t-68 -85.5t-23 -150v-31q0 -90 23 -147t67 -84t107 -27q56 0 96.5 20t61.5 60t21 101h89
q0 -89 -34 -147t-95 -85.5t-141 -27.5zM203 737l95 133h82l95 -133h-76l-80 114l41 -1l-82 -113h-75z" />
    <glyph glyph-name="ccircumflex" unicode="&#x109;" horiz-adv-x="468" 
d="M242 -12q-69 0 -114.5 29.5t-68.5 91t-23 154.5q0 95 23.5 156t70 90t115.5 29q50 0 85 -13.5t58 -40t33.5 -65t10.5 -89.5h-84q0 48 -10 78.5t-33 45t-62 14.5q-36 0 -63.5 -18.5t-42 -60.5t-14.5 -113v-28q0 -64 13.5 -106.5t40.5 -63t67 -20.5q39 0 62 15.5t33.5 46.5
t10.5 76h82q0 -44 -10.5 -81.5t-33 -66t-58.5 -44.5t-88 -16zM112 591l95 132h75l95 -132h-72l-81 113h41l-81 -113h-72z" />
    <glyph glyph-name="Cdotaccent" unicode="&#x10a;" horiz-adv-x="648" 
d="M336 -12q-96 0 -160.5 38.5t-97 117t-32.5 199.5q0 180 76.5 267.5t218.5 87.5q80 0 140 -28.5t93 -86t33 -146.5h-92q0 61 -20.5 101t-60 60.5t-95.5 20.5q-62 0 -107 -27.5t-68 -85.5t-23 -150v-31q0 -90 23 -147t67 -84t107 -27q56 0 96.5 20t61.5 60t21 101h89
q0 -89 -34 -147t-95 -85.5t-141 -27.5zM298 776v95h82v-95h-82z" />
    <glyph glyph-name="cdotaccent" unicode="&#x10b;" horiz-adv-x="468" 
d="M242 -12q-69 0 -114.5 29.5t-68.5 91t-23 154.5q0 95 23.5 156t70 90t115.5 29q50 0 85 -13.5t58 -40t33.5 -65t10.5 -89.5h-84q0 48 -10 78.5t-33 45t-62 14.5q-36 0 -63.5 -18.5t-42 -60.5t-14.5 -113v-28q0 -64 13.5 -106.5t40.5 -63t67 -20.5q39 0 62 15.5t33.5 46.5
t10.5 76h82q0 -44 -10.5 -81.5t-33 -66t-58.5 -44.5t-88 -16zM203 627v95h83v-95h-83z" />
    <glyph glyph-name="Ccaron" unicode="&#x10c;" horiz-adv-x="648" 
d="M336 -12q-96 0 -160.5 38.5t-97 117t-32.5 199.5q0 180 76.5 267.5t218.5 87.5q80 0 140 -28.5t93 -86t33 -146.5h-92q0 61 -20.5 101t-60 60.5t-95.5 20.5q-62 0 -107 -27.5t-68 -85.5t-23 -150v-31q0 -90 23 -147t67 -84t107 -27q56 0 96.5 20t61.5 60t21 101h89
q0 -89 -34 -147t-95 -85.5t-141 -27.5zM203 870h75l82 -113l-41 -1l80 114h76l-95 -133h-82z" />
    <glyph glyph-name="ccaron" unicode="&#x10d;" horiz-adv-x="468" 
d="M242 -12q-69 0 -114.5 29.5t-68.5 91t-23 154.5q0 95 23.5 156t70 90t115.5 29q50 0 85 -13.5t58 -40t33.5 -65t10.5 -89.5h-84q0 48 -10 78.5t-33 45t-62 14.5q-36 0 -63.5 -18.5t-42 -60.5t-14.5 -113v-28q0 -64 13.5 -106.5t40.5 -63t67 -20.5q39 0 62 15.5t33.5 46.5
t10.5 76h82q0 -44 -10.5 -81.5t-33 -66t-58.5 -44.5t-88 -16zM112 723h72l81 -113h-41l81 113h72l-95 -132h-75z" />
    <glyph glyph-name="Dcaron" unicode="&#x10e;" horiz-adv-x="654" 
d="M77 0v686h229q98 0 165 -35.5t101.5 -111t34.5 -195.5q0 -119 -34.5 -195t-102 -112.5t-165.5 -36.5h-228zM169 79h131q49 0 88.5 13t67 41.5t42.5 76t15 116.5v30q0 70 -14.5 118t-42 77t-67 42.5t-89.5 13.5h-131v-528zM186 870h76l81 -113l-41 -1l81 114h75l-94 -133
h-83z" />
    <glyph glyph-name="dcaron" unicode="&#x10f;" horiz-adv-x="507" 
d="M220 -12q-58 0 -98.5 28t-62 89.5t-21.5 160.5q0 96 21.5 155.5t61.5 88t96 28.5q31 0 56.5 -8t46 -24.5t34.5 -43.5h6v261h84v-723h-67l-8 72h-6q-21 -39 -58.5 -61.5t-84.5 -22.5zM241 62q43 0 69 22t38 64t12 103v22q0 53 -9 89.5t-25 58.5t-37.5 32.5t-46.5 10.5
q-40 0 -66 -19.5t-38.5 -61t-12.5 -108.5v-25q0 -67 13 -108.5t38.5 -60.5t64.5 -19zM481 555v168h80l-24 -168h-56z" />
    <glyph glyph-name="Dcroat" unicode="&#x110;" horiz-adv-x="654" 
d="M0 311v74h334v-74h-334zM77 0v686h229q98 0 165 -35.5t101.5 -111t34.5 -195.5q0 -119 -34.5 -195t-102 -112.5t-165.5 -36.5h-228zM169 79h131q49 0 88.5 13t67 41.5t42.5 76t15 116.5v30q0 70 -14.5 118t-42 77t-67 42.5t-89.5 13.5h-131v-528z" />
    <glyph glyph-name="dcroat" unicode="&#x111;" horiz-adv-x="507" 
d="M220 -12q-58 0 -98.5 28t-62 89.5t-21.5 160.5q0 96 21.5 155.5t61.5 88t96 28.5q31 0 56.5 -8t46 -24.5t34.5 -43.5h6v261h84v-723h-67l-8 72h-6q-21 -39 -58.5 -61.5t-84.5 -22.5zM241 62q43 0 69 22t38 64t12 103v22q0 53 -9 89.5t-25 58.5t-37.5 32.5t-46.5 10.5
q-40 0 -66 -19.5t-38.5 -61t-12.5 -108.5v-25q0 -67 13 -108.5t38.5 -60.5t64.5 -19zM225 591v59h282v-59h-282z" />
    <glyph glyph-name="Emacron" unicode="&#x112;" horiz-adv-x="596" 
d="M77 0v686h468v-79h-376v-216h336v-80h-336v-232h381v-79h-473zM180 776v63h267v-63h-267z" />
    <glyph glyph-name="emacron" unicode="&#x113;" horiz-adv-x="494" 
d="M252 -12q-72 0 -119.5 29t-71 90t-23.5 156q0 97 24 157.5t72.5 89t121.5 28.5q66 0 110.5 -26.5t67 -82t22.5 -142.5v-44h-331q0 -65 13.5 -106t41.5 -60.5t73 -19.5q28 0 49.5 8.5t37 24t23.5 38t9 51.5h82q-1 -44 -14.5 -79.5t-39 -60.5t-63 -38t-85.5 -13zM125 304
h244q0 45 -8 76t-22.5 51t-36 29t-49.5 9q-42 0 -69.5 -19t-41.5 -55t-17 -91zM119 638v62h265v-62h-265z" />
    <glyph glyph-name="Ebreve" unicode="&#x114;" horiz-adv-x="596" 
d="M77 0v686h468v-79h-376v-216h336v-80h-336v-232h381v-79h-473zM313 755q-49 0 -77 17.5t-39 44t-11 53.5h54q2 -11 8.5 -24.5t22 -23.5t43.5 -10q30 0 45.5 10t22.5 23.5t7 24.5h54q0 -27 -12 -53.5t-40 -44t-78 -17.5z" />
    <glyph glyph-name="ebreve" unicode="&#x115;" horiz-adv-x="494" 
d="M252 -12q-72 0 -119.5 29t-71 90t-23.5 156q0 97 24 157.5t72.5 89t121.5 28.5q66 0 110.5 -26.5t67 -82t22.5 -142.5v-44h-331q0 -65 13.5 -106t41.5 -60.5t73 -19.5q28 0 49.5 8.5t37 24t23.5 38t9 51.5h82q-1 -44 -14.5 -79.5t-39 -60.5t-63 -38t-85.5 -13zM125 304
h244q0 45 -8 76t-22.5 51t-36 29t-49.5 9q-42 0 -69.5 -19t-41.5 -55t-17 -91zM250 609q-49 0 -77 17t-39 44t-11 53h55q2 -11 8.5 -25t21.5 -23.5t43 -9.5q30 0 45.5 9.5t22 23.5t7.5 25h54q0 -26 -11.5 -53t-39.5 -44t-79 -17z" />
    <glyph glyph-name="Edotaccent" unicode="&#x116;" horiz-adv-x="596" 
d="M77 0v686h468v-79h-376v-216h336v-80h-336v-232h381v-79h-473zM273 776v95h82v-95h-82z" />
    <glyph glyph-name="edotaccent" unicode="&#x117;" horiz-adv-x="494" 
d="M252 -12q-72 0 -119.5 29t-71 90t-23.5 156q0 97 24 157.5t72.5 89t121.5 28.5q66 0 110.5 -26.5t67 -82t22.5 -142.5v-44h-331q0 -65 13.5 -106t41.5 -60.5t73 -19.5q28 0 49.5 8.5t37 24t23.5 38t9 51.5h82q-1 -44 -14.5 -79.5t-39 -60.5t-63 -38t-85.5 -13zM125 304
h244q0 45 -8 76t-22.5 51t-36 29t-49.5 9q-42 0 -69.5 -19t-41.5 -55t-17 -91zM211 627v95h82v-95h-82z" />
    <glyph glyph-name="Eogonek" unicode="&#x118;" horiz-adv-x="596" 
d="M77 0v686h468v-79h-376v-216h336v-80h-336v-232h381v-79h-473zM490 -175q-22 0 -42.5 8.5t-33.5 28t-13 51.5t14 56t33 43h54v-5q-10 -10 -21.5 -28.5t-11.5 -43.5q0 -23 11 -38.5t38 -15.5h32v-42q-13 -7 -30 -10.5t-30 -3.5z" />
    <glyph glyph-name="eogonek" unicode="&#x119;" horiz-adv-x="494" 
d="M252 -12q-72 0 -119.5 29t-71 90t-23.5 156q0 97 24 157.5t72.5 89t121.5 28.5q66 0 110.5 -26.5t67 -82t22.5 -142.5v-44h-331q0 -65 13.5 -106t41.5 -60.5t73 -19.5q28 0 49.5 8.5t37 24t23.5 38t9 51.5h82q-1 -44 -14.5 -79.5t-39 -60.5t-63 -38t-85.5 -13zM125 304
h244q0 45 -8 76t-22.5 51t-36 29t-49.5 9q-42 0 -69.5 -19t-41.5 -55t-17 -91zM338 -175q-22 0 -42.5 8.5t-33.5 28t-13 51.5t13.5 56t32.5 43h55v-5q-10 -10 -21.5 -28.5t-11.5 -43.5q0 -23 11 -38.5t38 -15.5h32v-42q-14 -7 -30.5 -10.5t-29.5 -3.5z" />
    <glyph glyph-name="Ecaron" unicode="&#x11a;" horiz-adv-x="596" 
d="M77 0v686h468v-79h-376v-216h336v-80h-336v-232h381v-79h-473zM178 870h75l82 -113l-41 -1l80 114h76l-95 -133h-82z" />
    <glyph glyph-name="ecaron" unicode="&#x11b;" horiz-adv-x="494" 
d="M252 -12q-72 0 -119.5 29t-71 90t-23.5 156q0 97 24 157.5t72.5 89t121.5 28.5q66 0 110.5 -26.5t67 -82t22.5 -142.5v-44h-331q0 -65 13.5 -106t41.5 -60.5t73 -19.5q28 0 49.5 8.5t37 24t23.5 38t9 51.5h82q-1 -44 -14.5 -79.5t-39 -60.5t-63 -38t-85.5 -13zM125 304
h244q0 45 -8 76t-22.5 51t-36 29t-49.5 9q-42 0 -69.5 -19t-41.5 -55t-17 -91zM119 723h72l81 -113h-40l80 113h72l-94 -132h-76z" />
    <glyph glyph-name="Gcircumflex" unicode="&#x11c;" horiz-adv-x="701" 
d="M349 -12q-148 0 -224 87t-76 268q0 119 35.5 198t105 118t169.5 39q63 0 113.5 -15.5t87 -46t55.5 -77t19 -108.5h-92q0 43 -13 75t-37 53t-58.5 30.5t-75.5 9.5q-51 0 -91 -15t-67.5 -47t-41.5 -81.5t-14 -117.5v-32q0 -91 24 -148.5t70.5 -84t112.5 -26.5
q68 0 110.5 22t62.5 66.5t20 110.5v16h-209v77h299v-359h-64l-10 82q-23 -32 -55.5 -53t-72 -31t-83.5 -10zM218 737l95 133h83l95 -133h-76l-81 114l41 -1l-81 -113h-76z" />
    <glyph glyph-name="gcircumflex" unicode="&#x11d;" horiz-adv-x="491" 
d="M149 -184q-37 0 -67.5 16t-48.5 46t-18 68q0 43 22.5 73.5t56.5 45.5q-25 12 -39 34t-14 47q0 35 23.5 58.5t58.5 32.5q-33 22 -50.5 56.5t-17.5 75.5q0 49 21 87t63.5 60t105.5 22q29 0 53 -4.5t44 -13.5q29 13 45 38t20 54h80q-1 -31 -13 -57t-33 -43.5t-51 -23.5
q24 -24 35.5 -54t11.5 -64q0 -49 -21 -87t-62.5 -60t-104.5 -22h-69q-25 0 -40.5 -11t-15.5 -35q0 -22 17 -34t43 -12h171q58 0 92.5 -39.5t34.5 -99.5q0 -43 -19.5 -78t-55.5 -55.5t-85 -20.5h-173zM172 -120h146q23 0 41 10t28.5 28t10.5 39q0 36 -19 57.5t-49 21.5h-158
q-31 0 -52 -22.5t-21 -56.5q0 -35 20.5 -56t52.5 -21zM246 264q54 0 80.5 27.5t26.5 77.5q0 51 -26.5 78.5t-80.5 27.5t-81 -27.5t-27 -78.5q0 -32 12 -56t36 -36.5t60 -12.5zM110 591l95 132h75l95 -132h-72l-81 113h41l-81 -113h-72z" />
    <glyph glyph-name="Gbreve" unicode="&#x11e;" horiz-adv-x="701" 
d="M349 -12q-148 0 -224 87t-76 268q0 119 35.5 198t105 118t169.5 39q63 0 113.5 -15.5t87 -46t55.5 -77t19 -108.5h-92q0 43 -13 75t-37 53t-58.5 30.5t-75.5 9.5q-51 0 -91 -15t-67.5 -47t-41.5 -81.5t-14 -117.5v-32q0 -91 24 -148.5t70.5 -84t112.5 -26.5
q68 0 110.5 22t62.5 66.5t20 110.5v16h-209v77h299v-359h-64l-10 82q-23 -32 -55.5 -53t-72 -31t-83.5 -10zM353 755q-49 0 -77 17.5t-39 44t-11 53.5h54q3 -11 9 -24.5t21.5 -23.5t44.5 -10t45 10t22.5 23.5t7.5 24.5h54q0 -27 -12 -53.5t-40 -44t-79 -17.5z" />
    <glyph glyph-name="gbreve" unicode="&#x11f;" horiz-adv-x="491" 
d="M149 -184q-37 0 -67.5 16t-48.5 46t-18 68q0 43 22.5 73.5t56.5 45.5q-25 12 -39 34t-14 47q0 35 23.5 58.5t58.5 32.5q-33 22 -50.5 56.5t-17.5 75.5q0 49 21 87t63.5 60t105.5 22q29 0 53 -4.5t44 -13.5q29 13 45 38t20 54h80q-1 -31 -13 -57t-33 -43.5t-51 -23.5
q24 -24 35.5 -54t11.5 -64q0 -49 -21 -87t-62.5 -60t-104.5 -22h-69q-25 0 -40.5 -11t-15.5 -35q0 -22 17 -34t43 -12h171q58 0 92.5 -39.5t34.5 -99.5q0 -43 -19.5 -78t-55.5 -55.5t-85 -20.5h-173zM172 -120h146q23 0 41 10t28.5 28t10.5 39q0 36 -19 57.5t-49 21.5h-158
q-31 0 -52 -22.5t-21 -56.5q0 -35 20.5 -56t52.5 -21zM246 264q54 0 80.5 27.5t26.5 77.5q0 51 -26.5 78.5t-80.5 27.5t-81 -27.5t-27 -78.5q0 -32 12 -56t36 -36.5t60 -12.5zM241 609q-50 0 -77.5 17t-39 44t-11.5 53h55q2 -11 8.5 -25t21.5 -23.5t44 -9.5t44.5 9.5
t22 23.5t7.5 25h55q0 -26 -12 -53t-40 -44t-78 -17z" />
    <glyph glyph-name="Gdotaccent" unicode="&#x120;" horiz-adv-x="701" 
d="M349 -12q-148 0 -224 87t-76 268q0 119 35.5 198t105 118t169.5 39q63 0 113.5 -15.5t87 -46t55.5 -77t19 -108.5h-92q0 43 -13 75t-37 53t-58.5 30.5t-75.5 9.5q-51 0 -91 -15t-67.5 -47t-41.5 -81.5t-14 -117.5v-32q0 -91 24 -148.5t70.5 -84t112.5 -26.5
q68 0 110.5 22t62.5 66.5t20 110.5v16h-209v77h299v-359h-64l-10 82q-23 -32 -55.5 -53t-72 -31t-83.5 -10zM314 776v95h82v-95h-82z" />
    <glyph glyph-name="gdotaccent" unicode="&#x121;" horiz-adv-x="491" 
d="M149 -184q-37 0 -67.5 16t-48.5 46t-18 68q0 43 22.5 73.5t56.5 45.5q-25 12 -39 34t-14 47q0 35 23.5 58.5t58.5 32.5q-33 22 -50.5 56.5t-17.5 75.5q0 49 21 87t63.5 60t105.5 22q29 0 53 -4.5t44 -13.5q29 13 45 38t20 54h80q-1 -31 -13 -57t-33 -43.5t-51 -23.5
q24 -24 35.5 -54t11.5 -64q0 -49 -21 -87t-62.5 -60t-104.5 -22h-69q-25 0 -40.5 -11t-15.5 -35q0 -22 17 -34t43 -12h171q58 0 92.5 -39.5t34.5 -99.5q0 -43 -19.5 -78t-55.5 -55.5t-85 -20.5h-173zM172 -120h146q23 0 41 10t28.5 28t10.5 39q0 36 -19 57.5t-49 21.5h-158
q-31 0 -52 -22.5t-21 -56.5q0 -35 20.5 -56t52.5 -21zM246 264q54 0 80.5 27.5t26.5 77.5q0 51 -26.5 78.5t-80.5 27.5t-81 -27.5t-27 -78.5q0 -32 12 -56t36 -36.5t60 -12.5zM201 627v95h83v-95h-83z" />
    <glyph glyph-name="uni0122" unicode="&#x122;" horiz-adv-x="701" 
d="M349 -12q-148 0 -224 87t-76 268q0 119 35.5 198t105 118t169.5 39q63 0 113.5 -15.5t87 -46t55.5 -77t19 -108.5h-92q0 43 -13 75t-37 53t-58.5 30.5t-75.5 9.5q-51 0 -91 -15t-67.5 -47t-41.5 -81.5t-14 -117.5v-32q0 -91 24 -148.5t70.5 -84t112.5 -26.5
q68 0 110.5 22t62.5 66.5t20 110.5v16h-209v77h299v-359h-64l-10 82q-23 -32 -55.5 -53t-72 -31t-83.5 -10zM304 -287v38q25 0 36 17.5t11 49.5h-37v95h82v-78q0 -44 -11 -70.5t-31.5 -39t-49.5 -12.5z" />
    <glyph glyph-name="uni0123" unicode="&#x123;" horiz-adv-x="491" 
d="M149 -184q-37 0 -67.5 16t-48.5 46t-18 68q0 43 22.5 73.5t56.5 45.5q-25 12 -39 34t-14 47q0 35 23.5 58.5t58.5 32.5q-33 22 -50.5 56.5t-17.5 75.5q0 49 21 87t63.5 60t105.5 22q29 0 53 -4.5t44 -13.5q29 13 45 38t20 54h80q-1 -31 -13 -57t-33 -43.5t-51 -23.5
q24 -24 35.5 -54t11.5 -64q0 -49 -21 -87t-62.5 -60t-104.5 -22h-69q-25 0 -40.5 -11t-15.5 -35q0 -22 17 -34t43 -12h171q58 0 92.5 -39.5t34.5 -99.5q0 -43 -19.5 -78t-55.5 -55.5t-85 -20.5h-173zM172 -120h146q23 0 41 10t28.5 28t10.5 39q0 36 -19 57.5t-49 21.5h-158
q-31 0 -52 -22.5t-21 -56.5q0 -35 20.5 -56t52.5 -21zM246 264q54 0 80.5 27.5t26.5 77.5q0 51 -26.5 78.5t-80.5 27.5t-81 -27.5t-27 -78.5q0 -32 12 -56t36 -36.5t60 -12.5zM294 830v-38q-24 0 -35.5 -17.5t-11.5 -49.5h37v-95h-83v79q0 43 11.5 70t32.5 39t49 12z" />
    <glyph glyph-name="Hcircumflex" unicode="&#x124;" horiz-adv-x="654" 
d="M77 0v686h92v-296h316v296h92v-686h-92v310h-316v-310h-92zM191 737l95 133h83l94 -133h-75l-81 114l41 -1l-81 -113h-76z" />
    <glyph glyph-name="hcircumflex" unicode="&#x125;" horiz-adv-x="502" 
d="M63 0v723h83v-260h7q17 26 39 42.5t48.5 24.5t58.5 8q44 0 76.5 -15.5t50.5 -50.5t18 -94v-378h-84v363q0 28 -6 47t-17.5 30.5t-29 17t-38.5 5.5q-33 0 -61 -17.5t-45 -51.5t-17 -84v-310h-83zM-33 737l95 133h83l95 -133h-76l-81 114l41 -1l-81 -113h-76z" />
    <glyph glyph-name="Hbar" unicode="&#x126;" horiz-adv-x="654" 
d="M77 0v686h92v-296h316v296h92v-686h-92v310h-316v-310h-92zM11 539v68h632v-68h-632z" />
    <glyph glyph-name="hbar" unicode="&#x127;" horiz-adv-x="502" 
d="M63 0v723h83v-260h7q17 26 39 42.5t48.5 24.5t58.5 8q44 0 76.5 -15.5t50.5 -50.5t18 -94v-378h-84v363q0 28 -6 47t-17.5 30.5t-29 17t-38.5 5.5q-33 0 -61 -17.5t-45 -51.5t-17 -84v-310h-83zM0 591v59h282v-59h-282z" />
    <glyph glyph-name="Itilde" unicode="&#x128;" horiz-adv-x="245" 
d="M77 0v686h92v-686h-92zM-20 770q0 27 8.5 48.5t25.5 33.5t43 12q24 0 45.5 -8t42 -16t39.5 -8q15 0 22 8.5t9 23.5h51q0 -26 -9 -47.5t-26.5 -33.5t-42.5 -12q-23 0 -45 8t-42 16t-40 8q-15 0 -22 -9t-9 -24h-50z" />
    <glyph glyph-name="itilde" unicode="&#x129;" horiz-adv-x="209" 
d="M63 0v526h83v-526h-83zM-39 624q1 28 9.5 49t25.5 33t42 12q24 0 45.5 -7.5t42.5 -16t40 -8.5q14 0 21 9t9 24h51q0 -27 -9 -48t-26 -33.5t-43 -12.5q-23 0 -44.5 8.5t-42 16.5t-39.5 8q-15 0 -22.5 -9t-8.5 -25h-51z" />
    <glyph glyph-name="Imacron" unicode="&#x12a;" horiz-adv-x="245" 
d="M77 0v686h92v-686h-92zM-11 776v63h267v-63h-267z" />
    <glyph glyph-name="imacron" unicode="&#x12b;" horiz-adv-x="209" 
d="M63 0v526h83v-526h-83zM-28 638v62h264v-62h-264z" />
    <glyph glyph-name="Ibreve" unicode="&#x12c;" horiz-adv-x="245" 
d="M77 0v686h92v-686h-92zM122 755q-49 0 -77 17.5t-39 44t-11 53.5h54q2 -11 8.5 -24.5t22 -23.5t43.5 -10q30 0 45.5 10t22 23.5t7.5 24.5h54q0 -27 -12 -53.5t-40 -44t-78 -17.5z" />
    <glyph glyph-name="ibreve" unicode="&#x12d;" horiz-adv-x="209" 
d="M63 0v526h83v-526h-83zM102 609q-49 0 -77 17t-39 44t-11 53h55q2 -11 8.5 -25t21.5 -23.5t44 -9.5t44.5 9.5t22 23.5t7.5 25h55q0 -26 -12 -53t-40 -44t-79 -17z" />
    <glyph glyph-name="Iogonek" unicode="&#x12e;" horiz-adv-x="245" 
d="M77 0v686h92v-686h-92zM121 -175q-22 0 -43 8.5t-34 28t-13 51.5t14 56t33 43h55v-5q-11 -10 -22.5 -28.5t-11.5 -43.5q0 -23 11.5 -38.5t38.5 -15.5h31v-42q-13 -7 -30 -10.5t-29 -3.5z" />
    <glyph glyph-name="iogonek" unicode="&#x12f;" horiz-adv-x="209" 
d="M63 627v96h83v-96h-83zM63 0v526h83v-526h-83zM108 -175q-22 0 -42.5 8.5t-34 28t-13.5 51.5t14 56t33 43h55v-5q-11 -10 -22.5 -28.5t-11.5 -43.5q0 -23 11.5 -38.5t38.5 -15.5h32v-42q-14 -7 -30.5 -10.5t-29.5 -3.5z" />
    <glyph glyph-name="Idotaccent" unicode="&#x130;" horiz-adv-x="245" 
d="M77 0v686h92v-686h-92zM82 776v95h82v-95h-82z" />
    <glyph glyph-name="dotlessi" unicode="&#x131;" horiz-adv-x="209" 
d="M63 0v526h83v-526h-83z" />
    <glyph glyph-name="IJ" unicode="&#x132;" horiz-adv-x="741" 
d="M77 0v686h92v-686h-92zM466 -12q-62 0 -106 21t-67 62t-23 102v33h91v-33q0 -52 26.5 -79t79.5 -27q54 0 81 35t27 106v478h92v-477q0 -75 -24 -124.5t-69 -73t-108 -23.5z" />
    <glyph glyph-name="ij" unicode="&#x133;" horiz-adv-x="416" 
d="M63 627v96h83v-96h-83zM63 0v526h83v-526h-83zM272 627v96h84v-96h-84zM256 -184q-10 0 -22.5 1t-24 3.5t-18.5 5.5v60h42q21 0 30 11t9 36v593h84v-602q0 -31 -10 -56t-31.5 -38.5t-58.5 -13.5z" />
    <glyph glyph-name="Jcircumflex" unicode="&#x134;" horiz-adv-x="495" 
d="M221 -12q-63 0 -106.5 21t-67 62t-23.5 102v33h91v-33q0 -52 26.5 -79t79.5 -27q54 0 81.5 35t27.5 106v478h92v-477q0 -75 -24.5 -124.5t-69.5 -73t-107 -23.5zM239 737l95 133h83l95 -133h-76l-81 114l41 -1l-81 -113h-76z" />
    <glyph glyph-name="jcircumflex" unicode="&#x135;" horiz-adv-x="206" 
d="M47 -184q-11 0 -23 1t-23.5 3.5t-19.5 5.5v60h43q21 0 30 11t9 36v593h83v-602q0 -31 -9.5 -56t-31.5 -38.5t-58 -13.5zM-29 591l95 132h76l94 -132h-72l-80 113h40l-81 -113h-72z" />
    <glyph glyph-name="uni0136" unicode="&#x136;" horiz-adv-x="597" 
d="M77 0v686h92v-364l305 364h109l-231 -274l239 -412h-106l-195 338l-121 -132v-206h-92zM266 -287v38q25 0 36 17.5t11 49.5h-37v95h82v-78q0 -44 -11 -70.5t-31.5 -39t-49.5 -12.5z" />
    <glyph glyph-name="uni0137" unicode="&#x137;" horiz-adv-x="461" 
d="M63 0v723h83v-447l195 250h96l-161 -205l170 -321h-94l-130 252l-76 -86v-166h-83zM189 -287v38q24 0 35.5 17.5t11.5 49.5h-37v95h82v-78q0 -44 -11 -70.5t-31.5 -39t-49.5 -12.5z" />
    <glyph glyph-name="kgreenlandic" unicode="&#x138;" horiz-adv-x="461" 
d="M63 0v526h83v-250l195 250h97l-162 -205l170 -321h-94l-130 252l-76 -86v-166h-83z" />
    <glyph glyph-name="Lacute" unicode="&#x139;" horiz-adv-x="480" 
d="M77 0v686h92v-606h298v-80h-390zM86 737l77 133h94l1 -4l-100 -129h-72z" />
    <glyph glyph-name="lacute" unicode="&#x13a;" horiz-adv-x="209" 
d="M63 0v723h83v-723h-83zM68 737l77 133h93l1 -4l-99 -129h-72z" />
    <glyph glyph-name="uni013B" unicode="&#x13b;" horiz-adv-x="480" 
d="M77 0v686h92v-606h298v-80h-390zM220 -287v38q25 0 36 17.5t11 49.5h-37v95h83v-78q0 -44 -11.5 -70.5t-32 -39t-49.5 -12.5z" />
    <glyph glyph-name="uni013C" unicode="&#x13c;" horiz-adv-x="209" 
d="M63 0v723h83v-723h-83zM53 -287v38q25 0 36 17.5t11 49.5h-37v95h82v-78q0 -44 -11 -70.5t-31.5 -39t-49.5 -12.5z" />
    <glyph glyph-name="Lcaron" unicode="&#x13d;" horiz-adv-x="480" 
d="M77 0v686h92v-606h298v-80h-390zM320 555v168h81l-24 -168h-57z" />
    <glyph glyph-name="lcaron" unicode="&#x13e;" horiz-adv-x="209" 
d="M63 0v723h83v-723h-83zM183 555v168h81l-24 -168h-57z" />
    <glyph glyph-name="Ldot" unicode="&#x13f;" horiz-adv-x="480" 
d="M77 0v686h92v-606h298v-80h-390zM317 328v98h87v-98h-87z" />
    <glyph glyph-name="ldot" unicode="&#x140;" horiz-adv-x="209" 
d="M63 0v723h83v-723h-83zM180 328v98h80v-98h-80z" />
    <glyph glyph-name="Lslash" unicode="&#x141;" horiz-adv-x="480" 
d="M77 0v686h92v-606h298v-80h-390zM0 200v73l303 227v-74z" />
    <glyph glyph-name="lslash" unicode="&#x142;" horiz-adv-x="209" 
d="M63 0v723h83v-723h-83zM6 233v75l197 186v-74z" />
    <glyph glyph-name="Nacute" unicode="&#x143;" horiz-adv-x="654" 
d="M77 0v686h88l285 -445q4 -6 10.5 -17.5l13 -23t10.5 -19.5h5q0 16 -0.5 32t-0.5 29v444h89v-686h-83l-289 452q-6 11 -17 30t-18 33h-5q1 -15 1 -32v-32v-451h-89zM292 737l78 133h93l1 -4l-99 -129h-73z" />
    <glyph glyph-name="nacute" unicode="&#x144;" horiz-adv-x="502" 
d="M63 0v526h68l7 -75h6q18 31 41.5 50t52 28t60.5 9q44 0 77 -15.5t51 -50.5t18 -94v-378h-84v363q0 28 -6 47t-17.5 30.5t-29 17t-38.5 5.5q-33 0 -61 -18t-45 -52t-17 -83v-310h-83zM208 591l77 132h90l1 -3l-99 -129h-69z" />
    <glyph glyph-name="uni0145" unicode="&#x145;" horiz-adv-x="654" 
d="M77 0v686h88l285 -445q4 -6 10.5 -17.5l13 -23t10.5 -19.5h5q0 16 -0.5 32t-0.5 29v444h89v-686h-83l-289 452q-6 11 -17 30t-18 33h-5q1 -15 1 -32v-32v-451h-89zM276 -287v38q25 0 36.5 17.5t11.5 49.5h-37v95h82v-78q0 -44 -11.5 -70.5t-32 -39t-49.5 -12.5z" />
    <glyph glyph-name="uni0146" unicode="&#x146;" horiz-adv-x="502" 
d="M63 0v526h68l7 -75h6q18 31 41.5 50t52 28t60.5 9q44 0 77 -15.5t51 -50.5t18 -94v-378h-84v363q0 28 -6 47t-17.5 30.5t-29 17t-38.5 5.5q-33 0 -61 -18t-45 -52t-17 -83v-310h-83zM202 -287v38q25 0 36 17.5t11 49.5h-37v95h82v-78q0 -44 -11 -70.5t-31.5 -39
t-49.5 -12.5z" />
    <glyph glyph-name="Ncaron" unicode="&#x147;" horiz-adv-x="654" 
d="M77 0v686h88l285 -445q4 -6 10.5 -17.5l13 -23t10.5 -19.5h5q0 16 -0.5 32t-0.5 29v444h89v-686h-83l-289 452q-6 11 -17 30t-18 33h-5q1 -15 1 -32v-32v-451h-89zM193 870h76l81 -113l-41 -1l81 114h75l-95 -133h-82z" />
    <glyph glyph-name="ncaron" unicode="&#x148;" horiz-adv-x="502" 
d="M63 0v526h68l7 -75h6q18 31 41.5 50t52 28t60.5 9q44 0 77 -15.5t51 -50.5t18 -94v-378h-84v363q0 28 -6 47t-17.5 30.5t-29 17t-38.5 5.5q-33 0 -61 -18t-45 -52t-17 -83v-310h-83zM120 723h72l81 -113h-41l81 113h72l-95 -132h-75z" />
    <glyph glyph-name="napostrophe" unicode="&#x149;" horiz-adv-x="502" 
d="M63 0v526h68l7 -75h6q18 31 41.5 50t52 28t60.5 9q44 0 77 -15.5t51 -50.5t18 -94v-378h-84v363q0 28 -6 47t-17.5 30.5t-29 17t-38.5 5.5q-33 0 -61 -18t-45 -52t-17 -83v-310h-83zM-10 561v38q25 0 36 17.5t11 49.5h-37v95h83v-79q0 -43 -11.5 -70t-32 -39t-49.5 -12z
" />
    <glyph glyph-name="Eng" unicode="&#x14a;" horiz-adv-x="654" 
d="M478 -184q-11 0 -23.5 1.5t-24 4t-18.5 4.5v59h39q22 0 30 11.5t8 35.5v76l-284 444q-6 10 -17 29.5t-18 31.5h-4v-31v-31v-451h-89v686h88l285 -445q4 -6 10.5 -17t13 -22.5t10.5 -18.5h4v29.5v28.5v445h89v-752q0 -26 -5 -48t-16.5 -37.5t-30.5 -24t-47 -8.5z" />
    <glyph glyph-name="eng" unicode="&#x14b;" horiz-adv-x="502" 
d="M345 -184q-11 0 -23 1t-23 3.5t-18 5.5v58h40q22 0 30.5 11.5t8.5 35.5v432q0 28 -6 47t-18 30.5t-29.5 17t-39.5 5.5q-32 0 -59.5 -18t-44.5 -52t-17 -83v-310h-83v526h68l7 -75h6q18 31 41 50t51.5 28t60.5 9q45 0 77.5 -15.5t51 -50.5t18.5 -94v-454q0 -24 -5.5 -43.5
t-17 -34.5t-30.5 -22.5t-46 -7.5z" />
    <glyph glyph-name="Omacron" unicode="&#x14c;" horiz-adv-x="700" 
d="M350 -12q-96 0 -164 39t-104 118t-36 198q0 120 36 198.5t104 117.5t164 39t164 -39t103.5 -117.5t35.5 -198.5q0 -119 -35.5 -198t-103.5 -118t-164 -39zM350 67q49 0 87.5 15.5t65.5 47.5t41.5 81t14.5 116v32q0 67 -14.5 116t-41.5 81t-65.5 47.5t-87.5 15.5
t-88 -15.5t-66 -47.5t-41 -81t-14 -116v-32q0 -67 14 -116t41 -81t66 -47.5t88 -15.5zM216 776v63h266v-63h-266z" />
    <glyph glyph-name="omacron" unicode="&#x14d;" horiz-adv-x="509" 
d="M255 -12q-71 0 -119.5 28.5t-73 89.5t-24.5 157q0 97 24.5 157.5t73 89t119.5 28.5t119 -28.5t73 -89t25 -157.5q0 -96 -25 -157t-73 -89.5t-119 -28.5zM255 59q44 0 72.5 19.5t42.5 62t14 108.5v28q0 67 -14 109t-42.5 61.5t-72.5 19.5t-73 -19.5t-43 -61.5t-14 -109
v-28q0 -66 14 -108.5t43 -62t73 -19.5zM122 638v62h265v-62h-265z" />
    <glyph glyph-name="Obreve" unicode="&#x14e;" horiz-adv-x="700" 
d="M350 -12q-96 0 -164 39t-104 118t-36 198q0 120 36 198.5t104 117.5t164 39t164 -39t103.5 -117.5t35.5 -198.5q0 -119 -35.5 -198t-103.5 -118t-164 -39zM350 67q49 0 87.5 15.5t65.5 47.5t41.5 81t14.5 116v32q0 67 -14.5 116t-41.5 81t-65.5 47.5t-87.5 15.5
t-88 -15.5t-66 -47.5t-41 -81t-14 -116v-32q0 -67 14 -116t41 -81t66 -47.5t88 -15.5zM348 755q-49 0 -77 17.5t-39 44t-11 53.5h54q2 -11 8.5 -24.5t22 -23.5t43.5 -10q30 0 45.5 10t22.5 23.5t8 24.5h54q0 -27 -12 -53.5t-40.5 -44t-78.5 -17.5z" />
    <glyph glyph-name="obreve" unicode="&#x14f;" horiz-adv-x="509" 
d="M255 -12q-71 0 -119.5 28.5t-73 89.5t-24.5 157q0 97 24.5 157.5t73 89t119.5 28.5t119 -28.5t73 -89t25 -157.5q0 -96 -25 -157t-73 -89.5t-119 -28.5zM255 59q44 0 72.5 19.5t42.5 62t14 108.5v28q0 67 -14 109t-42.5 61.5t-72.5 19.5t-73 -19.5t-43 -61.5t-14 -109
v-28q0 -66 14 -108.5t43 -62t73 -19.5zM253 609q-49 0 -77 17t-39 44t-11 53h54q2 -11 8.5 -25t22 -23.5t43.5 -9.5q29 0 45 9.5t22.5 23.5t6.5 25h55q0 -26 -12 -53t-40 -44t-78 -17z" />
    <glyph glyph-name="Ohungarumlaut" unicode="&#x150;" horiz-adv-x="700" 
d="M350 -12q-96 0 -164 39t-104 118t-36 198q0 120 36 198.5t104 117.5t164 39t164 -39t103.5 -117.5t35.5 -198.5q0 -119 -35.5 -198t-103.5 -118t-164 -39zM350 67q49 0 87.5 15.5t65.5 47.5t41.5 81t14.5 116v32q0 67 -14.5 116t-41.5 81t-65.5 47.5t-87.5 15.5
t-88 -15.5t-66 -47.5t-41 -81t-14 -116v-32q0 -67 14 -116t41 -81t66 -47.5t88 -15.5zM377 737l53 133h90l1 -3l-75 -130h-69zM243 737l53 133h89l1 -3l-76 -130h-67z" />
    <glyph glyph-name="ohungarumlaut" unicode="&#x151;" horiz-adv-x="509" 
d="M255 -12q-71 0 -119.5 28.5t-73 89.5t-24.5 157q0 97 24.5 157.5t73 89t119.5 28.5t119 -28.5t73 -89t25 -157.5q0 -96 -25 -157t-73 -89.5t-119 -28.5zM255 59q44 0 72.5 19.5t42.5 62t14 108.5v28q0 67 -14 109t-42.5 61.5t-72.5 19.5t-73 -19.5t-43 -61.5t-14 -109
v-28q0 -66 14 -108.5t43 -62t73 -19.5zM149 591l53 132h89l1 -3l-75 -129h-68zM284 591l53 132h89l1 -3l-74 -129h-69z" />
    <glyph glyph-name="OE" unicode="&#x152;" horiz-adv-x="1078" 
d="M344 -12q-94 0 -160.5 39t-102 118t-35.5 198q0 120 35.5 198.5t102 117.5t160.5 39q73 0 127 -25t88 -75v88h468v-79h-377v-216h337v-80h-337v-231h382v-80h-473v88q-34 -50 -88 -75t-127 -25zM349 67q50 0 88.5 16t66 48t41.5 81.5t14 116.5v25q0 69 -14 119
t-41.5 82.5t-66 48t-88.5 15.5q-49 0 -88 -16t-65.5 -48.5t-40.5 -82.5t-14 -118v-25q0 -67 14 -116.5t41 -81.5t65.5 -48t87.5 -16z" />
    <glyph glyph-name="oe" unicode="&#x153;" horiz-adv-x="833" 
d="M251 -12q-70 0 -117 28.5t-71.5 89.5t-24.5 157q0 97 24.5 157.5t72.5 89t118 28.5q59 0 102 -23t68 -72q25 49 68.5 72t104.5 23q65 0 109.5 -26.5t67 -81.5t22.5 -143v-44h-329q1 -65 14.5 -106t41.5 -60.5t71 -19.5q28 0 49.5 8.5t36.5 24t23 38t8 51.5h83
q-1 -44 -14.5 -79.5t-39 -60.5t-62.5 -38t-85 -13q-61 0 -103 23t-67 71q-26 -48 -69 -71t-102 -23zM252 59q43 0 71.5 19.5t42.5 61t14 109.5v28q0 67 -14 109t-42.5 61.5t-71.5 19.5q-42 0 -70.5 -19t-42.5 -61t-14 -110v-28q0 -67 14 -109t42.5 -61.5t70.5 -19.5z
M467 304h241q0 45 -8 76t-22.5 51t-36 29t-48.5 9q-42 0 -69 -18.5t-40.5 -55t-16.5 -91.5z" />
    <glyph glyph-name="Racute" unicode="&#x154;" horiz-adv-x="644" 
d="M77 0v686h304q72 0 116.5 -25.5t65 -70t20.5 -101.5q0 -72 -29.5 -122.5t-79.5 -72.5l135 -294h-99l-125 274h-216v-274h-92zM169 353h205q57 0 86.5 35.5t29.5 97.5q0 39 -12 65.5t-38.5 41t-68.5 14.5h-202v-254zM286 737l78 133h93l1 -4l-99 -129h-73z" />
    <glyph glyph-name="racute" unicode="&#x155;" horiz-adv-x="297" 
d="M63 0v526h68l7 -81h6q8 26 22 47t35 33.5t50 12.5q13 0 23 -2t16 -4v-82h-32q-27 0 -48 -10t-35 -29.5t-21.5 -47.5t-7.5 -64v-299h-83zM124 591l77 132h90l1 -3l-100 -129h-68z" />
    <glyph glyph-name="uni0156" unicode="&#x156;" horiz-adv-x="644" 
d="M77 0v686h304q72 0 116.5 -25.5t65 -70t20.5 -101.5q0 -72 -29.5 -122.5t-79.5 -72.5l135 -294h-99l-125 274h-216v-274h-92zM169 353h205q57 0 86.5 35.5t29.5 97.5q0 39 -12 65.5t-38.5 41t-68.5 14.5h-202v-254zM275 -287v38q25 0 36.5 17.5t11.5 49.5h-37v95h82v-78
q0 -44 -11 -70.5t-32 -39t-50 -12.5z" />
    <glyph glyph-name="uni0157" unicode="&#x157;" horiz-adv-x="297" 
d="M63 0v526h68l7 -81h6q8 26 22 47t35 33.5t50 12.5q13 0 23 -2t16 -4v-82h-32q-27 0 -48 -10t-35 -29.5t-21.5 -47.5t-7.5 -64v-299h-83zM53 -287v38q25 0 36 17.5t11 49.5h-37v95h83v-78q0 -44 -11.5 -70.5t-32 -39t-49.5 -12.5z" />
    <glyph glyph-name="Rcaron" unicode="&#x158;" horiz-adv-x="644" 
d="M77 0v686h304q72 0 116.5 -25.5t65 -70t20.5 -101.5q0 -72 -29.5 -122.5t-79.5 -72.5l135 -294h-99l-125 274h-216v-274h-92zM169 353h205q57 0 86.5 35.5t29.5 97.5q0 39 -12 65.5t-38.5 41t-68.5 14.5h-202v-254zM187 870h76l81 -113l-41 -1l81 114h75l-94 -133h-83z
" />
    <glyph glyph-name="rcaron" unicode="&#x159;" horiz-adv-x="297" 
d="M63 0v526h68l7 -81h6q8 26 22 47t35 33.5t50 12.5q13 0 23 -2t16 -4v-82h-32q-27 0 -48 -10t-35 -29.5t-21.5 -47.5t-7.5 -64v-299h-83zM36 723h72l81 -113h-41l81 113h72l-95 -132h-75z" />
    <glyph glyph-name="Sacute" unicode="&#x15a;" horiz-adv-x="590" 
d="M297 -12q-51 0 -97 10.5t-80.5 34.5t-54.5 63t-20 98v9.5v9.5h92q0 -4 -0.5 -10t-0.5 -11q0 -42 19.5 -70t55 -41.5t84.5 -13.5q22 0 45 3.5t43.5 12t36.5 21.5t25 32t9 46q0 33 -16.5 55.5t-45 37.5t-63.5 26.5t-72.5 22.5t-72.5 25.5t-63 35.5t-45 53t-17 77
q0 44 16.5 78.5t47.5 57.5t75.5 35t100.5 12q50 0 91.5 -11t73 -34t49 -59t17.5 -87v-13h-90v16q0 34 -17 58.5t-48 37.5t-73 13q-49 0 -82 -11t-50.5 -32.5t-17.5 -52.5q0 -32 17 -53t45 -35t63 -25t72.5 -22.5t72.5 -26t63.5 -36t45 -54t16.5 -77.5q0 -73 -32 -118.5
t-88.5 -66.5t-129.5 -21zM262 737l77 133h94l1 -4l-100 -129h-72z" />
    <glyph glyph-name="sacute" unicode="&#x15b;" horiz-adv-x="449" 
d="M221 -12q-49 0 -85.5 11t-60 31.5t-34.5 49.5t-11 65v10t1 9h81q-1 -5 -1 -9v-7q1 -33 15 -53.5t39.5 -29.5t58.5 -9q31 0 54.5 9.5t37 28t13.5 46.5q0 32 -18.5 49.5t-48 28t-62.5 21.5q-29 9 -56.5 20t-50 28t-36 42.5t-13.5 64.5q0 34 13 61t37 45.5t57.5 28t75.5 9.5
q44 0 77 -10.5t55 -29t33 -43.5t11 -55q0 -6 -0.5 -13t-0.5 -12h-81v18q0 22 -9.5 39t-30.5 27.5t-57 10.5q-25 0 -43.5 -5t-30 -14.5t-17.5 -22.5t-6 -30q0 -26 15.5 -41t40.5 -24.5t54 -19.5q30 -10 61.5 -21t58 -27.5t42.5 -44t16 -70.5q0 -42 -14.5 -72.5t-40.5 -50.5
t-61 -29.5t-78 -9.5zM178 591l77 132h90v-3l-99 -129h-68z" />
    <glyph glyph-name="Scircumflex" unicode="&#x15c;" horiz-adv-x="590" 
d="M297 -12q-51 0 -97 10.5t-80.5 34.5t-54.5 63t-20 98v9.5v9.5h92q0 -4 -0.5 -10t-0.5 -11q0 -42 19.5 -70t55 -41.5t84.5 -13.5q22 0 45 3.5t43.5 12t36.5 21.5t25 32t9 46q0 33 -16.5 55.5t-45 37.5t-63.5 26.5t-72.5 22.5t-72.5 25.5t-63 35.5t-45 53t-17 77
q0 44 16.5 78.5t47.5 57.5t75.5 35t100.5 12q50 0 91.5 -11t73 -34t49 -59t17.5 -87v-13h-90v16q0 34 -17 58.5t-48 37.5t-73 13q-49 0 -82 -11t-50.5 -32.5t-17.5 -52.5q0 -32 17 -53t45 -35t63 -25t72.5 -22.5t72.5 -26t63.5 -36t45 -54t16.5 -77.5q0 -73 -32 -118.5
t-88.5 -66.5t-129.5 -21zM162 737l95 133h83l95 -133h-76l-81 114l41 -1l-81 -113h-76z" />
    <glyph glyph-name="scircumflex" unicode="&#x15d;" horiz-adv-x="449" 
d="M221 -12q-49 0 -85.5 11t-60 31.5t-34.5 49.5t-11 65v10t1 9h81q-1 -5 -1 -9v-7q1 -33 15 -53.5t39.5 -29.5t58.5 -9q31 0 54.5 9.5t37 28t13.5 46.5q0 32 -18.5 49.5t-48 28t-62.5 21.5q-29 9 -56.5 20t-50 28t-36 42.5t-13.5 64.5q0 34 13 61t37 45.5t57.5 28t75.5 9.5
q44 0 77 -10.5t55 -29t33 -43.5t11 -55q0 -6 -0.5 -13t-0.5 -12h-81v18q0 22 -9.5 39t-30.5 27.5t-57 10.5q-25 0 -43.5 -5t-30 -14.5t-17.5 -22.5t-6 -30q0 -26 15.5 -41t40.5 -24.5t54 -19.5q30 -10 61.5 -21t58 -27.5t42.5 -44t16 -70.5q0 -42 -14.5 -72.5t-40.5 -50.5
t-61 -29.5t-78 -9.5zM90 591l95 132h75l95 -132h-72l-81 113h41l-81 -113h-72z" />
    <glyph glyph-name="Scedilla" unicode="&#x15e;" horiz-adv-x="590" 
d="M297 -12q-51 0 -97 10.5t-80.5 34.5t-54.5 63t-20 98v9.5v9.5h92q0 -4 -0.5 -10t-0.5 -11q0 -42 19.5 -70t55 -41.5t84.5 -13.5q22 0 45 3.5t43.5 12t36.5 21.5t25 32t9 46q0 33 -16.5 55.5t-45 37.5t-63.5 26.5t-72.5 22.5t-72.5 25.5t-63 35.5t-45 53t-17 77
q0 44 16.5 78.5t47.5 57.5t75.5 35t100.5 12q50 0 91.5 -11t73 -34t49 -59t17.5 -87v-13h-90v16q0 34 -17 58.5t-48 37.5t-73 13q-49 0 -82 -11t-50.5 -32.5t-17.5 -52.5q0 -32 17 -53t45 -35t63 -25t72.5 -22.5t72.5 -26t63.5 -36t45 -54t16.5 -77.5q0 -73 -32 -118.5
t-88.5 -66.5t-129.5 -21zM302 -180q-21 0 -42 2t-39 6v39h80q19 0 29 7t10 21q0 13 -9 19t-29 6h-41l15 93h54l-5 -53q21 0 40 -6.5t30.5 -20t11.5 -37.5q0 -23 -9.5 -38t-25 -23.5t-34 -11.5t-36.5 -3z" />
    <glyph glyph-name="scedilla" unicode="&#x15f;" horiz-adv-x="449" 
d="M221 -12q-49 0 -85.5 11t-60 31.5t-34.5 49.5t-11 65v10t1 9h81q-1 -5 -1 -9v-7q1 -33 15 -53.5t39.5 -29.5t58.5 -9q31 0 54.5 9.5t37 28t13.5 46.5q0 32 -18.5 49.5t-48 28t-62.5 21.5q-29 9 -56.5 20t-50 28t-36 42.5t-13.5 64.5q0 34 13 61t37 45.5t57.5 28t75.5 9.5
q44 0 77 -10.5t55 -29t33 -43.5t11 -55q0 -6 -0.5 -13t-0.5 -12h-81v18q0 22 -9.5 39t-30.5 27.5t-57 10.5q-25 0 -43.5 -5t-30 -14.5t-17.5 -22.5t-6 -30q0 -26 15.5 -41t40.5 -24.5t54 -19.5q30 -10 61.5 -21t58 -27.5t42.5 -44t16 -70.5q0 -42 -14.5 -72.5t-40.5 -50.5
t-61 -29.5t-78 -9.5zM225 -180q-21 0 -42 2t-39 6v39h80q19 0 29 7t10 21q0 13 -9 19t-29 6h-41l15 93h54l-5 -53q21 0 40 -6.5t30.5 -20t11.5 -37.5q0 -23 -9.5 -38t-25 -23.5t-34 -11.5t-36.5 -3z" />
    <glyph glyph-name="Scaron" unicode="&#x160;" horiz-adv-x="590" 
d="M297 -12q-51 0 -97 10.5t-80.5 34.5t-54.5 63t-20 98v9.5v9.5h92q0 -4 -0.5 -10t-0.5 -11q0 -42 19.5 -70t55 -41.5t84.5 -13.5q22 0 45 3.5t43.5 12t36.5 21.5t25 32t9 46q0 33 -16.5 55.5t-45 37.5t-63.5 26.5t-72.5 22.5t-72.5 25.5t-63 35.5t-45 53t-17 77
q0 44 16.5 78.5t47.5 57.5t75.5 35t100.5 12q50 0 91.5 -11t73 -34t49 -59t17.5 -87v-13h-90v16q0 34 -17 58.5t-48 37.5t-73 13q-49 0 -82 -11t-50.5 -32.5t-17.5 -52.5q0 -32 17 -53t45 -35t63 -25t72.5 -22.5t72.5 -26t63.5 -36t45 -54t16.5 -77.5q0 -73 -32 -118.5
t-88.5 -66.5t-129.5 -21zM162 870h76l81 -113l-41 -1l81 114h76l-95 -133h-83z" />
    <glyph glyph-name="scaron" unicode="&#x161;" horiz-adv-x="449" 
d="M221 -12q-49 0 -85.5 11t-60 31.5t-34.5 49.5t-11 65v10t1 9h81q-1 -5 -1 -9v-7q1 -33 15 -53.5t39.5 -29.5t58.5 -9q31 0 54.5 9.5t37 28t13.5 46.5q0 32 -18.5 49.5t-48 28t-62.5 21.5q-29 9 -56.5 20t-50 28t-36 42.5t-13.5 64.5q0 34 13 61t37 45.5t57.5 28t75.5 9.5
q44 0 77 -10.5t55 -29t33 -43.5t11 -55q0 -6 -0.5 -13t-0.5 -12h-81v18q0 22 -9.5 39t-30.5 27.5t-57 10.5q-25 0 -43.5 -5t-30 -14.5t-17.5 -22.5t-6 -30q0 -26 15.5 -41t40.5 -24.5t54 -19.5q30 -10 61.5 -21t58 -27.5t42.5 -44t16 -70.5q0 -42 -14.5 -72.5t-40.5 -50.5
t-61 -29.5t-78 -9.5zM90 723h71l82 -113h-41l80 113h73l-95 -132h-76z" />
    <glyph glyph-name="uni0162" unicode="&#x162;" horiz-adv-x="545" 
d="M226 0v606h-209v80h510v-80h-210v-606h-91zM273 -180q-21 0 -42.5 2t-38.5 6v39h80q19 0 29 7t10 21q0 13 -9 19t-29 6h-42l15 93h55l-5 -53q21 0 40 -6.5t30.5 -20t11.5 -37.5q0 -23 -9.5 -38t-25.5 -23.5t-34.5 -11.5t-35.5 -3z" />
    <glyph glyph-name="uni0163" unicode="&#x163;" horiz-adv-x="266" 
d="M171 -12q-38 0 -59 15t-29 41t-8 56v355h-58v71h59l16 148h67v-148h85v-71h-85v-348q0 -25 7.5 -36.5t28.5 -11.5h49v-56q-10 -4 -23 -7.5t-25.5 -5.5t-24.5 -2zM159 -180q-21 0 -42.5 2t-39.5 6v39h81q19 0 28.5 7t9.5 21q0 13 -8.5 19t-29.5 6h-41l15 93h54l-5 -53
q22 0 40.5 -6.5t30.5 -20t12 -37.5q0 -23 -10 -38t-25.5 -23.5t-34 -11.5t-35.5 -3z" />
    <glyph glyph-name="Tcaron" unicode="&#x164;" horiz-adv-x="545" 
d="M226 0v606h-209v80h510v-80h-210v-606h-91zM136 870h76l81 -113l-41 -1l81 114h75l-95 -133h-82z" />
    <glyph glyph-name="tcaron" unicode="&#x165;" horiz-adv-x="266" 
d="M171 -12q-38 0 -59 15t-29 41t-8 56v355h-58v71h59l16 148h67v-148h85v-71h-85v-348q0 -25 7.5 -36.5t28.5 -11.5h49v-56q-10 -4 -23 -7.5t-25.5 -5.5t-24.5 -2zM192 555v168h81l-25 -168h-56z" />
    <glyph glyph-name="Tbar" unicode="&#x166;" horiz-adv-x="545" 
d="M226 0v606h-209v80h510v-80h-210v-606h-91zM132 296v66h282v-66h-282z" />
    <glyph glyph-name="tbar" unicode="&#x167;" horiz-adv-x="266" 
d="M17 246v57h218v-57h-218zM171 -12q-38 0 -59 15t-29 41t-8 56v355h-58v71h59l16 148h67v-148h85v-71h-85v-348q0 -25 7.5 -36.5t28.5 -11.5h49v-56q-10 -4 -23 -7.5t-25.5 -5.5t-24.5 -2z" />
    <glyph glyph-name="Utilde" unicode="&#x168;" horiz-adv-x="648" 
d="M322 -12q-77 0 -132.5 25.5t-85.5 82t-30 148.5v442h92v-452q0 -84 40 -125.5t116 -41.5q78 0 119.5 41.5t41.5 125.5v452h91v-442q0 -92 -30 -148.5t-86.5 -82t-135.5 -25.5zM181 770q0 27 8.5 48.5t26 33.5t42.5 12q24 0 45.5 -8t42 -16t40.5 -8q14 0 21 8.5t9 23.5h51
q0 -26 -9 -47.5t-26 -33.5t-43 -12q-23 0 -45 8t-42 16t-40 8q-14 0 -21.5 -9t-9.5 -24h-50z" />
    <glyph glyph-name="utilde" unicode="&#x169;" horiz-adv-x="502" 
d="M204 -12q-66 0 -106 36t-40 125v377h84v-363q0 -28 6 -47t17.5 -30.5t29 -17t38.5 -5.5q33 0 61 18t45 52.5t17 82.5v310h83v-526h-67l-8 75h-6q-18 -30 -41.5 -49.5t-51.5 -28.5t-61 -9zM108 624q1 28 9 49t25.5 33t42.5 12q24 0 45.5 -7.5t42 -16t40.5 -8.5q14 0 21 9
t9 24h51q0 -27 -9 -48t-26 -33.5t-43 -12.5q-23 0 -44.5 8.5t-42 16.5t-40.5 8q-14 0 -21.5 -9t-8.5 -25h-51z" />
    <glyph glyph-name="Umacron" unicode="&#x16a;" horiz-adv-x="648" 
d="M322 -12q-77 0 -132.5 25.5t-85.5 82t-30 148.5v442h92v-452q0 -84 40 -125.5t117 -41.5t118.5 41.5t41.5 125.5v452h91v-442q0 -92 -30 -148.5t-86.5 -82t-135.5 -25.5zM190 776v63h267v-63h-267z" />
    <glyph glyph-name="umacron" unicode="&#x16b;" horiz-adv-x="502" 
d="M204 -12q-66 0 -106 36t-40 125v377h84v-363q0 -28 6 -47t17.5 -30.5t29 -17t38.5 -5.5q33 0 61 18t45 52.5t17 82.5v310h83v-526h-67l-8 75h-6q-18 -30 -41.5 -49.5t-51.5 -28.5t-61 -9zM119 638v62h264v-62h-264z" />
    <glyph glyph-name="Ubreve" unicode="&#x16c;" horiz-adv-x="648" 
d="M322 -12q-77 0 -132.5 25.5t-85.5 82t-30 148.5v442h92v-452q0 -84 40 -125.5t116 -41.5q78 0 119.5 41.5t41.5 125.5v452h91v-442q0 -92 -30 -148.5t-86.5 -82t-135.5 -25.5zM323 755q-49 0 -77 17.5t-39 44t-11 53.5h54q2 -11 8.5 -24.5t22 -23.5t43.5 -10
q30 0 45.5 10t22.5 23.5t8 24.5h53q0 -27 -11.5 -53.5t-40 -44t-78.5 -17.5z" />
    <glyph glyph-name="ubreve" unicode="&#x16d;" horiz-adv-x="502" 
d="M204 -12q-66 0 -106 36t-40 125v377h84v-363q0 -28 6 -47t17.5 -30.5t29 -17t38.5 -5.5q33 0 61 18t45 52.5t17 82.5v310h83v-526h-67l-8 75h-6q-18 -30 -41.5 -49.5t-51.5 -28.5t-61 -9zM249 609q-49 0 -77 17t-39 44t-11 53h55q2 -11 8.5 -25t21.5 -23.5t43 -9.5
q30 0 45.5 9.5t22 23.5t7.5 25h55q0 -26 -12 -53t-40 -44t-79 -17z" />
    <glyph glyph-name="Uring" unicode="&#x16e;" horiz-adv-x="648" 
d="M322 -12q-77 0 -132.5 25.5t-85.5 82t-30 148.5v442h92v-452q0 -84 40 -125.5t116 -41.5q78 0 119.5 41.5t41.5 125.5v452h91v-442q0 -92 -30 -148.5t-86.5 -82t-135.5 -25.5zM324 730q-40 0 -65.5 26t-25.5 67t25.5 67.5t65.5 26.5t65.5 -26.5t25.5 -67.5t-25.5 -67
t-65.5 -26zM324 776q19 0 31 12.5t12 34.5t-12 35t-31 13t-30.5 -13t-11.5 -35t11.5 -34.5t30.5 -12.5z" />
    <glyph glyph-name="uring" unicode="&#x16f;" horiz-adv-x="502" 
d="M204 -12q-66 0 -106 36t-40 125v377h84v-363q0 -28 6 -47t17.5 -30.5t29 -17t38.5 -5.5q33 0 61 18t45 52.5t17 82.5v310h83v-526h-67l-8 75h-6q-18 -30 -41.5 -49.5t-51.5 -28.5t-61 -9zM251 580q-38 0 -62.5 26t-24.5 67t24.5 67.5t62.5 26.5q39 0 63.5 -26.5
t24.5 -67.5t-24.5 -67t-63.5 -26zM251 623q20 0 31.5 14t11.5 36q0 23 -11.5 36.5t-31.5 13.5q-18 0 -30 -14t-12 -36t12 -36t30 -14z" />
    <glyph glyph-name="Uhungarumlaut" unicode="&#x170;" horiz-adv-x="648" 
d="M322 -12q-77 0 -132.5 25.5t-85.5 82t-30 148.5v442h92v-452q0 -84 40 -125.5t117 -41.5t118.5 41.5t41.5 125.5v452h91v-442q0 -92 -30 -148.5t-86.5 -82t-135.5 -25.5zM352 737l53 133h90l1 -3l-75 -130h-69zM217 737l54 133h89v-3l-75 -130h-68z" />
    <glyph glyph-name="uhungarumlaut" unicode="&#x171;" horiz-adv-x="502" 
d="M204 -12q-66 0 -106 36t-40 125v377h84v-363q0 -28 6 -47t17.5 -30.5t29 -17t38.5 -5.5q33 0 61 18t45 52.5t17 82.5v310h83v-526h-67l-8 75h-6q-18 -30 -41.5 -49.5t-51.5 -28.5t-61 -9zM146 591l53 132h89l1 -3l-76 -129h-67zM280 591l53 132h90l1 -3l-75 -129h-69z
" />
    <glyph glyph-name="Uogonek" unicode="&#x172;" horiz-adv-x="648" 
d="M322 -12q-77 0 -132.5 25.5t-85.5 82t-30 148.5v442h92v-452q0 -84 40 -125.5t116 -41.5q78 0 119.5 41.5t41.5 125.5v452h91v-442q0 -92 -30 -148.5t-86.5 -82t-135.5 -25.5zM427 -175q-22 0 -42.5 8.5t-33.5 28t-13 51.5t13.5 56t32.5 43h55v-5q-10 -10 -21.5 -28.5
t-11.5 -43.5q0 -23 11 -38.5t38 -15.5h32v-42q-14 -7 -30.5 -10.5t-29.5 -3.5z" />
    <glyph glyph-name="uogonek" unicode="&#x173;" horiz-adv-x="502" 
d="M421 -175q-22 0 -42.5 8.5t-33.5 27.5t-13 50q0 33 14 57t33 42h52v-6q-10 -10 -20.5 -28t-10.5 -42q0 -22 11 -37.5t38 -15.5h32v-42q-13 -7 -30 -10.5t-30 -3.5zM204 -12q-66 0 -106 36t-40 125v377h84v-363q0 -28 6 -47t17.5 -30.5t29 -17t38.5 -5.5q33 0 61 18
t45 52.5t17 82.5v310h83v-526h-67l-8 75h-6q-18 -30 -41.5 -49.5t-51.5 -28.5t-61 -9z" />
    <glyph glyph-name="Wcircumflex" unicode="&#x174;" horiz-adv-x="832" 
d="M181 0l-167 686h96l103 -444q4 -22 8 -44.5t7.5 -42t6.5 -34.5h6q2 11 4.5 27t5.5 33.5t6.5 33.5t5.5 27l101 444h111l98 -444q4 -15 7.5 -36.5t7.5 -43.5t6 -41h7q2 11 5 26.5t6.5 32.5t6.5 33.5t6 28.5l106 444h88l-172 -686h-106l-102 447q-4 21 -8 43.5t-7 43
t-5 35.5h-6q-2 -15 -5.5 -37.5t-8 -45.5t-8.5 -39l-102 -447h-108zM281 737l95 133h83l94 -133h-75l-81 114l41 -1l-81 -113h-76z" />
    <glyph glyph-name="wcircumflex" unicode="&#x175;" horiz-adv-x="649" 
d="M147 0l-138 526h86l70 -293q4 -18 8.5 -40.5t9 -43t6.5 -33.5h6q4 18 8 41t8 44t7 33l62 292h94l63 -292q4 -16 8 -37.5t8.5 -43t6.5 -37.5h6q3 16 7.5 37.5t9.5 43t8 36.5l69 293h80l-138 -526h-88l-61 282q-3 17 -8 41t-9.5 49t-7.5 43h-6q-2 -15 -6 -37.5t-9 -47.5
t-10 -49l-62 -281h-88zM192 591l95 132h75l95 -132h-72l-81 113h41l-81 -113h-72z" />
    <glyph glyph-name="Ycircumflex" unicode="&#x176;" horiz-adv-x="597" 
d="M252 0v284l-238 402h102l182 -313h5l181 313h99l-239 -402v-284h-92zM164 737l95 133h82l95 -133h-75l-81 114l41 -1l-81 -113h-76z" />
    <glyph glyph-name="ycircumflex" unicode="&#x177;" horiz-adv-x="439" 
d="M99 -184q-21 0 -37.5 3t-24.5 4v63h39q24 0 44 10.5t36 36t28 67.5l-173 526h88l88 -285q6 -16 13 -40.5t14 -50t11 -45.5h6q4 15 8.5 34t9.5 38.5t10 37.5t9 31l77 280h85l-155 -512q-13 -43 -28.5 -79.5t-35 -63t-47 -41t-65.5 -14.5zM95 591l94 132h76l95 -132h-72
l-81 113h41l-81 -113h-72z" />
    <glyph glyph-name="Ydieresis" unicode="&#x178;" horiz-adv-x="597" 
d="M252 0v284l-238 402h102l182 -313h5l181 313h99l-239 -402v-284h-92zM177 776v92h79v-92h-79zM344 776v92h79v-92h-79z" />
    <glyph glyph-name="Zacute" unicode="&#x179;" horiz-adv-x="570" 
d="M31 0v47l370 560h-347v79h477v-47l-372 -560h380v-79h-508zM249 737l77 133h94l1 -4l-100 -129h-72z" />
    <glyph glyph-name="zacute" unicode="&#x17a;" horiz-adv-x="444" 
d="M26 0v45l262 410h-243v71h358v-43l-263 -412h276v-71h-390zM177 591l78 132h90v-3l-99 -129h-69z" />
    <glyph glyph-name="Zdotaccent" unicode="&#x17b;" horiz-adv-x="570" 
d="M31 0v47l370 560h-347v79h477v-47l-372 -560h380v-79h-508zM245 776v95h82v-95h-82z" />
    <glyph glyph-name="zdotaccent" unicode="&#x17c;" horiz-adv-x="444" 
d="M26 0v45l262 410h-243v71h358v-43l-263 -412h276v-71h-390zM181 627v95h82v-95h-82z" />
    <glyph glyph-name="Zcaron" unicode="&#x17d;" horiz-adv-x="570" 
d="M31 0v47l370 560h-347v79h477v-47l-372 -560h380v-79h-508zM150 870h75l81 -113l-40 -1l80 114h76l-95 -133h-83z" />
    <glyph glyph-name="zcaron" unicode="&#x17e;" horiz-adv-x="444" 
d="M26 0v45l262 410h-243v71h358v-43l-263 -412h276v-71h-390zM89 723h72l81 -113h-40l80 113h72l-94 -132h-76z" />
    <glyph glyph-name="longs" unicode="&#x17f;" horiz-adv-x="258" 
d="M81 0v455h-67v71h67v87q0 35 10 61.5t33 42t62 15.5q11 0 23 -1.5t23.5 -3.5t20.5 -6v-60h-46q-22 0 -32 -12.5t-10 -34.5v-614h-84z" />
    <glyph glyph-name="uni018F" unicode="&#x18f;" horiz-adv-x="676" 
d="M340 -12q-72 0 -127 17.5t-92.5 57.5t-57 107.5t-19.5 166.5v34h493q-2 89 -26 144t-68.5 80t-111.5 25q-37 0 -71 -8.5t-61.5 -28.5t-43.5 -51.5t-16 -76.5h-94q0 62 22.5 107.5t61.5 75.5t91.5 45t112.5 15q103 0 169 -39t98.5 -117.5t32.5 -199.5q0 -119 -33 -198
t-98 -117.5t-162 -38.5zM342 66q60 0 102 24t65.5 75.5t26.5 133.5h-397q-1 -67 13 -112t41 -71.5t64.5 -38t84.5 -11.5z" />
    <glyph glyph-name="florin" unicode="&#x192;" horiz-adv-x="502" 
d="M82 -185q-10 0 -22.5 1t-23 3.5t-17.5 5.5l13 60h45q22 0 34.5 12.5t16.5 34.5l104 490h-66l14 70h67l26 121q7 35 22.5 61.5t42 42t66.5 15.5q11 0 22.5 -1.5t22.5 -3.5t19 -6l-13 -60h-46q-22 0 -34.5 -12t-17.5 -35l-26 -122h87l-14 -70h-87l-104 -489
q-8 -35 -23.5 -62t-41.5 -41.5t-66 -14.5z" />
    <glyph glyph-name="uni019D" unicode="&#x19d;" horiz-adv-x="654" 
d="M65 -184q-11 0 -23 1.5t-23.5 4t-19.5 4.5v59h41q21 0 29 11.5t8 35.5v754h88l285 -445q4 -6 10.5 -17t13 -22.5t10.5 -18.5h4v29.5v29.5v444h89v-686h-83l-289 452q-6 10 -17 29.5t-18 31.5h-4v-30.5v-31.5v-517q0 -26 -5.5 -47.5t-17 -37.5t-31 -24.5t-47.5 -8.5z" />
    <glyph glyph-name="Ohorn" unicode="&#x1a0;" horiz-adv-x="700" 
d="M350 -12q-96 0 -164 39t-104 118t-36 198q0 120 36 198.5t104 117.5t164 39t164 -39t103.5 -117.5t35.5 -198.5q0 -119 -35.5 -198t-103.5 -118t-164 -39zM350 67q49 0 87.5 15.5t65.5 47.5t41.5 81t14.5 116v32q0 67 -14.5 116t-41.5 81t-65.5 47.5t-87.5 15.5
t-88 -15.5t-66 -47.5t-41 -81t-14 -116v-32q0 -67 14 -116t41 -81t66 -47.5t88 -15.5zM519 589v45q55 0 86.5 24t31.5 66h-47v103h104v-79q0 -50 -20.5 -86t-60 -54.5t-94.5 -18.5z" />
    <glyph glyph-name="ohorn" unicode="&#x1a1;" horiz-adv-x="509" 
d="M255 -12q-71 0 -119.5 28.5t-73 89.5t-24.5 157q0 97 24.5 157.5t73 89t119.5 28.5t119 -28.5t73 -89t25 -157.5q0 -96 -25 -157t-73 -89.5t-119 -28.5zM255 59q44 0 72.5 19.5t42.5 62t14 108.5v28q0 67 -14 109t-42.5 61.5t-72.5 19.5t-73 -19.5t-43 -61.5t-14 -109
v-28q0 -66 14 -108.5t43 -62t73 -19.5zM376 446v46q50 5 80.5 27.5t37.5 63.5h-46v102h104v-62q0 -51 -19 -89.5t-57.5 -60.5t-99.5 -27z" />
    <glyph glyph-name="Uhorn" unicode="&#x1af;" horiz-adv-x="648" 
d="M322 -12q-77 0 -132.5 25.5t-85.5 82t-30 148.5v442h92v-452q0 -84 40 -125.5t117 -41.5t118.5 41.5t41.5 125.5v452h91v-442q0 -92 -30 -148.5t-86.5 -82t-135.5 -25.5zM513 640v46q55 0 86.5 23.5t31.5 65.5h-46v103h103v-78q0 -50 -20.5 -86t-60 -55t-94.5 -19z" />
    <glyph glyph-name="uhorn" unicode="&#x1b0;" horiz-adv-x="502" 
d="M204 -12q-66 0 -106 36t-40 125v377h84v-363q0 -28 6 -47t17.5 -30.5t29 -17t38.5 -5.5q33 0 61 18t45 52.5t17 82.5v310h83v-526h-67l-8 75h-6q-18 -30 -41.5 -49.5t-51.5 -28.5t-61 -9zM375 479v47q50 5 80 27.5t38 62.5h-47v103h104v-62q0 -52 -18.5 -90t-57.5 -60
t-99 -28z" />
    <glyph glyph-name="uni01C4" unicode="&#x1c4;" horiz-adv-x="1213" 
d="M77 0v686h229q98 0 165 -35.5t101.5 -111t34.5 -195.5q0 -119 -34.5 -195t-102 -112.5t-165.5 -36.5h-228zM169 79h131q49 0 88.5 13t67 41.5t42.5 76t15 116.5v30q0 70 -14.5 118t-42 77t-67 42.5t-89.5 13.5h-131v-528zM674 0v47l370 560h-347v79h477v-47l-372 -560
h379v-79h-507zM792 870h76l81 -113l-41 -1l81 114h76l-95 -133h-83z" />
    <glyph glyph-name="uni01C5" unicode="&#x1c5;" horiz-adv-x="1098" 
d="M77 0v686h229q98 0 165 -35.5t101.5 -111t34.5 -195.5q0 -119 -34.5 -195t-102 -112.5t-165.5 -36.5h-228zM169 79h131q49 0 88.5 13t67 41.5t42.5 76t15 116.5v30q0 70 -14.5 118t-42 77t-67 42.5t-89.5 13.5h-131v-528zM680 0v45l261 410h-242v71h357v-43l-262 -412
h275v-71h-389zM743 723h72l81 -113h-41l81 113h72l-95 -132h-75z" />
    <glyph glyph-name="uni01C6" unicode="&#x1c6;" horiz-adv-x="951" 
d="M220 -12q-58 0 -98.5 28t-62 89.5t-21.5 160.5q0 96 21.5 155.5t61.5 88t96 28.5q31 0 56.5 -8t46 -24.5t34.5 -43.5h6v261h84v-723h-67l-8 72h-6q-21 -39 -58.5 -61.5t-84.5 -22.5zM241 62q43 0 69 22t38 64t12 103v22q0 53 -9 89.5t-25 58.5t-37.5 32.5t-46.5 10.5
q-40 0 -66 -19.5t-38.5 -61t-12.5 -108.5v-25q0 -67 13 -108.5t38.5 -60.5t64.5 -19zM533 0v45l261 410h-242v71h357v-43l-262 -412h276v-71h-390zM596 723h72l81 -113h-41l81 113h72l-95 -132h-75z" />
    <glyph glyph-name="uni01C7" unicode="&#x1c7;" horiz-adv-x="959" 
d="M77 0v686h92v-606h298v-80h-390zM684 -12q-62 0 -106 21t-67 62t-23 102v33h91v-33q0 -52 26.5 -79t79.5 -27q54 0 81 35t27 106v478h92v-477q0 -75 -24 -124.5t-69 -73t-108 -23.5z" />
    <glyph glyph-name="uni01C8" unicode="&#x1c8;" horiz-adv-x="687" 
d="M77 0v686h92v-606h298v-80h-390zM543 627v96h84v-96h-84zM527 -184q-10 0 -22.5 1t-24 3.5t-18.5 5.5v60h42q21 0 30 11t9 36v593h84v-602q0 -31 -10 -56t-31.5 -38.5t-58.5 -13.5z" />
    <glyph glyph-name="uni01C9" unicode="&#x1c9;" horiz-adv-x="416" 
d="M63 0v723h83v-723h-83zM272 627v96h83v-96h-83zM256 -184q-10 0 -22.5 1t-24 3.5t-18.5 5.5v60h42q21 0 30 11t9 36v593h83v-602q0 -31 -9.5 -56t-31 -38.5t-58.5 -13.5z" />
    <glyph glyph-name="uni01CA" unicode="&#x1ca;" horiz-adv-x="1150" 
d="M77 0v686h88l285 -445q4 -6 10.5 -17.5l13 -23t10.5 -19.5h5q0 16 -0.5 32t-0.5 29v444h89v-686h-83l-289 452q-6 11 -17 30t-18 33h-5q1 -15 1 -32v-32v-451h-89zM875 -12q-63 0 -106.5 21t-66.5 62t-23 102v33h90v-33q0 -52 27 -79t79 -27q55 0 82 35t27 106v478h92
v-477q0 -75 -24.5 -124.5t-69 -73t-107.5 -23.5z" />
    <glyph glyph-name="uni01CB" unicode="&#x1cb;" horiz-adv-x="861" 
d="M77 0v686h88l285 -445q5 -6 11 -17.5t12.5 -23t10.5 -19.5h5q0 16 -0.5 32t-0.5 29v444h89v-686h-83l-289 453q-6 10 -17 29t-18 33h-5q1 -15 1 -32v-32v-451h-89zM717 627v96h84v-96h-84zM701 -184q-11 0 -23 1t-23.5 3.5t-18.5 5.5v60h42q21 0 30 11t9 36v593h84v-602
q0 -31 -10 -56t-31.5 -38.5t-58.5 -13.5z" />
    <glyph glyph-name="uni01CC" unicode="&#x1cc;" horiz-adv-x="709" 
d="M63 0v526h68l7 -75h6q18 31 41.5 50t52 28t60.5 9q44 0 77 -15.5t51 -50.5t18 -94v-378h-84v363q0 28 -6 47t-17.5 30.5t-29 17t-38.5 5.5q-33 0 -61 -18t-45 -52t-17 -83v-310h-83zM565 627v96h84v-96h-84zM549 -184q-10 0 -22.5 1t-24 3.5t-18.5 5.5v60h42q21 0 30 11
t9 36v593h84v-602q0 -31 -10 -56t-31.5 -38.5t-58.5 -13.5z" />
    <glyph glyph-name="uni01CD" unicode="&#x1cd;" horiz-adv-x="600" 
d="M5 0l236 686h117l237 -686h-98l-59 175h-281l-59 -175h-93zM183 254h229l-72 218q-3 10 -8 24.5t-10.5 32.5l-11 36t-9.5 33h-6q-5 -18 -12.5 -41.5t-14.5 -46t-13 -38.5zM164 870h76l81 -113l-41 -1l81 114h75l-94 -133h-83z" />
    <glyph glyph-name="uni01CE" unicode="&#x1ce;" horiz-adv-x="493" 
d="M183 -12q-28 0 -55 7.5t-48.5 24t-34 44.5t-12.5 68q0 49 21 82.5t60.5 55t96.5 31t130 9.5v67q0 29 -9 49.5t-31 31.5t-61 11q-41 0 -63.5 -12.5t-31 -32t-8.5 -42.5v-13h-80q-1 5 -1 10v12q0 51 24 83.5t67 48t99 15.5q57 0 97 -17t61 -51.5t21 -87.5v-289q0 -18 8 -26
t20 -8h36v-55q-14 -6 -30.5 -10.5t-36.5 -4.5q-25 0 -40.5 10.5t-23.5 28.5t-11 40h-6q-16 -24 -39.5 -42t-53 -28t-65.5 -10zM205 59q26 0 50.5 9.5t43.5 27t30.5 43.5t11.5 59v50q-75 0 -123.5 -11t-72.5 -35t-24 -62q0 -27 10 -45t29 -27t45 -9zM109 723h72l81 -113h-41
l81 113h72l-95 -132h-75z" />
    <glyph glyph-name="uni01CF" unicode="&#x1cf;" horiz-adv-x="245" 
d="M77 0v686h92v-686h-92zM-13 870h75l82 -113l-41 -1l80 114h76l-95 -133h-82z" />
    <glyph glyph-name="uni01D0" unicode="&#x1d0;" horiz-adv-x="209" 
d="M63 0v526h83v-526h-83zM-28 723h71l82 -113h-41l80 113h73l-95 -132h-76z" />
    <glyph glyph-name="uni01D1" unicode="&#x1d1;" horiz-adv-x="700" 
d="M350 -12q-96 0 -164 39t-104 118t-36 198q0 120 36 198.5t104 117.5t164 39t164 -39t103.5 -117.5t35.5 -198.5q0 -119 -35.5 -198t-103.5 -118t-164 -39zM350 67q49 0 87.5 15.5t65.5 47.5t41.5 81t14.5 116v32q0 67 -14.5 116t-41.5 81t-65.5 47.5t-87.5 15.5
t-88 -15.5t-66 -47.5t-41 -81t-14 -116v-32q0 -67 14 -116t41 -81t66 -47.5t88 -15.5zM213 870h76l81 -113l-41 -1l81 114h75l-94 -133h-83z" />
    <glyph glyph-name="uni01D2" unicode="&#x1d2;" horiz-adv-x="509" 
d="M255 -12q-71 0 -119.5 28.5t-73 89.5t-24.5 157q0 97 24.5 157.5t73 89t119.5 28.5t119 -28.5t73 -89t25 -157.5q0 -96 -25 -157t-73 -89.5t-119 -28.5zM255 59q44 0 72.5 19.5t42.5 62t14 108.5v28q0 67 -14 109t-42.5 61.5t-72.5 19.5t-73 -19.5t-43 -61.5t-14 -109
v-28q0 -66 14 -108.5t43 -62t73 -19.5zM122 723h72l81 -113h-41l81 113h72l-95 -132h-75z" />
    <glyph glyph-name="uni01D3" unicode="&#x1d3;" horiz-adv-x="648" 
d="M322 -12q-77 0 -132.5 25.5t-85.5 82t-30 148.5v442h92v-452q0 -84 40 -125.5t116 -41.5q78 0 119.5 41.5t41.5 125.5v452h91v-442q0 -92 -30 -148.5t-86.5 -82t-135.5 -25.5zM188 870h75l82 -113l-41 -1l80 114h76l-95 -133h-82z" />
    <glyph glyph-name="uni01D4" unicode="&#x1d4;" horiz-adv-x="502" 
d="M204 -12q-66 0 -106 36t-40 125v377h84v-363q0 -28 6 -47t17.5 -30.5t29 -17t38.5 -5.5q33 0 61 18t45 52.5t17 82.5v310h83v-526h-67l-8 75h-6q-18 -30 -41.5 -49.5t-51.5 -28.5t-61 -9zM118 723h72l81 -113h-40l80 113h73l-95 -132h-76z" />
    <glyph glyph-name="uni01D5" unicode="&#x1d5;" horiz-adv-x="648" 
d="M322 -12q-77 0 -132.5 25.5t-85.5 82t-30 148.5v442h92v-452q0 -84 40 -125.5t117 -41.5t118.5 41.5t41.5 125.5v452h91v-442q0 -92 -30 -148.5t-86.5 -82t-135.5 -25.5zM201 776v92h79v-92h-79zM368 776v92h79v-92h-79zM190 950v63h267v-63h-267z" />
    <glyph glyph-name="uni01D6" unicode="&#x1d6;" horiz-adv-x="502" 
d="M204 -12q-66 0 -106 36t-40 125v377h84v-363q0 -28 6 -47t17.5 -30.5t29 -17t38.5 -5.5q33 0 61 18t45 52.5t17 82.5v310h83v-526h-67l-8 75h-6q-18 -30 -41.5 -49.5t-51.5 -28.5t-61 -9zM128 631v91h79v-91h-79zM295 631v91h79v-91h-79zM119 812v62h264v-62h-264z" />
    <glyph glyph-name="uni01D7" unicode="&#x1d7;" horiz-adv-x="648" 
d="M322 -12q-77 0 -132.5 25.5t-85.5 82t-30 148.5v442h92v-452q0 -84 40 -125.5t117 -41.5t118.5 41.5t41.5 125.5v452h91v-442q0 -92 -30 -148.5t-86.5 -82t-135.5 -25.5zM201 776v92h79v-92h-79zM368 776v92h79v-92h-79zM287 911l77 132h94l1 -3l-99 -129h-73z" />
    <glyph glyph-name="uni01D8" unicode="&#x1d8;" horiz-adv-x="502" 
d="M204 -12q-66 0 -106 36t-40 125v377h84v-363q0 -28 6 -47t17.5 -30.5t29 -17t38.5 -5.5q33 0 61 18t45 52.5t17 82.5v310h83v-526h-67l-8 75h-6q-18 -30 -41.5 -49.5t-51.5 -28.5t-61 -9zM128 631v91h79v-91h-79zM295 631v91h79v-91h-79zM206 765l78 132h90v-3l-99 -129
h-69z" />
    <glyph glyph-name="uni01D9" unicode="&#x1d9;" horiz-adv-x="648" 
d="M322 -12q-77 0 -132.5 25.5t-85.5 82t-30 148.5v442h92v-452q0 -84 40 -125.5t116 -41.5q78 0 119.5 41.5t41.5 125.5v452h91v-442q0 -92 -30 -148.5t-86.5 -82t-135.5 -25.5zM201 776v92h79v-92h-79zM368 776v92h79v-92h-79zM188 1043h75l82 -112l-41 -1l80 113h76
l-95 -132h-82z" />
    <glyph glyph-name="uni01DA" unicode="&#x1da;" horiz-adv-x="502" 
d="M204 -12q-66 0 -106 36t-40 125v377h84v-363q0 -28 6 -47t17.5 -30.5t29 -17t38.5 -5.5q33 0 61 18t45 52.5t17 82.5v310h83v-526h-67l-8 75h-6q-18 -30 -41.5 -49.5t-51.5 -28.5t-61 -9zM128 631v91h79v-91h-79zM295 631v91h79v-91h-79zM118 897h72l81 -113h-40l80 113
h73l-95 -132h-76z" />
    <glyph glyph-name="uni01DB" unicode="&#x1db;" horiz-adv-x="648" 
d="M322 -12q-77 0 -132.5 25.5t-85.5 82t-30 148.5v442h92v-452q0 -84 40 -125.5t116 -41.5q78 0 119.5 41.5t41.5 125.5v452h91v-442q0 -92 -30 -148.5t-86.5 -82t-135.5 -25.5zM201 776v92h79v-92h-79zM368 776v92h79v-92h-79zM368 911h-72l-100 129l1 3h94z" />
    <glyph glyph-name="uni01DC" unicode="&#x1dc;" horiz-adv-x="502" 
d="M204 -12q-66 0 -106 36t-40 125v377h84v-363q0 -28 6 -47t17.5 -30.5t29 -17t38.5 -5.5q33 0 61 18t45 52.5t17 82.5v310h83v-526h-67l-8 75h-6q-18 -30 -41.5 -49.5t-51.5 -28.5t-61 -9zM128 631v91h79v-91h-79zM295 631v91h79v-91h-79zM299 765h-68l-100 129l1 3h90z
" />
    <glyph glyph-name="Gcaron" unicode="&#x1e6;" horiz-adv-x="701" 
d="M349 -12q-148 0 -224 87t-76 268q0 119 35.5 198t105 118t169.5 39q63 0 113.5 -15.5t87 -46t55.5 -77t19 -108.5h-92q0 43 -13 75t-37 53t-58.5 30.5t-75.5 9.5q-51 0 -91 -15t-67.5 -47t-41.5 -81.5t-14 -117.5v-32q0 -91 24 -148.5t70.5 -84t112.5 -26.5
q68 0 110.5 22t62.5 66.5t20 110.5v16h-209v77h299v-359h-64l-10 82q-23 -32 -55.5 -53t-72 -31t-83.5 -10zM218 870h76l81 -113l-41 -1l81 114h76l-95 -133h-83z" />
    <glyph glyph-name="gcaron" unicode="&#x1e7;" horiz-adv-x="491" 
d="M149 -184q-37 0 -67.5 16t-48.5 46t-18 68q0 43 22.5 73.5t56.5 45.5q-25 12 -39 34t-14 47q0 35 23.5 58.5t58.5 32.5q-33 22 -50.5 56.5t-17.5 75.5q0 49 21 87t63.5 60t105.5 22q29 0 53 -4.5t44 -13.5q29 13 45 38t20 54h80q-1 -31 -13 -57t-33 -43.5t-51 -23.5
q24 -24 35.5 -54t11.5 -64q0 -49 -21 -87t-62.5 -60t-104.5 -22h-69q-25 0 -40.5 -11t-15.5 -35q0 -22 17 -34t43 -12h171q58 0 92.5 -39.5t34.5 -99.5q0 -43 -19.5 -78t-55.5 -55.5t-85 -20.5h-173zM172 -120h146q23 0 41 10t28.5 28t10.5 39q0 36 -19 57.5t-49 21.5h-158
q-31 0 -52 -22.5t-21 -56.5q0 -35 20.5 -56t52.5 -21zM246 264q54 0 80.5 27.5t26.5 77.5q0 51 -26.5 78.5t-80.5 27.5t-81 -27.5t-27 -78.5q0 -32 12 -56t36 -36.5t60 -12.5zM110 723h72l81 -113h-41l81 113h72l-95 -132h-75z" />
    <glyph glyph-name="uni01EA" unicode="&#x1ea;" horiz-adv-x="700" 
d="M350 -12q-96 0 -164 39t-104 118t-36 198q0 120 36 198.5t104 117.5t164 39t164 -39t103.5 -117.5t35.5 -198.5q0 -119 -35.5 -198t-103.5 -118t-164 -39zM350 67q49 0 87.5 15.5t65.5 47.5t41.5 81t14.5 116v32q0 67 -14.5 116t-41.5 81t-65.5 47.5t-87.5 15.5
t-88 -15.5t-66 -47.5t-41 -81t-14 -116v-32q0 -67 14 -116t41 -81t66 -47.5t88 -15.5zM455 -175q-22 0 -42.5 8.5t-33.5 28t-13 51.5t14 56t32 43h55v-5q-10 -10 -21.5 -28.5t-11.5 -43.5q0 -23 11 -38.5t38 -15.5h32v-42q-14 -7 -30.5 -10.5t-29.5 -3.5z" />
    <glyph glyph-name="uni01EB" unicode="&#x1eb;" horiz-adv-x="509" 
d="M255 -12q-71 0 -119.5 28.5t-73 89.5t-24.5 157q0 97 24.5 157.5t73 89t119.5 28.5t119 -28.5t73 -89t25 -157.5q0 -96 -25 -157t-73 -89.5t-119 -28.5zM255 59q44 0 72.5 19.5t42.5 62t14 108.5v28q0 67 -14 109t-42.5 61.5t-72.5 19.5t-73 -19.5t-43 -61.5t-14 -109
v-28q0 -66 14 -108.5t43 -62t73 -19.5zM342 -175q-22 0 -42.5 8.5t-34 28t-13.5 51.5t14 56t33 43h55v-5q-11 -10 -22.5 -28.5t-11.5 -43.5q0 -23 11.5 -38.5t38.5 -15.5h32v-42q-14 -7 -30.5 -10.5t-29.5 -3.5z" />
    <glyph glyph-name="Aringacute" unicode="&#x1fa;" horiz-adv-x="600" 
d="M5 0l236 686h117l237 -686h-98l-59 175h-281l-59 -175h-93zM183 254h229l-72 218q-3 10 -8 24.5t-10.5 32.5l-11 36t-9.5 33h-6q-5 -18 -12.5 -41.5t-14.5 -46t-13 -38.5zM300 730q-40 0 -65.5 26t-25.5 67t25.5 67.5t65.5 26.5t65.5 -26.5t25.5 -67.5t-25.5 -67
t-65.5 -26zM300 776q20 0 31.5 13t11.5 34q0 22 -11.5 35t-31.5 13q-18 0 -30 -13t-12 -35q0 -21 12 -34t30 -13zM264 952l77 132h94l1 -3l-100 -129h-72z" />
    <glyph glyph-name="aringacute" unicode="&#x1fb;" horiz-adv-x="493" 
d="M183 -12q-28 0 -55 7.5t-48.5 24t-34 44.5t-12.5 68q0 49 21 82.5t60.5 55t96.5 31t130 9.5v67q0 29 -9 49.5t-31 31.5t-61 11q-41 0 -63.5 -12.5t-31 -32t-8.5 -42.5v-13h-80q-1 5 -1 10v12q0 51 24 83.5t67 48t99 15.5q57 0 97 -17t61 -51.5t21 -87.5v-289q0 -18 8 -26
t20 -8h36v-55q-14 -6 -30.5 -10.5t-36.5 -4.5q-25 0 -40.5 10.5t-23.5 28.5t-11 40h-6q-16 -24 -39.5 -42t-53 -28t-65.5 -10zM205 59q26 0 50.5 9.5t43.5 27t30.5 43.5t11.5 59v50q-75 0 -123.5 -11t-72.5 -35t-24 -62q0 -27 10 -45t29 -27t45 -9zM242 580q-38 0 -62.5 26
t-24.5 67t24.5 67.5t62.5 26.5q39 0 63 -26.5t24 -67.5t-24.5 -67t-62.5 -26zM242 623q19 0 31 14t12 36q0 23 -12 36.5t-31 13.5t-30.5 -14t-11.5 -36t11.5 -36t30.5 -14zM197 808l77 133h90l1 -4l-99 -129h-69z" />
    <glyph glyph-name="AEacute" unicode="&#x1fc;" horiz-adv-x="884" 
d="M-3 0l292 686h543v-79h-403l52 -216h312v-80h-293l56 -231h282v-80h-357l-43 177h-273l-74 -177h-94zM196 256h225l-60 248q-2 11 -5 23t-5 24t-4 23t-5 20h-5q-3 -7 -7.5 -18t-9 -24t-9 -25.5t-8.5 -22.5zM355 737l77 133h93l1 -4l-99 -129h-72z" />
    <glyph glyph-name="aeacute" unicode="&#x1fd;" horiz-adv-x="799" 
d="M195 -12q-30 0 -58.5 7.5t-52 24t-37.5 44.5t-14 68q0 48 21.5 81.5t62.5 54.5t100 30.5t134 9.5v69q0 29 -9.5 49.5t-32.5 31.5t-65 11t-65.5 -12.5t-32.5 -31.5t-9 -43v-13h-80q-1 5 -1 9.5v11.5q0 51 24.5 84t68 48.5t100.5 15.5t97 -17.5t60 -53.5q26 36 65.5 53.5
t91.5 17.5q65 0 109 -26t66.5 -81t22.5 -144v-41h-325q1 -66 14 -108t40.5 -62t70.5 -20q27 0 48 8.5t36 24t23 38.5t8 52h82q0 -44 -13.5 -79.5t-39 -60.5t-62 -38t-84.5 -13q-63 0 -106.5 23.5t-68.5 73.5q-22 -35 -52 -56.5t-65 -31t-72 -9.5zM209 58q28 0 53 9t45 27
t32 44.5t12 59.5v48q-77 0 -128.5 -11t-76.5 -34t-25 -61q0 -28 10.5 -46.5t30.5 -27t47 -8.5zM437 307h237q0 45 -8 76t-22.5 50t-35.5 27.5t-47 8.5q-41 0 -68 -18t-40.5 -53.5t-15.5 -90.5zM361 591l77 132h90v-3l-99 -129h-68z" />
    <glyph glyph-name="Oslashacute" unicode="&#x1fe;" horiz-adv-x="700" 
d="M350 -12q-96 0 -164 39t-104 118t-36 198q0 120 36 198.5t104 117.5t164 39t164 -39t103.5 -117.5t35.5 -198.5q0 -119 -35.5 -198t-103.5 -118t-164 -39zM350 67q49 0 87.5 15.5t65.5 47.5t41.5 81t14.5 116v32q0 67 -14.5 116t-41.5 81t-65.5 47.5t-87.5 15.5
t-88 -15.5t-66 -47.5t-41 -81t-14 -116v-32q0 -67 14 -116t41 -81t66 -47.5t88 -15.5zM52 -48l519 782h75l-520 -782h-74zM312 737l78 133h93l1 -4l-99 -129h-73z" />
    <glyph glyph-name="oslashacute" unicode="&#x1ff;" horiz-adv-x="509" 
d="M255 -12q-71 0 -119.5 28.5t-73 89.5t-24.5 157q0 97 24.5 157.5t73 89t119.5 28.5t119 -28.5t73 -89t25 -157.5q0 -96 -25 -157t-73 -89.5t-119 -28.5zM255 59q44 0 72.5 19.5t42.5 62t14 108.5v28q0 67 -14 109t-42.5 61.5t-72.5 19.5t-73 -19.5t-43 -61.5t-14 -109
v-28q0 -66 14 -108.5t43 -62t73 -19.5zM27 -48l398 623h57l-396 -623h-59zM210 591l77 132h90l1 -3l-100 -129h-68z" />
    <glyph glyph-name="uni0200" unicode="&#x200;" horiz-adv-x="600" 
d="M5 0l236 686h117l237 -686h-98l-59 175h-281l-59 -175h-93zM183 254h229l-72 218q-3 10 -8 24.5t-10.5 32.5l-11 36t-9.5 33h-6q-5 -18 -12.5 -41.5t-14.5 -46t-13 -38.5zM342 737l-75 129l1 4h89l53 -133h-68zM206 737l-74 129l1 4h89l53 -133h-69z" />
    <glyph glyph-name="uni0201" unicode="&#x201;" horiz-adv-x="493" 
d="M183 -12q-28 0 -55 7.5t-48.5 24t-34 44.5t-12.5 68q0 49 21 82.5t60.5 55t96.5 31t130 9.5v67q0 29 -9 49.5t-31 31.5t-61 11q-41 0 -63.5 -12.5t-31 -32t-8.5 -42.5v-13h-80q-1 5 -1 10v12q0 51 24 83.5t67 48t99 15.5q57 0 97 -17t61 -51.5t21 -87.5v-289q0 -18 8 -26
t20 -8h36v-55q-14 -6 -30.5 -10.5t-36.5 -4.5q-25 0 -40.5 10.5t-23.5 28.5t-11 40h-6q-16 -24 -39.5 -42t-53 -28t-65.5 -10zM205 59q26 0 50.5 9.5t43.5 27t30.5 43.5t11.5 59v50q-75 0 -123.5 -11t-72.5 -35t-24 -62q0 -27 10 -45t29 -27t45 -9zM277 591l-74 129l1 3h84
l53 -132h-64zM155 591l-74 129l1 3h84l53 -132h-64z" />
    <glyph glyph-name="uni0202" unicode="&#x202;" horiz-adv-x="600" 
d="M5 0l236 686h117l237 -686h-98l-59 175h-281l-59 -175h-93zM183 254h229l-72 218q-3 10 -8 24.5t-10.5 32.5l-11 36t-9.5 33h-6q-5 -18 -12.5 -41.5t-14.5 -46t-13 -38.5zM172 754q0 28 11.5 54t40 43.5t78.5 17.5t77.5 -17.5t39 -43.5t11.5 -54h-55q-2 12 -8 25.5
t-21.5 23t-44.5 9.5q-28 0 -44 -9.5t-22.5 -23t-7.5 -25.5h-55z" />
    <glyph glyph-name="uni0203" unicode="&#x203;" horiz-adv-x="493" 
d="M183 -12q-28 0 -55 7.5t-48.5 24t-34 44.5t-12.5 68q0 49 21 82.5t60.5 55t96.5 31t130 9.5v67q0 29 -9 49.5t-31 31.5t-61 11q-41 0 -63.5 -12.5t-31 -32t-8.5 -42.5v-13h-80q-1 5 -1 10v12q0 51 24 83.5t67 48t99 15.5q57 0 97 -17t61 -51.5t21 -87.5v-289q0 -18 8 -26
t20 -8h36v-55q-14 -6 -30.5 -10.5t-36.5 -4.5q-25 0 -40.5 10.5t-23.5 28.5t-11 40h-6q-16 -24 -39.5 -42t-53 -28t-65.5 -10zM205 59q26 0 50.5 9.5t43.5 27t30.5 43.5t11.5 59v50q-75 0 -123.5 -11t-72.5 -35t-24 -62q0 -27 10 -45t29 -27t45 -9zM240 723q51 0 79 -17.5
t39.5 -44t11.5 -53.5h-54q-1 12 -7.5 25.5t-22.5 23.5t-45 10q-28 0 -43.5 -10t-21.5 -23.5t-8 -25.5h-55q0 27 11 53.5t39 44t77 17.5z" />
    <glyph glyph-name="uni0204" unicode="&#x204;" horiz-adv-x="596" 
d="M77 0v686h468v-79h-376v-216h336v-80h-336v-232h381v-79h-473zM356 737l-75 129l1 4h88l54 -133h-68zM220 737l-75 129l1 4h90l53 -133h-69z" />
    <glyph glyph-name="uni0205" unicode="&#x205;" horiz-adv-x="494" 
d="M252 -12q-72 0 -119.5 29t-71 90t-23.5 156q0 97 24 157.5t72.5 89t121.5 28.5q66 0 110.5 -26.5t67 -82t22.5 -142.5v-44h-331q0 -65 13.5 -106t41.5 -60.5t73 -19.5q28 0 49.5 8.5t37 24t23.5 38t9 51.5h82q-1 -44 -14.5 -79.5t-39 -60.5t-63 -38t-85.5 -13zM125 304
h244q0 45 -8 76t-22.5 51t-36 29t-49.5 9q-42 0 -69.5 -19t-41.5 -55t-17 -91zM288 591l-74 129v3h84l53 -132h-63zM165 591l-74 129l1 3h84l53 -132h-64z" />
    <glyph glyph-name="uni0206" unicode="&#x206;" horiz-adv-x="596" 
d="M77 0v686h468v-79h-376v-216h336v-80h-336v-232h381v-79h-473zM186 754q0 28 11.5 54t40 43.5t77.5 17.5q50 0 78 -17.5t39.5 -44t11.5 -53.5h-55q-2 12 -8.5 25.5t-21.5 23t-44 9.5q-28 0 -44 -9.5t-22.5 -23t-7.5 -25.5h-55z" />
    <glyph glyph-name="uni0207" unicode="&#x207;" horiz-adv-x="494" 
d="M252 -12q-72 0 -119.5 29t-71 90t-23.5 156q0 97 24 157.5t72.5 89t121.5 28.5q66 0 110.5 -26.5t67 -82t22.5 -142.5v-44h-331q0 -65 13.5 -106t41.5 -60.5t73 -19.5q28 0 49.5 8.5t37 24t23.5 38t9 51.5h82q-1 -44 -14.5 -79.5t-39 -60.5t-63 -38t-85.5 -13zM125 304
h244q0 45 -8 76t-22.5 51t-36 29t-49.5 9q-42 0 -69.5 -19t-41.5 -55t-17 -91zM250 723q51 0 79 -17.5t39.5 -44t11.5 -53.5h-54q-1 12 -7.5 25.5t-22 23.5t-45.5 10q-28 0 -43 -10t-21.5 -23.5t-8.5 -25.5h-55q0 27 11 53.5t39 44t77 17.5z" />
    <glyph glyph-name="uni0208" unicode="&#x208;" horiz-adv-x="245" 
d="M77 0v686h92v-686h-92zM165 737l-75 129v4h89l54 -133h-68zM29 737l-75 129l1 4h90l53 -133h-69z" />
    <glyph glyph-name="uni0209" unicode="&#x209;" horiz-adv-x="209" 
d="M63 0v526h83v-526h-83zM140 591l-74 129v3h84l53 -132h-63zM17 591l-74 129l1 3h84l53 -132h-64z" />
    <glyph glyph-name="uni020A" unicode="&#x20a;" horiz-adv-x="245" 
d="M77 0v686h92v-686h-92zM-5 754q0 28 11.5 54t40 43.5t77.5 17.5q50 0 78 -17.5t39 -43.5t11 -54h-54q-2 12 -8.5 25.5t-21.5 23t-44 9.5t-44.5 -9.5t-22 -23t-7.5 -25.5h-55z" />
    <glyph glyph-name="uni020B" unicode="&#x20b;" horiz-adv-x="209" 
d="M63 0v526h83v-526h-83zM102 723q51 0 79 -17.5t40 -44t12 -53.5h-55q-1 12 -7.5 25.5t-22 23.5t-44.5 10t-44 -10t-21.5 -23.5t-8.5 -25.5h-55q0 27 11 53.5t39 44t77 17.5z" />
    <glyph glyph-name="uni020C" unicode="&#x20c;" horiz-adv-x="700" 
d="M350 -12q-96 0 -164 39t-104 118t-36 198q0 120 36 198.5t104 117.5t164 39t164 -39t103.5 -117.5t35.5 -198.5q0 -119 -35.5 -198t-103.5 -118t-164 -39zM350 67q49 0 87.5 15.5t65.5 47.5t41.5 81t14.5 116v32q0 67 -14.5 116t-41.5 81t-65.5 47.5t-87.5 15.5
t-88 -15.5t-66 -47.5t-41 -81t-14 -116v-32q0 -67 14 -116t41 -81t66 -47.5t88 -15.5zM391 737l-75 129l1 4h89l53 -133h-68zM255 737l-74 129l1 4h89l53 -133h-69z" />
    <glyph glyph-name="uni020D" unicode="&#x20d;" horiz-adv-x="509" 
d="M255 -12q-71 0 -119.5 28.5t-73 89.5t-24.5 157q0 97 24.5 157.5t73 89t119.5 28.5t119 -28.5t73 -89t25 -157.5q0 -96 -25 -157t-73 -89.5t-119 -28.5zM255 59q44 0 72.5 19.5t42.5 62t14 108.5v28q0 67 -14 109t-42.5 61.5t-72.5 19.5t-73 -19.5t-43 -61.5t-14 -109
v-28q0 -66 14 -108.5t43 -62t73 -19.5zM290 591l-74 129l1 3h83l54 -132h-64zM168 591l-74 129l1 3h84l53 -132h-64z" />
    <glyph glyph-name="uni020E" unicode="&#x20e;" horiz-adv-x="700" 
d="M350 -12q-96 0 -164 39t-104 118t-36 198q0 120 36 198.5t104 117.5t164 39t164 -39t103.5 -117.5t35.5 -198.5q0 -119 -35.5 -198t-103.5 -118t-164 -39zM350 67q49 0 87.5 15.5t65.5 47.5t41.5 81t14.5 116v32q0 67 -14.5 116t-41.5 81t-65.5 47.5t-87.5 15.5
t-88 -15.5t-66 -47.5t-41 -81t-14 -116v-32q0 -67 14 -116t41 -81t66 -47.5t88 -15.5zM221 754q0 28 11.5 54t40 43.5t78.5 17.5t77.5 -17.5t39 -43.5t11.5 -54h-55q-2 12 -8 25.5t-21.5 23t-44.5 9.5q-28 0 -44 -9.5t-22.5 -23t-7.5 -25.5h-55z" />
    <glyph glyph-name="uni020F" unicode="&#x20f;" horiz-adv-x="509" 
d="M255 -12q-71 0 -119.5 28.5t-73 89.5t-24.5 157q0 97 24.5 157.5t73 89t119.5 28.5t119 -28.5t73 -89t25 -157.5q0 -96 -25 -157t-73 -89.5t-119 -28.5zM255 59q44 0 72.5 19.5t42.5 62t14 108.5v28q0 67 -14 109t-42.5 61.5t-72.5 19.5t-73 -19.5t-43 -61.5t-14 -109
v-28q0 -66 14 -108.5t43 -62t73 -19.5zM253 723q50 0 78 -17.5t40 -44t12 -53.5h-55q0 12 -6.5 25.5t-22.5 23.5t-45 10q-28 0 -43.5 -10t-22 -23.5t-8.5 -25.5h-54q0 27 11 53.5t39 44t77 17.5z" />
    <glyph glyph-name="uni0210" unicode="&#x210;" horiz-adv-x="644" 
d="M77 0v686h304q72 0 116.5 -25.5t65 -70t20.5 -101.5q0 -72 -29.5 -122.5t-79.5 -72.5l135 -294h-99l-125 274h-216v-274h-92zM169 353h205q57 0 86.5 35.5t29.5 97.5q0 39 -12 65.5t-38.5 41t-68.5 14.5h-202v-254zM365 737l-75 129l1 4h89l53 -133h-68zM229 737l-74 129
l1 4h89l53 -133h-69z" />
    <glyph glyph-name="uni0211" unicode="&#x211;" horiz-adv-x="297" 
d="M63 0v526h68l7 -81h6q8 26 22 47t35 33.5t50 12.5q13 0 23 -2t16 -4v-82h-32q-27 0 -48 -10t-35 -29.5t-21.5 -47.5t-7.5 -64v-299h-83zM204 591l-74 129l1 3h83l53 -132h-63zM82 591l-75 129l1 3h85l52 -132h-63z" />
    <glyph glyph-name="uni0212" unicode="&#x212;" horiz-adv-x="644" 
d="M77 0v686h304q72 0 116.5 -25.5t65 -70t20.5 -101.5q0 -72 -29.5 -122.5t-79.5 -72.5l135 -294h-99l-125 274h-216v-274h-92zM169 353h205q57 0 86.5 35.5t29.5 97.5q0 39 -12 65.5t-38.5 41t-68.5 14.5h-202v-254zM195 754q0 28 11.5 54t40 43.5t78.5 17.5t77.5 -17.5
t39 -43.5t11.5 -54h-55q-2 12 -8 25.5t-21.5 23t-44.5 9.5q-28 0 -44 -9.5t-22.5 -23t-7.5 -25.5h-55z" />
    <glyph glyph-name="uni0213" unicode="&#x213;" horiz-adv-x="297" 
d="M63 0v526h68l7 -81h6q8 26 22 47t35 33.5t50 12.5q13 0 23 -2t16 -4v-82h-32q-27 0 -48 -10t-35 -29.5t-21.5 -47.5t-7.5 -64v-299h-83zM167 723q50 0 78 -17.5t40 -44t12 -53.5h-55q-1 12 -7.5 25.5t-22 23.5t-44.5 10t-44 -10t-21.5 -23.5t-8.5 -25.5h-55
q0 27 11.5 53.5t39 44t77.5 17.5z" />
    <glyph glyph-name="uni0214" unicode="&#x214;" horiz-adv-x="648" 
d="M322 -12q-77 0 -132.5 25.5t-85.5 82t-30 148.5v442h92v-452q0 -84 40 -125.5t116 -41.5q78 0 119.5 41.5t41.5 125.5v452h91v-442q0 -92 -30 -148.5t-86.5 -82t-135.5 -25.5zM366 737l-75 129l1 4h88l54 -133h-68zM230 737l-75 129l1 4h90l53 -133h-69z" />
    <glyph glyph-name="uni0215" unicode="&#x215;" horiz-adv-x="502" 
d="M204 -12q-66 0 -106 36t-40 125v377h84v-363q0 -28 6 -47t17.5 -30.5t29 -17t38.5 -5.5q33 0 61 18t45 52.5t17 82.5v310h83v-526h-67l-8 75h-6q-18 -30 -41.5 -49.5t-51.5 -28.5t-61 -9zM287 591l-74 129v3h84l53 -132h-63zM164 591l-74 129l1 3h84l53 -132h-64z" />
    <glyph glyph-name="uni0216" unicode="&#x216;" horiz-adv-x="648" 
d="M322 -12q-77 0 -132.5 25.5t-85.5 82t-30 148.5v442h92v-452q0 -84 40 -125.5t116 -41.5q78 0 119.5 41.5t41.5 125.5v452h91v-442q0 -92 -30 -148.5t-86.5 -82t-135.5 -25.5zM196 754q0 28 11.5 54t40 43.5t78.5 17.5q49 0 77 -17.5t39.5 -43.5t11.5 -54h-55
q-2 12 -8.5 25.5t-21.5 23t-44 9.5q-28 0 -44 -9.5t-22.5 -23t-7.5 -25.5h-55z" />
    <glyph glyph-name="uni0217" unicode="&#x217;" horiz-adv-x="502" 
d="M204 -12q-66 0 -106 36t-40 125v377h84v-363q0 -28 6 -47t17.5 -30.5t29 -17t38.5 -5.5q33 0 61 18t45 52.5t17 82.5v310h83v-526h-67l-8 75h-6q-18 -30 -41.5 -49.5t-51.5 -28.5t-61 -9zM249 723q51 0 79 -17.5t40 -44t12 -53.5h-55q-1 12 -7.5 25.5t-22 23.5t-45.5 10
q-28 0 -43 -10t-21.5 -23.5t-8.5 -25.5h-55q0 27 11 53.5t39 44t77 17.5z" />
    <glyph glyph-name="uni0218" unicode="&#x218;" horiz-adv-x="590" 
d="M297 -12q-51 0 -97 10.5t-80.5 34.5t-54.5 63t-20 98v9.5v9.5h92q0 -4 -0.5 -10t-0.5 -11q0 -42 19.5 -70t55 -41.5t84.5 -13.5q22 0 45 3.5t43.5 12t36.5 21.5t25 32t9 46q0 33 -16.5 55.5t-45 37.5t-63.5 26.5t-72.5 22.5t-72.5 25.5t-63 35.5t-45 53t-17 77
q0 44 16.5 78.5t47.5 57.5t75.5 35t100.5 12q50 0 91.5 -11t73 -34t49 -59t17.5 -87v-13h-90v16q0 34 -17 58.5t-48 37.5t-73 13q-49 0 -82 -11t-50.5 -32.5t-17.5 -52.5q0 -32 17 -53t45 -35t63 -25t72.5 -22.5t72.5 -26t63.5 -36t45 -54t16.5 -77.5q0 -73 -32 -118.5
t-88.5 -66.5t-129.5 -21zM250 -287v38q25 0 36 17.5t11 49.5h-37v95h83v-78q0 -44 -11.5 -70.5t-32 -39t-49.5 -12.5z" />
    <glyph glyph-name="uni0219" unicode="&#x219;" horiz-adv-x="449" 
d="M221 -12q-49 0 -85.5 11t-60 31.5t-34.5 49.5t-11 65v10t1 9h81q-1 -5 -1 -9v-7q1 -33 15 -53.5t39.5 -29.5t58.5 -9q31 0 54.5 9.5t37 28t13.5 46.5q0 32 -18.5 49.5t-48 28t-62.5 21.5q-29 9 -56.5 20t-50 28t-36 42.5t-13.5 64.5q0 34 13 61t37 45.5t57.5 28t75.5 9.5
q44 0 77 -10.5t55 -29t33 -43.5t11 -55q0 -6 -0.5 -13t-0.5 -12h-81v18q0 22 -9.5 39t-30.5 27.5t-57 10.5q-25 0 -43.5 -5t-30 -14.5t-17.5 -22.5t-6 -30q0 -26 15.5 -41t40.5 -24.5t54 -19.5q30 -10 61.5 -21t58 -27.5t42.5 -44t16 -70.5q0 -42 -14.5 -72.5t-40.5 -50.5
t-61 -29.5t-78 -9.5zM173 -287v38q25 0 36 17.5t11 49.5h-37v95h83v-78q0 -44 -11.5 -70.5t-32 -39t-49.5 -12.5z" />
    <glyph glyph-name="uni021A" unicode="&#x21a;" horiz-adv-x="545" 
d="M226 0v606h-209v80h510v-80h-210v-606h-91zM221 -287v38q24 0 35.5 17.5t11.5 49.5h-37v95h82v-78q0 -44 -11 -70.5t-31.5 -39t-49.5 -12.5z" />
    <glyph glyph-name="uni021B" unicode="&#x21b;" horiz-adv-x="266" 
d="M171 -12q-38 0 -59 15t-29 41t-8 56v355h-58v71h59l16 148h67v-148h85v-71h-85v-348q0 -25 7.5 -36.5t28.5 -11.5h49v-56q-10 -4 -23 -7.5t-25.5 -5.5t-24.5 -2zM106 -287v38q25 0 36.5 17.5t11.5 49.5h-37v95h82v-78q0 -44 -11 -70.5t-31.5 -39t-50.5 -12.5z" />
    <glyph glyph-name="uni022A" unicode="&#x22a;" horiz-adv-x="700" 
d="M350 -12q-96 0 -164 39t-104 118t-36 198q0 120 36 198.5t104 117.5t164 39t164 -39t103.5 -117.5t35.5 -198.5q0 -119 -35.5 -198t-103.5 -118t-164 -39zM350 67q49 0 87.5 15.5t65.5 47.5t41.5 81t14.5 116v32q0 67 -14.5 116t-41.5 81t-65.5 47.5t-87.5 15.5
t-88 -15.5t-66 -47.5t-41 -81t-14 -116v-32q0 -67 14 -116t41 -81t66 -47.5t88 -15.5zM226 776v92h79v-92h-79zM393 776v92h79v-92h-79zM216 950v63h266v-63h-266z" />
    <glyph glyph-name="uni022B" unicode="&#x22b;" horiz-adv-x="509" 
d="M255 -12q-71 0 -119.5 28.5t-73 89.5t-24.5 157q0 97 24.5 157.5t73 89t119.5 28.5t119 -28.5t73 -89t25 -157.5q0 -96 -25 -157t-73 -89.5t-119 -28.5zM255 59q44 0 72.5 19.5t42.5 62t14 108.5v28q0 67 -14 109t-42.5 61.5t-72.5 19.5t-73 -19.5t-43 -61.5t-14 -109
v-28q0 -66 14 -108.5t43 -62t73 -19.5zM132 631v91h78v-91h-78zM299 631v91h78v-91h-78zM122 812v62h265v-62h-265z" />
    <glyph glyph-name="uni022C" unicode="&#x22c;" horiz-adv-x="700" 
d="M350 -12q-96 0 -164 39t-104 118t-36 198q0 120 36 198.5t104 117.5t164 39t164 -39t103.5 -117.5t35.5 -198.5q0 -119 -35.5 -198t-103.5 -118t-164 -39zM350 67q49 0 87.5 15.5t65.5 47.5t41.5 81t14.5 116v32q0 67 -14.5 116t-41.5 81t-65.5 47.5t-87.5 15.5
t-88 -15.5t-66 -47.5t-41 -81t-14 -116v-32q0 -67 14 -116t41 -81t66 -47.5t88 -15.5zM206 770q1 27 9 48.5t25.5 33.5t42.5 12q24 0 45.5 -8t42 -16t40.5 -8q14 0 21 8.5t9 23.5h51q0 -26 -9 -47.5t-26 -33.5t-43 -12q-23 0 -44.5 8t-42 16t-40.5 8q-14 0 -21.5 -9
t-8.5 -24h-51zM216 931v63h266v-63h-266z" />
    <glyph glyph-name="uni022D" unicode="&#x22d;" horiz-adv-x="509" 
d="M255 -12q-71 0 -119.5 28.5t-73 89.5t-24.5 157q0 97 24.5 157.5t73 89t119.5 28.5t119 -28.5t73 -89t25 -157.5q0 -96 -25 -157t-73 -89.5t-119 -28.5zM255 59q44 0 72.5 19.5t42.5 62t14 108.5v28q0 67 -14 109t-42.5 61.5t-72.5 19.5t-73 -19.5t-43 -61.5t-14 -109
v-28q0 -66 14 -108.5t43 -62t73 -19.5zM111 624q1 28 9.5 49t25.5 33t43 12q23 0 45 -7.5t42.5 -16t39.5 -8.5q15 0 21.5 9t9.5 24h51q-1 -27 -10 -48t-26 -33.5t-43 -12.5q-22 0 -44 8.5t-42 16.5t-40 8q-15 0 -22 -9t-9 -25h-51zM122 801v61h265v-61h-265z" />
    <glyph glyph-name="uni0230" unicode="&#x230;" horiz-adv-x="700" 
d="M350 -12q-96 0 -164 39t-104 118t-36 198q0 120 36 198.5t104 117.5t164 39t164 -39t103.5 -117.5t35.5 -198.5q0 -119 -35.5 -198t-103.5 -118t-164 -39zM350 67q49 0 87.5 15.5t65.5 47.5t41.5 81t14.5 116v32q0 67 -14.5 116t-41.5 81t-65.5 47.5t-87.5 15.5
t-88 -15.5t-66 -47.5t-41 -81t-14 -116v-32q0 -67 14 -116t41 -81t66 -47.5t88 -15.5zM308 776v95h83v-95h-83zM216 950v63h266v-63h-266z" />
    <glyph glyph-name="uni0231" unicode="&#x231;" horiz-adv-x="509" 
d="M255 -12q-71 0 -119.5 28.5t-73 89.5t-24.5 157q0 97 24.5 157.5t73 89t119.5 28.5t119 -28.5t73 -89t25 -157.5q0 -96 -25 -157t-73 -89.5t-119 -28.5zM255 59q44 0 72.5 19.5t42.5 62t14 108.5v28q0 67 -14 109t-42.5 61.5t-72.5 19.5t-73 -19.5t-43 -61.5t-14 -109
v-28q0 -66 14 -108.5t43 -62t73 -19.5zM213 627v95h83v-95h-83zM122 812v62h265v-62h-265z" />
    <glyph glyph-name="uni0232" unicode="&#x232;" horiz-adv-x="597" 
d="M252 0v284l-238 402h102l182 -313h5l181 313h99l-239 -402v-284h-92zM167 776v63h266v-63h-266z" />
    <glyph glyph-name="uni0233" unicode="&#x233;" horiz-adv-x="439" 
d="M99 -184q-21 0 -37.5 3t-24.5 4v63h39q24 0 44 10.5t36 36t28 67.5l-173 526h88l88 -285q6 -16 13 -40.5t14 -50t11 -45.5h6q4 15 8.5 34t9.5 38.5t10 37.5t9 31l77 280h85l-155 -512q-13 -43 -28.5 -79.5t-35 -63t-47 -41t-65.5 -14.5zM95 638v62h264v-62h-264z" />
    <glyph glyph-name="uni0237" unicode="&#x237;" horiz-adv-x="206" 
d="M47 -184q-11 0 -23 1t-23.5 3.5t-19.5 5.5v60h43q21 0 30 11t9 36v593h83v-602q0 -31 -9.5 -56t-31.5 -38.5t-58 -13.5z" />
    <glyph glyph-name="uni0259" unicode="&#x259;" horiz-adv-x="494" 
d="M237 -12q-65 0 -109 26t-66.5 82t-22.5 143v43h328q0 66 -13.5 107.5t-41 61t-71.5 19.5q-28 0 -49.5 -8.5t-36.5 -24t-23 -38.5t-9 -52h-82q1 44 14 79.5t38.5 60.5t63 38t85.5 13q71 0 118 -29t70.5 -89.5t23.5 -156.5t-24.5 -157t-72.5 -89.5t-120 -28.5zM240 57
q43 0 69.5 18.5t40.5 55.5t17 91h-241q0 -45 7.5 -76.5t22.5 -51t36 -28.5t48 -9z" />
    <glyph glyph-name="uni0272" unicode="&#x272;" horiz-adv-x="502" 
d="M46 -184q-10 0 -22 1t-23.5 3.5t-18.5 5.5v58h42q21 0 30 11.5t9 35.5v595h68l7 -75h6q18 31 41.5 50t52 28t60.5 9q44 0 77 -15.5t51 -50.5t18 -94v-378h-84v363q0 28 -6 47t-17.5 30.5t-29 17t-38.5 5.5q-33 0 -61 -18t-45 -52t-17 -83v-376q0 -26 -4.5 -47.5
t-16.5 -37.5t-31 -24.5t-48 -8.5z" />
    <glyph glyph-name="uni02B9" unicode="&#x2b9;" horiz-adv-x="143" 
d="M0 526l53 197h89l1 -3l-75 -194h-68z" />
    <glyph glyph-name="uni02BA" unicode="&#x2ba;" horiz-adv-x="275" 
d="M0 526l53 197h89l1 -3l-75 -194h-68zM132 526l53 197h89l1 -3l-75 -194h-68z" />
    <glyph glyph-name="uni02BC" unicode="&#x2bc;" horiz-adv-x="93" 
d="M0 561v38q25 0 36 17.5t11 49.5h-37v95h83v-79q0 -43 -11.5 -70t-32 -39t-49.5 -12z" />
    <glyph glyph-name="circumflex" unicode="&#x2c6;" horiz-adv-x="265" 
d="M0 591l95 132h75l95 -132h-72l-81 113h41l-81 -113h-72z" />
    <glyph glyph-name="caron" unicode="&#x2c7;" horiz-adv-x="265" 
d="M0 723h72l81 -113h-41l81 113h72l-95 -132h-75z" />
    <glyph glyph-name="uni02C9" unicode="&#x2c9;" horiz-adv-x="382" 
d="M0 617v69h382v-69h-382z" />
    <glyph glyph-name="breve" unicode="&#x2d8;" horiz-adv-x="257" 
d="M127 609q-49 0 -77 17t-39 44t-11 53h55q2 -11 8 -25t21.5 -23.5t43.5 -9.5q30 0 45.5 9.5t22 23.5t7.5 25h54q0 -26 -11.5 -53t-39.5 -44t-79 -17z" />
    <glyph glyph-name="dotaccent" unicode="&#x2d9;" horiz-adv-x="82" 
d="M0 627v95h82v-95h-82z" />
    <glyph glyph-name="ring" unicode="&#x2da;" horiz-adv-x="175" 
d="M87 580q-38 0 -62.5 26t-24.5 67t24.5 67.5t62.5 26.5q39 0 63.5 -26.5t24.5 -67.5t-24.5 -67t-63.5 -26zM87 623q20 0 31.5 14t11.5 36q0 23 -11.5 36.5t-30.5 13.5t-31 -14t-12 -36t12 -36t30 -14z" />
    <glyph glyph-name="ogonek" unicode="&#x2db;" horiz-adv-x="149" 
d="M90 -175q-22 0 -43 8.5t-34 28t-13 51.5t14 56t33 43h55v-5q-11 -10 -22.5 -28.5t-11.5 -43.5q0 -23 11.5 -38.5t38.5 -15.5h31v-42q-13 -7 -30 -10.5t-29 -3.5z" />
    <glyph glyph-name="tilde" unicode="&#x2dc;" horiz-adv-x="286" 
d="M0 624q1 28 9.5 49t25.5 33t42 12q24 0 45.5 -7.5t42.5 -16t40 -8.5q14 0 21 9t9 24h51q0 -27 -9 -48t-26 -33.5t-43 -12.5q-23 0 -44.5 8.5t-42 16.5t-40.5 8q-14 0 -21.5 -9t-8.5 -25h-51z" />
    <glyph glyph-name="hungarumlaut" unicode="&#x2dd;" horiz-adv-x="278" 
d="M0 591l53 132h89l1 -3l-75 -129h-68zM135 591l53 132h89l1 -3l-74 -129h-69z" />
    <glyph glyph-name="gravecomb" unicode="&#x300;" 
d="M168 591h-69l-99 129l1 3h90z" />
    <glyph glyph-name="acutecomb" unicode="&#x301;" 
d="M0 591l77 132h90l1 -3l-100 -129h-68z" />
    <glyph glyph-name="uni0302" unicode="&#x302;" 
d="M0 591l95 132h75l95 -132h-72l-81 113h41l-81 -113h-72z" />
    <glyph glyph-name="tildecomb" unicode="&#x303;" 
d="M0 624q1 28 9.5 49t25.5 33t42 12q24 0 45.5 -7.5t42.5 -16t40 -8.5q14 0 21 9t9 24h51q0 -27 -9 -48t-26 -33.5t-43 -12.5q-23 0 -44.5 8.5t-42 16.5t-40.5 8q-14 0 -21.5 -9t-8.5 -25h-51z" />
    <glyph glyph-name="uni0304" unicode="&#x304;" 
d="M0 638v62h264v-62h-264z" />
    <glyph glyph-name="uni0306" unicode="&#x306;" 
d="M127 609q-49 0 -77 17t-39 44t-11 53h55q2 -11 8 -25t21.5 -23.5t43.5 -9.5q30 0 45.5 9.5t22 23.5t7.5 25h54q0 -26 -11.5 -53t-39.5 -44t-79 -17z" />
    <glyph glyph-name="uni0307" unicode="&#x307;" 
d="M0 627v95h82v-95h-82z" />
    <glyph glyph-name="uni0308" unicode="&#x308;" 
d="M0 631v91h78v-91h-78zM167 631v91h79v-91h-79z" />
    <glyph glyph-name="hookabovecomb" unicode="&#x309;" 
d="M41 591v60h14q19 0 25.5 5.5t6.5 16.5t-8 16t-26 5h-53v34q9 3 20.5 4l23 2t20.5 1q15 0 29.5 -2.5t27 -8.5t20 -17t7.5 -28q0 -18 -8.5 -30t-22.5 -19t-31 -9v-30h-45z" />
    <glyph glyph-name="uni030A" unicode="&#x30a;" 
d="M87 580q-38 0 -62.5 26t-24.5 67t24.5 67.5t62.5 26.5q39 0 63.5 -26.5t24.5 -67.5t-24.5 -67t-63.5 -26zM87 623q20 0 31.5 14t11.5 36q0 23 -11.5 36.5t-30.5 13.5t-31 -14t-12 -36t12 -36t30 -14z" />
    <glyph glyph-name="uni030B" unicode="&#x30b;" 
d="M0 591l53 132h89l1 -3l-75 -129h-68zM135 591l53 132h89l1 -3l-74 -129h-69z" />
    <glyph glyph-name="uni030C" unicode="&#x30c;" 
d="M0 723h72l81 -113h-41l81 113h72l-95 -132h-75z" />
    <glyph glyph-name="uni030F" unicode="&#x30f;" 
d="M197 591l-74 129v3h84l53 -132h-63zM74 591l-74 129l1 3h84l53 -132h-64z" />
    <glyph glyph-name="uni0311" unicode="&#x311;" 
d="M127 723q51 0 79 -17.5t39.5 -44t11.5 -53.5h-54q-1 12 -7.5 25.5t-22 23.5t-45.5 10q-28 0 -43.5 -10t-21.5 -23.5t-8 -25.5h-55q0 27 11 53.5t39 44t77 17.5z" />
    <glyph glyph-name="uni0312" unicode="&#x312;" 
d="M93 830v-38q-25 0 -36.5 -17.5t-11.5 -49.5h37v-95h-82v79q0 43 11 70t32 39t50 12z" />
    <glyph glyph-name="uni0313" unicode="&#x313;" 
d="M0 559v38q25 0 36 17.5t11 49.5h-37v95h83v-79q0 -43 -11.5 -69.5t-32 -39t-49.5 -12.5z" />
    <glyph glyph-name="uni031B" unicode="&#x31b;" 
d="M0 446v46q50 5 80.5 27.5t37.5 63.5h-46v102h103v-62q0 -51 -18.5 -89.5t-57.5 -60.5t-99 -27z" />
    <glyph glyph-name="dotbelowcomb" unicode="&#x323;" 
d="M0 -184v95h82v-95h-82z" />
    <glyph glyph-name="uni0324" unicode="&#x324;" 
d="M0 -177v90h78v-90h-78zM167 -177v90h79v-90h-79z" />
    <glyph glyph-name="uni0326" unicode="&#x326;" 
d="M0 -287v38q25 0 36 17.5t11 49.5h-37v95h83v-78q0 -44 -11.5 -70.5t-32 -39t-49.5 -12.5z" />
    <glyph glyph-name="uni0327" unicode="&#x327;" 
d="M81 -180q-21 0 -42 2t-39 6v39h80q19 0 29 7t10 21q0 13 -8.5 19t-29.5 6h-41l15 93h54l-5 -53q22 0 40.5 -6.5t30.5 -20t12 -37.5q0 -23 -10 -38t-25.5 -23.5t-34 -11.5t-36.5 -3z" />
    <glyph glyph-name="uni0328" unicode="&#x328;" 
d="M90 -175q-22 0 -43 8.5t-34 28t-13 51.5t14 56t33 43h55v-5q-11 -10 -22.5 -28.5t-11.5 -43.5q0 -23 11.5 -38.5t38.5 -15.5h31v-42q-13 -7 -30 -10.5t-29 -3.5z" />
    <glyph glyph-name="uni032E" unicode="&#x32e;" 
d="M127 -201q-49 0 -77 17t-39 44t-11 53h55q2 -11 8 -25t21.5 -23.5t43.5 -9.5q30 0 45.5 9.5t22 23.5t7.5 25h54q0 -26 -11.5 -53t-39.5 -44t-79 -17z" />
    <glyph glyph-name="uni0331" unicode="&#x331;" 
d="M0 -146v62h264v-62h-264z" />
    <glyph glyph-name="uni0335" unicode="&#x335;" 
d="M0 336v66h282v-66h-282z" />
    <glyph glyph-name="uni0336" unicode="&#x336;" 
d="M0 336v68h632v-68h-632z" />
    <glyph glyph-name="uni0337" unicode="&#x337;" 
d="M0 228v74l197 187v-75z" />
    <glyph glyph-name="uni0338" unicode="&#x338;" 
d="M0 -49l398 623h58l-397 -623h-59z" />
    <glyph glyph-name="uni0394" unicode="&#x394;" horiz-adv-x="620" 
d="M20 0l229 686h119l227 -686h-575zM135 78h341q-6 17 -16 45.5t-18 52.5l-105 336q-4 13 -10 31.5t-11 35t-7 23.5h-7q-1 -7 -5 -19t-8.5 -26t-8 -25.5t-5.5 -18.5l-107 -341q-4 -17 -11 -35t-12.5 -33.5t-9.5 -25.5z" />
    <glyph glyph-name="uni03A9" unicode="&#x3a9;" horiz-adv-x="693" 
d="M45 0v80h32q10 0 24 -1t31.5 -3t37.5 -5q-54 43 -85 113.5t-31 168.5q0 112 34.5 189t100 116.5t157.5 39.5t157 -39.5t100 -116.5t35 -189q0 -99 -31 -169t-86 -113q19 3 37 5t33 3t23 1h33v-80h-274v68q52 7 90.5 35.5t59 82.5t20.5 136v30q0 95 -23.5 154t-68 86
t-105.5 27t-105.5 -27t-68.5 -86t-24 -154v-30q0 -82 21 -136t59 -82t90 -36v-68h-273z" />
    <glyph glyph-name="uni03BC" unicode="&#x3bc;" horiz-adv-x="507" 
d="M63 -180v706h83v-363q0 -28 6.5 -47t18 -30.5t28.5 -17t39 -5.5q33 0 61 18.5t44.5 54t16.5 86.5v304h84v-526h-68l-7 75h-7q-16 -31 -38 -49.5t-47.5 -27t-54.5 -8.5q-23 0 -44 6t-36 19q3 -13 3.5 -30.5t0.5 -32.5v-132h-83z" />
    <glyph glyph-name="pi" unicode="&#x3c0;" horiz-adv-x="619" 
d="M87 0q13 40 25.5 97.5t22 121.5t15 125.5t5.5 110.5q-43 0 -70 -3t-44 -10l-13 54q19 14 57.5 22t101.5 8h399l-9 -71h-84v-298q0 -61 4 -97.5t10 -59.5h-81q-8 12 -12.5 50t-4.5 98v307h-168q-3 -49 -9.5 -113t-16 -130t-21 -122t-24.5 -90h-83z" />
    <glyph glyph-name="uni1E24" unicode="&#x1e24;" horiz-adv-x="654" 
d="M77 0v686h92v-296h316v296h92v-686h-92v310h-316v-310h-92zM285 -184v95h82v-95h-82z" />
    <glyph glyph-name="uni1E25" unicode="&#x1e25;" horiz-adv-x="502" 
d="M63 0v723h83v-260h7q17 26 39 42.5t48.5 24.5t58.5 8q44 0 76.5 -15.5t50.5 -50.5t18 -94v-378h-84v363q0 28 -6 47t-17.5 30.5t-29 17t-38.5 5.5q-33 0 -61 -17.5t-45 -51.5t-17 -84v-310h-83zM213 -184v95h83v-95h-83z" />
    <glyph glyph-name="uni1E62" unicode="&#x1e62;" horiz-adv-x="590" 
d="M297 -12q-51 0 -97 10.5t-80.5 34.5t-54.5 63t-20 98v9.5v9.5h92q0 -4 -0.5 -10t-0.5 -11q0 -42 19.5 -70t55 -41.5t84.5 -13.5q22 0 45 3.5t43.5 12t36.5 21.5t25 32t9 46q0 33 -16.5 55.5t-45 37.5t-63.5 26.5t-72.5 22.5t-72.5 25.5t-63 35.5t-45 53t-17 77
q0 44 16.5 78.5t47.5 57.5t75.5 35t100.5 12q50 0 91.5 -11t73 -34t49 -59t17.5 -87v-13h-90v16q0 34 -17 58.5t-48 37.5t-73 13q-49 0 -82 -11t-50.5 -32.5t-17.5 -52.5q0 -32 17 -53t45 -35t63 -25t72.5 -22.5t72.5 -26t63.5 -36t45 -54t16.5 -77.5q0 -73 -32 -118.5
t-88.5 -66.5t-129.5 -21zM260 -184v95h82v-95h-82z" />
    <glyph glyph-name="uni1E63" unicode="&#x1e63;" horiz-adv-x="449" 
d="M221 -12q-49 0 -85.5 11t-60 31.5t-34.5 49.5t-11 65v10t1 9h81q-1 -5 -1 -9v-7q1 -33 15 -53.5t39.5 -29.5t58.5 -9q31 0 54.5 9.5t37 28t13.5 46.5q0 32 -18.5 49.5t-48 28t-62.5 21.5q-29 9 -56.5 20t-50 28t-36 42.5t-13.5 64.5q0 34 13 61t37 45.5t57.5 28t75.5 9.5
q44 0 77 -10.5t55 -29t33 -43.5t11 -55q0 -6 -0.5 -13t-0.5 -12h-81v18q0 22 -9.5 39t-30.5 27.5t-57 10.5q-25 0 -43.5 -5t-30 -14.5t-17.5 -22.5t-6 -30q0 -26 15.5 -41t40.5 -24.5t54 -19.5q30 -10 61.5 -21t58 -27.5t42.5 -44t16 -70.5q0 -42 -14.5 -72.5t-40.5 -50.5
t-61 -29.5t-78 -9.5zM183 -184v95h82v-95h-82z" />
    <glyph glyph-name="uni1E6C" unicode="&#x1e6c;" horiz-adv-x="545" 
d="M226 0v606h-209v80h510v-80h-210v-606h-91zM231 -184v95h82v-95h-82z" />
    <glyph glyph-name="uni1E6D" unicode="&#x1e6d;" horiz-adv-x="266" 
d="M171 -12q-38 0 -59 15t-29 41t-8 56v355h-58v71h59l16 148h67v-148h85v-71h-85v-348q0 -25 7.5 -36.5t28.5 -11.5h49v-56q-10 -4 -23 -7.5t-25.5 -5.5t-24.5 -2zM117 -184v95h82v-95h-82z" />
    <glyph glyph-name="Wgrave" unicode="&#x1e80;" horiz-adv-x="832" 
d="M181 0l-167 686h96l103 -444q4 -22 8 -44.5t7.5 -42t6.5 -34.5h6q2 11 4.5 27t5.5 33.5t6.5 33.5t5.5 27l101 444h111l98 -444q4 -15 7.5 -36.5t7.5 -43.5t6 -41h7q2 11 5 26.5t6.5 32.5t6.5 33.5t6 28.5l106 444h88l-172 -686h-106l-102 447q-4 21 -8 43.5t-7 43
t-5 35.5h-6q-2 -15 -5.5 -37.5t-8 -45.5t-8.5 -39l-102 -447h-108zM461 737h-72l-100 129l1 4h94z" />
    <glyph glyph-name="wgrave" unicode="&#x1e81;" horiz-adv-x="649" 
d="M147 0l-138 526h86l70 -293q4 -18 8.5 -40.5t9 -43t6.5 -33.5h6q4 18 8 41t8 44t7 33l62 292h94l63 -292q4 -16 8 -37.5t8.5 -43t6.5 -37.5h6q3 16 7.5 37.5t9.5 43t8 36.5l69 293h80l-138 -526h-88l-61 282q-3 17 -8 41t-9.5 49t-7.5 43h-6q-2 -15 -6 -37.5t-9 -47.5
t-10 -49l-62 -281h-88zM373 591h-69l-99 129v3h90z" />
    <glyph glyph-name="Wacute" unicode="&#x1e82;" horiz-adv-x="832" 
d="M181 0l-167 686h96l103 -444q4 -22 8 -44.5t7.5 -42t6.5 -34.5h6q2 11 4.5 27t5.5 33.5t6.5 33.5t5.5 27l101 444h111l98 -444q4 -15 7.5 -36.5t7.5 -43.5t6 -41h7q2 11 5 26.5t6.5 32.5t6.5 33.5t6 28.5l106 444h88l-172 -686h-106l-102 447q-4 21 -8 43.5t-7 43
t-5 35.5h-6q-2 -15 -5.5 -37.5t-8 -45.5t-8.5 -39l-102 -447h-108zM380 737l78 133h93l1 -4l-99 -129h-73z" />
    <glyph glyph-name="wacute" unicode="&#x1e83;" horiz-adv-x="649" 
d="M147 0l-138 526h86l70 -293q4 -18 8.5 -40.5t9 -43t6.5 -33.5h6q4 18 8 41t8 44t7 33l62 292h94l63 -292q4 -16 8 -37.5t8.5 -43t6.5 -37.5h6q3 16 7.5 37.5t9.5 43t8 36.5l69 293h80l-138 -526h-88l-61 282q-3 17 -8 41t-9.5 49t-7.5 43h-6q-2 -15 -6 -37.5t-9 -47.5
t-10 -49l-62 -281h-88zM280 591l77 132h90v-3l-99 -129h-68z" />
    <glyph glyph-name="Wdieresis" unicode="&#x1e84;" horiz-adv-x="832" 
d="M181 0l-167 686h96l103 -444q4 -22 8 -44.5t7.5 -42t6.5 -34.5h6q2 11 4.5 27t5.5 33.5t6.5 33.5t5.5 27l101 444h111l98 -444q4 -15 7.5 -36.5t7.5 -43.5t6 -41h7q2 11 5 26.5t6.5 32.5t6.5 33.5t6 28.5l106 444h88l-172 -686h-106l-102 447q-4 21 -8 43.5t-7 43
t-5 35.5h-6q-2 -15 -5.5 -37.5t-8 -45.5t-8.5 -39l-102 -447h-108zM294 776v92h79v-92h-79zM461 776v92h79v-92h-79z" />
    <glyph glyph-name="wdieresis" unicode="&#x1e85;" horiz-adv-x="649" 
d="M147 0l-138 526h86l70 -293q4 -18 8.5 -40.5t9 -43t6.5 -33.5h6q4 18 8 41t8 44t7 33l62 292h94l63 -292q4 -16 8 -37.5t8.5 -43t6.5 -37.5h6q3 16 7.5 37.5t9.5 43t8 36.5l69 293h80l-138 -526h-88l-61 282q-3 17 -8 41t-9.5 49t-7.5 43h-6q-2 -15 -6 -37.5t-9 -47.5
t-10 -49l-62 -281h-88zM201 631v91h79v-91h-79zM368 631v91h79v-91h-79z" />
    <glyph glyph-name="uni1E9E" unicode="&#x1e9e;" horiz-adv-x="675" 
d="M74 0v435q0 87 34.5 145.5t97.5 88t146 29.5q59 0 105 -13.5t78 -38.5t49 -61t17 -80q0 -37 -11.5 -68t-30.5 -53.5t-42 -32.5v-4q53 -15 83.5 -55.5t30.5 -103.5q0 -53 -22 -95.5t-63.5 -67.5t-98.5 -25h-184v80h165q37 0 61.5 16t36.5 41.5t12 54.5q0 35 -14.5 59
t-42.5 36.5t-69 12.5h-149v78h145q43 0 71.5 31t28.5 85q0 57 -35.5 91t-115.5 34q-60 0 -103 -20.5t-66 -62.5t-23 -108v-428h-91z" />
    <glyph glyph-name="uni1EA0" unicode="&#x1ea0;" horiz-adv-x="600" 
d="M5 0l236 686h117l237 -686h-98l-59 175h-281l-59 -175h-93zM183 254h229l-72 218q-3 10 -8 24.5t-10.5 32.5l-11 36t-9.5 33h-6q-5 -18 -12.5 -41.5t-14.5 -46t-13 -38.5zM259 -184v95h82v-95h-82z" />
    <glyph glyph-name="uni1EA1" unicode="&#x1ea1;" horiz-adv-x="493" 
d="M183 -12q-28 0 -55 7.5t-48.5 24t-34 44.5t-12.5 68q0 49 21 82.5t60.5 55t96.5 31t130 9.5v67q0 29 -9 49.5t-31 31.5t-61 11q-41 0 -63.5 -12.5t-31 -32t-8.5 -42.5v-13h-80q-1 5 -1 10v12q0 51 24 83.5t67 48t99 15.5q57 0 97 -17t61 -51.5t21 -87.5v-289q0 -18 8 -26
t20 -8h36v-55q-14 -6 -30.5 -10.5t-36.5 -4.5q-25 0 -40.5 10.5t-23.5 28.5t-11 40h-6q-16 -24 -39.5 -42t-53 -28t-65.5 -10zM205 59q26 0 50.5 9.5t43.5 27t30.5 43.5t11.5 59v50q-75 0 -123.5 -11t-72.5 -35t-24 -62q0 -27 10 -45t29 -27t45 -9zM198 -184v95h82v-95h-82z
" />
    <glyph glyph-name="uni1EA2" unicode="&#x1ea2;" horiz-adv-x="600" 
d="M5 0l236 686h117l237 -686h-98l-59 175h-281l-59 -175h-93zM183 254h229l-72 218q-3 10 -8 24.5t-10.5 32.5l-11 36t-9.5 33h-6q-5 -18 -12.5 -41.5t-14.5 -46t-13 -38.5zM278 737v60h15q18 0 24.5 5.5t6.5 16.5t-8 16t-25 5h-54v34q10 3 21.5 4t22.5 2t21 1
q14 0 28.5 -2.5t27 -8.5t20 -17t7.5 -28t-8 -29.5t-22 -19.5t-32 -9v-30h-45z" />
    <glyph glyph-name="uni1EA3" unicode="&#x1ea3;" horiz-adv-x="493" 
d="M183 -12q-28 0 -55 7.5t-48.5 24t-34 44.5t-12.5 68q0 49 21 82.5t60.5 55t96.5 31t130 9.5v67q0 29 -9 49.5t-31 31.5t-61 11q-41 0 -63.5 -12.5t-31 -32t-8.5 -42.5v-13h-80q-1 5 -1 10v12q0 51 24 83.5t67 48t99 15.5q57 0 97 -17t61 -51.5t21 -87.5v-289q0 -18 8 -26
t20 -8h36v-55q-14 -6 -30.5 -10.5t-36.5 -4.5q-25 0 -40.5 10.5t-23.5 28.5t-11 40h-6q-16 -24 -39.5 -42t-53 -28t-65.5 -10zM205 59q26 0 50.5 9.5t43.5 27t30.5 43.5t11.5 59v50q-75 0 -123.5 -11t-72.5 -35t-24 -62q0 -27 10 -45t29 -27t45 -9zM221 591v60h14
q19 0 25.5 5.5t6.5 16.5t-8 16t-26 5h-53v34q9 3 20.5 4l23 2t20.5 1q15 0 29.5 -2.5t27 -8.5t20 -17t7.5 -28q0 -18 -8.5 -30t-22.5 -19t-31 -9v-30h-45z" />
    <glyph glyph-name="uni1EA4" unicode="&#x1ea4;" horiz-adv-x="600" 
d="M5 0l236 686h117l237 -686h-98l-59 175h-281l-59 -175h-93zM183 254h229l-72 218q-3 10 -8 24.5t-10.5 32.5l-11 36t-9.5 33h-6q-5 -18 -12.5 -41.5t-14.5 -46t-13 -38.5zM164 737l95 133h83l94 -133h-75l-81 114l41 -1l-81 -113h-76zM263 901l78 132h93l1 -3l-99 -129
h-73z" />
    <glyph glyph-name="uni1EA5" unicode="&#x1ea5;" horiz-adv-x="493" 
d="M183 -12q-28 0 -55 7.5t-48.5 24t-34 44.5t-12.5 68q0 49 21 82.5t60.5 55t96.5 31t130 9.5v67q0 29 -9 49.5t-31 31.5t-61 11q-41 0 -63.5 -12.5t-31 -32t-8.5 -42.5v-13h-80q-1 5 -1 10v12q0 51 24 83.5t67 48t99 15.5q57 0 97 -17t61 -51.5t21 -87.5v-289q0 -18 8 -26
t20 -8h36v-55q-14 -6 -30.5 -10.5t-36.5 -4.5q-25 0 -40.5 10.5t-23.5 28.5t-11 40h-6q-16 -24 -39.5 -42t-53 -28t-65.5 -10zM205 59q26 0 50.5 9.5t43.5 27t30.5 43.5t11.5 59v50q-75 0 -123.5 -11t-72.5 -35t-24 -62q0 -27 10 -45t29 -27t45 -9zM109 591l95 132h76
l95 -132h-73l-80 113h41l-82 -113h-72zM197 775l77 132h90l1 -3l-99 -129h-69z" />
    <glyph glyph-name="uni1EA6" unicode="&#x1ea6;" horiz-adv-x="600" 
d="M5 0l236 686h117l237 -686h-98l-59 175h-281l-59 -175h-93zM183 254h229l-72 218q-3 10 -8 24.5t-10.5 32.5l-11 36t-9.5 33h-6q-5 -18 -12.5 -41.5t-14.5 -46t-13 -38.5zM164 737l95 133h83l94 -133h-75l-81 114l41 -1l-81 -113h-76zM344 901h-72l-100 129l1 3h94z" />
    <glyph glyph-name="uni1EA7" unicode="&#x1ea7;" horiz-adv-x="493" 
d="M183 -12q-28 0 -55 7.5t-48.5 24t-34 44.5t-12.5 68q0 49 21 82.5t60.5 55t96.5 31t130 9.5v67q0 29 -9 49.5t-31 31.5t-61 11q-41 0 -63.5 -12.5t-31 -32t-8.5 -42.5v-13h-80q-1 5 -1 10v12q0 51 24 83.5t67 48t99 15.5q57 0 97 -17t61 -51.5t21 -87.5v-289q0 -18 8 -26
t20 -8h36v-55q-14 -6 -30.5 -10.5t-36.5 -4.5q-25 0 -40.5 10.5t-23.5 28.5t-11 40h-6q-16 -24 -39.5 -42t-53 -28t-65.5 -10zM205 59q26 0 50.5 9.5t43.5 27t30.5 43.5t11.5 59v50q-75 0 -123.5 -11t-72.5 -35t-24 -62q0 -27 10 -45t29 -27t45 -9zM109 591l95 132h76
l95 -132h-73l-80 113h41l-82 -113h-72zM290 775h-68l-100 129l1 3h90z" />
    <glyph glyph-name="uni1EA8" unicode="&#x1ea8;" horiz-adv-x="600" 
d="M5 0l236 686h117l237 -686h-98l-59 175h-281l-59 -175h-93zM183 254h229l-72 218q-3 10 -8 24.5t-10.5 32.5l-11 36t-9.5 33h-6q-5 -18 -12.5 -41.5t-14.5 -46t-13 -38.5zM164 737l95 133h83l94 -133h-75l-81 114l41 -1l-81 -113h-76zM278 901v60h15q18 0 24.5 5.5
t6.5 16.5t-8 16t-25 5h-54v34q10 2 21.5 3.5t22.5 2.5t21 1q14 0 28.5 -2.5t27 -8.5t20 -17t7.5 -28q0 -18 -8 -30t-22 -19t-32 -9v-30h-45z" />
    <glyph glyph-name="uni1EA9" unicode="&#x1ea9;" horiz-adv-x="493" 
d="M183 -12q-28 0 -55 7.5t-48.5 24t-34 44.5t-12.5 68q0 49 21 82.5t60.5 55t96.5 31t130 9.5v67q0 29 -9 49.5t-31 31.5t-61 11q-41 0 -63.5 -12.5t-31 -32t-8.5 -42.5v-13h-80q-1 5 -1 10v12q0 51 24 83.5t67 48t99 15.5q57 0 97 -17t61 -51.5t21 -87.5v-289q0 -18 8 -26
t20 -8h36v-55q-14 -6 -30.5 -10.5t-36.5 -4.5q-25 0 -40.5 10.5t-23.5 28.5t-11 40h-6q-16 -24 -39.5 -42t-53 -28t-65.5 -10zM205 59q26 0 50.5 9.5t43.5 27t30.5 43.5t11.5 59v50q-75 0 -123.5 -11t-72.5 -35t-24 -62q0 -27 10 -45t29 -27t45 -9zM109 591l95 132h76
l95 -132h-73l-80 113h41l-82 -113h-72zM221 775v60h14q19 0 25.5 5.5t6.5 15.5q0 12 -8 17t-26 5h-53v34q9 2 20.5 3.5t23 2.5t20.5 1q15 0 29.5 -2.5t27 -8.5t20 -17t7.5 -28q0 -18 -8.5 -30t-22.5 -19t-31 -9v-30h-45z" />
    <glyph glyph-name="uni1EAA" unicode="&#x1eaa;" horiz-adv-x="600" 
d="M5 0l236 686h117l237 -686h-98l-59 175h-281l-59 -175h-93zM183 254h229l-72 218q-3 10 -8 24.5t-10.5 32.5l-11 36t-9.5 33h-6q-5 -18 -12.5 -41.5t-14.5 -46t-13 -38.5zM164 737l95 133h83l94 -133h-75l-81 114l41 -1l-81 -113h-76zM157 934q1 27 9.5 48t25.5 33.5
t42 12.5q24 0 45.5 -8t42 -16.5t40.5 -8.5q14 0 21 9t9 24h51q0 -26 -9 -47.5t-26 -34t-43 -12.5q-23 0 -44.5 8.5t-42 16.5t-40.5 8q-14 0 -21.5 -9t-8.5 -24h-51z" />
    <glyph glyph-name="uni1EAB" unicode="&#x1eab;" horiz-adv-x="493" 
d="M183 -12q-28 0 -55 7.5t-48.5 24t-34 44.5t-12.5 68q0 49 21 82.5t60.5 55t96.5 31t130 9.5v67q0 29 -9 49.5t-31 31.5t-61 11q-41 0 -63.5 -12.5t-31 -32t-8.5 -42.5v-13h-80q-1 5 -1 10v12q0 51 24 83.5t67 48t99 15.5q57 0 97 -17t61 -51.5t21 -87.5v-289q0 -18 8 -26
t20 -8h36v-55q-14 -6 -30.5 -10.5t-36.5 -4.5q-25 0 -40.5 10.5t-23.5 28.5t-11 40h-6q-16 -24 -39.5 -42t-53 -28t-65.5 -10zM205 59q26 0 50.5 9.5t43.5 27t30.5 43.5t11.5 59v50q-75 0 -123.5 -11t-72.5 -35t-24 -62q0 -27 10 -45t29 -27t45 -9zM109 591l95 132h76
l95 -132h-73l-80 113h41l-82 -113h-72zM99 808q0 28 8.5 49t25.5 33t43 12q24 0 45.5 -7.5t42 -16t39.5 -8.5q15 0 22 9t9 24h51q0 -27 -9 -48t-26.5 -33.5t-42.5 -12.5q-23 0 -45 8.5t-42 16.5t-40 8q-15 0 -22 -9t-9 -25h-50z" />
    <glyph glyph-name="uni1EAC" unicode="&#x1eac;" horiz-adv-x="600" 
d="M5 0l236 686h117l237 -686h-98l-59 175h-281l-59 -175h-93zM183 254h229l-72 218q-3 10 -8 24.5t-10.5 32.5l-11 36t-9.5 33h-6q-5 -18 -12.5 -41.5t-14.5 -46t-13 -38.5zM259 -184v95h82v-95h-82zM164 737l95 133h83l94 -133h-75l-81 114l41 -1l-81 -113h-76z" />
    <glyph glyph-name="uni1EAD" unicode="&#x1ead;" horiz-adv-x="493" 
d="M183 -12q-28 0 -55 7.5t-48.5 24t-34 44.5t-12.5 68q0 49 21 82.5t60.5 55t96.5 31t130 9.5v67q0 29 -9 49.5t-31 31.5t-61 11q-41 0 -63.5 -12.5t-31 -32t-8.5 -42.5v-13h-80q-1 5 -1 10v12q0 51 24 83.5t67 48t99 15.5q57 0 97 -17t61 -51.5t21 -87.5v-289q0 -18 8 -26
t20 -8h36v-55q-14 -6 -30.5 -10.5t-36.5 -4.5q-25 0 -40.5 10.5t-23.5 28.5t-11 40h-6q-16 -24 -39.5 -42t-53 -28t-65.5 -10zM205 59q26 0 50.5 9.5t43.5 27t30.5 43.5t11.5 59v50q-75 0 -123.5 -11t-72.5 -35t-24 -62q0 -27 10 -45t29 -27t45 -9zM198 -184v95h82v-95h-82z
M109 591l95 132h76l95 -132h-73l-80 113h41l-82 -113h-72z" />
    <glyph glyph-name="uni1EAE" unicode="&#x1eae;" horiz-adv-x="600" 
d="M5 0l236 686h117l237 -686h-98l-59 175h-281l-59 -175h-93zM183 254h229l-72 218q-3 10 -8 24.5t-10.5 32.5l-11 36t-9.5 33h-6q-5 -18 -12.5 -41.5t-14.5 -46t-13 -38.5zM299 755q-49 0 -77 17.5t-39 44t-11 53.5h54q2 -11 8.5 -24.5t22 -23.5t43.5 -10q30 0 45.5 10
t22.5 23.5t8 24.5h54q0 -27 -12 -53.5t-40.5 -44t-78.5 -17.5zM264 884l77 133h93l1 -4l-99 -129h-72z" />
    <glyph glyph-name="uni1EAF" unicode="&#x1eaf;" horiz-adv-x="493" 
d="M183 -12q-28 0 -55 7.5t-48.5 24t-34 44.5t-12.5 68q0 49 21 82.5t60.5 55t96.5 31t130 9.5v67q0 29 -9 49.5t-31 31.5t-61 11q-41 0 -63.5 -12.5t-31 -32t-8.5 -42.5v-13h-80q-1 5 -1 10v12q0 51 24 83.5t67 48t99 15.5q57 0 97 -17t61 -51.5t21 -87.5v-289q0 -18 8 -26
t20 -8h36v-55q-14 -6 -30.5 -10.5t-36.5 -4.5q-25 0 -40.5 10.5t-23.5 28.5t-11 40h-6q-16 -24 -39.5 -42t-53 -28t-65.5 -10zM205 59q26 0 50.5 9.5t43.5 27t30.5 43.5t11.5 59v50q-75 0 -123.5 -11t-72.5 -35t-24 -62q0 -27 10 -45t29 -27t45 -9zM240 609q-49 0 -77 17
t-39 44t-11 53h55q2 -11 8 -25t21.5 -23.5t43.5 -9.5q29 0 45 9.5t22.5 23.5t7.5 25h54q0 -26 -11.5 -53t-39.5 -44t-79 -17zM197 775l77 132h90l1 -3l-99 -129h-69z" />
    <glyph glyph-name="uni1EB0" unicode="&#x1eb0;" horiz-adv-x="600" 
d="M5 0l236 686h117l237 -686h-98l-59 175h-281l-59 -175h-93zM183 254h229l-72 218q-3 10 -8 24.5t-10.5 32.5l-11 36t-9.5 33h-6q-5 -18 -12.5 -41.5t-14.5 -46t-13 -38.5zM299 755q-49 0 -77 17.5t-39 44t-11 53.5h54q2 -11 8.5 -24.5t22 -23.5t43.5 -10q30 0 45.5 10
t22.5 23.5t8 24.5h54q0 -27 -12 -53.5t-40.5 -44t-78.5 -17.5zM345 884h-73l-99 129l1 4h93z" />
    <glyph glyph-name="uni1EB1" unicode="&#x1eb1;" horiz-adv-x="493" 
d="M183 -12q-28 0 -55 7.5t-48.5 24t-34 44.5t-12.5 68q0 49 21 82.5t60.5 55t96.5 31t130 9.5v67q0 29 -9 49.5t-31 31.5t-61 11q-41 0 -63.5 -12.5t-31 -32t-8.5 -42.5v-13h-80q-1 5 -1 10v12q0 51 24 83.5t67 48t99 15.5q57 0 97 -17t61 -51.5t21 -87.5v-289q0 -18 8 -26
t20 -8h36v-55q-14 -6 -30.5 -10.5t-36.5 -4.5q-25 0 -40.5 10.5t-23.5 28.5t-11 40h-6q-16 -24 -39.5 -42t-53 -28t-65.5 -10zM205 59q26 0 50.5 9.5t43.5 27t30.5 43.5t11.5 59v50q-75 0 -123.5 -11t-72.5 -35t-24 -62q0 -27 10 -45t29 -27t45 -9zM240 609q-49 0 -77 17
t-39 44t-11 53h55q2 -11 8 -25t21.5 -23.5t43.5 -9.5q29 0 45 9.5t22.5 23.5t7.5 25h54q0 -26 -11.5 -53t-39.5 -44t-79 -17zM290 775h-68l-100 129l1 3h90z" />
    <glyph glyph-name="uni1EB2" unicode="&#x1eb2;" horiz-adv-x="600" 
d="M5 0l236 686h117l237 -686h-98l-59 175h-281l-59 -175h-93zM183 254h229l-72 218q-3 10 -8 24.5t-10.5 32.5l-11 36t-9.5 33h-6q-5 -18 -12.5 -41.5t-14.5 -46t-13 -38.5zM299 755q-49 0 -77 17.5t-39 44t-11 53.5h54q2 -11 8.5 -24.5t22 -23.5t43.5 -10q30 0 45.5 10
t22.5 23.5t8 24.5h54q0 -27 -12 -53.5t-40.5 -44t-78.5 -17.5zM278 884v60h15q18 0 24.5 5.5t6.5 16.5t-7.5 16t-25.5 5h-54v34q10 3 21.5 4l23 2t20.5 1q14 0 29 -2.5t27 -8.5t19.5 -17t7.5 -28q0 -18 -8 -30t-22 -19t-32 -9v-30h-45z" />
    <glyph glyph-name="uni1EB3" unicode="&#x1eb3;" horiz-adv-x="493" 
d="M183 -12q-28 0 -55 7.5t-48.5 24t-34 44.5t-12.5 68q0 49 21 82.5t60.5 55t96.5 31t130 9.5v67q0 29 -9 49.5t-31 31.5t-61 11q-41 0 -63.5 -12.5t-31 -32t-8.5 -42.5v-13h-80q-1 5 -1 10v12q0 51 24 83.5t67 48t99 15.5q57 0 97 -17t61 -51.5t21 -87.5v-289q0 -18 8 -26
t20 -8h36v-55q-14 -6 -30.5 -10.5t-36.5 -4.5q-25 0 -40.5 10.5t-23.5 28.5t-11 40h-6q-16 -24 -39.5 -42t-53 -28t-65.5 -10zM205 59q26 0 50.5 9.5t43.5 27t30.5 43.5t11.5 59v50q-75 0 -123.5 -11t-72.5 -35t-24 -62q0 -27 10 -45t29 -27t45 -9zM240 609q-49 0 -77 17
t-39 44t-11 53h55q2 -11 8 -25t21.5 -23.5t43.5 -9.5q29 0 45 9.5t22.5 23.5t7.5 25h54q0 -26 -11.5 -53t-39.5 -44t-79 -17zM221 775v60h14q19 0 25.5 5.5t6.5 15.5q0 12 -8 17t-26 5h-53v34q9 2 20.5 3.5t23 2.5t20.5 1q15 0 29.5 -2.5t27 -8.5t20 -17t7.5 -28
q0 -18 -8.5 -30t-22.5 -19t-31 -9v-30h-45z" />
    <glyph glyph-name="uni1EB4" unicode="&#x1eb4;" horiz-adv-x="600" 
d="M5 0l236 686h117l237 -686h-98l-59 175h-281l-59 -175h-93zM183 254h229l-72 218q-3 10 -8 24.5t-10.5 32.5l-11 36t-9.5 33h-6q-5 -18 -12.5 -41.5t-14.5 -46t-13 -38.5zM299 755q-49 0 -77 17.5t-39 44t-11 53.5h54q2 -11 8.5 -24.5t22 -23.5t43.5 -10q30 0 45.5 10
t22.5 23.5t8 24.5h54q0 -27 -12 -53.5t-40.5 -44t-78.5 -17.5zM157 917q1 27 9.5 48t25.5 33.5t42 12.5q24 0 45.5 -8t42.5 -16.5t40 -8.5q14 0 21 9t9 24h51q0 -26 -9 -47.5t-26 -34t-43 -12.5q-23 0 -44.5 8.5t-42 16.5t-39.5 8q-15 0 -22.5 -9t-8.5 -24h-51z" />
    <glyph glyph-name="uni1EB5" unicode="&#x1eb5;" horiz-adv-x="493" 
d="M183 -12q-28 0 -55 7.5t-48.5 24t-34 44.5t-12.5 68q0 49 21 82.5t60.5 55t96.5 31t130 9.5v67q0 29 -9 49.5t-31 31.5t-61 11q-41 0 -63.5 -12.5t-31 -32t-8.5 -42.5v-13h-80q-1 5 -1 10v12q0 51 24 83.5t67 48t99 15.5q57 0 97 -17t61 -51.5t21 -87.5v-289q0 -18 8 -26
t20 -8h36v-55q-14 -6 -30.5 -10.5t-36.5 -4.5q-25 0 -40.5 10.5t-23.5 28.5t-11 40h-6q-16 -24 -39.5 -42t-53 -28t-65.5 -10zM205 59q26 0 50.5 9.5t43.5 27t30.5 43.5t11.5 59v50q-75 0 -123.5 -11t-72.5 -35t-24 -62q0 -27 10 -45t29 -27t45 -9zM240 609q-49 0 -77 17
t-39 44t-11 53h55q2 -11 8 -25t21.5 -23.5t43.5 -9.5q29 0 45 9.5t22.5 23.5t7.5 25h54q0 -26 -11.5 -53t-39.5 -44t-79 -17zM99 808q0 28 8.5 49t25.5 33t43 12q24 0 45.5 -7.5t42 -16t39.5 -8.5q15 0 22 9t9 24h51q0 -27 -9 -48t-26.5 -33.5t-42.5 -12.5q-23 0 -45 8.5
t-42 16.5t-40 8q-15 0 -22 -9t-9 -25h-50z" />
    <glyph glyph-name="uni1EB6" unicode="&#x1eb6;" horiz-adv-x="600" 
d="M5 0l236 686h117l237 -686h-98l-59 175h-281l-59 -175h-93zM183 254h229l-72 218q-3 10 -8 24.5t-10.5 32.5l-11 36t-9.5 33h-6q-5 -18 -12.5 -41.5t-14.5 -46t-13 -38.5zM259 -184v95h82v-95h-82zM299 755q-49 0 -77 17.5t-39 44t-11 53.5h54q2 -11 8.5 -24.5t22 -23.5
t43.5 -10q30 0 45.5 10t22.5 23.5t8 24.5h54q0 -27 -12 -53.5t-40.5 -44t-78.5 -17.5z" />
    <glyph glyph-name="uni1EB7" unicode="&#x1eb7;" horiz-adv-x="493" 
d="M183 -12q-28 0 -55 7.5t-48.5 24t-34 44.5t-12.5 68q0 49 21 82.5t60.5 55t96.5 31t130 9.5v67q0 29 -9 49.5t-31 31.5t-61 11q-41 0 -63.5 -12.5t-31 -32t-8.5 -42.5v-13h-80q-1 5 -1 10v12q0 51 24 83.5t67 48t99 15.5q57 0 97 -17t61 -51.5t21 -87.5v-289q0 -18 8 -26
t20 -8h36v-55q-14 -6 -30.5 -10.5t-36.5 -4.5q-25 0 -40.5 10.5t-23.5 28.5t-11 40h-6q-16 -24 -39.5 -42t-53 -28t-65.5 -10zM205 59q26 0 50.5 9.5t43.5 27t30.5 43.5t11.5 59v50q-75 0 -123.5 -11t-72.5 -35t-24 -62q0 -27 10 -45t29 -27t45 -9zM198 -184v95h82v-95h-82z
M240 609q-49 0 -77 17t-39 44t-11 53h55q2 -11 8 -25t21.5 -23.5t43.5 -9.5q29 0 45 9.5t22.5 23.5t7.5 25h54q0 -26 -11.5 -53t-39.5 -44t-79 -17z" />
    <glyph glyph-name="uni1EB8" unicode="&#x1eb8;" horiz-adv-x="596" 
d="M77 0v686h468v-79h-376v-216h336v-80h-336v-232h381v-79h-473zM278 -184v95h82v-95h-82z" />
    <glyph glyph-name="uni1EB9" unicode="&#x1eb9;" horiz-adv-x="494" 
d="M252 -12q-72 0 -119.5 29t-71 90t-23.5 156q0 97 24 157.5t72.5 89t121.5 28.5q66 0 110.5 -26.5t67 -82t22.5 -142.5v-44h-331q0 -65 13.5 -106t41.5 -60.5t73 -19.5q28 0 49.5 8.5t37 24t23.5 38t9 51.5h82q-1 -44 -14.5 -79.5t-39 -60.5t-63 -38t-85.5 -13zM125 304
h244q0 45 -8 76t-22.5 51t-36 29t-49.5 9q-42 0 -69.5 -19t-41.5 -55t-17 -91zM218 -184v95h82v-95h-82z" />
    <glyph glyph-name="uni1EBA" unicode="&#x1eba;" horiz-adv-x="596" 
d="M77 0v686h468v-79h-376v-216h336v-80h-336v-232h381v-79h-473zM292 737v60h14q19 0 25.5 5.5t6.5 16.5t-8 16t-26 5h-53v34q10 3 21 4t22.5 2t21.5 1q14 0 28.5 -2.5t27 -8.5t20 -17t7.5 -28t-8 -29.5t-22 -19.5t-32 -9v-30h-45z" />
    <glyph glyph-name="uni1EBB" unicode="&#x1ebb;" horiz-adv-x="494" 
d="M252 -12q-72 0 -119.5 29t-71 90t-23.5 156q0 97 24 157.5t72.5 89t121.5 28.5q66 0 110.5 -26.5t67 -82t22.5 -142.5v-44h-331q0 -65 13.5 -106t41.5 -60.5t73 -19.5q28 0 49.5 8.5t37 24t23.5 38t9 51.5h82q-1 -44 -14.5 -79.5t-39 -60.5t-63 -38t-85.5 -13zM125 304
h244q0 45 -8 76t-22.5 51t-36 29t-49.5 9q-42 0 -69.5 -19t-41.5 -55t-17 -91zM231 591v60h14q19 0 25.5 5.5t6.5 16.5t-8 16t-26 5h-53v34q10 3 21.5 4t22.5 2t21 1q14 0 28.5 -2.5t27 -8.5t20 -17t7.5 -28q0 -18 -8.5 -30t-22 -19t-31.5 -9v-30h-45z" />
    <glyph glyph-name="uni1EBC" unicode="&#x1ebc;" horiz-adv-x="596" 
d="M77 0v686h468v-79h-376v-216h336v-80h-336v-232h381v-79h-473zM171 770q0 27 8.5 48.5t26 33.5t42.5 12q24 0 45.5 -8t42 -16t40.5 -8q14 0 21 8.5t9 23.5h51q0 -26 -9 -47.5t-26 -33.5t-43 -12q-23 0 -44.5 8t-42 16t-40.5 8q-14 0 -21.5 -9t-9.5 -24h-50z" />
    <glyph glyph-name="uni1EBD" unicode="&#x1ebd;" horiz-adv-x="494" 
d="M252 -12q-72 0 -119.5 29t-71 90t-23.5 156q0 97 24 157.5t72.5 89t121.5 28.5q66 0 110.5 -26.5t67 -82t22.5 -142.5v-44h-331q0 -65 13.5 -106t41.5 -60.5t73 -19.5q28 0 49.5 8.5t37 24t23.5 38t9 51.5h82q-1 -44 -14.5 -79.5t-39 -60.5t-63 -38t-85.5 -13zM125 304
h244q0 45 -8 76t-22.5 51t-36 29t-49.5 9q-42 0 -69.5 -19t-41.5 -55t-17 -91zM109 624q0 28 8.5 49t26 33t42.5 12q24 0 45.5 -7.5t42 -16t40.5 -8.5q14 0 21 9t9 24h51q0 -27 -9 -48t-26 -33.5t-43 -12.5q-23 0 -44.5 8.5t-42 16.5t-40.5 8q-14 0 -21.5 -9t-8.5 -25h-51z
" />
    <glyph glyph-name="uni1EBE" unicode="&#x1ebe;" horiz-adv-x="596" 
d="M77 0v686h468v-79h-376v-216h336v-80h-336v-232h381v-79h-473zM178 737l95 133h82l95 -133h-76l-80 114l41 -1l-82 -113h-75zM277 901l78 132h93l1 -3l-99 -129h-73z" />
    <glyph glyph-name="uni1EBF" unicode="&#x1ebf;" horiz-adv-x="494" 
d="M252 -12q-72 0 -119.5 29t-71 90t-23.5 156q0 97 24 157.5t72.5 89t121.5 28.5q66 0 110.5 -26.5t67 -82t22.5 -142.5v-44h-331q0 -65 13.5 -106t41.5 -60.5t73 -19.5q28 0 49.5 8.5t37 24t23.5 38t9 51.5h82q-1 -44 -14.5 -79.5t-39 -60.5t-63 -38t-85.5 -13zM125 304
h244q0 45 -8 76t-22.5 51t-36 29t-49.5 9q-42 0 -69.5 -19t-41.5 -55t-17 -91zM120 591l94 132h76l95 -132h-72l-81 113h41l-81 -113h-72zM207 775l78 132h90v-3l-99 -129h-69z" />
    <glyph glyph-name="uni1EC0" unicode="&#x1ec0;" horiz-adv-x="596" 
d="M77 0v686h468v-79h-376v-216h336v-80h-336v-232h381v-79h-473zM178 737l95 133h82l95 -133h-76l-80 114l41 -1l-82 -113h-75zM358 901h-72l-100 129l1 3h94z" />
    <glyph glyph-name="uni1EC1" unicode="&#x1ec1;" horiz-adv-x="494" 
d="M252 -12q-72 0 -119.5 29t-71 90t-23.5 156q0 97 24 157.5t72.5 89t121.5 28.5q66 0 110.5 -26.5t67 -82t22.5 -142.5v-44h-331q0 -65 13.5 -106t41.5 -60.5t73 -19.5q28 0 49.5 8.5t37 24t23.5 38t9 51.5h82q-1 -44 -14.5 -79.5t-39 -60.5t-63 -38t-85.5 -13zM125 304
h244q0 45 -8 76t-22.5 51t-36 29t-49.5 9q-42 0 -69.5 -19t-41.5 -55t-17 -91zM120 591l94 132h76l95 -132h-72l-81 113h41l-81 -113h-72zM300 775h-68l-100 129l1 3h90z" />
    <glyph glyph-name="uni1EC2" unicode="&#x1ec2;" horiz-adv-x="596" 
d="M77 0v686h468v-79h-376v-216h336v-80h-336v-232h381v-79h-473zM178 737l95 133h82l95 -133h-76l-80 114l41 -1l-82 -113h-75zM292 901v60h14q19 0 25.5 5.5t6.5 16.5t-8 16t-26 5h-53v34q10 2 21.5 3.5t22.5 2.5t21 1q14 0 28.5 -2.5t27 -8.5t20 -17t7.5 -28
q0 -18 -8 -30t-22 -19t-32 -9v-30h-45z" />
    <glyph glyph-name="uni1EC3" unicode="&#x1ec3;" horiz-adv-x="494" 
d="M252 -12q-72 0 -119.5 29t-71 90t-23.5 156q0 97 24 157.5t72.5 89t121.5 28.5q66 0 110.5 -26.5t67 -82t22.5 -142.5v-44h-331q0 -65 13.5 -106t41.5 -60.5t73 -19.5q28 0 49.5 8.5t37 24t23.5 38t9 51.5h82q-1 -44 -14.5 -79.5t-39 -60.5t-63 -38t-85.5 -13zM125 304
h244q0 45 -8 76t-22.5 51t-36 29t-49.5 9q-42 0 -69.5 -19t-41.5 -55t-17 -91zM120 591l94 132h76l95 -132h-72l-81 113h41l-81 -113h-72zM231 775v60h14q19 0 25.5 5.5t6.5 15.5q0 12 -8 17t-26 5h-53v34q10 2 21.5 3.5t22.5 2.5t21 1q14 0 28.5 -2.5t27 -8.5t20 -17
t7.5 -28q0 -18 -8.5 -30t-22 -19t-31.5 -9v-30h-45z" />
    <glyph glyph-name="uni1EC4" unicode="&#x1ec4;" horiz-adv-x="596" 
d="M77 0v686h468v-79h-376v-216h336v-80h-336v-232h381v-79h-473zM178 737l95 133h82l95 -133h-76l-80 114l41 -1l-82 -113h-75zM171 934q0 27 8.5 48t26 33.5t42.5 12.5q24 0 45.5 -8t42 -16.5t40.5 -8.5q14 0 21 9t9 24h51q0 -26 -9 -47.5t-26 -34t-43 -12.5
q-23 0 -44.5 8.5t-42 16.5t-40.5 8q-14 0 -21.5 -9t-8.5 -24h-51z" />
    <glyph glyph-name="uni1EC5" unicode="&#x1ec5;" horiz-adv-x="494" 
d="M252 -12q-72 0 -119.5 29t-71 90t-23.5 156q0 97 24 157.5t72.5 89t121.5 28.5q66 0 110.5 -26.5t67 -82t22.5 -142.5v-44h-331q0 -65 13.5 -106t41.5 -60.5t73 -19.5q28 0 49.5 8.5t37 24t23.5 38t9 51.5h82q-1 -44 -14.5 -79.5t-39 -60.5t-63 -38t-85.5 -13zM125 304
h244q0 45 -8 76t-22.5 51t-36 29t-49.5 9q-42 0 -69.5 -19t-41.5 -55t-17 -91zM120 591l94 132h76l95 -132h-72l-81 113h41l-81 -113h-72zM109 808q0 28 8.5 49t26 33t42.5 12q24 0 45.5 -7.5t42 -16t40.5 -8.5q14 0 21 9t9 24h51q0 -27 -9 -48t-26 -33.5t-43 -12.5
q-23 0 -44.5 8.5t-42 16.5t-40.5 8q-14 0 -21.5 -9t-8.5 -25h-51z" />
    <glyph glyph-name="uni1EC6" unicode="&#x1ec6;" horiz-adv-x="596" 
d="M77 0v686h468v-79h-376v-216h336v-80h-336v-232h381v-79h-473zM278 -184v95h82v-95h-82zM178 737l95 133h82l95 -133h-76l-80 114l41 -1l-82 -113h-75z" />
    <glyph glyph-name="uni1EC7" unicode="&#x1ec7;" horiz-adv-x="494" 
d="M252 -12q-72 0 -119.5 29t-71 90t-23.5 156q0 97 24 157.5t72.5 89t121.5 28.5q66 0 110.5 -26.5t67 -82t22.5 -142.5v-44h-331q0 -65 13.5 -106t41.5 -60.5t73 -19.5q28 0 49.5 8.5t37 24t23.5 38t9 51.5h82q-1 -44 -14.5 -79.5t-39 -60.5t-63 -38t-85.5 -13zM125 304
h244q0 45 -8 76t-22.5 51t-36 29t-49.5 9q-42 0 -69.5 -19t-41.5 -55t-17 -91zM218 -184v95h82v-95h-82zM120 591l94 132h76l95 -132h-72l-81 113h41l-81 -113h-72z" />
    <glyph glyph-name="uni1EC8" unicode="&#x1ec8;" horiz-adv-x="245" 
d="M77 0v686h92v-686h-92zM101 737v60h14q19 0 25.5 5.5t6.5 16.5t-8 16t-26 5h-53v34q10 3 21 4t22.5 2t20.5 1q15 0 29.5 -2.5t27 -8.5t20 -17t7.5 -28t-8.5 -29.5t-22.5 -19.5t-31 -9v-30h-45z" />
    <glyph glyph-name="uni1EC9" unicode="&#x1ec9;" horiz-adv-x="209" 
d="M63 0v526h83v-526h-83zM83 591v60h15q18 0 24.5 5.5t6.5 16.5t-8 16t-25 5h-54v34q10 3 21.5 4t22.5 2t21 1q14 0 28.5 -2.5t27 -8.5t20 -17t7.5 -28q0 -18 -8 -30t-22 -19t-32 -9v-30h-45z" />
    <glyph glyph-name="uni1ECA" unicode="&#x1eca;" horiz-adv-x="245" 
d="M77 0v686h92v-686h-92zM81 -184v95h83v-95h-83z" />
    <glyph glyph-name="uni1ECB" unicode="&#x1ecb;" horiz-adv-x="209" 
d="M63 627v96h83v-96h-83zM63 0v526h83v-526h-83zM63 -184v95h82v-95h-82z" />
    <glyph glyph-name="uni1ECC" unicode="&#x1ecc;" horiz-adv-x="700" 
d="M350 -12q-96 0 -164 39t-104 118t-36 198q0 120 36 198.5t104 117.5t164 39t164 -39t103.5 -117.5t35.5 -198.5q0 -119 -35.5 -198t-103.5 -118t-164 -39zM350 67q49 0 87.5 15.5t65.5 47.5t41.5 81t14.5 116v32q0 67 -14.5 116t-41.5 81t-65.5 47.5t-87.5 15.5
t-88 -15.5t-66 -47.5t-41 -81t-14 -116v-32q0 -67 14 -116t41 -81t66 -47.5t88 -15.5zM312 -184v95h83v-95h-83z" />
    <glyph glyph-name="uni1ECD" unicode="&#x1ecd;" horiz-adv-x="509" 
d="M255 -12q-71 0 -119.5 28.5t-73 89.5t-24.5 157q0 97 24.5 157.5t73 89t119.5 28.5t119 -28.5t73 -89t25 -157.5q0 -96 -25 -157t-73 -89.5t-119 -28.5zM255 59q44 0 72.5 19.5t42.5 62t14 108.5v28q0 67 -14 109t-42.5 61.5t-72.5 19.5t-73 -19.5t-43 -61.5t-14 -109
v-28q0 -66 14 -108.5t43 -62t73 -19.5zM213 -184v95h83v-95h-83z" />
    <glyph glyph-name="uni1ECE" unicode="&#x1ece;" horiz-adv-x="700" 
d="M350 -12q-96 0 -164 39t-104 118t-36 198q0 120 36 198.5t104 117.5t164 39t164 -39t103.5 -117.5t35.5 -198.5q0 -119 -35.5 -198t-103.5 -118t-164 -39zM350 67q49 0 87.5 15.5t65.5 47.5t41.5 81t14.5 116v32q0 67 -14.5 116t-41.5 81t-65.5 47.5t-87.5 15.5
t-88 -15.5t-66 -47.5t-41 -81t-14 -116v-32q0 -67 14 -116t41 -81t66 -47.5t88 -15.5zM327 737v60h15q18 0 24.5 5.5t6.5 16.5t-8 16t-25 5h-54v34q10 3 21.5 4t22.5 2t21 1q14 0 28.5 -2.5t27 -8.5t20 -17t7.5 -28t-8 -29.5t-22 -19.5t-32 -9v-30h-45z" />
    <glyph glyph-name="uni1ECF" unicode="&#x1ecf;" horiz-adv-x="509" 
d="M255 -12q-71 0 -119.5 28.5t-73 89.5t-24.5 157q0 97 24.5 157.5t73 89t119.5 28.5t119 -28.5t73 -89t25 -157.5q0 -96 -25 -157t-73 -89.5t-119 -28.5zM255 59q44 0 72.5 19.5t42.5 62t14 108.5v28q0 67 -14 109t-42.5 61.5t-72.5 19.5t-73 -19.5t-43 -61.5t-14 -109
v-28q0 -66 14 -108.5t43 -62t73 -19.5zM233 591v60h15q19 0 25 5.5t6 16.5t-7.5 16t-25.5 5h-53v34q9 3 20.5 4l23 2t20.5 1q15 0 29.5 -2.5t26.5 -8.5t19.5 -17t7.5 -28q0 -18 -8 -30t-22 -19t-31 -9v-30h-46z" />
    <glyph glyph-name="uni1ED0" unicode="&#x1ed0;" horiz-adv-x="700" 
d="M350 -12q-96 0 -164 39t-104 118t-36 198q0 120 36 198.5t104 117.5t164 39t164 -39t103.5 -117.5t35.5 -198.5q0 -119 -35.5 -198t-103.5 -118t-164 -39zM350 67q49 0 87.5 15.5t65.5 47.5t41.5 81t14.5 116v32q0 67 -14.5 116t-41.5 81t-65.5 47.5t-87.5 15.5
t-88 -15.5t-66 -47.5t-41 -81t-14 -116v-32q0 -67 14 -116t41 -81t66 -47.5t88 -15.5zM213 737l95 133h83l94 -133h-75l-81 114l41 -1l-81 -113h-76zM312 901l78 132h93l1 -3l-99 -129h-73z" />
    <glyph glyph-name="uni1ED1" unicode="&#x1ed1;" horiz-adv-x="509" 
d="M255 -12q-71 0 -119.5 28.5t-73 89.5t-24.5 157q0 97 24.5 157.5t73 89t119.5 28.5t119 -28.5t73 -89t25 -157.5q0 -96 -25 -157t-73 -89.5t-119 -28.5zM255 59q44 0 72.5 19.5t42.5 62t14 108.5v28q0 67 -14 109t-42.5 61.5t-72.5 19.5t-73 -19.5t-43 -61.5t-14 -109
v-28q0 -66 14 -108.5t43 -62t73 -19.5zM122 591l95 132h75l95 -132h-72l-81 113h41l-81 -113h-72zM210 775l77 132h90l1 -3l-100 -129h-68z" />
    <glyph glyph-name="uni1ED2" unicode="&#x1ed2;" horiz-adv-x="700" 
d="M350 -12q-96 0 -164 39t-104 118t-36 198q0 120 36 198.5t104 117.5t164 39t164 -39t103.5 -117.5t35.5 -198.5q0 -119 -35.5 -198t-103.5 -118t-164 -39zM350 67q49 0 87.5 15.5t65.5 47.5t41.5 81t14.5 116v32q0 67 -14.5 116t-41.5 81t-65.5 47.5t-87.5 15.5
t-88 -15.5t-66 -47.5t-41 -81t-14 -116v-32q0 -67 14 -116t41 -81t66 -47.5t88 -15.5zM213 737l95 133h83l94 -133h-75l-81 114l41 -1l-81 -113h-76zM393 901h-72l-100 129l1 3h94z" />
    <glyph glyph-name="uni1ED3" unicode="&#x1ed3;" horiz-adv-x="509" 
d="M255 -12q-71 0 -119.5 28.5t-73 89.5t-24.5 157q0 97 24.5 157.5t73 89t119.5 28.5t119 -28.5t73 -89t25 -157.5q0 -96 -25 -157t-73 -89.5t-119 -28.5zM255 59q44 0 72.5 19.5t42.5 62t14 108.5v28q0 67 -14 109t-42.5 61.5t-72.5 19.5t-73 -19.5t-43 -61.5t-14 -109
v-28q0 -66 14 -108.5t43 -62t73 -19.5zM122 591l95 132h75l95 -132h-72l-81 113h41l-81 -113h-72zM303 775h-69l-99 129l1 3h90z" />
    <glyph glyph-name="uni1ED4" unicode="&#x1ed4;" horiz-adv-x="700" 
d="M350 -12q-96 0 -164 39t-104 118t-36 198q0 120 36 198.5t104 117.5t164 39t164 -39t103.5 -117.5t35.5 -198.5q0 -119 -35.5 -198t-103.5 -118t-164 -39zM350 67q49 0 87.5 15.5t65.5 47.5t41.5 81t14.5 116v32q0 67 -14.5 116t-41.5 81t-65.5 47.5t-87.5 15.5
t-88 -15.5t-66 -47.5t-41 -81t-14 -116v-32q0 -67 14 -116t41 -81t66 -47.5t88 -15.5zM213 737l95 133h83l94 -133h-75l-81 114l41 -1l-81 -113h-76zM327 901v60h15q18 0 24.5 5.5t6.5 16.5t-8 16t-25 5h-54v34q10 2 21.5 3.5t22.5 2.5t21 1q14 0 28.5 -2.5t27 -8.5t20 -17
t7.5 -28q0 -18 -8 -30t-22 -19t-32 -9v-30h-45z" />
    <glyph glyph-name="uni1ED5" unicode="&#x1ed5;" horiz-adv-x="509" 
d="M255 -12q-71 0 -119.5 28.5t-73 89.5t-24.5 157q0 97 24.5 157.5t73 89t119.5 28.5t119 -28.5t73 -89t25 -157.5q0 -96 -25 -157t-73 -89.5t-119 -28.5zM255 59q44 0 72.5 19.5t42.5 62t14 108.5v28q0 67 -14 109t-42.5 61.5t-72.5 19.5t-73 -19.5t-43 -61.5t-14 -109
v-28q0 -66 14 -108.5t43 -62t73 -19.5zM122 591l95 132h75l95 -132h-72l-81 113h41l-81 -113h-72zM233 775v60h15q19 0 25 5.5t6 15.5q0 12 -7.5 17t-25.5 5h-53v34q9 2 20.5 3.5t23 2.5t20.5 1q15 0 29.5 -2.5t26.5 -8.5t19.5 -17t7.5 -28q0 -18 -8 -30t-22 -19t-31 -9v-30
h-46z" />
    <glyph glyph-name="uni1ED6" unicode="&#x1ed6;" horiz-adv-x="700" 
d="M350 -12q-96 0 -164 39t-104 118t-36 198q0 120 36 198.5t104 117.5t164 39t164 -39t103.5 -117.5t35.5 -198.5q0 -119 -35.5 -198t-103.5 -118t-164 -39zM350 67q49 0 87.5 15.5t65.5 47.5t41.5 81t14.5 116v32q0 67 -14.5 116t-41.5 81t-65.5 47.5t-87.5 15.5
t-88 -15.5t-66 -47.5t-41 -81t-14 -116v-32q0 -67 14 -116t41 -81t66 -47.5t88 -15.5zM213 737l95 133h83l94 -133h-75l-81 114l41 -1l-81 -113h-76zM206 934q1 27 9 48t25.5 33.5t42.5 12.5q24 0 45.5 -8t42 -16.5t40.5 -8.5q14 0 21 9t9 24h51q0 -26 -9 -47.5t-26 -34
t-43 -12.5q-23 0 -44.5 8.5t-42 16.5t-40.5 8q-14 0 -21.5 -9t-8.5 -24h-51z" />
    <glyph glyph-name="uni1ED7" unicode="&#x1ed7;" horiz-adv-x="509" 
d="M255 -12q-71 0 -119.5 28.5t-73 89.5t-24.5 157q0 97 24.5 157.5t73 89t119.5 28.5t119 -28.5t73 -89t25 -157.5q0 -96 -25 -157t-73 -89.5t-119 -28.5zM255 59q44 0 72.5 19.5t42.5 62t14 108.5v28q0 67 -14 109t-42.5 61.5t-72.5 19.5t-73 -19.5t-43 -61.5t-14 -109
v-28q0 -66 14 -108.5t43 -62t73 -19.5zM122 591l95 132h75l95 -132h-72l-81 113h41l-81 -113h-72zM111 808q1 28 9.5 49t25.5 33t43 12q23 0 45 -7.5t42.5 -16t39.5 -8.5q15 0 21.5 9t9.5 24h51q-1 -27 -10 -48t-26 -33.5t-43 -12.5q-22 0 -44 8.5t-42 16.5t-40 8
q-15 0 -22 -9t-9 -25h-51z" />
    <glyph glyph-name="uni1ED8" unicode="&#x1ed8;" horiz-adv-x="700" 
d="M350 -12q-96 0 -164 39t-104 118t-36 198q0 120 36 198.5t104 117.5t164 39t164 -39t103.5 -117.5t35.5 -198.5q0 -119 -35.5 -198t-103.5 -118t-164 -39zM350 67q49 0 87.5 15.5t65.5 47.5t41.5 81t14.5 116v32q0 67 -14.5 116t-41.5 81t-65.5 47.5t-87.5 15.5
t-88 -15.5t-66 -47.5t-41 -81t-14 -116v-32q0 -67 14 -116t41 -81t66 -47.5t88 -15.5zM312 -184v95h83v-95h-83zM213 737l95 133h83l94 -133h-75l-81 114l41 -1l-81 -113h-76z" />
    <glyph glyph-name="uni1ED9" unicode="&#x1ed9;" horiz-adv-x="509" 
d="M255 -12q-71 0 -119.5 28.5t-73 89.5t-24.5 157q0 97 24.5 157.5t73 89t119.5 28.5t119 -28.5t73 -89t25 -157.5q0 -96 -25 -157t-73 -89.5t-119 -28.5zM255 59q44 0 72.5 19.5t42.5 62t14 108.5v28q0 67 -14 109t-42.5 61.5t-72.5 19.5t-73 -19.5t-43 -61.5t-14 -109
v-28q0 -66 14 -108.5t43 -62t73 -19.5zM213 -184v95h83v-95h-83zM122 591l95 132h75l95 -132h-72l-81 113h41l-81 -113h-72z" />
    <glyph glyph-name="uni1EDA" unicode="&#x1eda;" horiz-adv-x="700" 
d="M350 -12q-96 0 -164 39t-104 118t-36 198q0 120 36 198.5t104 117.5t164 39t164 -39t103.5 -117.5t35.5 -198.5q0 -119 -35.5 -198t-103.5 -118t-164 -39zM350 67q49 0 87.5 15.5t65.5 47.5t41.5 81t14.5 116v32q0 67 -14.5 116t-41.5 81t-65.5 47.5t-87.5 15.5
t-88 -15.5t-66 -47.5t-41 -81t-14 -116v-32q0 -67 14 -116t41 -81t66 -47.5t88 -15.5zM519 589v45q55 0 86.5 24t31.5 66h-47v103h104v-79q0 -50 -20.5 -86t-60 -54.5t-94.5 -18.5zM313 737l77 133h94l1 -4l-99 -129h-73z" />
    <glyph glyph-name="uni1EDB" unicode="&#x1edb;" horiz-adv-x="509" 
d="M255 -12q-71 0 -119.5 28.5t-73 89.5t-24.5 157q0 97 24.5 157.5t73 89t119.5 28.5t119 -28.5t73 -89t25 -157.5q0 -96 -25 -157t-73 -89.5t-119 -28.5zM255 59q44 0 72.5 19.5t42.5 62t14 108.5v28q0 67 -14 109t-42.5 61.5t-72.5 19.5t-73 -19.5t-43 -61.5t-14 -109
v-28q0 -66 14 -108.5t43 -62t73 -19.5zM376 446v46q50 5 80.5 27.5t37.5 63.5h-46v102h104v-62q0 -51 -19 -89.5t-57.5 -60.5t-99.5 -27zM210 591l77 132h90l1 -3l-100 -129h-68z" />
    <glyph glyph-name="uni1EDC" unicode="&#x1edc;" horiz-adv-x="700" 
d="M350 -12q-96 0 -164 39t-104 118t-36 198q0 120 36 198.5t104 117.5t164 39t164 -39t103.5 -117.5t35.5 -198.5q0 -119 -35.5 -198t-103.5 -118t-164 -39zM350 67q49 0 87.5 15.5t65.5 47.5t41.5 81t14.5 116v32q0 67 -14.5 116t-41.5 81t-65.5 47.5t-87.5 15.5
t-88 -15.5t-66 -47.5t-41 -81t-14 -116v-32q0 -67 14 -116t41 -81t66 -47.5t88 -15.5zM519 589v45q55 0 86.5 24t31.5 66h-47v103h104v-79q0 -50 -20.5 -86t-60 -54.5t-94.5 -18.5zM394 737h-72l-100 129l1 4h94z" />
    <glyph glyph-name="uni1EDD" unicode="&#x1edd;" horiz-adv-x="509" 
d="M255 -12q-71 0 -119.5 28.5t-73 89.5t-24.5 157q0 97 24.5 157.5t73 89t119.5 28.5t119 -28.5t73 -89t25 -157.5q0 -96 -25 -157t-73 -89.5t-119 -28.5zM255 59q44 0 72.5 19.5t42.5 62t14 108.5v28q0 67 -14 109t-42.5 61.5t-72.5 19.5t-73 -19.5t-43 -61.5t-14 -109
v-28q0 -66 14 -108.5t43 -62t73 -19.5zM376 446v46q50 5 80.5 27.5t37.5 63.5h-46v102h104v-62q0 -51 -19 -89.5t-57.5 -60.5t-99.5 -27zM303 591h-69l-99 129l1 3h90z" />
    <glyph glyph-name="uni1EDE" unicode="&#x1ede;" horiz-adv-x="700" 
d="M350 -12q-96 0 -164 39t-104 118t-36 198q0 120 36 198.5t104 117.5t164 39t164 -39t103.5 -117.5t35.5 -198.5q0 -119 -35.5 -198t-103.5 -118t-164 -39zM350 67q49 0 87.5 15.5t65.5 47.5t41.5 81t14.5 116v32q0 67 -14.5 116t-41.5 81t-65.5 47.5t-87.5 15.5
t-88 -15.5t-66 -47.5t-41 -81t-14 -116v-32q0 -67 14 -116t41 -81t66 -47.5t88 -15.5zM519 589v45q55 0 86.5 24t31.5 66h-47v103h104v-79q0 -50 -20.5 -86t-60 -54.5t-94.5 -18.5zM328 737v60h14q19 0 25.5 5.5t6.5 16.5t-8 16t-26 5h-53v34q10 3 21 4t22.5 2t20.5 1
q15 0 29.5 -2.5t27 -8.5t20 -17t7.5 -28t-8.5 -29.5t-22.5 -19.5t-31 -9v-30h-45z" />
    <glyph glyph-name="uni1EDF" unicode="&#x1edf;" horiz-adv-x="509" 
d="M255 -12q-71 0 -119.5 28.5t-73 89.5t-24.5 157q0 97 24.5 157.5t73 89t119.5 28.5t119 -28.5t73 -89t25 -157.5q0 -96 -25 -157t-73 -89.5t-119 -28.5zM255 59q44 0 72.5 19.5t42.5 62t14 108.5v28q0 67 -14 109t-42.5 61.5t-72.5 19.5t-73 -19.5t-43 -61.5t-14 -109
v-28q0 -66 14 -108.5t43 -62t73 -19.5zM376 446v46q50 5 80.5 27.5t37.5 63.5h-46v102h104v-62q0 -51 -19 -89.5t-57.5 -60.5t-99.5 -27zM233 591v60h15q19 0 25 5.5t6 16.5t-7.5 16t-25.5 5h-53v34q9 3 20.5 4l23 2t20.5 1q15 0 29.5 -2.5t26.5 -8.5t19.5 -17t7.5 -28
q0 -18 -8 -30t-22 -19t-31 -9v-30h-46z" />
    <glyph glyph-name="uni1EE0" unicode="&#x1ee0;" horiz-adv-x="700" 
d="M350 -12q-96 0 -164 39t-104 118t-36 198q0 120 36 198.5t104 117.5t164 39t164 -39t103.5 -117.5t35.5 -198.5q0 -119 -35.5 -198t-103.5 -118t-164 -39zM350 67q49 0 87.5 15.5t65.5 47.5t41.5 81t14.5 116v32q0 67 -14.5 116t-41.5 81t-65.5 47.5t-87.5 15.5
t-88 -15.5t-66 -47.5t-41 -81t-14 -116v-32q0 -67 14 -116t41 -81t66 -47.5t88 -15.5zM519 589v45q55 0 86.5 24t31.5 66h-47v103h104v-79q0 -50 -20.5 -86t-60 -54.5t-94.5 -18.5zM207 770q0 27 8.5 48.5t26 33.5t42.5 12q24 0 45.5 -8t42 -16t39.5 -8q15 0 22 8.5t9 23.5
h51q0 -26 -9 -47.5t-26.5 -33.5t-42.5 -12q-23 0 -45 8t-42 16t-40 8q-15 0 -22 -9t-9 -24h-50z" />
    <glyph glyph-name="uni1EE1" unicode="&#x1ee1;" horiz-adv-x="509" 
d="M255 -12q-71 0 -119.5 28.5t-73 89.5t-24.5 157q0 97 24.5 157.5t73 89t119.5 28.5t119 -28.5t73 -89t25 -157.5q0 -96 -25 -157t-73 -89.5t-119 -28.5zM255 59q44 0 72.5 19.5t42.5 62t14 108.5v28q0 67 -14 109t-42.5 61.5t-72.5 19.5t-73 -19.5t-43 -61.5t-14 -109
v-28q0 -66 14 -108.5t43 -62t73 -19.5zM376 446v46q50 5 80.5 27.5t37.5 63.5h-46v102h104v-62q0 -51 -19 -89.5t-57.5 -60.5t-99.5 -27zM111 624q1 28 9.5 49t25.5 33t43 12q23 0 45 -7.5t42.5 -16t39.5 -8.5q15 0 21.5 9t9.5 24h51q-1 -27 -10 -48t-26 -33.5t-43 -12.5
q-22 0 -44 8.5t-42 16.5t-40 8q-15 0 -22 -9t-9 -25h-51z" />
    <glyph glyph-name="uni1EE2" unicode="&#x1ee2;" horiz-adv-x="700" 
d="M350 -12q-96 0 -164 39t-104 118t-36 198q0 120 36 198.5t104 117.5t164 39t164 -39t103.5 -117.5t35.5 -198.5q0 -119 -35.5 -198t-103.5 -118t-164 -39zM350 67q49 0 87.5 15.5t65.5 47.5t41.5 81t14.5 116v32q0 67 -14.5 116t-41.5 81t-65.5 47.5t-87.5 15.5
t-88 -15.5t-66 -47.5t-41 -81t-14 -116v-32q0 -67 14 -116t41 -81t66 -47.5t88 -15.5zM519 589v45q55 0 86.5 24t31.5 66h-47v103h104v-79q0 -50 -20.5 -86t-60 -54.5t-94.5 -18.5zM309 -184v95h82v-95h-82z" />
    <glyph glyph-name="uni1EE3" unicode="&#x1ee3;" horiz-adv-x="509" 
d="M255 -12q-71 0 -119.5 28.5t-73 89.5t-24.5 157q0 97 24.5 157.5t73 89t119.5 28.5t119 -28.5t73 -89t25 -157.5q0 -96 -25 -157t-73 -89.5t-119 -28.5zM255 59q44 0 72.5 19.5t42.5 62t14 108.5v28q0 67 -14 109t-42.5 61.5t-72.5 19.5t-73 -19.5t-43 -61.5t-14 -109
v-28q0 -66 14 -108.5t43 -62t73 -19.5zM376 446v46q50 5 80.5 27.5t37.5 63.5h-46v102h104v-62q0 -52 -19 -90t-57.5 -60t-99.5 -27zM213 -184v95h83v-95h-83z" />
    <glyph glyph-name="uni1EE4" unicode="&#x1ee4;" horiz-adv-x="648" 
d="M322 -12q-77 0 -132.5 25.5t-85.5 82t-30 148.5v442h92v-452q0 -84 40 -125.5t117 -41.5t118.5 41.5t41.5 125.5v452h91v-442q0 -92 -30 -148.5t-86.5 -82t-135.5 -25.5zM282 -184v95h82v-95h-82z" />
    <glyph glyph-name="uni1EE5" unicode="&#x1ee5;" horiz-adv-x="502" 
d="M204 -12q-66 0 -106 36t-40 125v377h84v-363q0 -28 6 -47t17.5 -30.5t29 -17t38.5 -5.5q33 0 61 18t45 52.5t17 82.5v310h83v-526h-67l-8 75h-6q-18 -30 -41.5 -49.5t-51.5 -28.5t-61 -9zM210 -184v95h82v-95h-82z" />
    <glyph glyph-name="uni1EE6" unicode="&#x1ee6;" horiz-adv-x="648" 
d="M322 -12q-77 0 -132.5 25.5t-85.5 82t-30 148.5v442h92v-452q0 -84 40 -125.5t116 -41.5q78 0 119.5 41.5t41.5 125.5v452h91v-442q0 -92 -30 -148.5t-86.5 -82t-135.5 -25.5zM302 737v60h14q19 0 25.5 5.5t6.5 16.5t-8 16t-26 5h-53v34q10 3 21.5 4t22.5 2t20 1
q15 0 29.5 -2.5t27 -8.5t20 -17t7.5 -28t-8 -29.5t-22 -19.5t-32 -9v-30h-45z" />
    <glyph glyph-name="uni1EE7" unicode="&#x1ee7;" horiz-adv-x="502" 
d="M204 -12q-66 0 -106 36t-40 125v377h84v-363q0 -28 6 -47t17.5 -30.5t29 -17t38.5 -5.5q33 0 61 18t45 52.5t17 82.5v310h83v-526h-67l-8 75h-6q-18 -30 -41.5 -49.5t-51.5 -28.5t-61 -9zM230 591v60h15q18 0 24.5 5.5t6.5 16.5t-8 16t-25 5h-54v34q10 3 21.5 4t22.5 2
t21 1q14 0 28.5 -2.5t27 -8.5t20 -17t7.5 -28q0 -18 -8.5 -30t-22 -19t-31.5 -9v-30h-45z" />
    <glyph glyph-name="uni1EE8" unicode="&#x1ee8;" horiz-adv-x="648" 
d="M322 -12q-77 0 -132.5 25.5t-85.5 82t-30 148.5v442h92v-452q0 -84 40 -125.5t116 -41.5q78 0 119.5 41.5t41.5 125.5v452h91v-442q0 -92 -30 -148.5t-86.5 -82t-135.5 -25.5zM513 640v46q55 0 86.5 23.5t31.5 65.5h-46v103h103v-78q0 -50 -20.5 -86t-60 -55t-94.5 -19z
M287 737l77 133h94l1 -4l-99 -129h-73z" />
    <glyph glyph-name="uni1EE9" unicode="&#x1ee9;" horiz-adv-x="502" 
d="M204 -12q-66 0 -106 36t-40 125v377h84v-363q0 -28 6 -47t17.5 -30.5t29 -17t38.5 -5.5q33 0 61 18t45 52.5t17 82.5v310h83v-526h-67l-8 75h-6q-18 -30 -41.5 -49.5t-51.5 -28.5t-61 -9zM375 479v47q50 5 80 27.5t38 62.5h-47v103h104v-62q0 -52 -18.5 -90t-57.5 -60
t-99 -28zM206 591l78 132h90v-3l-99 -129h-69z" />
    <glyph glyph-name="uni1EEA" unicode="&#x1eea;" horiz-adv-x="648" 
d="M322 -12q-77 0 -132.5 25.5t-85.5 82t-30 148.5v442h92v-452q0 -84 40 -125.5t116 -41.5q78 0 119.5 41.5t41.5 125.5v452h91v-442q0 -92 -30 -148.5t-86.5 -82t-135.5 -25.5zM513 640v46q55 0 86.5 23.5t31.5 65.5h-46v103h103v-78q0 -50 -20.5 -86t-60 -55t-94.5 -19z
M368 737h-72l-100 129l1 4h94z" />
    <glyph glyph-name="uni1EEB" unicode="&#x1eeb;" horiz-adv-x="502" 
d="M204 -12q-66 0 -106 36t-40 125v377h84v-363q0 -28 6 -47t17.5 -30.5t29 -17t38.5 -5.5q33 0 61 18t45 52.5t17 82.5v310h83v-526h-67l-8 75h-6q-18 -30 -41.5 -49.5t-51.5 -28.5t-61 -9zM375 479v47q50 5 80 27.5t38 62.5h-47v103h104v-62q0 -52 -18.5 -90t-57.5 -60
t-99 -28zM299 591h-68l-100 129l1 3h90z" />
    <glyph glyph-name="uni1EEC" unicode="&#x1eec;" horiz-adv-x="648" 
d="M322 -12q-77 0 -132.5 25.5t-85.5 82t-30 148.5v442h92v-452q0 -84 40 -125.5t116 -41.5q78 0 119.5 41.5t41.5 125.5v452h91v-442q0 -92 -30 -148.5t-86.5 -82t-135.5 -25.5zM513 640v46q55 0 86.5 23.5t31.5 65.5h-46v103h103v-78q0 -50 -20.5 -86t-60 -55t-94.5 -19z
M302 737v60h14q19 0 25.5 5.5t6.5 16.5t-8 16t-26 5h-53v34q10 3 21.5 4t22.5 2t20 1q15 0 29.5 -2.5t27 -8.5t20 -17t7.5 -28t-8 -29.5t-22 -19.5t-32 -9v-30h-45z" />
    <glyph glyph-name="uni1EED" unicode="&#x1eed;" horiz-adv-x="502" 
d="M204 -12q-66 0 -106 36t-40 125v377h84v-363q0 -28 6 -47t17.5 -30.5t29 -17t38.5 -5.5q33 0 61 18t45 52.5t17 82.5v310h83v-526h-67l-8 75h-6q-18 -30 -41.5 -49.5t-51.5 -28.5t-61 -9zM375 479v47q50 5 80 27.5t38 62.5h-47v103h104v-62q0 -52 -18.5 -90t-57.5 -60
t-99 -28zM230 591v60h15q18 0 24.5 5.5t6.5 16.5t-8 16t-25 5h-54v34q10 3 21.5 4t22.5 2t21 1q14 0 28.5 -2.5t27 -8.5t20 -17t7.5 -28q0 -18 -8.5 -30t-22 -19t-31.5 -9v-30h-45z" />
    <glyph glyph-name="uni1EEE" unicode="&#x1eee;" horiz-adv-x="648" 
d="M322 -12q-77 0 -132.5 25.5t-85.5 82t-30 148.5v442h92v-452q0 -84 40 -125.5t116 -41.5q78 0 119.5 41.5t41.5 125.5v452h91v-442q0 -92 -30 -148.5t-86.5 -82t-135.5 -25.5zM513 640v46q55 0 86.5 23.5t31.5 65.5h-46v103h103v-78q0 -50 -20.5 -86t-60 -55t-94.5 -19z
M181 770q0 27 8.5 48.5t26 33.5t42.5 12q24 0 45.5 -8t42 -16t40.5 -8q14 0 21 8.5t9 23.5h51q0 -26 -9 -47.5t-26 -33.5t-43 -12q-23 0 -45 8t-42 16t-40 8q-14 0 -21.5 -9t-9.5 -24h-50z" />
    <glyph glyph-name="uni1EEF" unicode="&#x1eef;" horiz-adv-x="502" 
d="M204 -12q-66 0 -106 36t-40 125v377h84v-363q0 -28 6 -47t17.5 -30.5t29 -17t38.5 -5.5q33 0 61 18t45 52.5t17 82.5v310h83v-526h-67l-8 75h-6q-18 -30 -41.5 -49.5t-51.5 -28.5t-61 -9zM375 479v47q50 5 80 27.5t38 62.5h-47v103h104v-62q0 -52 -18.5 -90t-57.5 -60
t-99 -28zM122 624q1 28 8.5 49t22.5 33t39 12q21 0 40.5 -7.5t38 -16t36.5 -8.5q12 0 18.5 9t8.5 24h46q0 -27 -8 -48t-24 -33.5t-39 -12.5q-20 0 -39.5 8.5t-38 16.5t-35.5 8q-13 0 -20 -9t-8 -25h-46z" />
    <glyph glyph-name="uni1EF0" unicode="&#x1ef0;" horiz-adv-x="648" 
d="M322 -12q-77 0 -132.5 25.5t-85.5 82t-30 148.5v442h92v-452q0 -84 40 -125.5t117 -41.5t118.5 41.5t41.5 125.5v452h91v-442q0 -92 -30 -148.5t-86.5 -82t-135.5 -25.5zM513 640v46q55 0 86.5 23.5t31.5 65.5h-46v103h103v-78q0 -50 -20.5 -86t-60 -55t-94.5 -19z
M282 -184v95h82v-95h-82z" />
    <glyph glyph-name="uni1EF1" unicode="&#x1ef1;" horiz-adv-x="502" 
d="M204 -12q-66 0 -106 36t-40 125v377h84v-363q0 -28 6 -47t17.5 -30.5t29 -17t38.5 -5.5q33 0 61 18t45 52.5t17 82.5v310h83v-526h-67l-8 75h-6q-18 -30 -41.5 -49.5t-51.5 -28.5t-61 -9zM375 479v47q50 5 80 27.5t38 62.5h-47v103h104v-62q0 -52 -18.5 -90t-57.5 -60
t-99 -28zM210 -184v95h82v-95h-82z" />
    <glyph glyph-name="Ygrave" unicode="&#x1ef2;" horiz-adv-x="597" 
d="M252 0v284l-238 402h102l182 -313h5l181 313h99l-239 -402v-284h-92zM344 737h-72l-100 129l1 4h94z" />
    <glyph glyph-name="ygrave" unicode="&#x1ef3;" horiz-adv-x="439" 
d="M99 -184q-21 0 -37.5 3t-24.5 4v63h39q24 0 44 10.5t36 36t28 67.5l-173 526h88l88 -285q6 -16 13 -40.5t14 -50t11 -45.5h6q4 15 8.5 34t9.5 38.5t10 37.5t9 31l77 280h85l-155 -512q-13 -43 -28.5 -79.5t-35 -63t-47 -41t-65.5 -14.5zM275 591h-68l-100 129l1 3h90z
" />
    <glyph glyph-name="uni1EF4" unicode="&#x1ef4;" horiz-adv-x="597" 
d="M252 0v284l-238 402h102l182 -313h5l181 313h99l-239 -402v-284h-92zM257 -184v95h83v-95h-83z" />
    <glyph glyph-name="uni1EF5" unicode="&#x1ef5;" horiz-adv-x="439" 
d="M99 -184q-21 0 -37.5 3t-24.5 4v63h39q24 0 44 10.5t36 36t28 67.5l-173 526h88l88 -285q6 -16 13 -40.5t14 -50t11 -45.5h6q4 15 8.5 34t9.5 38.5t10 37.5t9 31l77 280h85l-155 -512q-13 -43 -28.5 -79.5t-35 -63t-47 -41t-65.5 -14.5zM290 -184v95h83v-95h-83z" />
    <glyph glyph-name="uni1EF6" unicode="&#x1ef6;" horiz-adv-x="597" 
d="M252 0v284l-238 402h102l182 -313h5l181 313h99l-239 -402v-284h-92zM278 737v60h14q19 0 25.5 5.5t6.5 16.5t-8 16t-25 5h-54v34q10 3 21.5 4t22.5 2t21 1q14 0 28.5 -2.5t27 -8.5t20 -17t7.5 -28t-8 -29.5t-22 -19.5t-32 -9v-30h-45z" />
    <glyph glyph-name="uni1EF7" unicode="&#x1ef7;" horiz-adv-x="439" 
d="M99 -184q-21 0 -37.5 3t-24.5 4v63h39q24 0 44 10.5t36 36t28 67.5l-173 526h88l88 -285q6 -16 13 -40.5t14 -50t11 -45.5h6q4 15 8.5 34t9.5 38.5t10 37.5t9 31l77 280h85l-155 -512q-13 -43 -28.5 -79.5t-35 -63t-47 -41t-65.5 -14.5zM206 591v60h14q19 0 25.5 5.5
t6.5 16.5t-8 16t-25 5h-54v34q10 3 21.5 4t22.5 2t21 1q14 0 28.5 -2.5t27 -8.5t20 -17t7.5 -28q0 -18 -8.5 -30t-22 -19t-31.5 -9v-30h-45z" />
    <glyph glyph-name="uni1EF8" unicode="&#x1ef8;" horiz-adv-x="597" 
d="M252 0v284l-238 402h102l182 -313h5l181 313h99l-239 -402v-284h-92zM157 770q0 27 8.5 48.5t26 33.5t42.5 12q24 0 45.5 -8t42 -16t40.5 -8q14 0 21 8.5t9 23.5h51q0 -26 -9 -47.5t-26 -33.5t-43 -12q-23 0 -44.5 8t-42 16t-40.5 8q-14 0 -21.5 -9t-8.5 -24h-51z" />
    <glyph glyph-name="uni1EF9" unicode="&#x1ef9;" horiz-adv-x="439" 
d="M99 -184q-21 0 -37.5 3t-24.5 4v63h39q24 0 44 10.5t36 36t28 67.5l-173 526h88l88 -285q6 -16 13 -40.5t14 -50t11 -45.5h6q4 15 8.5 34t9.5 38.5t10 37.5t9 31l77 280h85l-155 -512q-13 -43 -28.5 -79.5t-35 -63t-47 -41t-65.5 -14.5zM84 624q1 28 9 49t25.5 33
t42.5 12q24 0 45.5 -7.5t42 -16t40.5 -8.5q14 0 21 9t9 24h51q0 -27 -9 -48t-26 -33.5t-43 -12.5q-23 0 -44.5 8.5t-42 16.5t-40.5 8q-14 0 -21.5 -9t-8.5 -25h-51z" />
    <glyph glyph-name="uni2009" unicode="&#x2009;" horiz-adv-x="193" 
 />
    <glyph glyph-name="uni2010" unicode="&#x2010;" horiz-adv-x="600" 
d="M41 224v93h261v-93h-261z" />
    <glyph glyph-name="uni2011" unicode="&#x2011;" horiz-adv-x="302" 
d="M37 228v85h229v-85h-229z" />
    <glyph glyph-name="endash" unicode="&#x2013;" horiz-adv-x="438" 
d="M0 236v69h438v-69h-438z" />
    <glyph glyph-name="emdash" unicode="&#x2014;" horiz-adv-x="875" 
d="M0 236v68h875v-68h-875z" />
    <glyph glyph-name="uni2015" unicode="&#x2015;" horiz-adv-x="932" 
d="M22 233v74h889v-74h-889z" />
    <glyph glyph-name="underscoredbl" unicode="&#x2017;" horiz-adv-x="429" 
d="M0 -125v63h429v-63h-429zM0 -240v64h429v-64h-429z" />
    <glyph glyph-name="quoteleft" unicode="&#x2018;" horiz-adv-x="221" 
d="M164 686v-41q-17 -4 -28.5 -18.5t-17 -36t-5.5 -48.5h41v-105h-90v93q0 58 16 90.5t39 47.5t45 18z" />
    <glyph glyph-name="quoteright" unicode="&#x2019;" horiz-adv-x="221" 
d="M56 437v41q18 5 29.5 19.5t17 36t5.5 48.5h-42v104h91v-93q0 -57 -16 -89.5t-39 -47t-46 -19.5z" />
    <glyph glyph-name="quotesinglbase" unicode="&#x201a;" horiz-adv-x="221" 
d="M56 -144v41q18 4 29.5 18.5t17 36t5.5 48.5h-42v105h91v-93q0 -58 -16 -90t-39 -47t-46 -19z" />
    <glyph glyph-name="quotedblleft" unicode="&#x201c;" horiz-adv-x="363" 
d="M306 686v-41q-17 -4 -28.5 -18.5t-17 -36t-5.5 -48.5h41v-105h-91v93q0 58 16 90.5t39.5 47.5t45.5 18zM164 686v-41q-17 -4 -28.5 -18.5t-17 -36t-5.5 -48.5h41v-105h-90v93q0 58 16 90.5t39 47.5t45 18z" />
    <glyph glyph-name="quotedblright" unicode="&#x201d;" horiz-adv-x="363" 
d="M56 437v41q18 5 29.5 19.5t17 36t5.5 48.5h-42v104h91v-93q0 -57 -16 -89.5t-39 -47t-46 -19.5zM198 437v41q18 5 29.5 19.5t17 36t5.5 48.5h-42v104h91v-93q0 -57 -16 -89.5t-39 -47t-46 -19.5z" />
    <glyph glyph-name="quotedblbase" unicode="&#x201e;" horiz-adv-x="363" 
d="M56 -144v41q18 4 29.5 18.5t17 36t5.5 48.5h-42v105h91v-93q0 -58 -16 -90t-39 -47t-46 -19zM198 -144v41q18 4 29.5 18.5t17 36t5.5 48.5h-42v105h91v-93q0 -58 -16 -90t-39 -47t-46 -19z" />
    <glyph glyph-name="dagger" unicode="&#x2020;" horiz-adv-x="522" 
d="M217 -170l18 599l-180 -16v87l180 -14l-15 200h82l-14 -200l180 14v-87l-180 16l17 -599h-88z" />
    <glyph glyph-name="daggerdbl" unicode="&#x2021;" horiz-adv-x="522" 
d="M220 -171l14 200l-179 -14v86l179 -15l-16 173l16 170l-179 -16v87l179 -14l-14 200h83l-15 -200l180 14v-87l-180 16l16 -170l-16 -173l180 15v-86l-180 14l15 -200h-83z" />
    <glyph glyph-name="bullet" unicode="&#x2022;" horiz-adv-x="391" 
d="M195 219q-36 0 -64 16t-44 44t-16 64q0 37 16 65t44 44t64 16t64.5 -16t44.5 -44t16 -65q0 -36 -16 -64t-44.5 -44t-64.5 -16z" />
    <glyph glyph-name="ellipsis" unicode="&#x2026;" horiz-adv-x="755" 
d="M78 0v106h92v-106h-92zM331 0v106h92v-106h-92zM584 0v106h92v-106h-92z" />
    <glyph glyph-name="perthousand" unicode="&#x2030;" horiz-adv-x="965" 
d="M125 0l345 686h61l-345 -686h-61zM164 338q-40 0 -69 16.5t-44 55.5t-15 107q0 69 15 108t44 56t69 17q41 0 69 -17t43 -56t15 -108q0 -68 -15 -107.5t-43 -55.5t-69 -16zM164 394q35 0 46 31t11 87v11q0 38 -4.5 64.5t-16.5 40.5t-36 14q-34 0 -45.5 -31t-11.5 -88v-11
q0 -56 11.5 -87t45.5 -31zM491 -12q-40 0 -69 17t-44 56t-15 107q0 69 15 108t44 56t69 17q41 0 69 -17t43 -56t15 -108q0 -68 -15 -107.5t-43 -56t-69 -16.5zM491 44q35 0 46 31t11 87v12q0 38 -4.5 64.5t-16.5 40.5t-36 14q-34 0 -45.5 -31t-11.5 -88v-12q0 -56 11.5 -87
t45.5 -31zM783 -12q-40 0 -69 17t-44 56t-15 107q0 69 15 108t44 56t69 17q41 0 69 -17t43 -56t15 -108q0 -68 -15 -107.5t-43 -56t-69 -16.5zM783 44q35 0 46 31t11 87v12q0 38 -4.5 64.5t-16.5 40.5t-36 14q-34 0 -45.5 -31t-11.5 -88v-12q0 -56 11.5 -87t45.5 -31z" />
    <glyph glyph-name="minute" unicode="&#x2032;" horiz-adv-x="155" 
d="M41 520l19 176h90l1 -3l-57 -173h-53z" />
    <glyph glyph-name="second" unicode="&#x2033;" horiz-adv-x="291" 
d="M41 520l19 176h90l1 -3l-57 -173h-53zM177 520l19 176h91l1 -3l-58 -173h-53z" />
    <glyph glyph-name="guilsinglleft" unicode="&#x2039;" horiz-adv-x="318" 
d="M196 125l-144 201l144 200h68l-118 -200l118 -201h-68z" />
    <glyph glyph-name="guilsinglright" unicode="&#x203a;" horiz-adv-x="318" 
d="M123 527l143 -201l-143 -200h-69l118 200l-118 201h69z" />
    <glyph glyph-name="uni203E" unicode="&#x203e;" horiz-adv-x="378" 
d="M-11 787v48h401v-48h-401z" />
    <glyph glyph-name="fraction" unicode="&#x2044;" horiz-adv-x="167" 
d="M-191 -12l487 710h63l-487 -710h-63z" />
    <glyph glyph-name="uni2052" unicode="&#x2052;" horiz-adv-x="394" 
d="M59 -29l206 784h70l-206 -784h-70zM223 30v111h103v-111h-103zM67 575v111h104v-111h-104z" />
    <glyph glyph-name="uni2070" unicode="&#x2070;" horiz-adv-x="307" 
d="M153 428q-38 0 -65 17t-40.5 57.5t-13.5 110.5q0 71 13.5 111t40.5 57t65 17q39 0 65.5 -17t40 -57t13.5 -111q0 -70 -13.5 -110.5t-40 -57.5t-65.5 -17zM153 479q35 0 47 29t12 90v29q0 62 -12 91t-47 29t-47 -29t-12 -90v-29q0 -61 12 -90.5t47 -29.5z" />
    <glyph glyph-name="uni2074" unicode="&#x2074;" horiz-adv-x="307" 
d="M176 440v79h-143v45q26 53 46 110.5t32 122.5h62q-7 -33 -17.5 -67t-22 -65t-23 -56t-20.5 -40h86v91q4 10 8 23.5t8 27.5t6 26h35v-168h42v-50h-42v-79h-57z" />
    <glyph glyph-name="uni2075" unicode="&#x2075;" horiz-adv-x="307" 
d="M155 428q-54 0 -85 30.5t-32 85.5h57q1 -21 8.5 -35.5t21 -22.5t30.5 -8q28 0 42.5 18.5t14.5 57.5q0 34 -14 51t-40 17q-17 0 -31.5 -9t-23.5 -24l-54 10l14 188h191v-53h-141l-7 -82q11 8 27 14t35 6q31 0 54 -12.5t36 -38t13 -66.5q0 -60 -30 -93.5t-86 -33.5z" />
    <glyph glyph-name="uni2076" unicode="&#x2076;" horiz-adv-x="307" 
d="M157 428q-41 0 -68.5 16t-41.5 54.5t-14 104.5q0 73 14 116t42 61t69 18q55 0 79.5 -30t24.5 -79h-57q0 30 -12 44.5t-37 14.5q-38 0 -49.5 -30t-13.5 -87q13 17 33 27t44 10q37 0 60 -15t33.5 -41t10.5 -61q0 -57 -32.5 -90t-84.5 -33zM155 478q32 0 45.5 21.5
t13.5 51.5q0 29 -13 48.5t-45 19.5q-31 0 -45 -20t-14 -51q0 -29 13.5 -49.5t44.5 -20.5z" />
    <glyph glyph-name="uni2077" unicode="&#x2077;" horiz-adv-x="307" 
d="M86 440q0 61 16 114t42 98t54 81h-158v54h235v-37q-30 -37 -59.5 -83.5t-49 -96.5t-19.5 -101v-14.5v-14.5h-61z" />
    <glyph glyph-name="uni2078" unicode="&#x2078;" horiz-adv-x="307" 
d="M153 428q-42 0 -68 14t-37.5 38.5t-11.5 54.5q0 27 11.5 49.5t35.5 34.5q-19 14 -29.5 34t-10.5 43q0 29 12.5 52t37 36.5t60.5 13.5t60.5 -13.5t36 -36.5t11.5 -52q0 -23 -9.5 -43t-29.5 -34q24 -12 36 -34.5t12 -49.5q0 -30 -12 -54.5t-37.5 -38.5t-67.5 -14zM153 478
q30 0 43.5 15.5t13.5 42.5q0 26 -13.5 41.5t-43.5 15.5q-31 0 -44.5 -15.5t-13.5 -41.5q0 -27 13.5 -42.5t44.5 -15.5zM153 641q26 0 38 15t12 39q0 26 -12 39.5t-38 13.5t-38.5 -13.5t-12.5 -39.5q0 -24 12.5 -39t38.5 -15z" />
    <glyph glyph-name="uni2079" unicode="&#x2079;" horiz-adv-x="307" 
d="M148 428q-55 0 -79.5 30.5t-24.5 78.5h57q0 -30 12.5 -44.5t36.5 -14.5q38 0 49.5 30t13.5 87q-12 -17 -32.5 -27t-44.5 -10q-37 0 -60 15t-33.5 41.5t-10.5 59.5q0 58 32.5 91t84.5 33q42 0 69 -16t41 -54t14 -105q0 -73 -14 -116t-41.5 -61t-69.5 -18zM150 607
q31 0 45 20.5t14 50.5q0 29 -13.5 49.5t-44.5 20.5q-32 0 -45.5 -21t-13.5 -52q0 -28 13 -48t45 -20z" />
    <glyph glyph-name="uni207F" unicode="&#x207f;" horiz-adv-x="336" 
d="M46 338v348h49l5 -47h5q16 31 39.5 45t52.5 14q44 0 68.5 -25t24.5 -84v-251h-59v243q0 37 -14 50t-39 13q-19 0 -35.5 -11.5t-27 -33t-10.5 -51.5v-210h-59z" />
    <glyph glyph-name="uni2080" unicode="&#x2080;" horiz-adv-x="307" 
d="M153 -172q-38 0 -65 17t-40.5 57.5t-13.5 110.5q0 71 13.5 111t40.5 57t65 17q39 0 65.5 -17t40 -57t13.5 -111q0 -70 -13.5 -110.5t-40 -57.5t-65.5 -17zM153 -121q35 0 47 29t12 90v29q0 62 -12 91t-47 29t-47 -29t-12 -90v-29q0 -61 12 -90.5t47 -29.5z" />
    <glyph glyph-name="uni2081" unicode="&#x2081;" horiz-adv-x="307" 
d="M55 -160v52h77v219h-77v39q19 2 37.5 6.5t36 13.5t31.5 23h30v-301h72v-52h-207z" />
    </font>
</defs>
</svg>
