<?xml version="1.0" encoding="UTF-8"?>
<svg xmlns="http://www.w3.org/2000/svg" width="110" height="78" viewBox="0 0 110 78" fill="none">
  <path d="M88.5 18.3901L55.27 4.17002C54.82 3.97002 54.31 3.97002 53.87 4.17002L20.64 18.3901C20.21 18.5801 19.86 18.9301 19.69 19.3701C19.52 19.8101 19.53 20.3001 19.72 20.7301C19.9 21.1701 20.25 21.51 20.68 21.69C21.11 21.87 21.6 21.86 22.04 21.67L54.57 7.73008L86.01 21.2101V72.2501C86.02 73.2301 86.82 74.0201 87.8 74.0201C88.78 74.0201 89.57 73.2301 89.57 72.2501V20.03C89.57 19.32 89.15 18.6701 88.5 18.3901Z" fill="black"></path>
  <path d="M68.8101 46.7401H46.9301V31.91C46.9301 30.93 46.14 30.1301 45.16 30.1201H21.3401C20.3601 30.1301 19.5701 30.93 19.5701 31.91V72.2501C19.5701 73.2301 20.3601 74.0201 21.3401 74.0201H68.8101C69.7901 74.0201 70.5801 73.2301 70.5801 72.2501V48.5101C70.5801 47.5301 69.7901 46.7401 68.8101 46.7401ZM23.1301 33.6201H43.3V70.4601H23.1301V33.6201ZM67.0201 70.4601H46.85V50.29H67.0201V70.4601Z" fill="black"></path>
  <path d="M88.5 18.3901L55.27 4.17002C54.82 3.97002 54.31 3.97002 53.87 4.17002L20.64 18.3901C20.21 18.5801 19.86 18.9301 19.69 19.3701C19.52 19.8101 19.53 20.3001 19.72 20.7301C19.9 21.1701 20.25 21.51 20.68 21.69C21.11 21.87 21.6 21.86 22.04 21.67L54.57 7.73008L86.01 21.2101V72.2501C86.02 73.2301 86.82 74.0201 87.8 74.0201C88.78 74.0201 89.57 73.2301 89.57 72.2501V20.03C89.57 19.32 89.15 18.6701 88.5 18.3901Z" stroke="black" stroke-width="0.5" stroke-miterlimit="10"></path>
  <path d="M68.8101 46.7401H46.9301V31.91C46.9301 30.93 46.14 30.1301 45.16 30.1201H21.3401C20.3601 30.1301 19.5701 30.93 19.5701 31.91V72.2501C19.5701 73.2301 20.3601 74.0201 21.3401 74.0201H68.8101C69.7901 74.0201 70.5801 73.2301 70.5801 72.2501V48.5101C70.5801 47.5301 69.7901 46.7401 68.8101 46.7401ZM23.1301 33.6201H43.3V70.4601H23.1301V33.6201ZM67.0201 70.4601H46.85V50.29H67.0201V70.4601Z" stroke="black" stroke-width="0.5" stroke-miterlimit="10"></path>
</svg>
