<?xml version="1.0" encoding="UTF-8"?>
<svg xmlns="http://www.w3.org/2000/svg" width="110" height="78" viewBox="0 0 110 78" fill="none">
  <mask id="path-1-inside-1_186_1308" fill="white">
    <path d="M54.8345 4.21973C53.9347 4.21973 53.2048 4.93972 53.2048 5.83972V13.6097L48.6054 9.47974C47.9355 8.87974 46.9157 8.92973 46.3057 9.59973C45.7058 10.2697 45.7558 11.2898 46.4257 11.8998L53.2048 17.9998V29.6698C51.755 29.9198 50.4052 30.4897 49.2453 31.3197L40.9865 23.0597L41.4765 13.9597C41.5265 13.0597 40.8465 12.2897 39.9467 12.2397C39.0468 12.1897 38.2769 12.8698 38.227 13.7698L37.897 19.9597L32.3978 14.4697C31.7679 13.8297 30.738 13.8297 30.0981 14.4697C29.4682 15.1097 29.4682 16.1298 30.0981 16.7698L35.5973 22.2698L29.4082 22.6097C28.5084 22.6597 27.8284 23.4197 27.8684 24.3197C27.9184 25.2197 28.6783 25.9097 29.5782 25.8597L38.6768 25.3698L46.9357 33.6298C46.1058 34.7898 45.5359 36.1397 45.2859 37.5997H33.6176L27.5185 30.8097C26.9186 30.1397 25.8887 30.0897 25.2188 30.6897C24.5489 31.2897 24.4989 32.3197 25.0988 32.9897L29.2382 37.5997H21.4594C20.5595 37.5997 19.8296 38.3197 19.8196 39.2197C19.8196 40.1197 20.5395 40.8497 21.4393 40.8597C21.4393 40.8597 21.4494 40.8597 21.4594 40.8597H29.2283L25.0988 45.4597C24.4889 46.1197 24.5389 47.1498 25.2088 47.7598C25.8787 48.3598 26.9086 48.2998 27.5085 47.6298L33.6076 40.8497H45.2759C45.5259 42.2997 46.0958 43.6497 46.9256 44.8097L38.6669 53.0697L29.5682 52.5797C28.6683 52.5297 27.8984 53.2097 27.8484 54.1097C27.7985 55.0097 28.4783 55.7797 29.3782 55.8297L35.5573 56.1598L30.0581 61.6598C29.4182 62.2898 29.4182 63.3297 30.0581 63.9597C30.688 64.5997 31.7178 64.5997 32.3577 63.9597L37.857 58.4597L38.1869 64.6398C38.2369 65.5398 38.9968 66.2297 39.8967 66.1797C40.7966 66.1297 41.4864 65.3597 41.4365 64.4697L40.9465 55.3698L49.2054 47.1097C50.3652 47.9297 51.705 48.5098 53.1648 48.7598V60.4297L46.3857 66.5298C45.7158 67.1298 45.6659 68.1597 46.2658 68.8297C46.8657 69.4997 47.8955 69.5497 48.5654 68.9497L53.1648 64.8197V72.5897C53.1648 73.4897 53.8847 74.2197 54.7846 74.2197C54.7846 74.2197 54.7845 74.2197 54.7945 74.2197C55.6944 74.2197 56.4243 73.4797 56.4143 72.5897V64.8097L61.0337 68.9497C61.7036 69.5497 62.7234 69.4997 63.3333 68.8297C63.9332 68.1597 63.8832 67.1398 63.2133 66.5298L56.4243 60.4297V48.7598C57.8841 48.5098 59.2339 47.9397 60.3937 47.1097L68.6526 55.3698L68.1626 64.4697C68.1126 65.3697 68.7925 66.1397 69.6924 66.1897C70.5923 66.2397 71.3622 65.5498 71.4122 64.6598L71.7421 58.4697L77.2413 63.9697C77.8812 64.5997 78.901 64.5997 79.5409 63.9697C80.1808 63.3397 80.1808 62.2998 79.5409 61.6698L74.0417 56.1698L80.2408 55.8397C81.1407 55.7897 81.8307 55.0198 81.7807 54.1298C81.7307 53.2298 80.9708 52.5397 80.0709 52.5897L70.9622 53.0797L62.7134 44.8197C63.5333 43.6597 64.1132 42.3197 64.3631 40.8597H76.0315L82.1306 47.6398C82.7305 48.3098 83.7503 48.3698 84.4302 47.7698C85.1001 47.1698 85.1601 46.1397 84.5602 45.4697L80.4308 40.8698H88.1997C89.0996 40.8698 89.8295 40.1297 89.8195 39.2397C89.8195 38.3497 89.0896 37.6198 88.1997 37.6198H80.4208L84.5602 33.0098C85.1601 32.3398 85.1102 31.3197 84.4403 30.7097C84.1203 30.4197 83.7004 30.2698 83.2604 30.2898C82.8305 30.3198 82.4306 30.5097 82.1406 30.8297L76.0414 37.6198H64.3731C64.1232 36.1598 63.5533 34.8098 62.7234 33.6498L70.9722 25.3898L80.0809 25.8798C80.9808 25.9298 81.7506 25.2397 81.8006 24.3497C81.8506 23.4597 81.1607 22.6898 80.2609 22.6398L74.0617 22.2997L79.561 16.7997C80.1909 16.1597 80.1909 15.1398 79.561 14.4998C79.261 14.1998 78.851 14.0198 78.4211 14.0198C77.9912 14.0198 77.5713 14.1898 77.2713 14.4998L71.7721 19.9998L71.4421 13.8097C71.3921 12.9097 70.6322 12.2198 69.7324 12.2698C68.8325 12.3198 68.1426 13.0797 68.1926 13.9797L68.6825 23.0897L60.4237 31.3397C59.2639 30.5097 57.9141 29.9397 56.4543 29.6897V18.0198L63.2433 11.9198C63.9132 11.3198 63.9632 10.2898 63.3633 9.61975C62.7634 8.94975 61.7335 8.89976 61.0636 9.49976L56.4443 13.6398V5.85974C56.4443 4.96974 55.7144 4.23975 54.8245 4.23975L54.8345 4.21973Z"></path>
  </mask>
  <path d="M54.8345 4.21973C53.9347 4.21973 53.2048 4.93972 53.2048 5.83972V13.6097L48.6054 9.47974C47.9355 8.87974 46.9157 8.92973 46.3057 9.59973C45.7058 10.2697 45.7558 11.2898 46.4257 11.8998L53.2048 17.9998V29.6698C51.755 29.9198 50.4052 30.4897 49.2453 31.3197L40.9865 23.0597L41.4765 13.9597C41.5265 13.0597 40.8465 12.2897 39.9467 12.2397C39.0468 12.1897 38.2769 12.8698 38.227 13.7698L37.897 19.9597L32.3978 14.4697C31.7679 13.8297 30.738 13.8297 30.0981 14.4697C29.4682 15.1097 29.4682 16.1298 30.0981 16.7698L35.5973 22.2698L29.4082 22.6097C28.5084 22.6597 27.8284 23.4197 27.8684 24.3197C27.9184 25.2197 28.6783 25.9097 29.5782 25.8597L38.6768 25.3698L46.9357 33.6298C46.1058 34.7898 45.5359 36.1397 45.2859 37.5997H33.6176L27.5185 30.8097C26.9186 30.1397 25.8887 30.0897 25.2188 30.6897C24.5489 31.2897 24.4989 32.3197 25.0988 32.9897L29.2382 37.5997H21.4594C20.5595 37.5997 19.8296 38.3197 19.8196 39.2197C19.8196 40.1197 20.5395 40.8497 21.4393 40.8597C21.4393 40.8597 21.4494 40.8597 21.4594 40.8597H29.2283L25.0988 45.4597C24.4889 46.1197 24.5389 47.1498 25.2088 47.7598C25.8787 48.3598 26.9086 48.2998 27.5085 47.6298L33.6076 40.8497H45.2759C45.5259 42.2997 46.0958 43.6497 46.9256 44.8097L38.6669 53.0697L29.5682 52.5797C28.6683 52.5297 27.8984 53.2097 27.8484 54.1097C27.7985 55.0097 28.4783 55.7797 29.3782 55.8297L35.5573 56.1598L30.0581 61.6598C29.4182 62.2898 29.4182 63.3297 30.0581 63.9597C30.688 64.5997 31.7178 64.5997 32.3577 63.9597L37.857 58.4597L38.1869 64.6398C38.2369 65.5398 38.9968 66.2297 39.8967 66.1797C40.7966 66.1297 41.4864 65.3597 41.4365 64.4697L40.9465 55.3698L49.2054 47.1097C50.3652 47.9297 51.705 48.5098 53.1648 48.7598V60.4297L46.3857 66.5298C45.7158 67.1298 45.6659 68.1597 46.2658 68.8297C46.8657 69.4997 47.8955 69.5497 48.5654 68.9497L53.1648 64.8197V72.5897C53.1648 73.4897 53.8847 74.2197 54.7846 74.2197C54.7846 74.2197 54.7845 74.2197 54.7945 74.2197C55.6944 74.2197 56.4243 73.4797 56.4143 72.5897V64.8097L61.0337 68.9497C61.7036 69.5497 62.7234 69.4997 63.3333 68.8297C63.9332 68.1597 63.8832 67.1398 63.2133 66.5298L56.4243 60.4297V48.7598C57.8841 48.5098 59.2339 47.9397 60.3937 47.1097L68.6526 55.3698L68.1626 64.4697C68.1126 65.3697 68.7925 66.1397 69.6924 66.1897C70.5923 66.2397 71.3622 65.5498 71.4122 64.6598L71.7421 58.4697L77.2413 63.9697C77.8812 64.5997 78.901 64.5997 79.5409 63.9697C80.1808 63.3397 80.1808 62.2998 79.5409 61.6698L74.0417 56.1698L80.2408 55.8397C81.1407 55.7897 81.8307 55.0198 81.7807 54.1298C81.7307 53.2298 80.9708 52.5397 80.0709 52.5897L70.9622 53.0797L62.7134 44.8197C63.5333 43.6597 64.1132 42.3197 64.3631 40.8597H76.0315L82.1306 47.6398C82.7305 48.3098 83.7503 48.3698 84.4302 47.7698C85.1001 47.1698 85.1601 46.1397 84.5602 45.4697L80.4308 40.8698H88.1997C89.0996 40.8698 89.8295 40.1297 89.8195 39.2397C89.8195 38.3497 89.0896 37.6198 88.1997 37.6198H80.4208L84.5602 33.0098C85.1601 32.3398 85.1102 31.3197 84.4403 30.7097C84.1203 30.4197 83.7004 30.2698 83.2604 30.2898C82.8305 30.3198 82.4306 30.5097 82.1406 30.8297L76.0414 37.6198H64.3731C64.1232 36.1598 63.5533 34.8098 62.7234 33.6498L70.9722 25.3898L80.0809 25.8798C80.9808 25.9298 81.7506 25.2397 81.8006 24.3497C81.8506 23.4597 81.1607 22.6898 80.2609 22.6398L74.0617 22.2997L79.561 16.7997C80.1909 16.1597 80.1909 15.1398 79.561 14.4998C79.261 14.1998 78.851 14.0198 78.4211 14.0198C77.9912 14.0198 77.5713 14.1898 77.2713 14.4998L71.7721 19.9998L71.4421 13.8097C71.3921 12.9097 70.6322 12.2198 69.7324 12.2698C68.8325 12.3198 68.1426 13.0797 68.1926 13.9797L68.6825 23.0897L60.4237 31.3397C59.2639 30.5097 57.9141 29.9397 56.4543 29.6897V18.0198L63.2433 11.9198C63.9132 11.3198 63.9632 10.2898 63.3633 9.61975C62.7634 8.94975 61.7335 8.89976 61.0636 9.49976L56.4443 13.6398V5.85974C56.4443 4.96974 55.7144 4.23975 54.8245 4.23975L54.8345 4.21973Z" fill="black" stroke="black" stroke-width="2" mask="url(#path-1-inside-1_186_1308)"></path>
</svg>
