<?xml version="1.0" encoding="UTF-8"?>
<svg xmlns="http://www.w3.org/2000/svg" width="110" height="78" viewBox="0 0 110 78" fill="none">
  <path d="M55.5 73.2197C36.72 73.2197 21.5 57.9997 21.5 39.2197C21.5 20.4397 36.72 5.21973 55.5 5.21973C74.28 5.21973 89.5 20.4397 89.5 39.2197C89.5 57.9997 74.28 73.2197 55.5 73.2197ZM55.5 69.2197C72.07 69.2197 85.5 55.7897 85.5 39.2197C85.5 22.6497 72.07 9.21973 55.5 9.21973C38.93 9.21973 25.5 22.6497 25.5 39.2197C25.5 55.7897 38.93 69.2197 55.5 69.2197ZM55.5 63.2197C42.25 63.2197 31.5 52.4697 31.5 39.2197C31.5 25.9697 42.25 15.2197 55.5 15.2197C68.75 15.2197 79.5 25.9697 79.5 39.2197C79.5 52.4697 68.75 63.2197 55.5 63.2197ZM64.5 21.3597C62.36 20.2797 60 19.5697 57.5 19.3197V59.1198C60 58.8698 62.36 58.1597 64.5 57.0797V21.3497V21.3597ZM68.5 24.0298V54.4297C72.78 50.7597 75.5 45.3097 75.5 39.2297C75.5 33.1497 72.78 27.6998 68.5 24.0298ZM46.5 57.0897C48.64 58.1697 51 58.8798 53.5 59.1298V19.3297C51 19.5797 48.64 20.2898 46.5 21.3698V57.0997V57.0897ZM42.5 54.4198V24.0198C38.22 27.6898 35.5 33.1397 35.5 39.2197C35.5 45.2997 38.22 50.7498 42.5 54.4198Z" fill="black"></path>
</svg>
