<?xml version="1.0" encoding="UTF-8"?>
<svg xmlns="http://www.w3.org/2000/svg" width="110" height="78" viewBox="0 0 110 78" fill="none">
  <path d="M50.4299 20.8853V28.4454H58.83V20.8853C58.83 19.4953 59.96 18.3654 61.35 18.3654C62.74 18.3654 63.87 19.4953 63.87 20.8853V28.4454H71.4299C72.8199 28.4454 73.95 29.5754 73.95 30.9654C73.95 32.3554 72.8199 33.4854 71.4299 33.4854H37.8199C36.4299 33.4854 35.3 32.3554 35.3 30.9654C35.3 29.5754 36.4299 28.4454 37.8199 28.4454H45.38V20.8853C45.38 19.4953 46.51 18.3654 47.9 18.3654C49.29 18.3654 50.42 19.4953 50.42 20.8853H50.4299ZM90.41 35.0654C88.22 19.0154 74.92 6.05545 58.79 4.24545C48.51 3.07545 38.2199 6.35541 30.5599 13.2054C22.8999 20.0554 18.5 29.8754 18.5 40.1454C18.5 54.0254 26.61 66.8454 39.16 72.8054C40.87 73.6154 42.71 74.0254 44.54 74.0254C46.87 74.0254 49.2 73.3654 51.26 72.0654C54.95 69.7354 57.15 65.7453 57.15 61.3853V53.4254C64.47 52.2454 70.11 46.1054 70.51 38.5554H38.75C39.15 46.1054 44.79 52.2554 52.11 53.4254V61.3853C52.11 64.0053 50.7799 66.4054 48.5599 67.8054C46.3299 69.2154 43.69 69.3755 41.33 68.2555C30.53 63.1255 23.54 52.0954 23.54 40.1554C23.54 31.3254 27.32 22.8754 33.92 16.9754C40.61 10.9954 49.24 8.27535 58.22 9.26535C72.09 10.8253 83.53 21.9653 85.41 35.7653C87.33 49.7953 79.9499 63.0055 67.0599 68.6255C65.7799 69.1855 65.2 70.6654 65.76 71.9454C66.32 73.2154 67.8 73.8155 69.08 73.2455C84.06 66.7055 92.63 51.3654 90.41 35.0754V35.0654Z" fill="black"></path>
</svg>
