<?xml version="1.0" encoding="UTF-8"?>
<svg xmlns="http://www.w3.org/2000/svg" width="110" height="78" viewBox="0 0 110 78" fill="none">
  <path d="M83.5871 23.04C83.3471 23.45 82.9371 23.6099 82.5271 23.6099C82.2871 23.6099 82.0371 23.61 81.8771 23.45L55.3771 6.70991L28.8771 23.53C28.3071 23.86 27.4971 23.6899 27.1671 23.1199C26.8371 22.5499 27.0071 21.74 27.5771 21.41L54.7271 4.18C55.1371 3.94 55.6171 3.94 56.0271 4.18L83.1771 21.3299C83.7471 21.7399 83.9071 22.47 83.5871 23.04ZM41.5671 54.9899H36.4471V25.7299C36.4471 25.0799 35.8771 24.51 35.2271 24.51C34.5771 24.51 34.0071 25.0799 34.0071 25.7299V56.2099C34.0071 56.8599 34.5771 57.43 35.2271 57.43H41.5671C42.2171 57.43 42.7871 56.8599 42.7871 56.2099C42.7871 55.5599 42.2171 54.9899 41.5671 54.9899ZM75.6171 24.51C74.9671 24.51 74.3971 25.0799 74.3971 25.7299V54.9899H69.1971C68.5471 54.9899 67.9771 55.5599 67.9771 56.2099C67.9771 56.8599 68.5471 57.43 69.1971 57.43H75.6171C76.2671 57.43 76.8371 56.8599 76.8371 56.2099V25.7299C76.8371 25.0799 76.3471 24.51 75.6171 24.51ZM51.3171 57.42H60.0171C62.9471 57.42 65.3771 55.06 65.3771 52.06C65.3771 49.06 63.0171 46.7 60.0171 46.7H51.3171C49.6871 46.7 48.3871 45.4 48.3871 43.77C48.3871 42.14 49.6871 40.8399 51.3171 40.8399C54.2471 40.8399 56.6771 38.4799 56.6771 35.4799V32.07C56.6771 31.42 56.1071 30.8499 55.4571 30.8499C54.8071 30.8499 54.2371 31.42 54.2371 32.07V35.4799C54.2371 37.1099 52.9371 38.41 51.3071 38.41C48.3771 38.41 45.9471 40.77 45.9471 43.77C45.9471 46.77 48.3071 49.13 51.3071 49.13H60.0071C61.6371 49.13 62.9371 50.43 62.9371 52.06C62.9371 53.69 61.6371 54.9899 60.0071 54.9899H51.3071C48.3771 54.9899 45.9471 57.3499 45.9471 60.3499C45.9471 63.3499 48.3071 65.7099 51.3071 65.7099H60.0071C61.6371 65.7099 62.9371 67.01 62.9371 68.64C62.9371 70.27 61.6371 71.57 60.0071 71.57C59.3571 71.57 58.7871 72.14 58.7871 72.79C58.7871 73.44 59.3571 74.01 60.0071 74.01C62.9371 74.01 65.3671 71.65 65.3671 68.65C65.3671 65.65 63.0071 63.29 60.0071 63.29H51.3071C49.6771 63.29 48.3771 61.9899 48.3771 60.3599C48.3771 58.7299 49.6771 57.43 51.3071 57.43L51.3171 57.42ZM47.7471 31.01L55.3871 26.3L62.9471 31.01C63.1071 31.17 63.3571 31.17 63.5971 31.17C64.0071 31.17 64.4071 30.9299 64.6571 30.5999C64.9871 30.0299 64.8171 29.3 64.2471 28.89L55.9571 23.8499C55.5471 23.6099 55.0671 23.6099 54.6571 23.8499L46.4471 28.9699C45.8771 29.2999 45.7171 30.11 46.0371 30.68C46.3671 31.25 47.1771 31.41 47.7471 31.01Z" fill="black" stroke="black" stroke-width="2" stroke-miterlimit="10"></path>
</svg>
