<?xml version="1.0" encoding="UTF-8"?>
<svg xmlns="http://www.w3.org/2000/svg" width="110" height="78" viewBox="0 0 110 78" fill="none">
  <path d="M77.41 8.07971L70.59 4.38977C70.59 4.38977 70.5599 4.38975 70.5399 4.36975C70.3599 4.26975 70.1499 4.21973 69.9299 4.21973H40.22C39.99 4.21973 39.79 4.28975 39.61 4.36975C39.59 4.38975 39.5799 4.36977 39.5599 4.38977L32.74 8.07971C32.28 8.32971 32 8.79969 32 9.30969V60.3998C32 60.9098 32.28 61.3798 32.74 61.6298L39.5599 65.3197C39.5599 65.3197 39.59 65.3197 39.61 65.3397C39.79 65.4397 40 65.4897 40.22 65.4897H42.89V72.8397C42.89 73.6097 43.51 74.2297 44.28 74.2297H50.23C51 74.2297 51.62 73.6097 51.62 72.8397V65.4897H58.46V72.8397C58.46 73.6097 59.08 74.2297 59.85 74.2297H65.7999C66.5699 74.2297 67.1899 73.6097 67.1899 72.8397V65.4897H69.86C70.09 65.4897 70.29 65.4197 70.47 65.3397C70.49 65.3197 70.5 65.3397 70.52 65.3197L77.34 61.6298C77.8 61.3798 78.08 60.9098 78.08 60.3998V9.30969C78.13 8.79969 77.85 8.32971 77.39 8.07971H77.41ZM34.8099 10.1398L38.83 7.95972V61.7397L34.8099 59.5597V10.1398ZM41.63 7.00977H68.52V62.6797H41.63V7.00977ZM48.87 71.4497H45.72V65.4998H48.87V71.4497ZM64.46 71.4497H61.3099V65.4998H64.46V71.4497ZM75.35 59.5697L71.33 61.7498V7.96973L75.35 10.1498V59.5697Z" fill="black"></path>
  <path d="M53.87 40.7698C53.02 42.2798 48.7899 49.9698 48.7899 52.8898C48.7899 56.3698 51.61 59.1897 55.09 59.1897C58.57 59.1897 61.39 56.3698 61.39 52.8898C61.39 49.9698 57.1599 42.2798 56.3099 40.7698C55.8199 39.8798 54.38 39.8798 53.88 40.7698H53.87ZM55.08 56.3798C53.15 56.3798 51.59 54.8098 51.59 52.8898C51.59 51.5898 53.38 47.6898 55.08 44.3998C56.8 47.6998 58.5699 51.5998 58.5699 52.8898C58.5899 54.8198 57.01 56.3798 55.08 56.3798Z" fill="black"></path>
  <path d="M55.08 30.7097C60.62 30.7097 65.12 26.1998 65.12 20.6698C65.12 15.1398 60.61 10.6298 55.08 10.6298C49.55 10.6298 45.0399 15.1398 45.0399 20.6698C45.0399 26.2098 49.53 30.7097 55.08 30.7097ZM55.08 13.4397C59.06 13.4397 62.3099 16.6898 62.3099 20.6698C62.3099 24.6498 59.06 27.8998 55.08 27.8998C51.1 27.8998 47.85 24.6498 47.85 20.6698C47.85 16.6898 51.1 13.4397 55.08 13.4397Z" fill="black"></path>
  <path d="M55.0799 22.0797C55.4399 22.0797 55.7999 21.9498 56.0599 21.6698L59.13 18.5997C59.67 18.0597 59.67 17.1697 59.13 16.6197C58.59 16.0797 57.7 16.0797 57.15 16.6197L54.0799 19.6897C53.5399 20.2297 53.5399 21.1198 54.0799 21.6698C54.3599 21.9298 54.7199 22.0797 55.0799 22.0797Z" fill="black"></path>
  <path d="M77.41 8.07971L70.59 4.38977C70.59 4.38977 70.5599 4.38975 70.5399 4.36975C70.3599 4.26975 70.1499 4.21973 69.9299 4.21973H40.22C39.99 4.21973 39.79 4.28975 39.61 4.36975C39.59 4.38975 39.5799 4.36977 39.5599 4.38977L32.74 8.07971C32.28 8.32971 32 8.79969 32 9.30969V60.3998C32 60.9098 32.28 61.3798 32.74 61.6298L39.5599 65.3197C39.5599 65.3197 39.59 65.3197 39.61 65.3397C39.79 65.4397 40 65.4897 40.22 65.4897H42.89V72.8397C42.89 73.6097 43.51 74.2297 44.28 74.2297H50.23C51 74.2297 51.62 73.6097 51.62 72.8397V65.4897H58.46V72.8397C58.46 73.6097 59.08 74.2297 59.85 74.2297H65.7999C66.5699 74.2297 67.1899 73.6097 67.1899 72.8397V65.4897H69.86C70.09 65.4897 70.29 65.4197 70.47 65.3397C70.49 65.3197 70.5 65.3397 70.52 65.3197L77.34 61.6298C77.8 61.3798 78.08 60.9098 78.08 60.3998V9.30969C78.13 8.79969 77.85 8.32971 77.39 8.07971H77.41ZM34.8099 10.1398L38.83 7.95972V61.7397L34.8099 59.5597V10.1398ZM41.63 7.00977H68.52V62.6797H41.63V7.00977ZM48.87 71.4497H45.72V65.4998H48.87V71.4497ZM64.46 71.4497H61.3099V65.4998H64.46V71.4497ZM75.35 59.5697L71.33 61.7498V7.96973L75.35 10.1498V59.5697Z" stroke="black" stroke-miterlimit="10"></path>
  <path d="M53.87 40.7698C53.02 42.2798 48.7899 49.9698 48.7899 52.8898C48.7899 56.3698 51.61 59.1897 55.09 59.1897C58.57 59.1897 61.39 56.3698 61.39 52.8898C61.39 49.9698 57.1599 42.2798 56.3099 40.7698C55.8199 39.8798 54.38 39.8798 53.88 40.7698H53.87ZM55.08 56.3798C53.15 56.3798 51.59 54.8098 51.59 52.8898C51.59 51.5898 53.38 47.6898 55.08 44.3998C56.8 47.6998 58.5699 51.5998 58.5699 52.8898C58.5899 54.8198 57.01 56.3798 55.08 56.3798Z" stroke="black" stroke-miterlimit="10"></path>
  <path d="M55.08 30.7097C60.62 30.7097 65.12 26.1998 65.12 20.6698C65.12 15.1398 60.61 10.6298 55.08 10.6298C49.55 10.6298 45.0399 15.1398 45.0399 20.6698C45.0399 26.2098 49.53 30.7097 55.08 30.7097ZM55.08 13.4397C59.06 13.4397 62.3099 16.6898 62.3099 20.6698C62.3099 24.6498 59.06 27.8998 55.08 27.8998C51.1 27.8998 47.85 24.6498 47.85 20.6698C47.85 16.6898 51.1 13.4397 55.08 13.4397Z" stroke="black" stroke-miterlimit="10"></path>
  <path d="M55.0799 22.0797C55.4399 22.0797 55.7999 21.9498 56.0599 21.6698L59.13 18.5997C59.67 18.0597 59.67 17.1697 59.13 16.6197C58.59 16.0797 57.7 16.0797 57.15 16.6197L54.0799 19.6897C53.5399 20.2297 53.5399 21.1198 54.0799 21.6698C54.3599 21.9298 54.7199 22.0797 55.0799 22.0797Z" stroke="black" stroke-miterlimit="10"></path>
</svg>
