<?xml version="1.0" encoding="UTF-8"?>
<svg xmlns="http://www.w3.org/2000/svg" width="110" height="78" viewBox="0 0 110 78" fill="none">
  <path d="M73.3971 9.1902C72.7932 8.5863 71.918 8.20996 71.0953 8.20996H64.1461C63.761 8.20996 63.3233 8.26247 62.9995 8.42877C62.5619 8.59506 62.1243 8.86637 61.7917 9.1902L58.8422 12.1397C58.4046 12.5773 58.1858 13.1199 58.1858 13.6713C58.1858 14.2227 58.4046 14.8179 58.8422 15.203L73.6072 30.0292C73.9398 30.3618 74.0973 30.7381 74.0973 31.1757C74.0973 31.6133 73.931 32.051 73.6072 32.3223L72.0231 33.9064C71.3667 34.5628 70.3251 34.5628 69.6687 33.9064L54.9037 19.1414C54.081 18.3187 52.6632 18.3187 51.8405 19.1414L21.9168 49.0652C20.6565 50.3255 20 51.9622 20 53.7126V54.6404C20 56.3908 20.6565 58.0362 21.9168 59.2877L26.8967 64.2678C28.157 65.5281 29.7938 66.1845 31.5442 66.1845H32.4719C34.2223 66.1845 35.8678 65.5281 37.1193 64.2678L45.6002 55.7869H53.4247L49.3198 59.8917C48.3921 60.8194 47.8408 62.1322 47.8408 63.445C47.8408 64.7579 48.3834 66.0707 49.3198 66.9985L50.3001 67.9787C51.2278 68.9064 52.5407 69.4578 53.8535 69.4578C55.1663 69.4578 56.4791 68.9152 57.4069 67.9787L65.3364 60.0492L66.0453 60.7581C66.868 61.5809 67.962 62.0184 69.1611 62.0184C70.3601 62.0184 71.4016 61.5809 72.2768 60.7581L76.3816 56.6533C78.0796 54.9554 78.0796 52.1635 76.3816 50.4743L75.6727 49.7653L89.0198 36.4183C89.6237 35.8144 90 34.9391 90 34.1164V27.176C90 26.3008 89.6762 25.4781 89.0198 24.8742L73.3796 9.17268L73.3971 9.1902ZM60.3739 13.6713L63.2183 10.8269L78.4209 26.0294C78.8585 26.467 78.8585 27.1234 78.4209 27.561L76.119 29.8629C75.9528 29.3202 75.6289 28.8214 75.2438 28.4363L60.3651 13.6713H60.3739ZM55.9541 66.4646C55.4114 67.0072 54.6937 67.2872 53.9323 67.2872C53.1708 67.2872 52.4532 67.016 51.9106 66.4646L50.9302 65.4844C50.3876 64.9417 50.1076 64.224 50.1076 63.4625C50.1076 62.7011 50.3788 61.9834 50.9302 61.4407L58.8597 53.5113L63.8923 58.5438L55.9627 66.4732L55.9541 66.4646ZM74.8763 55.1392L70.7715 59.244C70.3339 59.6816 69.7912 59.9004 69.2398 59.9004C68.6884 59.9004 68.0933 59.6816 67.7082 59.244L55.7877 47.3236C55.3501 46.8859 54.6937 46.8859 54.2561 47.3236C53.8185 47.7612 53.8185 48.4176 54.2561 48.8552L57.3194 51.9185L55.6827 53.5551H45.1713C44.9 53.5551 44.6287 53.6689 44.4099 53.8877L35.6052 62.6923C34.7825 63.5151 33.6884 63.9527 32.4894 63.9527H31.5617C30.4152 63.9527 29.3211 63.5151 28.4459 62.6923L23.4659 57.7124C22.6432 56.8897 22.2056 55.7956 22.2056 54.5966V53.6689C22.2056 52.5224 22.6432 51.4283 23.4659 50.5531L48.4709 25.6093L74.8851 52.0235C75.7603 52.9075 75.7603 54.3252 74.8851 55.1392H74.8763ZM87.8382 34.0727C87.8382 34.344 87.7244 34.6154 87.5056 34.8342L74.1586 48.2425L49.9763 24.0602L53.3721 20.6643L68.137 35.4293C69.6162 36.9084 72.0756 36.9084 73.5547 35.4293L79.9525 29.0315C81.2128 27.7711 81.2128 25.6968 79.9525 24.384L65.8352 10.3805H71.0341C71.3054 10.3805 71.5767 10.4943 71.7955 10.7131L87.4969 26.4146C87.7157 26.6334 87.8295 26.9047 87.8295 27.176V34.064L87.8382 34.0727Z" fill="black"></path>
  <path d="M49.3285 40.2605L37.6794 51.9097C37.5131 51.087 37.0755 50.3781 36.4716 49.7216C35.8677 49.1177 35.1062 48.6801 34.2835 48.5138L45.9326 36.8646C46.3702 36.427 46.3702 35.7706 45.9326 35.333C45.495 34.8954 44.8386 34.8954 44.401 35.333L28.8134 50.9207C27.0104 52.7236 27.0104 55.6294 28.8134 57.3711C29.6886 58.2463 30.8351 58.6839 32.0429 58.6839C33.2507 58.6839 34.3973 58.1938 35.2725 57.3711L50.8601 41.7834C51.2977 41.3457 51.2977 40.6893 50.8601 40.2517C50.4225 39.8141 49.7661 39.8141 49.3285 40.2517V40.2605ZM32.0429 56.5571C31.3865 56.5571 30.7826 56.2858 30.345 55.8482C29.4173 54.9205 29.4173 53.3888 30.345 52.4523L31.4915 51.3057C31.9291 50.8681 32.5331 50.5969 33.1895 50.5969C33.8459 50.5969 34.4498 50.8681 34.8874 51.3057C35.8151 52.2335 35.8151 53.7651 34.8874 54.7016L33.7409 55.8482C33.3033 56.2858 32.6993 56.5571 32.0429 56.5571Z" fill="black"></path>
  <path d="M73.3971 9.1902C72.7932 8.5863 71.918 8.20996 71.0953 8.20996H64.1461C63.761 8.20996 63.3233 8.26247 62.9995 8.42877C62.5619 8.59506 62.1243 8.86637 61.7917 9.1902L58.8422 12.1397C58.4046 12.5773 58.1858 13.1199 58.1858 13.6713C58.1858 14.2227 58.4046 14.8179 58.8422 15.203L73.6072 30.0292C73.9398 30.3618 74.0973 30.7381 74.0973 31.1757C74.0973 31.6133 73.931 32.051 73.6072 32.3223L72.0231 33.9064C71.3667 34.5628 70.3251 34.5628 69.6687 33.9064L54.9037 19.1414C54.081 18.3187 52.6632 18.3187 51.8405 19.1414L21.9168 49.0652C20.6565 50.3255 20 51.9622 20 53.7126V54.6404C20 56.3908 20.6565 58.0362 21.9168 59.2877L26.8967 64.2678C28.157 65.5281 29.7938 66.1845 31.5442 66.1845H32.4719C34.2223 66.1845 35.8678 65.5281 37.1193 64.2678L45.6002 55.7869H53.4247L49.3198 59.8917C48.3921 60.8194 47.8408 62.1322 47.8408 63.445C47.8408 64.7579 48.3834 66.0707 49.3198 66.9985L50.3001 67.9787C51.2278 68.9064 52.5407 69.4578 53.8535 69.4578C55.1663 69.4578 56.4791 68.9152 57.4069 67.9787L65.3364 60.0492L66.0453 60.7581C66.868 61.5809 67.962 62.0184 69.1611 62.0184C70.3601 62.0184 71.4016 61.5809 72.2768 60.7581L76.3816 56.6533C78.0796 54.9554 78.0796 52.1635 76.3816 50.4743L75.6727 49.7653L89.0198 36.4183C89.6237 35.8144 90 34.9391 90 34.1164V27.176C90 26.3008 89.6762 25.4781 89.0198 24.8742L73.3796 9.17268L73.3971 9.1902ZM60.3739 13.6713L63.2183 10.8269L78.4209 26.0294C78.8585 26.467 78.8585 27.1234 78.4209 27.561L76.119 29.8629C75.9528 29.3202 75.6289 28.8214 75.2438 28.4363L60.3651 13.6713H60.3739ZM55.9541 66.4646C55.4114 67.0072 54.6937 67.2872 53.9323 67.2872C53.1708 67.2872 52.4532 67.016 51.9106 66.4646L50.9302 65.4844C50.3876 64.9417 50.1076 64.224 50.1076 63.4625C50.1076 62.7011 50.3788 61.9834 50.9302 61.4407L58.8597 53.5113L63.8923 58.5438L55.9627 66.4732L55.9541 66.4646ZM74.8763 55.1392L70.7715 59.244C70.3339 59.6816 69.7912 59.9004 69.2398 59.9004C68.6884 59.9004 68.0933 59.6816 67.7082 59.244L55.7877 47.3236C55.3501 46.8859 54.6937 46.8859 54.2561 47.3236C53.8185 47.7612 53.8185 48.4176 54.2561 48.8552L57.3194 51.9185L55.6827 53.5551H45.1713C44.9 53.5551 44.6287 53.6689 44.4099 53.8877L35.6052 62.6923C34.7825 63.5151 33.6884 63.9527 32.4894 63.9527H31.5617C30.4152 63.9527 29.3211 63.5151 28.4459 62.6923L23.4659 57.7124C22.6432 56.8897 22.2056 55.7956 22.2056 54.5966V53.6689C22.2056 52.5224 22.6432 51.4283 23.4659 50.5531L48.4709 25.6093L74.8851 52.0235C75.7603 52.9075 75.7603 54.3252 74.8851 55.1392H74.8763ZM87.8382 34.0727C87.8382 34.344 87.7244 34.6154 87.5056 34.8342L74.1586 48.2425L49.9763 24.0602L53.3721 20.6643L68.137 35.4293C69.6162 36.9084 72.0756 36.9084 73.5547 35.4293L79.9525 29.0315C81.2128 27.7711 81.2128 25.6968 79.9525 24.384L65.8352 10.3805H71.0341C71.3054 10.3805 71.5767 10.4943 71.7955 10.7131L87.4969 26.4146C87.7157 26.6334 87.8295 26.9047 87.8295 27.176V34.064L87.8382 34.0727Z" stroke="black" stroke-miterlimit="10"></path>
  <path d="M49.3285 40.2605L37.6794 51.9097C37.5131 51.087 37.0755 50.3781 36.4716 49.7216C35.8677 49.1177 35.1062 48.6801 34.2835 48.5138L45.9326 36.8646C46.3702 36.427 46.3702 35.7706 45.9326 35.333C45.495 34.8954 44.8386 34.8954 44.401 35.333L28.8134 50.9207C27.0104 52.7236 27.0104 55.6294 28.8134 57.3711C29.6886 58.2463 30.8351 58.6839 32.0429 58.6839C33.2507 58.6839 34.3973 58.1938 35.2725 57.3711L50.8601 41.7834C51.2977 41.3457 51.2977 40.6893 50.8601 40.2517C50.4225 39.8141 49.7661 39.8141 49.3285 40.2517V40.2605ZM32.0429 56.5571C31.3865 56.5571 30.7826 56.2858 30.345 55.8482C29.4173 54.9205 29.4173 53.3888 30.345 52.4523L31.4915 51.3057C31.9291 50.8681 32.5331 50.5969 33.1895 50.5969C33.8459 50.5969 34.4498 50.8681 34.8874 51.3057C35.8151 52.2335 35.8151 53.7651 34.8874 54.7016L33.7409 55.8482C33.3033 56.2858 32.6993 56.5571 32.0429 56.5571Z" stroke="black" stroke-miterlimit="10"></path>
</svg>
