<?xml version="1.0" encoding="UTF-8"?>
<svg xmlns="http://www.w3.org/2000/svg" width="110" height="78" viewBox="0 0 110 78" fill="none">
  <path d="M22.33 41.3401H30.53L30.87 43.26C31.49 46.8 32.8501 50.09 34.9301 53.03L36.0601 54.64L30.25 60.4501C29.81 60.8901 29.5601 61.4801 29.5601 62.1001C29.5601 62.7201 29.81 63.31 30.25 63.75C31.16 64.66 32.64 64.66 33.55 63.75L39.36 57.9401L40.97 59.0701C43.92 61.1301 47.2 62.5 50.74 63.13L52.66 63.4701V71.67C52.66 72.96 53.71 74 54.99 74C56.27 74 57.3201 72.95 57.3201 71.67V63.4701L59.24 63.13C62.78 62.51 66.07 61.1501 69.02 59.0701L70.63 57.9401L76.4401 63.75C77.3301 64.64 78.86 64.64 79.74 63.75C80.18 63.31 80.4301 62.7201 80.4301 62.1001C80.4301 61.4801 80.18 60.8901 79.74 60.4501L73.9301 54.64L75.05 53.03C77.1101 50.08 78.48 46.79 79.11 43.25L79.4501 41.3301H87.65C88.94 41.3301 89.98 40.28 89.98 39C89.98 37.72 88.93 36.67 87.65 36.67H79.4501L79.11 34.75C78.49 31.21 77.1101 27.9201 75.05 24.9701L73.9301 23.3601L79.74 17.55C80.18 17.11 80.4301 16.52 80.4301 15.9C80.4301 15.28 80.18 14.69 79.74 14.25C78.91 13.42 77.2701 13.42 76.4401 14.25L70.63 20.0601L69.02 18.9301C66.07 16.8701 62.78 15.5 59.24 14.87L57.3201 14.53V6.33008C57.3201 5.04008 56.27 4 54.99 4C53.71 4 52.66 5.05008 52.66 6.33008V14.53L50.74 14.87C47.2 15.49 43.91 16.8501 40.97 18.9301L39.36 20.0601L33.55 14.25C32.69 13.39 31.11 13.39 30.25 14.25C29.81 14.69 29.58 15.28 29.58 15.9C29.58 16.52 29.83 17.11 30.25 17.55L36.0601 23.3601L34.9301 24.9701C32.8701 27.9201 31.5 31.2001 30.87 34.7401L30.53 36.66H22.33C21.04 36.66 20 37.7101 20 38.9901C20 40.2701 21.05 41.3201 22.33 41.3201V41.3401ZM55 19.17C65.93 19.17 74.84 28.07 74.84 39.01C74.84 49.95 65.94 58.8501 55 58.8501C44.06 58.8501 35.16 49.95 35.16 39.01C35.16 28.07 44.06 19.17 55 19.17Z" fill="black" stroke="black" stroke-width="0.75" stroke-miterlimit="10"></path>
</svg>
