<svg width="53" height="85" viewBox="0 0 53 85" fill="none" xmlns="http://www.w3.org/2000/svg">
<path fill-rule="evenodd" clip-rule="evenodd" d="M21.58 21.5898L18.56 25.75C17.04 27.84 17.52 31.5403 19.58 33.0303L25.19 37.0801C26.15 37.7701 26.23 38.4595 25.77 39.1895L26.58 39.7998L29.42 35.8701C31.17 33.4401 31.02 30.1295 28.42 28.2295L22.76 24.1104C22.08 23.6104 22.01 22.9302 22.38 22.1602L21.57 21.5801L21.58 21.5898ZM26.42 3.17969L21.71 9.68945C19.5 12.7495 20.3 17.9597 23.32 20.1797L31.06 25.8604C32.63 27.0104 32.83 29.9495 31.69 31.4395L32.35 31.9395L37.69 24.4297C40.09 21.0597 39.95 16.0701 36.18 13.3301L27.9 7.32031C26.75 6.48031 26.16 5.04969 27.12 3.67969L26.4 3.17969H26.42ZM14.01 44.0195H20.25L21.37 47.8096H31.57L32.69 44.0195H38.93L38.12 41.2402H14.85L14.02 44.0195H14.01ZM4.98004 0H47.27C50.01 0 52.25 2.24949 52.25 4.97949V79.7295C52.25 82.4695 50 84.71 47.27 84.71H4.98004C2.24004 84.71 0 82.4595 0 79.7295V4.97949C0 2.24949 2.23004 0 4.98004 0ZM4.98004 0.339844H47.27C49.82 0.339844 51.91 2.42949 51.91 4.97949V79.7295C51.91 82.2795 49.82 84.3701 47.27 84.3701H4.98004C2.43004 84.3701 0.340027 82.2795 0.340027 79.7295V4.97949C0.340027 2.42949 2.43004 0.339844 4.98004 0.339844ZM50.89 68.0898V79.7295C50.89 81.7195 49.26 83.3398 47.28 83.3398H4.97003C2.98003 83.3398 1.35004 81.7095 1.35004 79.7295V68.0898H50.88H50.89ZM9.70001 74.5098L7.84003 69.8799H6.89001L5.02002 74.5098H6.06L6.45001 73.4795H8.23004L8.62 74.5098H9.69H9.70001ZM7.91003 72.5996H6.79004L7.10999 71.7598C7.15999 71.6298 7.21001 71.4903 7.26001 71.3604C7.31001 71.2304 7.32999 71.1303 7.35999 71.0303C7.37999 71.1103 7.42002 71.2204 7.46002 71.3604C7.51002 71.4903 7.55999 71.6098 7.60999 71.7598L7.92999 72.5996H7.91003ZM13.82 70.6396C13.53 70.3096 13.08 70.0097 12.65 69.8896C12.47 69.8396 12.26 69.8203 12.03 69.8203C11.71 69.8203 11.41 69.8802 11.16 69.9902C10.89 70.1102 10.66 70.2695 10.48 70.4795C10.3 70.6895 10.14 70.9395 10.03 71.2295C9.92003 71.5195 9.87 71.8502 9.87 72.2002C9.87 72.5502 9.92003 72.8897 10.03 73.1797C10.13 73.4697 10.27 73.7297 10.47 73.9297C10.67 74.1297 10.88 74.2899 11.14 74.4199C11.39 74.5299 11.69 74.5898 12.01 74.5898C12.6 74.5898 13.62 74.2595 13.92 73.6895L13.23 73.0703C13.04 73.3903 12.42 73.6602 12.05 73.6602C11.87 73.6602 11.71 73.6198 11.56 73.5498C11.41 73.4798 11.29 73.3695 11.2 73.2295C11.11 73.0895 11.03 72.9395 10.97 72.7695C10.92 72.5895 10.9 72.3895 10.9 72.1895C10.9 71.9695 10.92 71.7796 10.97 71.5996C11.02 71.4196 11.09 71.2696 11.19 71.1396C11.29 71.0097 11.41 70.9098 11.55 70.8398C11.69 70.7698 11.85 70.7295 12.04 70.7295C12.4 70.7295 12.93 70.97 13.17 71.29L13.83 70.6504L13.82 70.6396ZM23.08 74.5098L22 72.75C22.32 72.64 22.66 72.4202 22.81 72.2002C22.96 71.9802 23.04 71.6898 23.04 71.3398C23.04 71.0998 22.99 70.8802 22.91 70.7002C22.83 70.5202 22.7 70.3602 22.55 70.2402C22.4 70.1202 22.22 70.02 22.02 69.96C21.82 69.9 21.6 69.8799 21.38 69.8799H19.1V74.5098H20.07V72.8496L20.94 72.8896L21.96 74.5195H23.09L23.08 74.5098ZM22.04 71.3701C22.04 71.7701 21.81 71.9795 21.35 71.9795H20.08V70.79H21.35C21.57 70.79 21.74 70.8399 21.86 70.9199C21.98 70.9999 22.04 71.1601 22.04 71.3701ZM27.19 74.5098V73.5996H24.68V72.4795H26.71V71.5801H24.68V70.7803H27.1V69.8701H23.71V74.5H27.19V74.5098ZM31.86 72.1895C31.86 71.7695 31.8 71.4104 31.68 71.1104C31.56 70.8204 31.39 70.5797 31.17 70.3896C30.95 70.1996 30.7 70.0702 30.41 69.9902C30.12 69.9102 29.79 69.8701 29.44 69.8701H27.91V74.5H29.37C29.69 74.5 29.99 74.4501 30.29 74.3701C30.59 74.2901 30.86 74.14 31.09 73.96C31.32 73.78 31.51 73.5402 31.66 73.2402C31.79 72.9602 31.87 72.6102 31.87 72.2002L31.86 72.1895ZM30.86 72.1895C30.86 72.3995 30.84 72.5895 30.78 72.7695C30.72 72.9395 30.63 73.0997 30.51 73.2197C30.39 73.3397 30.23 73.4398 30.05 73.5098C29.86 73.5798 29.64 73.6104 29.38 73.6104H28.89V70.7803H29.4C29.91 70.7803 30.29 70.8999 30.52 71.1299C30.74 71.3599 30.86 71.7195 30.86 72.1895ZM33.78 74.5098V69.8799H32.81V74.5098H33.78ZM38.33 70.79V69.8799H34.55V70.79H35.95V74.5H36.92V70.79H38.33ZM47.13 72.1895C47.13 71.7695 47.07 71.4104 46.95 71.1104C46.83 70.8204 46.66 70.5797 46.44 70.3896C46.22 70.1996 45.97 70.0702 45.68 69.9902C45.39 69.9102 45.06 69.8701 44.71 69.8701H43.18V74.5H44.64C44.96 74.5 45.26 74.4501 45.56 74.3701C45.86 74.2901 46.13 74.14 46.36 73.96C46.59 73.78 46.78 73.5402 46.92 73.2402C47.07 72.9602 47.14 72.6102 47.14 72.2002L47.13 72.1895ZM46.14 72.1895C46.14 72.3995 46.12 72.5895 46.06 72.7695C46 72.9395 45.91 73.0997 45.79 73.2197C45.67 73.3397 45.51 73.4398 45.33 73.5098C45.15 73.5798 44.92 73.6104 44.66 73.6104H44.17V70.7803H44.69C45.2 70.7803 45.58 70.8999 45.81 71.1299C46.02 71.3599 46.14 71.7195 46.14 72.1895ZM42.44 74.5098V73.5996H39.93V72.4795H41.96V71.5801H39.93V70.7803H42.35V69.8701H38.96V74.5H42.44V74.5098ZM34.29 80.4902V79.5801H31.78V78.46H33.81V77.5596H31.78V76.7598H34.2V75.8496H30.81V80.4795H34.29V80.4902ZM18.32 70.6396C18.03 70.3096 17.58 70.0097 17.15 69.8896C16.97 69.8396 16.76 69.8203 16.53 69.8203C16.21 69.8203 15.91 69.8802 15.66 69.9902C15.39 70.1102 15.16 70.2695 14.98 70.4795C14.8 70.6895 14.64 70.9395 14.53 71.2295C14.42 71.5195 14.37 71.8502 14.37 72.2002C14.37 72.5502 14.42 72.8897 14.53 73.1797C14.63 73.4697 14.77 73.7297 14.97 73.9297C15.17 74.1297 15.38 74.2899 15.64 74.4199C15.89 74.5299 16.19 74.5898 16.51 74.5898C17.1 74.5898 18.12 74.2595 18.42 73.6895L17.73 73.0703C17.54 73.3903 16.92 73.6602 16.55 73.6602C16.37 73.6602 16.21 73.6198 16.06 73.5498C15.91 73.4798 15.79 73.3695 15.7 73.2295C15.61 73.0895 15.53 72.9395 15.47 72.7695C15.42 72.5895 15.4 72.3895 15.4 72.1895C15.4 71.9695 15.42 71.7796 15.47 71.5996C15.52 71.4196 15.59 71.2696 15.69 71.1396C15.79 71.0097 15.91 70.9098 16.05 70.8398C16.19 70.7698 16.35 70.7295 16.54 70.7295C16.9 70.7295 17.43 70.97 17.67 71.29L18.33 70.6504L18.32 70.6396ZM14.34 78.9902C14.34 78.7402 14.28 78.5204 14.15 78.3604C14.03 78.1904 13.86 78.0695 13.68 77.9795C13.84 77.8795 13.96 77.7596 14.04 77.5996C14.12 77.4396 14.17 77.2703 14.17 77.0703C14.17 76.6703 14.04 76.3702 13.76 76.1602C13.49 75.9502 13.12 75.8398 12.66 75.8398H10.47V80.4697H12.63C12.88 80.4697 13.12 80.4301 13.32 80.3701C13.52 80.3101 13.71 80.2098 13.85 80.0898C13.99 79.9698 14.12 79.8101 14.19 79.6201C14.29 79.4501 14.34 79.2302 14.34 78.9902ZM13.21 77.1602C13.21 77.2902 13.17 77.3895 13.09 77.4795C13.01 77.5595 12.87 77.5996 12.68 77.5996H11.43V76.7295H12.64C12.85 76.7295 12.99 76.7698 13.09 76.8398C13.16 76.9098 13.21 77.0199 13.21 77.1699V77.1602ZM13.36 79.0098C13.36 79.1898 13.3 79.3402 13.19 79.4502C13.08 79.5602 12.91 79.6104 12.68 79.6104H11.42V78.4102H12.68C13.13 78.4202 13.36 78.6195 13.36 79.0195V79.0098ZM18.82 78.4395V75.8496H17.87V78.4502C17.87 78.8302 17.79 79.1203 17.6 79.3203C17.43 79.5303 17.19 79.6396 16.88 79.6396C16.57 79.6396 16.33 79.5296 16.16 79.3096C15.99 79.0896 15.91 78.7999 15.91 78.4199V75.8496H14.96V78.4502C14.96 78.7902 15.01 79.0896 15.09 79.3496C15.19 79.5996 15.31 79.8398 15.48 80.0098C15.65 80.1898 15.86 80.3299 16.09 80.4199C16.33 80.5199 16.59 80.5498 16.88 80.5498C17.49 80.5498 17.96 80.3702 18.3 79.9902C18.64 79.6402 18.81 79.1195 18.81 78.4395H18.82ZM23.19 79.0898C23.19 78.8398 23.14 78.6297 23.04 78.4697C22.94 78.3097 22.82 78.1703 22.66 78.0703C22.51 77.9603 22.34 77.8801 22.15 77.8301C21.97 77.7701 21.77 77.7199 21.58 77.6699C21.39 77.6199 21.23 77.5898 21.11 77.5498C20.99 77.5098 20.89 77.4795 20.82 77.4395C20.75 77.3995 20.7 77.3596 20.66 77.3096C20.64 77.2596 20.61 77.2001 20.61 77.1201C20.61 77.0701 20.62 77.01 20.65 76.96C20.67 76.91 20.71 76.8601 20.77 76.8301C20.82 76.7901 20.89 76.7595 20.98 76.7295C21.07 76.6995 21.17 76.6895 21.3 76.6895C21.52 76.6895 21.71 76.7296 21.88 76.8096C22.05 76.8896 22.22 77.0002 22.38 77.1602L23.07 76.5195C22.84 76.2895 22.6 76.1102 22.32 75.9902C22.04 75.8602 21.71 75.7998 21.35 75.7998C21.12 75.7998 20.89 75.8404 20.68 75.9004C20.47 75.9604 20.29 76.0499 20.15 76.1699C19.99 76.2899 19.87 76.4198 19.79 76.5898C19.71 76.7598 19.66 76.9402 19.66 77.1602C19.66 77.3902 19.7 77.5795 19.77 77.7295C19.84 77.8895 19.94 78.0101 20.07 78.1201C20.2 78.2201 20.36 78.3001 20.54 78.3701C20.72 78.4301 20.93 78.49 21.15 78.54C21.37 78.59 21.55 78.6399 21.7 78.6699C21.85 78.7199 21.94 78.7498 22.03 78.7998C22.1 78.8498 22.15 78.9 22.19 78.96C22.21 79.02 22.23 79.0804 22.23 79.1504C22.23 79.3304 22.16 79.45 22.02 79.54C21.89 79.62 21.68 79.6602 21.39 79.6602C21.16 79.6602 20.94 79.62 20.73 79.54C20.52 79.46 20.34 79.3196 20.17 79.1396L19.48 79.7295C19.66 79.9795 19.92 80.1896 20.24 80.3496C20.57 80.4996 20.93 80.5801 21.33 80.5801C21.66 80.5801 21.94 80.5397 22.17 80.4697C22.4 80.3997 22.59 80.2999 22.75 80.1699C22.91 80.0399 23.02 79.88 23.09 79.71C23.16 79.52 23.2 79.3098 23.2 79.0898H23.19ZM24.92 80.4902V75.8496H23.97V80.4795H24.92V80.4902ZM29.75 80.4902V75.8496H28.82V78.8096C28.78 78.7496 28.74 78.6603 28.67 78.5703C28.6 78.4803 28.54 78.38 28.49 78.29L26.81 75.8496H25.9V80.4795H26.83V77.4297C26.87 77.4897 26.91 77.5799 26.98 77.6699C27.05 77.7599 27.11 77.8602 27.16 77.9502L28.91 80.4697H29.75V80.4902ZM38.17 79.0898C38.17 78.8398 38.12 78.6297 38.02 78.4697C37.92 78.3097 37.8 78.1703 37.66 78.0703C37.51 77.9603 37.34 77.8801 37.15 77.8301C36.97 77.7701 36.77 77.7199 36.58 77.6699C36.39 77.6199 36.23 77.5898 36.11 77.5498C35.99 77.5098 35.89 77.4795 35.82 77.4395C35.75 77.3995 35.7 77.3596 35.66 77.3096C35.64 77.2596 35.61 77.2001 35.61 77.1201C35.61 77.0701 35.62 77.01 35.65 76.96C35.67 76.91 35.71 76.8601 35.77 76.8301C35.82 76.7901 35.89 76.7595 35.98 76.7295C36.07 76.6995 36.17 76.6895 36.3 76.6895C36.52 76.6895 36.71 76.7296 36.88 76.8096C37.05 76.8896 37.22 77.0002 37.38 77.1602L38.07 76.5195C37.84 76.2895 37.6 76.1102 37.32 75.9902C37.04 75.8602 36.71 75.7998 36.35 75.7998C36.12 75.7998 35.89 75.8404 35.68 75.9004C35.47 75.9604 35.29 76.0499 35.15 76.1699C34.99 76.2899 34.87 76.4198 34.79 76.5898C34.71 76.7598 34.66 76.9402 34.66 77.1602C34.66 77.3902 34.7 77.5795 34.77 77.7295C34.84 77.8895 34.94 78.0101 35.07 78.1201C35.2 78.2201 35.36 78.3001 35.54 78.3701C35.72 78.4301 35.93 78.49 36.15 78.54C36.37 78.59 36.55 78.6399 36.7 78.6699C36.85 78.7199 36.94 78.7498 37.03 78.7998C37.1 78.8498 37.15 78.9 37.19 78.96C37.21 79.02 37.23 79.0804 37.23 79.1504C37.23 79.3304 37.16 79.45 37.04 79.54C36.91 79.62 36.7 79.6602 36.41 79.6602C36.18 79.6602 35.96 79.62 35.75 79.54C35.54 79.46 35.36 79.3196 35.19 79.1396L34.5 79.7295C34.68 79.9795 34.94 80.1896 35.26 80.3496C35.59 80.4996 35.95 80.5801 36.35 80.5801C36.68 80.5801 36.96 80.5397 37.19 80.4697C37.42 80.3997 37.61 80.2999 37.77 80.1699C37.93 80.0399 38.04 79.88 38.11 79.71C38.16 79.52 38.19 79.3098 38.19 79.0898H38.17ZM42.25 79.0898C42.25 78.8398 42.2 78.6297 42.1 78.4697C42 78.3097 41.88 78.1703 41.74 78.0703C41.58 77.9603 41.41 77.8801 41.23 77.8301C41.04 77.7701 40.85 77.7199 40.66 77.6699C40.47 77.6199 40.31 77.5898 40.19 77.5498C40.07 77.5098 39.97 77.4795 39.9 77.4395C39.83 77.3995 39.78 77.3596 39.74 77.3096C39.72 77.2596 39.69 77.2001 39.69 77.1201C39.69 77.0701 39.7 77.01 39.73 76.96C39.75 76.91 39.79 76.8601 39.85 76.8301C39.9 76.7901 39.97 76.7595 40.06 76.7295C40.15 76.6995 40.25 76.6895 40.38 76.6895C40.6 76.6895 40.79 76.7296 40.96 76.8096C41.13 76.8896 41.3 77.0002 41.46 77.1602L42.14 76.5195C41.91 76.2895 41.67 76.1102 41.39 75.9902C41.11 75.8602 40.78 75.7998 40.42 75.7998C40.19 75.7998 39.96 75.8404 39.75 75.9004C39.54 75.9604 39.36 76.0499 39.22 76.1699C39.06 76.2899 38.94 76.4198 38.86 76.5898C38.78 76.7598 38.73 76.9402 38.73 77.1602C38.73 77.3902 38.77 77.5795 38.84 77.7295C38.91 77.8895 39.01 78.0101 39.14 78.1201C39.27 78.2201 39.43 78.3001 39.61 78.3701C39.79 78.4301 40 78.49 40.22 78.54C40.44 78.59 40.62 78.6399 40.77 78.6699C40.92 78.7199 41.01 78.7498 41.1 78.7998C41.17 78.8498 41.22 78.9 41.26 78.96C41.28 79.02 41.3 79.0804 41.3 79.1504C41.3 79.3304 41.24 79.45 41.11 79.54C40.98 79.63 40.77 79.6602 40.48 79.6602C40.25 79.6602 40.03 79.62 39.82 79.54C39.61 79.46 39.43 79.3196 39.26 79.1396L38.58 79.7295C38.76 79.9795 39.02 80.1896 39.34 80.3496C39.67 80.4996 40.03 80.5801 40.43 80.5801C40.76 80.5801 41.04 80.5397 41.27 80.4697C41.5 80.3997 41.69 80.2999 41.85 80.1699C42.01 80.0399 42.12 79.88 42.19 79.71C42.24 79.52 42.27 79.3098 42.27 79.0898H42.25ZM14.49 61.29H10.75V58.1602H14.49C17.23 58.1602 17.08 61.29 14.49 61.29ZM27.29 61.29H23.55V58.1602H27.29C30.05 58.1602 29.88 61.29 27.29 61.29ZM40.1 61.29H36.36V58.1602H40.1C42.86 58.1602 42.69 61.29 40.1 61.29ZM14.23 55.71H10.75V52.7803H14.1C16.19 52.7803 16.27 55.71 14.23 55.71ZM27.04 55.71H23.56V52.7803H26.91C29.01 52.7803 29.08 55.71 27.04 55.71ZM39.86 55.71H36.38V52.7803H39.73C41.82 52.7803 41.89 55.71 39.86 55.71ZM19.38 59.54C19.11 57.74 18.38 57.3097 16.94 56.6797C18.03 56.0397 18.71 55.0898 18.71 53.7998C18.71 51.2098 16.6 50.1602 14.28 50.1602H7.82001V63.8799H14.22C16.95 63.8799 19.84 62.6898 19.38 59.5498V59.54ZM32.19 59.54C31.92 57.74 31.19 57.3097 29.75 56.6797C30.84 56.0397 31.52 55.0898 31.52 53.7998C31.52 51.2098 29.41 50.1602 27.09 50.1602H20.63V63.8799H27.03C29.76 63.8799 32.66 62.6898 32.19 59.5498V59.54ZM45.01 59.54C44.74 57.74 44.01 57.3097 42.57 56.6797C43.66 56.0397 44.34 55.0898 44.34 53.7998C44.34 51.2098 42.23 50.1602 39.91 50.1602H33.45V63.8799H39.85C42.58 63.8799 45.47 62.6898 45.01 59.5498V59.54ZM46.24 63.4297C46.24 63.3697 46.23 63.3195 46.22 63.2695C46.21 63.2195 46.18 63.1904 46.15 63.1504C46.12 63.1104 46.07 63.0798 46 63.0498C45.94 63.0098 45.87 62.9902 45.78 62.9502C45.7 62.9302 45.63 62.8999 45.59 62.8799C45.54 62.8599 45.51 62.8296 45.48 62.8096C45.46 62.7896 45.43 62.7602 45.43 62.7402C45.42 62.7202 45.42 62.6802 45.42 62.6602C45.42 62.6202 45.42 62.6001 45.43 62.5801C45.44 62.5601 45.45 62.5298 45.49 62.5098C45.51 62.4898 45.55 62.47 45.59 62.46C45.63 62.45 45.67 62.4395 45.74 62.4395C45.82 62.4395 45.89 62.4495 45.95 62.4795C46.01 62.5095 46.07 62.5398 46.12 62.5898L46.23 62.46C46.17 62.41 46.1 62.3598 46.01 62.3398C45.94 62.3198 45.84 62.29 45.74 62.29C45.67 62.29 45.59 62.2996 45.53 62.3096C45.47 62.3196 45.42 62.3599 45.37 62.3799C45.32 62.4199 45.3 62.45 45.27 62.5C45.24 62.55 45.23 62.6099 45.23 62.6699C45.23 62.7299 45.24 62.7803 45.25 62.8203C45.26 62.8703 45.29 62.8995 45.32 62.9395C45.35 62.9795 45.4 63.01 45.47 63.04C45.54 63.07 45.6 63.1001 45.69 63.1201C45.76 63.1401 45.82 63.1695 45.87 63.1895C45.92 63.2095 45.95 63.2398 45.99 63.2598C46.01 63.2798 46.04 63.3098 46.05 63.3398C46.06 63.3598 46.06 63.3995 46.06 63.4395C46.06 63.5195 46.02 63.5899 45.96 63.6299C45.9 63.6799 45.81 63.7002 45.71 63.7002C45.63 63.7002 45.55 63.6904 45.48 63.6504C45.41 63.6104 45.35 63.5795 45.29 63.5195L45.17 63.6504C45.23 63.7104 45.32 63.7596 45.4 63.8096C45.5 63.8496 45.59 63.8701 45.7 63.8701C45.78 63.8701 45.86 63.8601 45.92 63.8301C45.98 63.8001 46.04 63.78 46.09 63.75C46.14 63.72 46.17 63.6701 46.2 63.6201C46.22 63.5601 46.24 63.4995 46.24 63.4395V63.4297ZM47.9 63.8398V62.29H47.71L47.33 63.21C47.33 63.21 47.31 63.2603 47.29 63.2803C47.28 63.3003 47.27 63.3404 47.25 63.3604C47.23 63.3804 47.23 63.4195 47.23 63.4395C47.22 63.4595 47.22 63.49 47.21 63.5C47.21 63.49 47.2 63.4595 47.19 63.4395C47.18 63.4195 47.17 63.3901 47.17 63.3701C47.16 63.3501 47.15 63.31 47.13 63.29C47.11 63.27 47.11 63.2397 47.09 63.2197L46.71 62.2998H46.53V63.8398H46.7V62.6299C46.7 62.6299 46.71 62.6697 46.71 62.6797C46.72 62.6997 46.72 62.7302 46.73 62.7402C46.74 62.7602 46.74 62.7896 46.75 62.8096C46.76 62.8296 46.77 62.8601 46.77 62.8701L47.18 63.8701L47.6 62.8701C47.6 62.8701 47.61 62.8196 47.62 62.8096C47.63 62.7896 47.64 62.7602 47.64 62.7402C47.65 62.7202 47.65 62.6897 47.66 62.6797C47.67 62.6597 47.67 62.6399 47.67 62.6299V63.8398H47.86H47.9Z" fill="white"/>
</svg>
