<svg width="30" height="30" viewBox="0 0 30 30" fill="none" xmlns="http://www.w3.org/2000/svg">
<path d="M5.15077 0H19.5067C20.6504 0 21.69 0.46878 22.4418 1.22914C23.1936 1.9895 23.6575 3.0418 23.6575 4.19852V13.5648C23.6575 14.7215 23.1936 15.7738 22.4418 16.5342C21.69 17.2945 20.6504 17.7633 19.5067 17.7633H12.3248L6.02259 23.2479C5.72667 23.4986 5.28672 23.4658 5.03879 23.1665C4.91882 23.0209 4.86287 22.8428 4.87087 22.6649L5.2068 17.7633H5.15077C4.00709 17.7633 2.96745 17.2945 2.21567 16.5342C1.46388 15.7738 1 14.7221 1 13.5735V4.20642C1 3.04969 1.46388 1.99819 2.21567 1.23783C2.96745 0.47747 4.00709 0.00789937 5.15077 0.00789937V0ZM25.6969 6.83533C26.5127 6.99711 27.2405 7.40108 27.8083 7.96731C28.5441 8.71149 29 9.73945 29 10.8719V20.2382C29 21.3706 28.5441 22.3986 27.8083 23.1428C27.0726 23.887 26.0568 24.3474 24.9371 24.3474H24.7932L25.137 29.3383C25.145 29.492 25.0971 29.6544 24.9931 29.7838C24.7772 30.0426 24.3852 30.0751 24.1293 29.8486L17.8032 24.1863H9.46154L13.5644 19.9633H22.2659C24.1613 19.9633 25.721 18.3946 25.721 16.4694V7.10233C25.721 7.01335 25.7209 6.91641 25.7049 6.82743L25.6969 6.83533ZM7.19823 10.6697C6.81434 10.6697 6.49442 10.3535 6.49442 9.95716C6.49442 9.5608 6.80634 9.24543 7.19823 9.24543H14.5242C14.908 9.24543 15.228 9.5608 15.228 9.95716C15.228 10.3535 14.916 10.6697 14.5242 10.6697H7.19823ZM7.19823 7.15841C6.81434 7.15841 6.49442 6.84304 6.49442 6.44668C6.49442 6.05032 6.80634 5.73494 7.19823 5.73494H17.5792C17.9631 5.73494 18.283 6.05032 18.283 6.44668C18.283 6.84304 17.9711 7.15841 17.5792 7.15841H7.19823ZM19.5067 1.41557H5.15077C4.39898 1.41557 3.71123 1.73085 3.20738 2.23236C2.71152 2.73388 2.3996 3.43007 2.3996 4.19852V13.5648C2.3996 14.3252 2.71152 15.0214 3.20738 15.531C3.70323 16.0325 4.39898 16.3477 5.15077 16.3477H5.95854H6.00658C6.39047 16.372 6.68633 16.7115 6.65434 17.0998L6.38244 21.0716L11.581 16.55C11.7089 16.4206 11.8769 16.3477 12.0768 16.3477H19.5067C20.2585 16.3477 20.9463 16.0325 21.4501 15.531C21.954 15.0294 22.2579 14.3252 22.2579 13.5648V4.19852C22.2579 3.43815 21.946 2.74197 21.4501 2.23236C20.9543 1.73085 20.2665 1.41557 19.5067 1.41557Z" fill="black"/>
</svg>
