<svg width="48" height="49" viewBox="0 0 48 49" fill="none" xmlns="http://www.w3.org/2000/svg">
<path opacity="0.7" d="M25.0068 48.1037L24.4269 40.5957C24.3979 39.921 24.9126 39.3552 25.5867 39.3261C25.6736 39.3261 25.7606 39.3258 25.8476 39.3403L36.8506 41.2772L35.3647 37.1789C35.2415 36.8452 35.3429 36.4679 35.6184 36.243L47.6652 26.4786L44.9471 25.2091C44.5702 25.0277 44.3817 24.5922 44.5121 24.1932L46.8969 16.8594L39.953 18.3316C39.5688 18.4114 39.1774 18.2083 39.0179 17.8456L37.6697 14.6831L32.2552 20.5008C31.9363 20.8345 31.4144 20.849 31.081 20.5298C30.878 20.334 30.7837 20.0439 30.8345 19.7683L33.4439 6.28243L29.2544 8.70529C28.8557 8.93744 28.3483 8.80674 28.1163 8.40775C28.1091 8.39324 28.1019 8.37851 28.0874 8.35674L23.8326 0L19.5778 8.35674C19.3749 8.77024 18.8747 8.93763 18.4616 8.72726C18.4471 8.72 18.4253 8.71272 18.4108 8.69821L14.2213 6.27464L16.8307 19.7612C16.9177 20.211 16.6204 20.6461 16.171 20.7332C15.8956 20.7839 15.6057 20.697 15.41 20.4866L9.99543 14.6682L8.64725 17.8314C8.48778 18.1941 8.10359 18.3972 7.71218 18.3174L0.76828 16.8445L3.15302 24.179C3.28349 24.578 3.09505 25.0128 2.71814 25.1942L0 26.4637L12.0468 36.2281C12.3222 36.453 12.4237 36.8303 12.3004 37.164L10.8145 41.263L21.8175 39.3261C22.4771 39.2101 23.1077 39.6599 23.2237 40.3201C23.2382 40.4071 23.2454 40.4937 23.2382 40.5808L22.6584 48.0895H24.9633L25.0068 48.1037Z" fill="#666666"/>
</svg>
