<svg width="30" height="30" viewBox="0 0 30 30" fill="none" xmlns="http://www.w3.org/2000/svg">
<path d="M12.4854 0.883545C8.75303 0.883545 5.72656 3.91001 5.72656 7.64234C5.72656 10.6729 10.1722 15.9467 11.8525 17.8317C12.1907 18.2111 12.7802 18.2112 13.1185 17.8319C14.7997 15.9471 19.2486 10.6731 19.2486 7.64234C19.2486 3.91001 16.2178 0.883545 12.4854 0.883545ZM12.4854 12.1247C10.0413 12.1247 8.06477 10.1483 8.06477 7.70417C8.06477 5.26445 10.0413 3.28799 12.4854 3.28799C14.9207 3.28799 16.906 5.26445 16.906 7.70417C16.906 10.1483 14.9207 12.1247 12.4854 12.1247Z" fill="#CE2229"/>
<path d="M19.5781 7.82617C19.4458 8.79232 19.0091 9.88643 18.3958 11.0115V11.0159C19.7458 13.61 19.3311 16.8924 17.1605 19.0673C14.4738 21.7497 10.1061 21.7497 7.42376 19.0673C5.2929 16.9364 4.85172 13.7511 6.10023 11.1879C5.47816 10.0673 5.0149 8.97322 4.8473 8.0026C1.67527 11.8056 1.87378 17.4747 5.44288 21.0438C9.22374 24.8247 15.3561 24.8247 19.137 21.0438C22.7679 17.4173 22.9179 11.6291 19.5781 7.82617Z" fill="#CE2229"/>
<path d="M26.9342 27.3542L25.3372 28.9513C25.1122 29.1719 24.746 29.1719 24.5165 28.9513L19.443 23.8689C18.8121 24.4998 17.7886 24.5042 17.1533 23.8778C18.1548 23.3837 19.0813 22.7219 19.893 21.9101C20.718 21.0895 21.3754 20.1587 21.8562 19.1616C22.4827 19.7969 22.4827 20.8204 21.8562 21.4557L26.9342 26.5337C27.1592 26.7587 27.1592 27.1292 26.9342 27.3542Z" fill="#CE2229"/>
<path d="M12.4854 0.883545C8.75303 0.883545 5.72656 3.91001 5.72656 7.64234C5.72656 10.6729 10.1722 15.9467 11.8525 17.8317C12.1907 18.2111 12.7802 18.2112 13.1185 17.8319C14.7997 15.9471 19.2486 10.6731 19.2486 7.64234C19.2486 3.91001 16.2178 0.883545 12.4854 0.883545ZM12.4854 12.1247C10.0413 12.1247 8.06477 10.1483 8.06477 7.70417C8.06477 5.26445 10.0413 3.28799 12.4854 3.28799C14.9207 3.28799 16.906 5.26445 16.906 7.70417C16.906 10.1483 14.9207 12.1247 12.4854 12.1247Z" fill="#CE2229"/>
</svg>
