<svg width="16" height="16" viewBox="0 0 16 16" fill="none" xmlns="http://www.w3.org/2000/svg">
<g clip-path="url(#clip0_260_2222)">
<path d="M7.95203 0C4.88803 0 2.40002 2.488 2.40002 5.552C2.40002 6.08 2.47199 6.592 2.61599 7.072C2.70399 7.368 2.79201 7.66398 2.93601 7.92798C4.07201 10.016 7.95203 16 7.95203 16C7.95203 16 11.832 10.016 12.968 7.92798C13.112 7.66398 13.208 7.368 13.288 7.072C13.424 6.592 13.504 6.08 13.504 5.552C13.504 2.488 11.016 0 7.95203 0ZM7.95203 8C7.17603 8 6.48801 7.64 6.04001 7.072C5.70401 6.656 5.51199 6.128 5.51199 5.552C5.51199 4.2 6.60803 3.10398 7.96003 3.10398C9.31203 3.10398 10.408 4.2 10.408 5.552C10.408 6.128 10.208 6.656 9.88 7.072C9.432 7.632 8.74399 8 7.96799 8H7.95203Z" fill="#CE2229"/>
</g>
<defs>
<clipPath id="clip0_260_2222">
<rect width="16" height="16" fill="white"/>
</clipPath>
</defs>
</svg>
