<svg width="28" height="28" viewBox="0 0 28 28" fill="none" xmlns="http://www.w3.org/2000/svg">
<path d="M13.916 0C8.55395 0 4.19995 4.354 4.19995 9.716C4.19995 10.64 4.32589 11.536 4.57789 12.376C4.73189 12.894 4.88593 13.412 5.13793 13.874C7.12593 17.528 13.916 28 13.916 28C13.916 28 20.7059 17.528 22.6939 13.874C22.9459 13.412 23.1139 12.894 23.2539 12.376C23.4919 11.536 23.632 10.64 23.632 9.716C23.632 4.354 19.278 0 13.916 0ZM13.916 14C12.558 14 11.3539 13.37 10.5699 12.376C9.98193 11.648 9.64589 10.724 9.64589 9.716C9.64589 7.35 11.564 5.43196 13.93 5.43196C16.296 5.43196 18.214 7.35 18.214 9.716C18.214 10.724 17.8639 11.648 17.2899 12.376C16.5059 13.356 15.3019 14 13.9439 14H13.916Z" fill="white"/>
</svg>
