<svg width="419" height="116" viewBox="0 0 419 116" fill="none" xmlns="http://www.w3.org/2000/svg">
<g clip-path="url(#clip0_54_7435)">
<path d="M0 87.2803V32H20.04L27.35 64.6797H27.45L35.02 32H54.74V87.2803H41.26L42.7 43.9395H42.59L32.57 87.2803H22.07L12.37 43.9395H12.15L13.49 87.2803H0Z" fill="white"/>
<path d="M73.7199 32H59.6499V87.2803H73.7199V32Z" fill="white"/>
<path d="M79.5901 87.2803V32H93.7601V76.25H111.04V87.2803H79.5901Z" fill="white"/>
<path d="M113.49 87.2803L126.66 32H143.72L156.78 87.2803H142.49L140.57 76.5703H129.43L127.78 87.2803H113.49ZM135.24 42.0195H135.03L130.93 66.75H139.14L135.25 42.0195H135.24Z" fill="white"/>
<path d="M171.48 56.3096L171.32 56.5195L172.6 87.2803H159.22V32H173.78L184.7 62.9697H184.86L183.53 32H197.02V87.2803H182.52L171.48 56.3096Z" fill="white"/>
<path d="M216.1 32H202.03V87.2803H216.1V32Z" fill="white"/>
<g style="mix-blend-mode:screen" opacity="0.3">
<path d="M0 87.2803V142.56H20.04L27.35 109.88H27.45L35.02 142.56H54.74V87.2803H41.26L42.7 130.62H42.59L32.57 87.2803H22.07L12.37 130.62H12.15L13.49 87.2803H0Z" fill="url(#paint0_linear_54_7435)"/>
<path d="M73.7199 87.2803H59.6499V142.56H73.7199V87.2803Z" fill="url(#paint1_linear_54_7435)"/>
<path d="M79.5901 87.2803V142.56H93.7601V98.3096H111.04V87.2803H79.5901Z" fill="url(#paint2_linear_54_7435)"/>
<path d="M113.49 87.2803L126.66 142.56H143.72L156.78 87.2803H142.49L140.57 97.9902H129.43L127.78 87.2803H113.49ZM135.24 132.54H135.03L130.93 107.81H139.14L135.25 132.54H135.24Z" fill="url(#paint3_linear_54_7435)"/>
<path d="M171.48 118.25L171.32 118.04L172.6 87.2803H159.22V142.56H173.78L184.7 111.59H184.86L183.53 142.56H197.02V87.2803H182.52L171.48 118.25Z" fill="url(#paint4_linear_54_7435)"/>
<path d="M216.1 87.2803H202.03V142.56H216.1V87.2803Z" fill="url(#paint5_linear_54_7435)"/>
</g>
<g opacity="0.8">
<path d="M222.92 32.2695H229.42C232.57 32.2695 234.7 34.03 234.7 36.75C234.7 39.9 232.3 41.3301 229.32 41.3301H226.97V46.2295H222.92V32.2598V32.2695ZM226.98 38.4502H228.69C229.86 38.4502 230.66 37.9698 230.66 36.7998C230.66 35.6298 229.81 35.1504 228.69 35.1504H226.98V38.4502Z" fill="black"/>
</g>
<g opacity="0.8">
<path d="M236.68 32.2695H240.78V43.25H247.39V46.29H236.68V32.2695Z" fill="black"/>
</g>
<g opacity="0.8">
<path d="M252.72 32.2695V40.9102C252.72 42.9402 253.73 43.6299 254.96 43.6299C256.29 43.6299 257.09 42.8302 257.09 40.9102V32.2695H261.19V40.4795C261.19 45.1195 258.42 46.5596 254.85 46.5596C251.28 46.5596 248.56 45.0695 248.56 40.4795V32.2695H252.72Z" fill="black"/>
</g>
<g opacity="0.8">
<path d="M275.64 41.7002C275.64 39.5102 275.69 36.69 275.75 35.04H275.64C275.05 38.03 274.09 42.18 273.08 46.29H269.78C268.98 42.35 268.07 38.13 267.49 35.04H267.38C267.49 36.69 267.59 39.4096 267.59 41.8096V46.29H263.91V32.2695H269.83C270.52 35.0995 271.32 39.2003 271.64 41.2803H271.69C272.06 39.0403 272.97 35.3095 273.82 32.2695H279.58V46.29H275.64V41.71V41.7002Z" fill="black"/>
</g>
<g opacity="0.8">
<path d="M282.47 32.2695H289.45C292.81 32.2695 294.3 33.9196 294.3 35.8896C294.35 37.2196 293.61 38.3997 292.38 38.9297C293.77 39.3597 294.67 40.6401 294.67 42.0801C294.67 44.3701 292.96 46.2402 289.45 46.2402H282.41V32.2695H282.46H282.47ZM288.76 37.6504C289.88 37.6504 290.36 37.0603 290.36 36.3203C290.36 35.4703 289.72 35.04 288.76 35.04H286.47V37.71L288.76 37.6602V37.6504ZM286.46 43.5195H288.54C289.87 43.5195 290.46 42.9299 290.46 41.9199C290.46 41.0699 289.93 40.4297 288.59 40.4297H286.4V43.5195H286.45H286.46Z" fill="black"/>
</g>
<g opacity="0.8">
<path d="M300.8 32.2695V46.29H296.7V32.2695H300.8Z" fill="black"/>
</g>
<g opacity="0.8">
<path d="M303.74 46.29V32.2695H308.64C310.13 35.4195 312.26 39.6795 312.85 41.4395H312.9C312.74 39.9995 312.69 37.4998 312.69 35.2598V32.2695H316.42V46.29H311.73C310.56 43.73 308 38.5096 307.36 36.6396H307.31C307.47 37.9696 307.47 40.6896 307.47 43.1396V46.29H303.74Z" fill="black"/>
</g>
<g opacity="0.8">
<path d="M332.31 46.29H329.54C329.43 45.86 329.33 45.4398 329.27 45.0098C328.47 46.0798 327.14 46.5596 325.17 46.5596C320.91 46.5596 318.72 43.3099 318.72 39.4199C318.72 35.0999 321.23 32.0098 325.92 32.0098C330.13 32.0098 332.1 34.4098 332.37 36.5898H328.32C328.11 35.8398 327.57 34.9395 325.92 34.9395C323.57 34.9395 322.99 37.0696 322.99 39.3096C322.99 41.5496 323.68 43.6797 325.92 43.6797C328 43.6797 328.37 42.1895 328.37 41.2295V41.1201H325.81V38.2402H332.37V46.29H332.32H332.31Z" fill="black"/>
</g>
<g opacity="0.8">
<path d="M222.92 52.6299H227.02V57.8496H231.28V52.6299H235.38V66.6504H231.33V60.8896H227.07V66.6504H222.97L222.92 52.6299Z" fill="black"/>
</g>
<g opacity="0.8">
<path d="M248.67 60.9502H242.27V63.5596H249.41V66.6504H238.32V52.6299H248.93V55.6699H242.27V57.9102H248.67V60.9502Z" fill="black"/>
</g>
<g opacity="0.8">
<path d="M255.28 63.8799L254.48 66.6504H250.48L254.9 52.6299H260.23L264.81 66.6504H260.55L259.7 63.9297L255.28 63.8799ZM258.96 60.8398C258.32 58.6498 257.73 56.6798 257.47 55.2998H257.42C257.1 56.7898 256.57 58.8198 255.98 60.8398H258.97H258.96Z" fill="black"/>
</g>
<g opacity="0.8">
<path d="M267.7 55.6699H263.7V52.6299H275.8V55.6699H271.8V66.6504H267.7V55.6699Z" fill="black"/>
</g>
<g opacity="0.8">
<path d="M281.61 52.6299V66.6504H277.51V52.6299H281.61Z" fill="black"/>
</g>
<g opacity="0.8">
<path d="M284.55 66.6504V52.6299H289.51C291 55.7799 293.13 60.0398 293.72 61.7998H293.77C293.61 60.3598 293.56 57.8601 293.56 55.6201V52.6299H297.29V66.6504H292.6C291.43 64.0904 288.87 58.87 288.23 57H288.18C288.34 58.33 288.34 61.05 288.34 63.5V66.6504H284.56H284.55Z" fill="black"/>
</g>
<g opacity="0.8">
<path d="M313.06 66.6504H310.29C310.18 66.2204 310.08 65.8001 310.02 65.3701C309.22 66.4401 307.89 66.9199 305.92 66.9199C301.66 66.9199 299.47 63.6703 299.47 59.7803C299.47 55.4603 301.98 52.3701 306.67 52.3701C310.88 52.3701 312.85 54.7702 313.12 56.9502H309.07C308.86 56.2002 308.32 55.2402 306.67 55.2402C304.32 55.2402 303.74 57.3702 303.74 59.6602C303.74 61.9502 304.43 63.9795 306.67 63.9795C308.75 63.9795 309.12 62.4903 309.12 61.5303V61.4199H306.56V58.54H313.12L313.07 66.6396L313.06 66.6504Z" fill="black"/>
</g>
<g opacity="0.8">
<path d="M331.45 62.8701L333.96 59.6201H330.23L329.27 60.8496L327.56 59.25C329.37 58.34 330.23 57.3796 330.23 55.8896C330.23 53.9196 328.58 52.3203 325.7 52.3203C322.82 52.3203 321.12 54.03 321.12 56.21C321.17 57.28 321.65 58.29 322.45 59.04C320.64 59.95 319.68 61.0697 319.68 62.7197C319.68 64.9597 321.44 66.8203 324.8 66.8203C326.4 66.8703 328 66.3901 329.22 65.3301L330.55 66.5596H335.51L331.46 62.8799L331.45 62.8701ZM325.8 54.7598C326.39 54.7598 326.87 55.2401 326.87 55.8301V55.9902C326.82 56.6802 326.44 57.3202 325.8 57.7002C325.16 57.1102 324.73 56.6295 324.73 55.9395C324.68 55.3495 325.05 54.8195 325.64 54.7695C325.69 54.7695 325.75 54.7195 325.8 54.7695V54.7598ZM325.32 64.04C323.88 64.04 323.35 63.1901 323.35 62.3301C323.35 61.6901 323.62 61.0995 324.15 60.7295L327.03 63.4004C326.6 63.8304 325.96 64.04 325.32 64.04Z" fill="black"/>
</g>
<g opacity="0.8">
<path d="M226.39 84.2402L225.59 86.96H221.59L226.01 72.9395H231.34L235.92 86.96H231.66L230.81 84.2402H226.39ZM230.07 81.2002C229.43 79.0102 228.84 77.0402 228.58 75.6602H228.53C228.16 77.1502 227.62 79.1802 227.09 81.2002H230.08H230.07Z" fill="black"/>
</g>
<g opacity="0.8">
<path d="M241.53 72.9395V86.96H237.43V72.9395H241.53Z" fill="black"/>
</g>
<g opacity="0.8">
<path d="M248.4 81.6797V86.96H244.4V72.9395H251.33C254.63 72.9395 256.23 74.7001 256.23 76.8301C256.28 78.2701 255.43 79.5999 254.1 80.1299C255.01 80.4499 255.91 81.36 255.91 83.75V84.3398C255.91 85.1898 255.96 86.1002 256.07 86.9502H252.18C251.91 85.9402 251.81 84.9202 251.86 83.9102V83.54C251.86 82.31 251.59 81.6699 249.78 81.6699H248.39L248.4 81.6797ZM248.4 78.7998H250.32C251.71 78.7998 252.19 78.2096 252.19 77.3096C252.19 76.4096 251.6 75.8203 250.32 75.8203H248.4V78.8096V78.7998Z" fill="black"/>
</g>
<g opacity="0.8">
<path d="M275.7 82.3799C275.17 85.3099 273.03 87.2295 269.2 87.2295C264.62 87.2295 262.38 84.1398 262.38 80.0898C262.38 76.0398 264.57 72.7295 269.36 72.7295C273.46 72.7295 275.33 75.1303 275.65 77.5303H271.6C271.49 76.3603 270.48 75.5004 269.31 75.6104C267.28 75.6104 266.64 77.5295 266.64 79.9795C266.64 82.2195 267.23 84.4004 269.36 84.4004C271.01 84.4004 271.44 83.2297 271.65 82.4297L275.7 82.3799Z" fill="black"/>
</g>
<g opacity="0.8">
<path d="M291.47 79.9795C291.47 83.9195 289.07 87.2803 284.27 87.2803C279.47 87.2803 277.29 83.9795 277.29 79.9795C277.29 75.9795 279.8 72.6797 284.49 72.6797C288.91 72.6797 291.47 75.7695 291.47 79.9795ZM281.51 79.9199C281.51 82.4799 282.36 84.29 284.39 84.29C286.52 84.29 287.22 82.3703 287.22 80.0303C287.22 77.4703 286.47 75.71 284.34 75.71C282.37 75.66 281.51 77.3099 281.51 79.9199Z" fill="black"/>
</g>
<g opacity="0.8">
<path d="M293.71 86.96V72.9395H298.61C300.1 76.0895 302.23 80.3504 302.82 82.1104H302.87C302.71 80.6704 302.71 78.1697 302.71 75.9297V72.9395H306.44V86.96H301.75C300.58 84.4 298.02 79.1796 297.38 77.3096H297.33C297.44 78.6396 297.49 81.3596 297.49 83.8096V86.96H293.71Z" fill="black"/>
</g>
<g opacity="0.8">
<path d="M309.33 72.9395H315.35C319.83 72.9395 322.39 75.7698 322.39 79.7598C322.39 83.7498 319.88 86.9004 315.3 86.9004H309.33V72.9297V72.9395ZM313.49 83.9795H315.09C317.33 83.9795 318.24 82.4295 318.24 79.7695C318.24 77.4795 317.39 75.8799 315.15 75.8799H313.55L313.5 83.9795H313.49Z" fill="black"/>
</g>
<g opacity="0.8">
<path d="M328.79 72.9395V86.96H324.69V72.9395H328.79Z" fill="black"/>
</g>
<g opacity="0.8">
<path d="M334.6 76.0303H330.6V72.9902H342.7V76.0303H338.7V87.0098H334.6V76.0303Z" fill="black"/>
</g>
<g opacity="0.8">
<path d="M348.51 72.9395V86.96H344.41V72.9395H348.51Z" fill="black"/>
</g>
<g opacity="0.8">
<path d="M364.98 79.9791C364.98 83.9191 362.58 87.2799 357.78 87.2799C352.98 87.2799 350.8 83.9799 350.8 80.0299C350.8 76.0799 353.31 72.7291 358 72.7291C362.42 72.6791 364.98 75.7691 364.98 79.9791ZM355.02 79.9195C355.02 82.4795 355.87 84.2897 357.9 84.2897C360.03 84.2897 360.73 82.3699 360.73 80.0299C360.73 77.4699 359.98 75.7096 357.85 75.7096C355.88 75.6596 355.02 77.3095 355.02 79.9195Z" fill="black"/>
</g>
<g opacity="0.8">
<path d="M367.28 86.96V72.9395H372.18C373.67 76.0895 375.8 80.3504 376.39 82.1104H376.44C376.28 80.6704 376.23 78.1697 376.23 75.9297V72.9395H379.96V86.96H375.27C374.1 84.4 371.54 79.1796 370.9 77.3096H370.85C371.01 78.6396 371.01 81.3596 371.01 83.8096V86.96H367.28Z" fill="black"/>
</g>
<g opacity="0.8">
<path d="M387 72.9395V86.96H382.9V72.9395H387Z" fill="black"/>
</g>
<g opacity="0.8">
<path d="M389.88 86.96V72.9395H394.78C396.27 76.0895 398.4 80.3504 398.99 82.1104H399.04C398.88 80.6704 398.83 78.1697 398.83 75.9297V72.9395H402.56V86.96H397.87C396.7 84.4 394.14 79.1796 393.5 77.3096H393.45C393.61 78.6396 393.61 81.3596 393.61 83.8096V86.96H389.88Z" fill="black"/>
</g>
<g opacity="0.8">
<path d="M418.45 86.96H415.68C415.57 86.53 415.47 86.1097 415.41 85.6797C414.61 86.7497 413.28 87.2295 411.31 87.2295C407.05 87.2295 404.86 83.9798 404.86 80.0898C404.86 75.7698 407.37 72.6797 412.06 72.6797C416.27 72.6797 418.24 75.0798 418.51 77.2598H414.46C414.25 76.5098 413.71 75.6104 412.06 75.6104C409.71 75.6104 409.13 77.7395 409.13 79.9795C409.13 82.2195 409.82 84.3496 412.06 84.3496C414.14 84.3496 414.51 82.8604 414.51 81.9004V81.79H411.95V78.9102H418.51L418.46 86.96H418.45Z" fill="black"/>
</g>
</g>
<defs>
<linearGradient id="paint0_linear_54_7435" x1="27.37" y1="162.789" x2="27.37" y2="54.9607" gradientUnits="userSpaceOnUse">
<stop stop-color="white" stop-opacity="0"/>
<stop offset="1" stop-color="#EA0029"/>
</linearGradient>
<linearGradient id="paint1_linear_54_7435" x1="66.6899" y1="162.789" x2="66.6899" y2="54.9607" gradientUnits="userSpaceOnUse">
<stop stop-color="white" stop-opacity="0"/>
<stop offset="1" stop-color="#EA0029"/>
</linearGradient>
<linearGradient id="paint2_linear_54_7435" x1="95.3101" y1="162.789" x2="95.3101" y2="54.9607" gradientUnits="userSpaceOnUse">
<stop stop-color="white" stop-opacity="0"/>
<stop offset="1" stop-color="#EA0029"/>
</linearGradient>
<linearGradient id="paint3_linear_54_7435" x1="135.13" y1="162.789" x2="135.13" y2="54.9607" gradientUnits="userSpaceOnUse">
<stop stop-color="white" stop-opacity="0"/>
<stop offset="1" stop-color="#EA0029"/>
</linearGradient>
<linearGradient id="paint4_linear_54_7435" x1="178.12" y1="162.789" x2="178.12" y2="54.9607" gradientUnits="userSpaceOnUse">
<stop stop-color="white" stop-opacity="0"/>
<stop offset="1" stop-color="#EA0029"/>
</linearGradient>
<linearGradient id="paint5_linear_54_7435" x1="209.06" y1="162.789" x2="209.06" y2="54.9607" gradientUnits="userSpaceOnUse">
<stop stop-color="white" stop-opacity="0"/>
<stop offset="1" stop-color="#EA0029"/>
</linearGradient>
<clipPath id="clip0_54_7435">
<rect width="419" height="116" fill="white"/>
</clipPath>
</defs>
</svg>
