<svg width="20" height="20" viewBox="0 0 20 20" fill="none" xmlns="http://www.w3.org/2000/svg">
<g clip-path="url(#clip0_291_1408)">
<path d="M19.5264 17.1063L14.9282 12.5078C15.7095 11.264 16.1629 9.79397 16.1629 8.2163C16.1629 3.75287 12.5446 0.13501 8.08129 0.13501C3.61803 0.13501 0 3.75287 0 8.2163C0 12.6799 3.61786 16.2974 8.08129 16.2974C9.7982 16.2974 11.3885 15.7606 12.6971 14.8486L17.2405 19.3923C17.5562 19.7077 17.9701 19.8648 18.3834 19.8648C18.7973 19.8648 19.2107 19.7077 19.5269 19.3923C20.1578 18.7607 20.1578 17.7377 19.5264 17.1063ZM8.08129 13.6792C5.06453 13.6792 2.61873 11.2336 2.61873 8.21664C2.61873 5.19971 5.06453 2.7539 8.08129 2.7539C11.0982 2.7539 13.5439 5.19971 13.5439 8.21664C13.5439 11.2336 11.0982 13.6792 8.08129 13.6792Z" fill="white"/>
</g>
<defs>
<clipPath id="clip0_291_1408">
<rect width="20" height="20" fill="white"/>
</clipPath>
</defs>
</svg>
