<?xml version="1.0" encoding="UTF-8"?>
<svg id="Layer_1" data-name="Layer 1" xmlns="http://www.w3.org/2000/svg" viewBox="0 0 199.33 26.33">
  <g>
    <polygon points="0 26.33 0 0 9.55 0 13.02 15.56 13.08 15.56 16.68 0 26.07 0 26.07 26.33 19.65 26.33 20.34 5.69 20.29 5.69 15.51 26.33 10.51 26.33 5.89 5.69 5.79 5.69 6.42 26.33 0 26.33" fill="#fff"/>
    <rect x="28.41" width="6.7" height="26.33" fill="#fff"/>
    <polygon points="37.91 26.33 37.91 0 44.66 0 44.66 21.07 52.89 21.07 52.89 26.33 37.91 26.33" fill="#fff"/>
    <path d="M54.05,26.33L60.32,0h8.12l6.22,26.33h-6.8l-.91-5.1h-5.31l-.79,5.1h-6.8ZM64.41,4.77h-.1l-1.95,11.78h3.91l-1.85-11.78Z" fill="#fff"/>
    <polygon points="81.68 11.58 81.6 11.68 82.21 26.33 75.84 26.33 75.84 0 82.77 0 87.97 14.75 88.05 14.75 87.42 0 93.84 0 93.84 26.33 86.93 26.33 81.68 11.58" fill="#fff"/>
    <rect x="96.23" width="6.7" height="26.33" fill="#fff"/>
  </g>
  <g>
    <g opacity=".8">
      <path d="M106.18.13h3.1c1.5,0,2.51.84,2.51,2.13,0,1.5-1.14,2.18-2.56,2.18h-1.12v2.34h-1.93V.13ZM108.11,3.07h.81c.56,0,.94-.23.94-.79s-.41-.79-.94-.79h-.81v1.57Z"/>
    </g>
    <g opacity=".8">
      <path d="M112.73.13h1.95v5.23h3.15v1.45h-5.1V.13Z"/>
    </g>
    <g opacity=".8">
      <path d="M120.37.13v4.11c0,.96.48,1.29,1.07,1.29.63,0,1.02-.38,1.02-1.29V.13h1.95v3.91c0,2.21-1.32,2.89-3.02,2.89s-3-.71-3-2.89V.13h1.98Z"/>
    </g>
    <g opacity=".8">
      <path d="M131.29,4.62c0-1.04.03-2.39.05-3.17h-.05c-.28,1.42-.74,3.4-1.22,5.36h-1.57c-.38-1.88-.81-3.88-1.09-5.36h-.05c.05.79.1,2.08.1,3.22v2.13h-1.75V.13h2.82c.33,1.35.71,3.3.86,4.29h.03c.18-1.07.61-2.84,1.02-4.29h2.74v6.68h-1.88v-2.18Z"/>
    </g>
    <g opacity=".8">
      <path d="M134.54.13h3.33c1.6,0,2.31.79,2.31,1.73.03.63-.33,1.19-.91,1.45.66.2,1.09.81,1.09,1.5,0,1.09-.81,1.98-2.49,1.98h-3.35V.13h.03ZM137.53,2.69c.53,0,.76-.28.76-.63,0-.41-.3-.61-.76-.61h-1.09v1.27l1.09-.03ZM136.44,5.48h.99c.63,0,.91-.28.91-.76,0-.41-.25-.71-.89-.71h-1.04v1.47h.03Z"/>
    </g>
    <g opacity=".8">
      <path d="M143.27.13v6.68h-1.95V.13h1.95Z"/>
    </g>
    <g opacity=".8">
      <path d="M144.67,6.8V.13h2.34c.71,1.5,1.73,3.53,2.01,4.37h.03c-.08-.69-.1-1.88-.1-2.95V.13h1.78v6.68h-2.23c-.56-1.22-1.78-3.71-2.08-4.6h-.03c.08.63.08,1.93.08,3.1v1.5h-1.78Z"/>
    </g>
    <g opacity=".8">
      <path d="M158.28,6.8h-1.32c-.05-.2-.1-.41-.13-.61-.38.51-1.02.74-1.95.74-2.03,0-3.07-1.55-3.07-3.4,0-2.06,1.19-3.53,3.43-3.53,2.01,0,2.95,1.14,3.07,2.18h-1.93c-.1-.36-.36-.79-1.14-.79-1.12,0-1.4,1.02-1.4,2.08s.33,2.08,1.4,2.08c.99,0,1.17-.71,1.17-1.17v-.05h-1.22v-1.37h3.12v3.83h-.03Z"/>
    </g>
    <g opacity=".8">
      <path d="M106.18,9.83h1.95v2.49h2.03v-2.49h1.95v6.68h-1.93v-2.74h-2.03v2.74h-1.95l-.03-6.68Z"/>
    </g>
    <g opacity=".8">
      <path d="M118.44,13.79h-3.05v1.24h3.4v1.47h-5.28v-6.68h5.05v1.45h-3.17v1.07h3.05v1.45Z"/>
    </g>
    <g opacity=".8">
      <path d="M121.59,15.18l-.38,1.32h-1.9l2.11-6.68h2.54l2.18,6.68h-2.03l-.41-1.29-2.11-.03ZM123.34,13.74c-.3-1.04-.58-1.98-.71-2.64h-.03c-.15.71-.41,1.68-.69,2.64h1.42Z"/>
    </g>
    <g opacity=".8">
      <path d="M127.5,11.27h-1.9v-1.45h5.76v1.45h-1.9v5.23h-1.95v-5.23Z"/>
    </g>
    <g opacity=".8">
      <path d="M134.13,9.83v6.68h-1.95v-6.68h1.95Z"/>
    </g>
    <g opacity=".8">
      <path d="M135.53,16.5v-6.68h2.36c.71,1.5,1.73,3.53,2.01,4.37h.03c-.08-.69-.1-1.88-.1-2.95v-1.42h1.78v6.68h-2.23c-.56-1.22-1.78-3.71-2.08-4.6h-.03c.08.63.08,1.93.08,3.1v1.5h-1.8Z"/>
    </g>
    <g opacity=".8">
      <path d="M149.11,16.5h-1.32c-.05-.2-.1-.41-.13-.61-.38.51-1.02.74-1.95.74-2.03,0-3.07-1.55-3.07-3.4,0-2.06,1.19-3.53,3.43-3.53,2.01,0,2.95,1.14,3.07,2.18h-1.93c-.1-.36-.36-.81-1.14-.81-1.12,0-1.4,1.02-1.4,2.11s.33,2.06,1.4,2.06c.99,0,1.17-.71,1.17-1.17v-.05h-1.22v-1.37h3.12l-.03,3.86Z"/>
    </g>
    <g opacity=".8">
      <path d="M157.87,14.7l1.19-1.55h-1.78l-.46.58-.81-.76c.86-.43,1.27-.89,1.27-1.6,0-.94-.79-1.7-2.16-1.7s-2.18.81-2.18,1.85c.03.51.25.99.63,1.35-.86.43-1.32.96-1.32,1.75,0,1.07.84,1.95,2.44,1.95.76.03,1.52-.2,2.11-.71l.63.58h2.36l-1.93-1.75ZM155.18,10.84c.28,0,.51.23.51.51v.08c-.03.33-.2.63-.51.81-.3-.28-.51-.51-.51-.84-.03-.28.15-.53.43-.56.03,0,.05-.03.08,0ZM154.95,15.26c-.69,0-.94-.41-.94-.81,0-.3.13-.58.38-.76l1.37,1.27c-.2.2-.51.3-.81.3Z"/>
    </g>
    <g opacity=".8">
      <path d="M107.83,24.88l-.38,1.29h-1.9l2.11-6.68h2.54l2.18,6.68h-2.03l-.41-1.29h-2.11ZM109.58,23.43c-.3-1.04-.58-1.98-.71-2.64h-.03c-.18.71-.43,1.68-.69,2.64h1.42Z"/>
    </g>
    <g opacity=".8">
      <path d="M115.04,19.5v6.68h-1.95v-6.68h1.95Z"/>
    </g>
    <g opacity=".8">
      <path d="M118.31,23.66v2.51h-1.9v-6.68h3.3c1.57,0,2.34.84,2.34,1.85.03.69-.38,1.32-1.02,1.57.43.15.86.58.86,1.73v.28c0,.41.03.84.08,1.24h-1.85c-.13-.48-.18-.96-.15-1.45v-.18c0-.58-.13-.89-.99-.89h-.66ZM118.31,22.29h.91c.66,0,.89-.28.89-.71s-.28-.71-.89-.71h-.91v1.42Z"/>
    </g>
    <g opacity=".8">
      <path d="M131.31,23.99c-.25,1.4-1.27,2.31-3.1,2.31-2.18,0-3.25-1.47-3.25-3.4s1.04-3.5,3.33-3.5c1.95,0,2.84,1.14,3,2.29h-1.93c-.05-.56-.53-.96-1.09-.91-.96,0-1.27.91-1.27,2.08,0,1.07.28,2.11,1.29,2.11.79,0,.99-.56,1.09-.94l1.93-.03Z"/>
    </g>
    <g opacity=".8">
      <path d="M138.83,22.85c0,1.88-1.14,3.48-3.43,3.48s-3.33-1.57-3.33-3.48,1.19-3.48,3.43-3.48c2.11,0,3.33,1.47,3.33,3.48ZM134.08,22.82c0,1.22.41,2.08,1.37,2.08,1.02,0,1.35-.91,1.35-2.03,0-1.22-.36-2.06-1.37-2.06-.94-.03-1.35.76-1.35,2.01h0Z"/>
    </g>
    <g opacity=".8">
      <path d="M139.89,26.18v-6.68h2.34c.71,1.5,1.73,3.53,2.01,4.37h.03c-.08-.69-.08-1.88-.08-2.95v-1.42h1.78v6.68h-2.23c-.56-1.22-1.78-3.71-2.08-4.6h-.03c.05.63.08,1.93.08,3.1v1.5h-1.8Z"/>
    </g>
    <g opacity=".8">
      <path d="M147.33,19.5h2.87c2.13,0,3.35,1.35,3.35,3.25s-1.19,3.4-3.38,3.4h-2.84v-6.65ZM149.31,24.75h.76c1.07,0,1.5-.74,1.5-2.01,0-1.09-.41-1.85-1.47-1.85h-.76l-.03,3.86Z"/>
    </g>
    <g opacity=".8">
      <path d="M156.6,19.5v6.68h-1.95v-6.68h1.95Z"/>
    </g>
    <g opacity=".8">
      <path d="M159.37,20.97h-1.9v-1.45h5.76v1.45h-1.9v5.23h-1.95v-5.23Z"/>
    </g>
    <g opacity=".8">
      <path d="M165.99,19.5v6.68h-1.95v-6.68h1.95Z"/>
    </g>
    <g opacity=".8">
      <path d="M173.84,22.85c0,1.88-1.14,3.48-3.43,3.48s-3.33-1.57-3.33-3.45,1.19-3.48,3.43-3.48c2.11-.03,3.33,1.45,3.33,3.45ZM169.09,22.82c0,1.22.41,2.08,1.37,2.08,1.02,0,1.35-.91,1.35-2.03,0-1.22-.36-2.06-1.37-2.06-.94-.03-1.35.76-1.35,2.01Z"/>
    </g>
    <g opacity=".8">
      <path d="M174.93,26.18v-6.68h2.34c.71,1.5,1.73,3.53,2.01,4.37h.03c-.08-.69-.1-1.88-.1-2.95v-1.42h1.78v6.68h-2.23c-.56-1.22-1.78-3.71-2.08-4.6h-.03c.08.63.08,1.93.08,3.1v1.5h-1.78Z"/>
    </g>
    <g opacity=".8">
      <path d="M184.33,19.5v6.68h-1.95v-6.68h1.95Z"/>
    </g>
    <g opacity=".8">
      <path d="M185.7,26.18v-6.68h2.34c.71,1.5,1.73,3.53,2.01,4.37h.03c-.08-.69-.1-1.88-.1-2.95v-1.42h1.78v6.68h-2.23c-.56-1.22-1.78-3.71-2.08-4.6h-.03c.08.63.08,1.93.08,3.1v1.5h-1.78Z"/>
    </g>
    <g opacity=".8">
      <path d="M199.31,26.18h-1.32c-.05-.2-.1-.41-.13-.61-.38.51-1.02.74-1.95.74-2.03,0-3.07-1.55-3.07-3.4,0-2.06,1.19-3.53,3.43-3.53,2.01,0,2.95,1.14,3.07,2.18h-1.93c-.1-.36-.36-.79-1.14-.79-1.12,0-1.4,1.02-1.4,2.08s.33,2.08,1.4,2.08c.99,0,1.17-.71,1.17-1.17v-.05h-1.22v-1.37h3.12l-.03,3.83Z"/>
    </g>
  </g>
</svg>