<svg width="30" height="30" viewBox="0 0 30 30" fill="none" xmlns="http://www.w3.org/2000/svg">
<g clip-path="url(#clip0_291_1414)">
<path d="M9.21558 10.7846C9.21558 12.0688 9.51953 13.2845 9.99011 14.461C10.9117 16.7746 12.1666 18.8828 13.843 20.7357C14.7156 21.6965 15.6958 22.5297 16.9115 23.0296C17.637 23.3336 18.3919 23.4807 19.1762 23.3532C19.3527 23.3238 19.5292 23.2653 19.686 23.1771C20.1762 22.9026 20.6566 22.6179 21.137 22.3336C21.4899 22.1277 21.5977 21.7751 21.3919 21.4222C20.7154 20.2653 20.0389 19.1082 19.3624 17.9612C19.1565 17.6083 18.8037 17.5301 18.4409 17.7458C17.9605 18.0203 17.49 18.304 17.0096 18.5883C16.6371 18.804 16.3626 18.8137 16.0489 18.5098C15.7352 18.2157 15.4213 17.9027 15.1958 17.5399C14.5978 16.5792 14.0195 15.5986 13.4705 14.6084C13.2254 14.1574 13.0587 13.667 12.8627 13.1867C12.8136 13.069 12.7939 12.9321 12.7743 12.8047C12.7155 12.4027 12.8038 12.2358 13.1567 12.0397C13.6273 11.7652 14.1077 11.4911 14.5783 11.2068C14.9509 10.9813 15.0391 10.6372 14.8234 10.2647C14.1862 9.16667 13.539 8.06927 12.892 6.97125C12.7547 6.73596 12.5587 6.58902 12.2841 6.59882C12.1763 6.59882 12.0685 6.63788 11.9705 6.6869C11.4509 6.99082 10.941 7.29443 10.4312 7.59834C10.0881 7.80422 9.87242 8.1377 9.69595 8.49063C9.33321 9.21611 9.21558 9.99045 9.21558 10.7846Z" fill="black"/>
<path d="M14.9998 30C6.72541 30 0 23.2739 0 14.9995C0 6.72517 6.72541 0 14.9998 0C23.2741 0 29.9995 6.72517 29.9995 14.9995C29.9995 23.2739 23.2741 30 14.9998 30ZM14.9998 2.81379C8.2744 2.81379 2.81379 8.28396 2.81379 14.9995C2.81379 21.7151 8.2842 27.1862 14.9998 27.1862C21.7153 27.1862 27.1859 21.7151 27.1859 14.9995C27.1859 8.28396 21.7153 2.81379 14.9998 2.81379Z" fill="black"/>
</g>
<defs>
<clipPath id="clip0_291_1414">
<rect width="30" height="30" fill="white"/>
</clipPath>
</defs>
</svg>
