<svg width="49" height="50" viewBox="0 0 49 50" fill="none" xmlns="http://www.w3.org/2000/svg">
<path d="M0.942383 21.9349H1.19238L0.942383 21.9144V21.9349Z" fill="#4D4D4D"/>
<path d="M26.2324 17.0553C31.8124 17.6053 34.9424 24.1144 31.9124 28.8844C28.5624 34.2644 20.4725 33.4447 18.2525 27.4947C16.2225 22.1547 20.6024 16.4153 26.2324 17.0553ZM24.6024 20.9547C21.9424 21.4847 20.6724 24.8648 22.3224 27.0348C24.2324 29.7148 28.4925 28.8146 29.1825 25.5846C29.8225 22.9046 27.2624 20.3147 24.6124 20.9547H24.6024Z" fill="#4D4D4D"/>
<path d="M13.9224 30.2045C12.8924 28.0445 11.3524 26.1743 9.43243 24.7543C15.8824 19.9743 17.2724 10.8251 12.5324 4.30505C12.5024 4.26505 12.4724 4.22494 12.4424 4.18494C12.4224 4.16494 12.3524 4.0649 12.2124 3.8949C12.0324 4.0049 11.9324 4.07435 11.9124 4.08435C10.5324 4.98435 9.24244 6.02494 8.06244 7.18494C8.04244 7.20494 7.96239 7.27443 7.82239 7.41443C7.93239 7.57443 8.00239 7.66494 8.01239 7.68494C10.9024 11.6949 10.0224 17.3042 6.05243 20.2142C4.64243 21.2442 2.96241 21.8442 1.22241 21.9242H0.922422C0.902422 22.1242 0.892393 22.245 0.892393 22.265C0.722393 23.915 0.722393 25.5847 0.892393 27.2347C0.892393 27.2547 0.912422 27.3648 0.922422 27.5648H1.28241C1.28241 27.5648 1.2824 27.5744 1.2724 27.5844C1.2724 27.5844 1.25243 27.5844 1.24243 27.5844C6.14243 27.8043 9.93241 31.9947 9.72241 36.9447C9.64241 38.7047 9.05241 40.3946 8.03241 41.8246C8.02241 41.8446 7.9524 41.9341 7.8424 42.0941C7.9824 42.2341 8.0624 42.3046 8.0824 42.3246C9.26239 43.4846 10.5524 44.5242 11.9324 45.4242C11.9524 45.4342 12.0524 45.5046 12.2324 45.6146C12.3624 45.4446 12.4324 45.3446 12.4424 45.3246C15.6924 40.9546 16.2624 35.1245 13.9024 30.2045H13.9224Z" fill="#4D4D4D" stroke="black" stroke-width="1.53" stroke-linejoin="round"/>
<path d="M39.4323 31.9847C34.5723 32.8447 30.5223 36.2149 28.7523 40.8549C25.1623 37.4449 20.0623 36.1943 15.3123 37.5443C15.1623 39.8043 14.4923 41.9947 13.3523 43.9447C17.3523 40.7247 23.1723 41.3844 26.3623 45.4144C27.1423 46.4044 27.7123 47.5443 28.0523 48.7543C29.6423 48.5543 32.7723 47.6544 32.7823 47.6644C31.8823 42.5844 35.2223 37.7248 40.2623 36.8148C41.4823 36.5948 42.7423 36.6247 43.9623 36.9047C42.1023 35.6347 40.5523 33.9547 39.4423 31.9847H39.4323Z" fill="#4D4D4D" stroke="black" stroke-width="1.53" stroke-linejoin="round"/>
<path d="M32.8623 5.58435C32.5823 4.35435 32.5523 3.07435 32.7823 1.83435C31.3023 1.34435 29.7723 0.984546 28.2223 0.784546C28.2023 0.784546 28.0923 0.765015 28.0623 0.765015C28.0623 0.765015 28.0623 0.765015 28.0523 0.765015C28.0523 0.785015 28.0523 0.814351 28.0423 0.834351C26.6523 5.76435 21.5823 8.65455 16.6823 7.28455C15.4723 6.95455 14.3523 6.37435 13.3723 5.58435C14.5123 7.53435 15.1823 9.72474 15.3323 11.9847C20.0723 13.3447 25.1723 12.0842 28.7723 8.67419C30.5423 13.3242 34.6023 16.6843 39.4523 17.5443C40.5623 15.5743 42.1023 13.8942 43.9723 12.6342C38.9923 13.7842 34.0223 10.6449 32.8823 5.60486L32.8623 5.58435Z" fill="#4D4D4D" stroke="black" stroke-width="1.53" stroke-linejoin="round"/>
<path d="M47.8124 16.8646C47.8124 16.8646 47.9324 16.8045 48.1024 16.7045C48.0324 16.5145 47.9924 16.4149 47.9924 16.3949C47.4324 14.8349 46.7124 13.3344 45.8524 11.9144C45.8424 11.8944 45.7824 11.7949 45.6624 11.6049C45.4724 11.7049 45.3724 11.7648 45.3424 11.7748C38.2424 15.4948 35.4724 24.3245 39.1624 31.4945C40.5324 34.1645 42.6924 36.3447 45.3424 37.7347C45.3624 37.7347 45.4624 37.8047 45.6624 37.9047C45.7724 37.7247 45.8324 37.6149 45.8524 37.6049C46.7124 36.1949 47.4324 34.6942 47.9824 33.1342C47.9824 33.1142 48.0324 33.0048 48.0924 32.8148C47.9224 32.7148 47.8224 32.6647 47.8024 32.6547C44.9224 31.0847 43.1424 28.0543 43.1424 24.7543C43.1424 21.4543 44.9324 18.4246 47.8024 16.8646H47.8124Z" fill="#4D4D4D" stroke="black" stroke-width="1.53" stroke-linejoin="round"/>
</svg>
